<svg width="48" height="48" viewBox="0 0 48 48" fill="none" xmlns="http://www.w3.org/2000/svg">
<rect width="48" height="48" rx="6" fill="#B4B7BD"/>
<path d="M27.2 22.95L22.55 18.3C22.7833 18.2 23.0208 18.125 23.2625 18.075C23.5042 18.025 23.75 18 24 18C24.9833 18 25.8125 18.3375 26.4875 19.0125C27.1625 19.6875 27.5 20.5167 27.5 21.5C27.5 21.75 27.475 21.9958 27.425 22.2375C27.375 22.4792 27.3 22.7167 27.2 22.95ZM17.85 29.1C18.7 28.45 19.65 27.9375 20.7 27.5625C21.75 27.1875 22.85 27 24 27C24.3 27 24.5875 27.0125 24.8625 27.0375C25.1375 27.0625 25.425 27.1 25.725 27.15L23.525 24.95C22.7417 24.85 22.0708 24.5208 21.5125 23.9625C20.9542 23.4042 20.625 22.7333 20.525 21.95L17.675 19.1C17.1417 19.7833 16.7292 20.5375 16.4375 21.3625C16.1458 22.1875 16 23.0667 16 24C16 24.9833 16.1625 25.9083 16.4875 26.775C16.8125 27.6417 17.2667 28.4167 17.85 29.1ZM30.3 28.9C30.8333 28.2167 31.25 27.4625 31.55 26.6375C31.85 25.8125 32 24.9333 32 24C32 21.7833 31.2208 19.8958 29.6625 18.3375C28.1042 16.7792 26.2167 16 24 16C23.0667 16 22.1875 16.15 21.3625 16.45C20.5375 16.75 19.7833 17.1667 19.1 17.7L30.3 28.9ZM24 34C22.6333 34 21.3417 33.7375 20.125 33.2125C18.9083 32.6875 17.8458 31.9708 16.9375 31.0625C16.0292 30.1542 15.3125 29.0917 14.7875 27.875C14.2625 26.6583 14 25.3667 14 24C14 22.6167 14.2625 21.3208 14.7875 20.1125C15.3125 18.9042 16.0292 17.8458 16.9375 16.9375C17.8458 16.0292 18.9083 15.3125 20.125 14.7875C21.3417 14.2625 22.6333 14 24 14C25.3833 14 26.6792 14.2625 27.8875 14.7875C29.0958 15.3125 30.1542 16.0292 31.0625 16.9375C31.9708 17.8458 32.6875 18.9042 33.2125 20.1125C33.7375 21.3208 34 22.6167 34 24C34 25.3667 33.7375 26.6583 33.2125 27.875C32.6875 29.0917 31.9708 30.1542 31.0625 31.0625C30.1542 31.9708 29.0958 32.6875 27.8875 33.2125C26.6792 33.7375 25.3833 34 24 34ZM24 32C24.8833 32 25.7167 31.8708 26.5 31.6125C27.2833 31.3542 28 30.9833 28.65 30.5C28 30.0167 27.2833 29.6458 26.5 29.3875C25.7167 29.1292 24.8833 29 24 29C23.1167 29 22.2833 29.1292 21.5 29.3875C20.7167 29.6458 20 30.0167 19.35 30.5C20 30.9833 20.7167 31.3542 21.5 31.6125C22.2833 31.8708 23.1167 32 24 32Z" fill="white"/>
</svg>
