<svg width="48" height="48" viewBox="0 0 48 48" fill="none" xmlns="http://www.w3.org/2000/svg">
<rect width="48" height="48" rx="6" fill="#28C76F"/>
<path d="M26.9094 23.144C27.7377 23.1517 28.4148 22.4864 28.4216 21.658C28.4283 20.8296 27.7623 20.1518 26.9339 20.1441C26.1055 20.1364 25.4285 20.8017 25.4217 21.6301C25.4149 22.4585 26.081 23.1363 26.9094 23.144Z" fill="white"/>
<path d="M19.9096 23.0788C20.738 23.0865 21.415 22.4212 21.4218 21.5928C21.4286 20.7644 20.7625 20.0866 19.9341 20.0789C19.1057 20.0712 18.4287 20.7365 18.4219 21.5649C18.4152 22.3933 19.0812 23.0711 19.9096 23.0788Z" fill="white"/>
<path d="M23.3686 28.1112C21.8886 28.0974 20.6253 27.2756 19.9351 26.0791L18.2651 26.0636C19.0483 28.121 21.0264 29.5894 23.3563 29.6111C25.6862 29.6328 27.688 28.2014 28.5047 26.1589L26.8348 26.1433C26.1251 27.3268 24.8485 28.1249 23.3686 28.1112ZM23.4731 14.1115C17.9533 14.0602 13.4469 18.4984 13.4017 24.0182C13.3565 29.538 17.7897 34.0595 23.3095 34.1109C28.8392 34.1623 33.3557 29.7242 33.4008 24.2044C33.446 18.6846 29.0028 14.163 23.4731 14.1115ZM23.3358 32.111C18.916 32.0699 15.3655 28.4567 15.4016 24.0368C15.4378 19.617 19.0469 16.0704 23.4667 16.1116C27.8865 16.1527 31.4371 19.7659 31.4009 24.1858C31.3648 28.6056 27.7556 32.1522 23.3358 32.111Z" fill="white"/>
</svg>
