<svg width="48" height="48" viewBox="0 0 48 48" fill="none" xmlns="http://www.w3.org/2000/svg">
<rect width="48" height="48" rx="5" fill="#FFAA48"/>
<g clip-path="url(#clip0_816_50)">
<path d="M34.0452 23.2276H30.435C30.5208 22.9858 30.5679 22.7258 30.5679 22.4549V13.9549C30.5679 12.6767 29.528 11.6367 28.2497 11.6367H19.7497C18.4715 11.6367 17.4316 12.6767 17.4316 13.9549V22.4549C17.4316 22.7258 17.4787 22.9858 17.5645 23.2276H13.9543C12.6761 23.2276 11.6361 24.2676 11.6361 25.5458V34.0458C11.6361 35.324 12.6761 36.364 13.9543 36.364H22.4543C23.0476 36.364 23.5893 36.1397 23.9997 35.7718C24.4102 36.1397 24.9519 36.364 25.5452 36.364H34.0452C35.3235 36.364 36.3634 35.324 36.3634 34.0458V25.5458C36.3634 24.2676 35.3235 23.2276 34.0452 23.2276ZM18.977 22.4549V13.9549C18.977 13.5288 19.3237 13.1822 19.7497 13.1822H28.2497C28.6758 13.1822 29.0225 13.5288 29.0225 13.9549V22.4549C29.0225 22.881 28.6758 23.2276 28.2497 23.2276C27.4717 23.2276 20.7894 23.2276 19.7497 23.2276C19.3237 23.2276 18.977 22.881 18.977 22.4549ZM22.4543 34.8185H13.9543C13.5282 34.8185 13.1816 34.4719 13.1816 34.0458V25.5458C13.1816 25.1197 13.5282 24.7731 13.9543 24.7731H22.4543C22.8804 24.7731 23.227 25.1197 23.227 25.5458V34.0458C23.227 34.4719 22.8804 34.8185 22.4543 34.8185ZM34.8179 34.0458C34.8179 34.4719 34.4713 34.8185 34.0452 34.8185H25.5452C25.1191 34.8185 24.7725 34.4719 24.7725 34.0458V25.5458C24.7725 25.1197 25.1191 24.7731 25.5452 24.7731H34.0452C34.4713 24.7731 34.8179 25.1197 34.8179 25.5458V34.0458Z" fill="white"/>
<path d="M29.9883 26.705H28.4429C28.0161 26.705 27.6702 27.0509 27.6702 27.4777C27.6702 27.9044 28.0161 28.2504 28.4429 28.2504H29.9883C30.2014 28.2504 30.3747 28.4237 30.3747 28.6368C30.3747 28.8498 30.2014 29.0231 29.9883 29.0231H29.2156C28.7888 29.0231 28.4429 29.3691 28.4429 29.7959C28.4429 30.2226 28.7888 30.5686 29.2156 30.5686H29.9883C30.2014 30.5686 30.3747 30.7419 30.3747 30.955C30.3747 31.168 30.2014 31.3413 29.9883 31.3413H28.4429C28.0161 31.3413 27.6702 31.6873 27.6702 32.114C27.6702 32.5408 28.0161 32.8868 28.4429 32.8868H29.9883C31.5854 32.8868 32.4806 31.0556 31.5327 29.7959C32.4817 28.5346 31.5839 26.705 29.9883 26.705Z" fill="white"/>
<path d="M20.3293 28.83C20.3293 27.6582 19.3761 26.705 18.2043 26.705C17.0326 26.705 16.0793 27.6582 16.0793 28.83C16.0793 29.2567 16.4253 29.6027 16.8521 29.6027C17.2788 29.6027 17.6248 29.2567 17.6248 28.83C17.6248 28.5104 17.8848 28.2504 18.2043 28.2504C18.5239 28.2504 18.7839 28.5104 18.7839 28.83C18.7839 29.1858 18.611 29.5217 18.3215 29.7285L16.4029 31.0989C16.1998 31.2439 16.0793 31.4781 16.0793 31.7277V32.114C16.0793 32.5408 16.4253 32.8868 16.8521 32.8868H19.5566C19.9834 32.8868 20.3293 32.5408 20.3293 32.114C20.3293 31.6873 19.9834 31.3413 19.5566 31.3413H18.7225L19.2198 30.9861C19.9145 30.4898 20.3293 29.6838 20.3293 28.83Z" fill="white"/>
<path d="M23.6134 16.6595V20.5231C23.6134 20.9498 23.9594 21.2958 24.3862 21.2958C24.8129 21.2958 25.1589 20.9498 25.1589 20.5231V15.8867C25.1589 15.46 24.8129 15.114 24.3862 15.114H23.6134C23.1867 15.114 22.8407 15.46 22.8407 15.8867C22.8407 16.3135 23.1867 16.6595 23.6134 16.6595Z" fill="white"/>
</g>
<defs>
<clipPath id="clip0_816_50">
<rect width="24.7273" height="24.7273" fill="white" transform="translate(11.6361 11.6367)"/>
</clipPath>
</defs>
</svg>
