<svg width="26" height="26" viewBox="0 0 26 26" fill="none" xmlns="http://www.w3.org/2000/svg">
<path d="M12.9936 22.2083C14.4965 22.2083 15.776 21.6823 16.8323 20.6303C17.8885 19.5783 18.4167 18.3009 18.4167 16.798C18.4167 15.2951 17.8907 14.0156 16.8386 12.9593C15.7867 11.9031 14.5092 11.375 13.0064 11.375C11.5035 11.375 10.2239 11.901 9.1677 12.953C8.11145 14.005 7.58332 15.2824 7.58332 16.7853C7.58332 18.2881 8.10933 19.5677 9.16133 20.6239C10.2133 21.6802 11.4908 22.2083 12.9936 22.2083ZM9.37082 10.752C9.87638 10.4451 10.418 10.2059 10.9958 10.0343C11.5736 9.86281 12.1785 9.76802 12.8104 9.74996L9.83124 3.79163H5.87707L9.37082 10.752ZM16.6292 10.752L20.1229 3.79163H16.1687L13.9208 8.31454L14.7333 9.93954C15.0764 10.0298 15.4059 10.1427 15.7219 10.2781C16.0378 10.4135 16.3403 10.5715 16.6292 10.752ZM7.39374 21.0437C6.94235 20.4479 6.59027 19.7934 6.33749 19.0802C6.08471 18.367 5.95832 17.6041 5.95832 16.7916C5.95832 15.9791 6.08471 15.2163 6.33749 14.5031C6.59027 13.7899 6.94235 13.1354 7.39374 12.5395C6.36457 12.7201 5.50693 13.2031 4.82082 13.9885C4.13471 14.7739 3.79166 15.7083 3.79166 16.7916C3.79166 17.875 4.13471 18.8093 4.82082 19.5948C5.50693 20.3802 6.36457 20.8632 7.39374 21.0437ZM18.6062 21.0437C19.6354 20.8632 20.493 20.3802 21.1792 19.5948C21.8653 18.8093 22.2083 17.875 22.2083 16.7916C22.2083 15.7083 21.8653 14.7739 21.1792 13.9885C20.493 13.2031 19.6354 12.7201 18.6062 12.5395C19.0576 13.1354 19.4097 13.7899 19.6625 14.5031C19.9153 15.2163 20.0417 15.9791 20.0417 16.7916C20.0417 17.6041 19.9153 18.367 19.6625 19.0802C19.4097 19.7934 19.0576 20.4479 18.6062 21.0437ZM13 23.8333C12.2778 23.8333 11.5871 23.7295 10.9281 23.5218C10.2691 23.3142 9.65971 23.0298 9.09999 22.6687C8.93749 22.7048 8.77499 22.7274 8.61249 22.7364C8.44999 22.7454 8.27846 22.75 8.09791 22.75C6.45485 22.75 5.05555 22.1722 3.89999 21.0166C2.74443 19.8611 2.16666 18.4618 2.16666 16.8187C2.16666 15.2479 2.69027 13.9027 3.73749 12.7833C4.78471 11.6638 6.07568 11.0409 7.61041 10.9145L3.24999 2.16663H10.8333L13 6.49996L15.1667 2.16663H22.75L18.4167 10.8604C19.9514 11.0048 21.2378 11.6368 22.276 12.7562C23.3142 13.8757 23.8333 15.2208 23.8333 16.7916C23.8333 18.4527 23.2555 19.8611 22.1 21.0166C20.9444 22.1722 19.5361 22.75 17.875 22.75C17.7125 22.75 17.5455 22.7454 17.3739 22.7364C17.2024 22.7274 17.0354 22.7048 16.8729 22.6687C16.3132 23.0298 15.7083 23.3142 15.0583 23.5218C14.4083 23.7295 13.7222 23.8333 13 23.8333ZM10.9958 19.7708L11.7542 17.3062L9.74999 15.8708H12.2146L13 13.2708L13.7854 15.8708H16.25L14.2458 17.3062L15.0042 19.7708L13 18.2541L10.9958 19.7708Z" fill="#7367F0"/>
</svg>
