<svg width="50" height="17" viewBox="0 0 50 17" fill="none" xmlns="http://www.w3.org/2000/svg">
<mask id="mask0_1389_649" style="mask-type:luminance" maskUnits="userSpaceOnUse" x="0" y="0" width="26" height="17">
<path d="M26 0.915375H0V16.0846H26V0.915375Z" fill="white"/>
</mask>
<g mask="url(#mask0_1389_649)">
<mask id="mask1_1389_649" style="mask-type:luminance" maskUnits="userSpaceOnUse" x="0" y="0" width="26" height="17">
<path d="M26 0.915375H0V16.0846H26V0.915375Z" fill="white"/>
</mask>
<g mask="url(#mask1_1389_649)">
<path d="M26 0.915375H0V16.0846H26V0.915375Z" fill="#B5002A"/>
<path d="M26 4.70383H0V12.2885H26V4.70383Z" fill="#F4C327"/>
</g>
</g>
<path d="M33.744 8.428H38.784V9.618H33.744V8.428ZM33.87 12.782H39.582V14H32.47V4.2H39.386V5.418H33.87V12.782ZM45.1049 14.112C44.3582 14.112 43.6442 14 42.9629 13.776C42.2816 13.5427 41.7449 13.244 41.3529 12.88L41.8709 11.788C42.2442 12.1147 42.7202 12.3853 43.2989 12.6C43.8776 12.8147 44.4796 12.922 45.1049 12.922C45.6742 12.922 46.1362 12.8567 46.4909 12.726C46.8456 12.5953 47.1069 12.418 47.2749 12.194C47.4429 11.9607 47.5269 11.6993 47.5269 11.41C47.5269 11.074 47.4149 10.8033 47.1909 10.598C46.9762 10.3927 46.6916 10.2293 46.3369 10.108C45.9916 9.97733 45.6089 9.86533 45.1889 9.772C44.7689 9.67867 44.3442 9.57133 43.9149 9.45C43.4949 9.31933 43.1076 9.156 42.7529 8.96C42.4076 8.764 42.1276 8.50267 41.9129 8.176C41.6982 7.84 41.5909 7.41067 41.5909 6.888C41.5909 6.384 41.7216 5.922 41.9829 5.502C42.2536 5.07267 42.6642 4.732 43.2149 4.48C43.7749 4.21867 44.4842 4.088 45.3429 4.088C45.9122 4.088 46.4769 4.16267 47.0369 4.312C47.5969 4.46133 48.0822 4.676 48.4929 4.956L48.0309 6.076C47.6109 5.796 47.1676 5.59533 46.7009 5.474C46.2342 5.34333 45.7816 5.278 45.3429 5.278C44.7922 5.278 44.3396 5.348 43.9849 5.488C43.6302 5.628 43.3689 5.81467 43.2009 6.048C43.0422 6.28133 42.9629 6.54267 42.9629 6.832C42.9629 7.17733 43.0702 7.45267 43.2849 7.658C43.5089 7.86333 43.7936 8.02667 44.1389 8.148C44.4936 8.26933 44.8809 8.38133 45.3009 8.484C45.7209 8.57733 46.1409 8.68467 46.5609 8.806C46.9902 8.92733 47.3776 9.086 47.7229 9.282C48.0776 9.478 48.3622 9.73933 48.5769 10.066C48.7916 10.3927 48.8989 10.8127 48.8989 11.326C48.8989 11.8207 48.7636 12.2827 48.4929 12.712C48.2222 13.132 47.8022 13.4727 47.2329 13.734C46.6729 13.986 45.9636 14.112 45.1049 14.112Z" fill="#6E6B7B"/>
</svg>
