<svg width="20" height="20" viewBox="0 0 20 20" fill="none" xmlns="http://www.w3.org/2000/svg">
<path d="M15.6085 4.32004C14.8749 3.58147 14.0018 2.99602 13.0399 2.59773C12.0779 2.19944 11.0463 1.99628 10.005 2.00005C8.61303 2.00141 7.24576 2.36825 6.04024 3.06383C4.83471 3.7594 3.83323 4.75931 3.13605 5.9634C2.43887 7.16749 2.0705 8.53354 2.0678 9.92463C2.06511 11.3158 2.4282 12.6832 3.1207 13.89L2 18L6.20263 16.9C7.3631 17.5452 8.66707 17.8891 9.995 17.9C12.106 17.9001 14.1316 17.0668 15.6307 15.5816C17.13 14.0965 17.9815 12.0796 18 9.97003C17.993 8.91734 17.7781 7.87638 17.3677 6.90684C16.9573 5.9373 16.3595 5.05824 15.6085 4.32004ZM10.005 16.53C8.82196 16.5308 7.66055 16.213 6.6429 15.61L6.40275 15.46L3.91119 16.12L4.57161 13.69L4.41151 13.44C3.56022 12.0667 3.24252 10.429 3.51857 8.83724C3.79462 7.24549 4.64526 5.8102 5.90934 4.80327C7.17343 3.79633 8.76313 3.28771 10.3773 3.37374C11.9915 3.45976 13.5182 4.13446 14.6679 5.27004C15.9247 6.49822 16.6442 8.17354 16.6692 9.93003C16.6534 11.6859 15.9442 13.3645 14.6961 14.6006C13.4482 15.8366 11.7621 16.5301 10.005 16.53ZM13.6173 11.59C13.4171 11.49 12.4465 11.01 12.2664 10.95C12.0863 10.89 11.9462 10.85 11.8161 11.05C11.6204 11.3181 11.4099 11.5751 11.1857 11.82C11.0757 11.96 10.9556 11.97 10.7555 11.82C9.61446 11.3694 8.66387 10.5394 8.06379 9.47003C7.85366 9.12003 8.26392 9.14003 8.64415 8.39004C8.67227 8.33594 8.68688 8.27594 8.68688 8.21504C8.68688 8.15414 8.67227 8.09414 8.64415 8.04004C8.64415 7.94003 8.19387 6.96003 8.03377 6.57003C7.87367 6.18004 7.71357 6.24004 7.58349 6.23004H7.19325C7.09213 6.23159 6.99252 6.2547 6.90106 6.29781C6.80961 6.34091 6.72842 6.40304 6.66291 6.48003C6.43839 6.69821 6.26327 6.96195 6.14935 7.25347C6.03543 7.54499 5.98536 7.85753 6.0025 8.17004C6.06524 8.91814 6.34715 9.63113 6.81301 10.22C7.66574 11.4958 8.83437 12.5293 10.2051 13.22C10.9241 13.6394 11.7596 13.8148 12.5866 13.72C12.862 13.6654 13.1229 13.5535 13.3521 13.3915C13.5814 13.2296 13.7741 13.0212 13.9174 12.78C14.0503 12.4856 14.0922 12.1583 14.0375 11.84C13.9475 11.74 13.8174 11.69 13.6173 11.59Z" fill="#7367F0"/>
</svg>
