<svg width="26" height="26" viewBox="0 0 26 26" fill="none" xmlns="http://www.w3.org/2000/svg">
<g clip-path="url(#clip0_821_5716)">
<path d="M3.87294 21.6667C3.42155 21.6667 3.02433 21.4997 2.68127 21.1657C2.33821 20.8316 2.16669 20.457 2.16669 20.0417V5.95837C2.16669 5.5431 2.32919 5.16844 2.65419 4.83442C2.97919 4.50039 3.35835 4.33337 3.79169 4.33337H22.2084C22.6236 4.33337 22.9983 4.50039 23.3323 4.83442C23.6663 5.16844 23.8334 5.5431 23.8334 5.95837V11.6459H22.2084V7.58337L13 13.4605L3.79169 7.58337V20.0417H18.1459V21.6667H3.87294ZM13 11.7271L22.2084 5.95837H3.79169L13 11.7271ZM20.7188 21.6667C20.466 21.6667 20.2448 21.5719 20.0552 21.3823C19.8656 21.1927 19.7709 20.9716 19.7709 20.7188V17.4688C19.7709 17.216 19.8747 16.9948 20.0823 16.8052C20.29 16.6157 20.5472 16.5209 20.8542 16.5209V15.3021C20.8542 14.7435 21.0532 14.2653 21.4512 13.8675C21.8492 13.4698 22.3277 13.2709 22.8866 13.2709C23.4456 13.2709 23.9236 13.4698 24.3209 13.8675C24.7181 14.2653 24.9167 14.7435 24.9167 15.3021V16.5209C25.2236 16.5209 25.4809 16.6157 25.6886 16.8052C25.8962 16.9948 26 17.216 26 17.4688V20.7188C26 20.9716 25.9052 21.1927 25.7156 21.3823C25.5261 21.5719 25.3049 21.6667 25.0521 21.6667H20.7188ZM21.6667 16.5209H24.1042V15.3045C24.1042 14.9599 23.9876 14.6702 23.7545 14.4355C23.5213 14.2007 23.2324 14.0834 22.8878 14.0834C22.5432 14.0834 22.2535 14.2002 22.0188 14.4338C21.784 14.6674 21.6667 14.9568 21.6667 15.3021V16.5209Z" fill="#7367F0"/>
</g>
<defs>
<clipPath id="clip0_821_5716">
<rect width="26" height="26" fill="white"/>
</clipPath>
</defs>
</svg>
