<svg width="26" height="26" viewBox="0 0 26 26" fill="none" xmlns="http://www.w3.org/2000/svg">
<path d="M12.2416 20.5291H13.8666V15.0854L16.0875 17.3062L17.225 16.1687L13 12.052L8.82915 16.2229L9.96665 17.3604L12.2416 15.0854V20.5291ZM5.95831 23.8333C5.52498 23.8333 5.14581 23.6708 4.82081 23.3458C4.49581 23.0208 4.33331 22.6416 4.33331 22.2083V3.79163C4.33331 3.35829 4.49581 2.97913 4.82081 2.65413C5.14581 2.32913 5.52498 2.16663 5.95831 2.16663H15.7354L21.6666 8.09788V22.2083C21.6666 22.6416 21.5041 23.0208 21.1791 23.3458C20.8541 23.6708 20.475 23.8333 20.0416 23.8333H5.95831ZM14.9229 8.82913V3.79163H5.95831V22.2083H20.0416V8.82913H14.9229Z" fill="#7367F0"/>
</svg>
