<svg width="48" height="48" viewBox="0 0 48 48" fill="none" xmlns="http://www.w3.org/2000/svg">
<rect width="48" height="48" rx="5" fill="#7367F0"/>
<path d="M22.1875 37.75V35.25H14.625C14.125 35.25 13.6875 35.0625 13.3125 34.6875C12.9375 34.3125 12.75 33.875 12.75 33.375V14.625C12.75 14.125 12.9375 13.6875 13.3125 13.3125C13.6875 12.9375 14.125 12.75 14.625 12.75H22.1875V10.25H24.0625V37.75H22.1875ZM14.625 32.0625H22.1875V23.4062L14.625 32.0625ZM25.9375 35.25V23.5312L33.375 32.0625V14.625H25.9375V12.75H33.375C33.875 12.75 34.3125 12.9375 34.6875 13.3125C35.0625 13.6875 35.25 14.125 35.25 14.625V33.375C35.25 33.875 35.0625 34.3125 34.6875 34.6875C34.3125 35.0625 33.875 35.25 33.375 35.25H25.9375Z" fill="white"/>
</svg>
