<svg width="48" height="48" viewBox="0 0 48 48" fill="none" xmlns="http://www.w3.org/2000/svg">
<rect width="48" height="48" rx="6.38403" fill="#7367F0" fill-opacity="0.12"/>
<path d="M24 30.3C25.755 30.3 27.2438 29.6888 28.4663 28.4663C29.6888 27.2438 30.3 25.755 30.3 24C30.3 22.245 29.6888 20.7563 28.4663 19.5338C27.2438 18.3113 25.755 17.7 24 17.7V24L19.7025 28.5C20.2575 29.085 20.91 29.5313 21.66 29.8388C22.41 30.1463 23.19 30.3 24 30.3ZM24 33C22.77 33 21.6075 32.7638 20.5125 32.2913C19.4175 31.8188 18.4613 31.1737 17.6438 30.3563C16.8263 29.5388 16.1813 28.5825 15.7088 27.4875C15.2363 26.3925 15 25.23 15 24C15 22.755 15.2363 21.585 15.7088 20.49C16.1813 19.395 16.8263 18.4425 17.6438 17.6325C18.4613 16.8225 19.4175 16.1813 20.5125 15.7088C21.6075 15.2363 22.77 15 24 15C25.245 15 26.415 15.2363 27.51 15.7088C28.605 16.1813 29.5575 16.8225 30.3675 17.6325C31.1775 18.4425 31.8188 19.395 32.2913 20.49C32.7638 21.585 33 22.755 33 24C33 25.23 32.7638 26.3925 32.2913 27.4875C31.8188 28.5825 31.1775 29.5388 30.3675 30.3563C29.5575 31.1737 28.605 31.8188 27.51 32.2913C26.415 32.7638 25.245 33 24 33ZM24 31.65C26.13 31.65 27.9375 30.9038 29.4225 29.4113C30.9075 27.9188 31.65 26.115 31.65 24C31.65 21.87 30.9075 20.0625 29.4225 18.5775C27.9375 17.0925 26.13 16.35 24 16.35C21.885 16.35 20.0813 17.0925 18.5888 18.5775C17.0963 20.0625 16.35 21.87 16.35 24C16.35 26.115 17.0963 27.9188 18.5888 29.4113C20.0813 30.9038 21.885 31.65 24 31.65Z" fill="#7367F0"/>
</svg>
