<svg width="48" height="48" viewBox="0 0 48 48" fill="none" xmlns="http://www.w3.org/2000/svg">
<g clip-path="url(#clip0_402_2177)">
<rect width="48" height="48" rx="6.38403" fill="#7367F0" fill-opacity="0.12"/>
<path d="M16.1765 33V24.5294H13L23.5882 15L28.8824 19.6853V16.5882H31V21.6441L34.1765 24.5181H31V33H24.9118V26.6471H22.2647V33H16.1765ZM17.7647 31.4118H20.6765V25.0588H26.5V31.4118H29.4118V22.3853L23.5882 17.0912L17.7647 22.3853V31.4118ZM21.3382 22.1471H25.8382C25.8382 21.5647 25.6132 21.0838 25.1632 20.7044C24.7132 20.325 24.1882 20.1353 23.5882 20.1353C22.9882 20.1353 22.4632 20.3236 22.0132 20.7002C21.5632 21.0769 21.3382 21.5591 21.3382 22.1471Z" fill="#7367F0"/>
</g>
<defs>
<clipPath id="clip0_402_2177">
<rect width="48" height="48" fill="white"/>
</clipPath>
</defs>
</svg>
