<svg width="48" height="48" viewBox="0 0 48 48" fill="none" xmlns="http://www.w3.org/2000/svg">
<rect width="48" height="48" rx="5" fill="#7367F0" fill-opacity="0.12"/>
<path d="M26.5757 21.3563V20.0063C27.1944 19.7438 27.8272 19.5469 28.4741 19.4156C29.121 19.2844 29.8007 19.2188 30.5132 19.2188C31.0007 19.2188 31.4788 19.2563 31.9476 19.3313C32.4163 19.4062 32.8757 19.5 33.3257 19.6125V20.85C32.8757 20.6813 32.421 20.5547 31.9616 20.4703C31.5022 20.3859 31.0194 20.3438 30.5132 20.3438C29.8007 20.3438 29.1163 20.4328 28.4601 20.6109C27.8038 20.7891 27.1757 21.0375 26.5757 21.3563ZM26.5757 27.5438V26.1656C27.1944 25.9125 27.8272 25.7227 28.4741 25.5961C29.121 25.4695 29.8007 25.4062 30.5132 25.4062C31.0007 25.4062 31.4788 25.4438 31.9476 25.5188C32.4163 25.5938 32.8757 25.6875 33.3257 25.8V27.0375C32.8757 26.8687 32.421 26.7422 31.9616 26.6578C31.5022 26.5734 31.0194 26.5312 30.5132 26.5312C29.8007 26.5312 29.1163 26.6156 28.4601 26.7844C27.8038 26.9531 27.1757 27.2063 26.5757 27.5438ZM26.5757 24.45V23.1C27.1944 22.8375 27.8272 22.6406 28.4741 22.5094C29.121 22.3781 29.8007 22.3125 30.5132 22.3125C31.0007 22.3125 31.4788 22.35 31.9476 22.425C32.4163 22.5 32.8757 22.5937 33.3257 22.7062V23.9438C32.8757 23.775 32.421 23.6484 31.9616 23.5641C31.5022 23.4797 31.0194 23.4375 30.5132 23.4375C29.8007 23.4375 29.1163 23.5266 28.4601 23.7047C27.8038 23.8828 27.1757 24.1313 26.5757 24.45ZM17.8007 29.0625C18.805 29.0625 19.7827 29.1797 20.7336 29.4141C21.6846 29.6484 22.6194 30 23.5382 30.4688V18.4594C22.6944 17.8969 21.7793 17.4609 20.7926 17.1516C19.8061 16.8422 18.8087 16.6875 17.8007 16.6875C17.0882 16.6875 16.3897 16.7766 15.7054 16.9547C15.021 17.1328 14.3319 17.3531 13.6382 17.6156V29.8219C14.2194 29.5594 14.8804 29.3672 15.621 29.2453C16.3616 29.1234 17.0882 29.0625 17.8007 29.0625ZM25.2257 30.4688C26.1632 30 27.0819 29.6484 27.9819 29.4141C28.8819 29.1797 29.8382 29.0625 30.8507 29.0625C31.5632 29.0625 32.2991 29.1188 33.0585 29.2313C33.8179 29.3438 34.4694 29.4938 35.0132 29.6813V17.6156C34.3757 17.2969 33.7024 17.0625 32.9932 16.9125C32.284 16.7625 31.5698 16.6875 30.8507 16.6875C29.8382 16.6875 28.8585 16.8422 27.9116 17.1516C26.9647 17.4609 26.0694 17.8969 25.2257 18.4594V30.4688ZM24.3819 33C23.4257 32.2875 22.3851 31.7391 21.2601 31.3547C20.1351 30.9703 18.9819 30.7781 17.8007 30.7781C17.1156 30.7781 16.4428 30.8625 15.7822 31.0312C15.1216 31.2 14.4632 31.4062 13.8069 31.65C13.3738 31.8562 12.9562 31.8281 12.554 31.5656C12.1518 31.3031 11.9507 30.9281 11.9507 30.4406V17.4188C11.9507 17.1375 12.0163 16.8797 12.1476 16.6453C12.2788 16.4109 12.4757 16.2281 12.7382 16.0969C13.5257 15.7219 14.345 15.4453 15.1962 15.2672C16.0473 15.0891 16.9155 15 17.8007 15C18.9819 15 20.1304 15.1594 21.246 15.4781C22.3616 15.7969 23.4069 16.2844 24.3819 16.9406C25.3382 16.2844 26.3647 15.7969 27.4616 15.4781C28.5585 15.1594 29.6882 15 30.8507 15C31.7295 15 32.5913 15.0891 33.4363 15.2672C34.2813 15.4453 35.0976 15.7219 35.8851 16.0969C36.1476 16.2281 36.3491 16.4109 36.4897 16.6453C36.6304 16.8797 36.7007 17.1375 36.7007 17.4188V30.4406C36.7007 30.9636 36.4897 31.3616 36.0679 31.6344C35.646 31.9073 35.2288 31.9125 34.8163 31.65C34.1788 31.3875 33.5298 31.1766 32.8692 31.0172C32.2086 30.8578 31.5358 30.7781 30.8507 30.7781C29.6694 30.7781 28.5351 30.975 27.4476 31.3687C26.3601 31.7625 25.3382 32.3062 24.3819 33Z" fill="#7367F0"/>
</svg>
