<svg width="44" height="44" viewBox="0 0 44 44" fill="none" xmlns="http://www.w3.org/2000/svg">
<rect width="44" height="44" rx="5" fill="#56124F"/>
<path d="M4.91819 17.9357C5.98401 14.946 9.80323 15.5576 11.5796 16.237C12.379 15.4216 14.5773 15.4443 15.5765 15.5575C20.9056 12.5678 26.9009 14.3118 29.2324 15.5575C30.8311 14.1986 33.6733 14.5383 34.8946 14.878C41.2896 16.7806 38.6694 23.3715 36.56 26.4291C38.1587 27.5163 37.8242 28.9477 37.4911 29.6272C34.0272 35.063 29.0294 33.3401 27.142 31.4149C23.1451 34.1328 19.0182 32.6577 17.2418 31.8649C12.4456 36.2136 8.13788 30.506 6.58354 27.1086C5.58433 25.2967 3.85236 20.9254 4.91819 17.9357Z" fill="#56124F"/>
<path d="M5.5914 16.5892C6.65723 13.5995 10.4764 14.211 12.2528 14.8905C13.0522 14.0751 15.2505 14.0977 16.2497 14.211C21.5788 11.2212 27.5741 12.9652 29.9056 14.211C31.5043 12.852 34.3465 13.1917 35.5678 13.5315C41.9628 15.434 39.3521 22.297 37.2426 25.3546C38.8414 26.4418 38.2491 28.3788 37.916 29.0582C34.4521 34.4941 30.1276 31.4244 28.2402 29.4992C24.2434 32.2171 19.6914 31.3111 17.915 30.5184C13.1188 34.867 8.81109 29.1594 7.25676 25.7621C6.25755 23.9501 4.52558 19.5789 5.5914 16.5892Z" fill="#BF3089"/>
<path d="M5.25678 17.2739C6.33421 14.3109 9.86006 14.8695 11.6558 15.5429C12.4638 14.7349 14.686 14.7573 15.6961 14.8695C21.0832 11.9066 27.1438 13.635 29.5006 14.8695C31.1168 13.5227 33.9899 13.8594 35.2244 14.1961C41.689 16.0816 39.0403 22.6135 36.9079 25.6438C38.5241 26.7212 38.2547 28.3373 37.918 29.0107C34.4164 34.3978 29.7251 31.9287 27.8171 30.0208C23.7768 32.7144 19.1753 31.8165 17.3796 31.0309C12.5312 35.3406 8.17658 29.6841 6.60534 26.3172C5.59525 24.5215 4.17936 20.2368 5.25678 17.2739Z" fill="#931C57"/>
<path d="M10.7317 15.928C10.6686 15.9306 10.6277 15.942 10.6277 15.942C10.5155 15.9557 10.4049 15.9767 10.2969 16.0023C9.99047 16.023 8.34678 16.0734 7.19085 17.141C7.19085 17.141 6.44916 17.734 6.63272 18.935C6.63272 18.935 7.46982 22.8089 8.76213 25.5625C8.76213 25.5625 10.2454 28.7701 11.3762 30.1761C11.3762 30.1761 12.5657 31.4651 15.3853 29.9711C15.3853 29.9711 17.5294 28.8873 18.3811 27.2029C18.3811 27.2029 18.8291 26.2945 18.7428 25.8633C18.79 25.706 18.7777 25.5772 18.7777 25.5772C18.7556 25.2989 18.4326 24.9108 18.4326 24.9108C18.2416 24.6985 18.0729 24.8302 18.0729 24.8302C17.0228 25.5039 13.9242 26.6098 13.9242 26.6098C13.5938 26.7269 13.5249 26.5369 13.5249 26.5369C12.528 24.3931 11.3961 16.7292 11.3961 16.7292C11.3105 15.9991 10.9211 15.9213 10.7317 15.928Z" fill="#5A1A46"/>
<path d="M8.31175 18.1008C8.31175 18.1008 8.13002 16.9771 8.99711 16.5524C8.99711 16.5524 9.77591 16.045 10.6274 15.9414C10.6274 15.9414 11.2816 15.755 11.3959 16.7286C11.3959 16.7286 12.5277 24.3924 13.5246 26.5362C13.5246 26.5362 13.5934 26.7263 13.9238 26.6091C13.9238 26.6091 17.0224 25.5033 18.0724 24.8296C18.0724 24.8296 18.2413 24.6978 18.4322 24.9101C18.4322 24.9101 18.7553 25.2983 18.7773 25.5766C18.7773 25.5766 18.8214 25.9647 18.5057 26.221C18.5057 26.221 16.1486 28.3741 13.7622 28.9672C13.7622 28.9672 11.8857 29.4113 11.2193 27.9655C11.2193 27.9655 8.70635 23.4138 8.31175 18.1008Z" fill="#FABB59"/>
<path d="M10.7314 15.9272C10.6683 15.9299 10.6109 15.9376 10.6109 15.9376C9.75943 16.0412 8.99713 16.5522 8.99713 16.5522C8.13004 16.9769 8.31175 18.1007 8.31175 18.1007C8.70635 23.4136 11.2193 27.9655 11.2193 27.9655C11.8857 29.4113 13.7623 28.9671 13.7623 28.9671C16.1487 28.3738 18.5058 26.2209 18.5058 26.2209C18.676 26.0828 18.7401 25.9079 18.7644 25.7745L17.9035 26.7188C16.4271 27.5394 14.1696 28.3399 14.1696 28.3399C12.539 28.7706 11.7386 27.5924 11.7386 27.5924C9.84863 25.0654 9.01885 18.0921 9.01885 18.0921C8.90871 17.294 9.20254 16.9131 9.20254 16.9131C9.46687 16.5029 10.7811 15.9392 10.7811 15.9392L10.791 15.9286C10.7698 15.9268 10.7495 15.9268 10.7314 15.9268V15.9272Z" fill="#D1973B"/>
<path d="M10.789 15.929C10.7908 15.9466 11.5537 23.6754 12.7125 26.2941C12.7125 26.2941 13.0265 27.1472 14.1272 26.7848C14.1272 26.7848 16.796 25.7075 17.4605 25.169L17.47 25.1619C16.153 25.8149 13.9183 26.6094 13.9183 26.6094C13.5879 26.7265 13.5192 26.5365 13.5192 26.5365C12.5223 24.3926 11.3904 16.7287 11.3904 16.7287C11.3134 16.0719 10.9909 15.9436 10.7889 15.9293L10.789 15.929ZM18.1754 24.79C18.1093 24.7962 18.0671 24.8294 18.0671 24.8294C18.0422 24.8454 18.0109 24.8627 17.9838 24.8792C18.0493 24.9399 18.1075 25.0397 18.1389 25.2029C18.1389 25.2029 18.1682 25.679 17.8892 26.0526C17.8892 26.0526 17.6585 26.4514 17.9163 26.7098C18.2824 26.4191 18.5003 26.2208 18.5003 26.2208C18.816 25.9646 18.7719 25.5765 18.7719 25.5765C18.7498 25.2982 18.4268 24.9099 18.4268 24.9099C18.3313 24.8037 18.2415 24.7835 18.1754 24.79Z" fill="#FFEAD0"/>
<path d="M23.9214 14.5807C21.4432 14.6047 19.2744 15.431 18.3835 15.822C18.3835 15.822 16.307 16.5053 16.0386 18.2663C16.0386 18.2663 15.9257 18.9845 16.5755 20.3227C16.5755 20.3227 18.2703 24.5207 18.6375 25.7886C18.6375 25.7886 19.2027 28.2957 20.9824 28.5633C20.9824 28.5633 22.31 28.7748 22.7055 27.7606L22.7029 27.747C22.8535 27.668 22.79 27.5566 22.79 27.5566C22.7547 27.3451 22.917 27.3451 22.917 27.3451C23.8281 27.3662 24.4426 27.169 24.4426 27.169C29.3578 24.9995 28.8071 18.6322 28.8071 18.6322C28.4681 15.3783 26.2222 14.8146 26.2222 14.8146C25.4463 14.6405 24.6703 14.5744 23.9217 14.5817L23.9214 14.5807ZM22.8909 17.4413C23.5233 17.5628 24.4221 17.9658 24.6246 19.2662C24.6246 19.2662 24.9242 21.6169 23.9654 23.2705C23.9654 23.2705 23.5053 24.0304 22.4277 24.5377C22.4007 24.4952 22.3801 24.4333 22.3731 24.3438C22.266 23.0181 22.7748 18.4556 22.8909 17.4413Z" fill="#5A1A46"/>
<path d="M23.9207 14.5809C20.6765 14.6123 17.9446 16.0257 17.9446 16.0257C17.1536 16.4485 17.7326 16.8848 17.7326 16.8848C18.0921 17.3025 19.4754 17.7673 19.4904 17.7622C19.6952 17.8171 19.6702 17.9914 19.6702 17.9914C19.1109 25.243 20.462 27.3161 20.462 27.3161C20.9351 27.9003 22.1605 27.8231 22.1605 27.8231C22.9514 27.8367 22.789 27.5558 22.789 27.5558C22.7537 27.3445 22.9161 27.3444 22.9161 27.3444C23.8271 27.3654 24.4417 27.1681 24.4417 27.1681C29.3569 24.9986 28.8061 18.6314 28.8061 18.6314C28.4672 15.3775 26.2213 14.8139 26.2213 14.8139C25.4453 14.6397 24.6694 14.5736 23.9207 14.5809ZM23.6192 16.7684C24.0837 16.765 25.052 16.7718 25.3679 16.8559C25.3679 16.8559 26.5654 16.9865 26.4332 18.3781C26.4332 18.3781 26.3909 23.7592 22.648 24.6185C22.648 24.6185 22.4006 24.7031 22.3724 24.3439C22.2523 22.858 22.9354 17.0392 22.9354 17.0392C22.9354 17.0392 22.9236 16.7797 23.3655 16.7712C23.3655 16.7712 23.4644 16.7713 23.6192 16.7679V16.7684Z" fill="#FABB59"/>
<path d="M18.3834 15.8217C18.1075 15.9427 17.9446 16.0255 17.9446 16.0255C17.1536 16.4483 17.7326 16.8846 17.7326 16.8846C18.0921 17.3022 19.4754 17.7671 19.4904 17.762C19.6952 17.8171 19.6702 17.9913 19.6702 17.9913C19.1109 25.2429 20.462 27.3159 20.462 27.3159C20.9351 27.9002 22.1605 27.8229 22.1605 27.8229C22.9514 27.8365 22.7891 27.5556 22.7891 27.5556C22.7538 27.3443 22.9161 27.3443 22.9161 27.3443C23.8271 27.365 24.4417 27.168 24.4417 27.168C24.9634 26.9377 25.4201 26.6579 25.8258 26.3456C25.8002 26.3097 25.7694 26.2666 25.7694 26.2666C21.1083 27.7596 20.7688 25.1033 20.7688 25.1033C19.9898 21.7564 20.3193 18.2303 20.3193 18.2303C20.4093 17.5529 19.9998 17.4433 19.9998 17.4433C19.9199 17.4236 18.4817 16.7661 18.4817 16.7661C17.7926 16.318 18.3828 15.822 18.3828 15.822L18.3834 15.8217ZM25.0649 16.8103C25.0649 16.8103 25.2948 16.8364 25.368 16.8558C25.368 16.8558 26.566 16.9842 26.4338 18.3758C26.4338 18.3758 26.3915 23.757 22.6486 24.6162C22.6486 24.6162 22.5903 24.6352 22.5316 24.6195C22.5265 24.6263 22.3995 24.6567 22.3995 24.6567C22.3995 24.6567 24.6683 24.995 26.4197 21.8113C26.4197 21.8113 27.2249 20.3744 26.9494 17.9234C26.9494 17.9234 26.7325 16.7674 24.9881 16.8028L25.0649 16.8103Z" fill="#D1973B"/>
<path d="M25.9001 14.748C25.9 14.748 25.897 14.7714 25.897 14.7714C29.5001 16.6796 28.7807 23.3506 25.4535 25.7806C23.8205 27.1152 21.351 27.2253 20.4071 27.2159C20.4411 27.2824 20.4627 27.3159 20.4627 27.3159C20.9358 27.9002 22.1611 27.8229 22.1611 27.8229C22.9521 27.8365 22.7897 27.5556 22.7897 27.5556C22.7544 27.3443 22.9168 27.3443 22.9168 27.3443C23.8278 27.3652 24.4423 27.168 24.4423 27.168C29.3575 24.9984 28.8068 18.6312 28.8068 18.6312C28.4678 15.3773 26.2219 14.8137 26.2219 14.8137C26.1146 14.7896 26.0074 14.768 25.9001 14.748H25.9001ZM22.9651 16.7476C22.223 16.7695 22.1682 17.0959 22.1682 17.0959C20.9818 20.8712 21.868 24.0574 21.868 24.0574C22.098 24.8188 22.5598 24.6528 22.6324 24.6215C22.5896 24.6232 22.3983 24.6657 22.373 24.3437C22.253 22.858 22.936 17.039 22.936 17.039C22.936 17.039 22.9466 16.8026 23.3274 16.7729C23.3274 16.7729 23.3275 16.7729 23.3274 16.7729C23.2603 16.7678 23.1822 16.7495 23.1227 16.7478H22.9651V16.7476Z" fill="#FFEAD0"/>
<path d="M35.2669 15.927C34.9549 15.927 34.6008 15.9701 34.2017 16.0776C34.2017 16.0776 29.0854 17.2794 28.8286 23.5979C28.8286 23.5979 28.6287 28.9343 31.4967 30.5851C31.4967 30.5851 32.3386 31.1685 33.7369 30.7984C33.7369 30.7984 33.7453 30.7941 33.7459 30.7941C33.7584 30.7907 33.7869 30.7844 33.7869 30.7844C36.077 29.9876 36.9616 28.0698 36.9616 28.0698C37.1221 27.65 36.951 27.3982 36.951 27.3982C36.8753 27.2422 36.5575 26.9858 36.5575 26.9858C36.3926 26.8642 36.2799 26.9789 36.2277 27.0548C36.1615 26.9163 36.0134 26.8014 35.6846 26.8851C35.6846 26.8851 35.0996 26.9847 34.3933 27.3832C34.3933 27.3832 33.6341 27.8057 32.7861 27.8006C31.5195 26.2614 32.2779 23.427 32.2779 23.427C32.9352 21.3576 33.7703 20.1303 34.489 19.4045C34.2059 19.9749 33.9373 20.6864 33.951 21.3209C33.951 21.3209 33.9723 21.9614 34.3076 22.3101C34.3076 22.3101 35.1209 23.3701 36.5192 23.3132C36.5192 23.3132 36.8275 23.2804 37.0808 23.1217C37.4684 23.1628 37.6322 22.9077 37.6322 22.9077C38.3599 21.8546 38.3314 19.599 38.3314 19.599C38.4389 17.947 37.574 17.0475 37.1415 16.7045C37.0036 16.5348 36.4306 15.9282 35.2669 15.9271V15.927Z" fill="#5A1A46"/>
<path d="M35.7267 16.2305C34.0507 16.2279 32.5812 17.891 32.5812 17.891C29.7132 20.8938 29.6816 24.4195 29.6816 24.4195C29.5908 27.5691 30.6905 29.4108 30.6905 29.4108C31.7107 31.3818 33.7869 30.784 33.7869 30.784C36.077 29.9871 36.9616 28.0696 36.9616 28.0696C37.1221 27.6498 36.951 27.3978 36.951 27.3978C36.8754 27.2419 36.5575 26.9854 36.5575 26.9854C36.3255 26.8143 36.1943 27.1112 36.1943 27.1112C35.2906 28.4256 34.2075 28.7031 33.2509 28.2344C31.3532 26.8823 32.2779 23.4267 32.2779 23.4267C33.7333 18.8445 36.0627 18.3821 36.0627 18.3821C36.6762 18.133 36.6619 18.7306 36.6619 18.7306C36.612 19.8549 35.4491 21.0716 35.4491 21.0716C35.1352 21.3563 35.3493 21.6836 35.3493 21.6836C35.9058 22.7081 36.8189 23.0568 36.8189 23.0568C37.3968 23.2773 37.6322 22.9074 37.6322 22.9074C38.3599 21.8543 38.3314 19.5986 38.3314 19.5986C38.4741 17.4072 36.9045 16.5392 36.9045 16.5392C36.5112 16.3204 36.1135 16.2311 35.7267 16.2305Z" fill="#FABB59"/>
<path d="M37.2695 16.8124C37.5399 17.2401 38.3741 18.8298 37.733 21.3705C37.733 21.3705 37.4252 22.4119 37.1276 22.6786C37.1276 22.6786 36.7376 22.9754 36.1928 22.6786C36.5378 22.9487 36.8189 23.0566 36.8189 23.0566C37.3968 23.277 37.6322 22.9073 37.6322 22.9073C38.3599 21.854 38.3314 19.5984 38.3314 19.5984C38.4291 18.0975 37.7238 17.2179 37.2695 16.8123V16.8124ZM31.9676 23.0426C31.9676 23.0426 31.1614 24.9281 32.0318 27.3473C32.0318 27.3473 32.6632 28.895 34.1079 28.4503L34.107 28.446C33.816 28.4425 33.5281 28.3699 33.2508 28.2342C31.3531 26.882 32.2778 23.4265 32.2778 23.4265C33.6839 18.9995 35.8993 18.4196 36.0483 18.3853C36.0483 18.3853 36.0564 18.3732 36.0483 18.3853C33.8462 18.8586 32.4739 21.7166 31.9676 23.0426ZM36.6214 27.0396C36.6187 27.0414 36.6214 27.0396 36.6214 27.0396C36.8333 27.2559 36.7493 27.6494 36.7493 27.6494C36.5929 28.1376 35.9629 28.8986 35.9629 28.8986C34.0418 30.9718 32.1982 30.7113 32.0584 30.6881C32.9375 31.0275 33.7869 30.7839 33.7869 30.7839C36.077 29.9872 36.9616 28.0695 36.9616 28.0695C37.1221 27.6497 36.951 27.3978 36.951 27.3978C36.8964 27.2851 36.7177 27.1227 36.6214 27.0396Z" fill="#FFEAD0"/>
<path d="M35.7267 16.2305C34.0507 16.2279 32.5812 17.891 32.5812 17.891C29.7132 20.8939 29.6816 24.4195 29.6816 24.4195C29.5908 27.5691 30.6905 29.4108 30.6905 29.4108C31.7107 31.3818 33.7869 30.784 33.7869 30.784C34.0666 30.6868 34.3249 30.5724 34.5636 30.4473C33.8035 30.6197 32.0931 30.7709 31.084 28.9879C31.084 28.9879 29.732 26.7137 30.3778 23.6949C30.3778 23.6949 31.0686 19.3711 34.3076 16.9518C34.3076 16.9518 35.7309 15.8636 37.2059 16.7564C37.0298 16.608 36.9045 16.5392 36.9045 16.5392C36.5112 16.3204 36.1135 16.2312 35.7267 16.2305H35.7267ZM36.3169 18.3208C36.6617 18.3208 36.6619 18.7306 36.6619 18.7306C36.612 19.8549 35.4491 21.0716 35.4491 21.0716C35.1352 21.3563 35.3493 21.6836 35.3493 21.6836C35.5854 22.1181 35.8852 22.43 36.1527 22.6464C36.1527 22.6464 36.1528 22.6464 36.1527 22.6464C36.1527 22.6464 35.4278 22.096 36.027 21.1924C36.027 21.1924 36.4907 20.4739 36.5906 20.3599C36.5906 20.3599 37.2113 19.4349 37.2042 19.0008C37.1763 18.523 37.1196 18.226 36.3169 18.3208ZM36.4029 26.9329C36.2681 26.9442 36.1943 27.1112 36.1943 27.1112C35.2906 28.4256 34.2075 28.7031 33.2509 28.2344C33.1391 28.1547 33.0374 28.0675 32.9444 27.9744C32.9133 27.9727 32.9137 27.9727 32.9444 27.9744C32.9444 27.9744 33.3445 29.218 35.1923 28.4567C35.1923 28.4567 36.157 27.9957 36.5922 27.0138C36.5922 27.0138 36.5922 27.0189 36.5922 27.0138C36.5764 27.0006 36.5575 26.9847 36.5575 26.9847C36.4995 26.9419 36.4478 26.9285 36.4029 26.9323L36.4029 26.9329Z" fill="#D1973B"/>
</svg>
