<svg width="48" height="48" viewBox="0 0 48 48" fill="none" xmlns="http://www.w3.org/2000/svg">
<rect width="48" height="48" rx="5" fill="#7367F0"/>
<path d="M20.5 33.2212C19.2284 33.2212 18.1445 32.773 17.2482 31.8768C16.352 30.9805 15.9039 29.8966 15.9039 28.625V19.6923C15.4052 19.6923 14.9792 19.5153 14.626 19.1613C14.2728 18.8073 14.0962 18.3818 14.0962 17.8847V16.2116C14.0962 15.7145 14.2732 15.2889 14.6272 14.9349C14.9812 14.5809 15.4068 14.4039 15.9039 14.4039H25.0961C25.5932 14.4039 26.0188 14.5809 26.3728 14.9349C26.7268 15.2889 26.9038 15.7145 26.9038 16.2116V17.8847C26.9038 18.3818 26.7268 18.8073 26.3728 19.1613C26.0188 19.5153 25.5932 19.6923 25.0961 19.6923V24.2328C24.7897 24.493 24.5195 24.7879 24.2856 25.1174C24.0516 25.4468 23.859 25.8052 23.7077 26.1923H20.75V25.0577H23.9615V23.1923H20.75V22.0577H23.9615V19.6923H17.0385V28.625C17.0385 29.5919 17.3733 30.4106 18.0429 31.081C18.7126 31.7514 19.5303 32.0866 20.4961 32.0866C21.1538 32.0866 21.7449 31.9276 22.2692 31.6097C22.7936 31.2917 23.2006 30.8667 23.4904 30.3347C23.5666 30.545 23.6558 30.745 23.7581 30.9347C23.8604 31.1244 23.9743 31.3103 24.1 31.4923C23.6718 32.0282 23.1475 32.4503 22.5273 32.7587C21.907 33.067 21.2313 33.2212 20.5 33.2212ZM20.75 29.1923V28.0577H23.2211C23.2045 28.2436 23.2022 28.4311 23.2144 28.6202C23.2266 28.8093 23.2449 29 23.2692 29.1923H20.75ZM15.5385 18.5578H25.4615C25.5512 18.5578 25.625 18.5289 25.6827 18.4712C25.7404 18.4135 25.7692 18.3398 25.7692 18.25V15.8462C25.7692 15.7565 25.7404 15.6828 25.6827 15.6251C25.625 15.5674 25.5512 15.5385 25.4615 15.5385H15.5385C15.4487 15.5385 15.375 15.5674 15.3173 15.6251C15.2596 15.6828 15.2308 15.7565 15.2308 15.8462V18.25C15.2308 18.3398 15.2596 18.4135 15.3173 18.4712C15.375 18.5289 15.4487 18.5578 15.5385 18.5578ZM28.9965 31.3366C29.7911 31.3366 30.4631 31.0631 31.0125 30.5161C31.5619 29.9691 31.8365 29.2982 31.8365 28.5036C31.8365 27.7089 31.563 27.0369 31.016 26.4876C30.469 25.9382 29.7982 25.6635 29.0035 25.6635C28.2089 25.6635 27.5368 25.937 26.9875 26.484C26.4381 27.031 26.1635 27.7019 26.1635 28.4965C26.1635 29.2912 26.437 29.9632 26.984 30.5126C27.531 31.0619 28.2018 31.3366 28.9965 31.3366ZM34.1 34.3904L31.3769 31.6673C31.0295 31.9237 30.6551 32.1218 30.2539 32.2616C29.8526 32.4013 29.4347 32.4712 29 32.4712C27.8969 32.4712 26.9593 32.0847 26.1871 31.3119C25.415 30.5391 25.0289 29.6006 25.0289 28.4965C25.0289 27.3925 25.4153 26.4552 26.1881 25.6847C26.961 24.9142 27.8994 24.5289 29.0035 24.5289C30.1076 24.5289 31.0449 24.915 31.8154 25.6872C32.5859 26.4593 32.9711 27.3969 32.9711 28.5C32.9711 28.9347 32.9013 29.3527 32.7615 29.7539C32.6218 30.1552 32.4237 30.5295 32.1673 30.877L34.8904 33.6001L34.1 34.3904Z" fill="white"/>
</svg>
