<svg width="48" height="48" viewBox="0 0 48 48" fill="none" xmlns="http://www.w3.org/2000/svg">
<rect width="48" height="48" rx="5" fill="#FF454C"/>
<path d="M26.766 21.1573V20.049C27.4002 19.7543 28.0639 19.5333 28.7572 19.386C29.4505 19.2387 30.1703 19.165 30.9167 19.165C31.3848 19.165 31.8395 19.1983 32.2808 19.2648C32.722 19.3314 33.1647 19.4193 33.609 19.5285V20.565C33.1722 20.4124 32.7381 20.3017 32.3066 20.2329C31.875 20.1641 31.4117 20.1297 30.9167 20.1297C30.1703 20.1297 29.4475 20.2184 28.7482 20.3956C28.049 20.5728 27.3882 20.8267 26.766 21.1573ZM26.766 27.5515V26.4028C27.3852 26.1142 28.0471 25.8977 28.7516 25.7533C29.4561 25.609 30.1778 25.5368 30.9167 25.5368C31.3848 25.5368 31.8395 25.5701 32.2808 25.6367C32.722 25.7032 33.1647 25.7911 33.609 25.9003V26.9368C33.1722 26.7842 32.7381 26.6735 32.3066 26.6047C31.875 26.5359 31.4117 26.5015 30.9167 26.5015C30.1703 26.5015 29.4475 26.5909 28.7482 26.7696C28.049 26.9484 27.3882 27.209 26.766 27.5515ZM26.766 24.3656V23.2349C27.4002 22.9402 28.0639 22.7192 28.7572 22.5719C29.4505 22.4246 30.1703 22.3509 30.9167 22.3509C31.3848 22.3509 31.8395 22.3842 32.2808 22.4508C32.722 22.5173 33.1647 22.6052 33.609 22.7144V23.7509C33.1722 23.5983 32.7381 23.4876 32.3066 23.4189C31.875 23.35 31.4117 23.3156 30.9167 23.3156C30.1703 23.3156 29.4475 23.408 28.7482 23.5927C28.049 23.7774 27.3882 24.0351 26.766 24.3656ZM17.8231 29.1153C18.8834 29.1153 19.915 29.2406 20.918 29.4911C21.921 29.7417 22.9101 30.1249 23.8853 30.641V18.4673C23.0103 17.8465 22.0474 17.372 20.9966 17.0437C19.9458 16.7154 18.8879 16.5512 17.8231 16.5512C17.0917 16.5512 16.4161 16.623 15.7961 16.7666C15.176 16.9102 14.5175 17.1069 13.8205 17.3567C13.7308 17.3866 13.6672 17.4296 13.6298 17.4857C13.5924 17.5418 13.5737 17.6035 13.5737 17.6708V29.5214C13.5737 29.6186 13.6111 29.6915 13.6859 29.7401C13.7607 29.7888 13.843 29.7981 13.9327 29.7682C14.4308 29.5483 15.0209 29.3845 15.7029 29.2769C16.3849 29.1692 17.0917 29.1153 17.8231 29.1153ZM25.209 30.641C26.1887 30.1249 27.1601 29.7417 28.1234 29.4911C29.0866 29.2406 30.1045 29.1153 31.1769 29.1153C31.9083 29.1153 32.6229 29.1662 33.3206 29.2679C34.0184 29.3696 34.6006 29.499 35.0673 29.656C35.157 29.6934 35.2393 29.6878 35.3141 29.6392C35.3889 29.5906 35.4263 29.5139 35.4263 29.4092V17.6708C35.4263 17.6035 35.4076 17.5436 35.3702 17.4913C35.3328 17.4389 35.2692 17.3941 35.1795 17.3567C34.5258 17.071 33.8799 16.8653 33.2417 16.7397C32.6035 16.6141 31.9152 16.5512 31.1769 16.5512C30.1045 16.5512 29.0586 16.7154 28.0393 17.0437C27.0199 17.372 26.0765 17.8465 25.209 18.4673V30.641ZM24.5415 32.6153C23.5536 31.9213 22.4875 31.388 21.3433 31.0156C20.199 30.6432 19.0256 30.4569 17.8231 30.4569C17.1918 30.4569 16.5718 30.522 15.9631 30.6521C15.3544 30.7822 14.7434 30.9513 14.1302 31.1592C13.681 31.3581 13.2554 31.3159 12.8533 31.0327C12.4511 30.7494 12.25 30.3548 12.25 29.8489V17.59C12.25 17.2834 12.3255 17.0015 12.4766 16.7442C12.6277 16.4869 12.8468 16.2932 13.134 16.1631C13.8684 15.8415 14.63 15.6052 15.4189 15.4541C16.2078 15.3031 17.0092 15.2275 17.8231 15.2275C19.0324 15.2275 20.2064 15.3966 21.345 15.7346C22.4836 16.0726 23.5509 16.5819 24.5471 17.2625C25.5238 16.5819 26.5753 16.0726 27.7016 15.7346C28.8278 15.3966 29.9863 15.2275 31.1769 15.2275C31.9867 15.2275 32.784 15.3031 33.569 15.4541C34.3539 15.6052 35.1136 15.8415 35.848 16.1631C36.1352 16.2917 36.3573 16.4851 36.5144 16.7431C36.6714 17.0011 36.7499 17.2834 36.7499 17.59V29.8489C36.7499 30.3763 36.5331 30.7815 36.0993 31.0645C35.6655 31.3475 35.2273 31.3716 34.7845 31.1367C34.1982 30.9243 33.6037 30.7579 33.0009 30.6375C32.3981 30.5171 31.7901 30.4569 31.1769 30.4569C29.9724 30.4569 28.8124 30.6462 27.6968 31.0246C26.5812 31.403 25.5294 31.9332 24.5415 32.6153H24.5415Z" fill="white"/>
</svg>
