<svg width="48" height="48" viewBox="0 0 48 48" fill="none" xmlns="http://www.w3.org/2000/svg">
<rect width="48" height="48" rx="6.38403" fill="#7367F0" fill-opacity="0.12"/>
<path d="M16.725 32C15.725 32 14.8709 31.6417 14.1625 30.925C13.4542 30.2083 13.0834 29.3417 13.05 28.325C13.05 28.175 13.0584 28.025 13.075 27.875C13.0917 27.725 13.1167 27.575 13.15 27.425L15.25 19.025C15.4834 18.125 15.9584 17.3958 16.675 16.8375C17.3917 16.2792 18.2084 16 19.125 16H28.8751C29.7917 16 30.6084 16.2792 31.3251 16.8375C32.0417 17.3958 32.5167 18.125 32.7501 19.025L34.85 27.425C34.8834 27.575 34.9125 27.7292 34.9376 27.8875C34.9626 28.0458 34.975 28.2 34.975 28.35C34.975 29.3667 34.6126 30.2292 33.8876 30.9375C33.1625 31.6458 32.2917 32 31.2751 32C30.5751 32 29.9251 31.8167 29.3251 31.45C28.725 31.0833 28.2751 30.5833 27.975 29.95L27.2751 28.5C27.1917 28.3333 27.0667 28.2083 26.9001 28.125C26.7334 28.0417 26.5584 28 26.375 28H21.625C21.4417 28 21.2667 28.0417 21.1 28.125C20.9334 28.2083 20.8084 28.3333 20.725 28.5L20.025 29.95C19.725 30.5833 19.275 31.0833 18.675 31.45C18.075 31.8167 17.425 32 16.725 32ZM16.7916 30.5C17.1972 30.5 17.5723 30.3919 17.9167 30.1757C18.2612 29.9595 18.5223 29.6676 18.7 29.3L19.4 27.875C19.6167 27.4417 19.9209 27.1042 20.3125 26.8625C20.7042 26.6208 21.1417 26.5 21.625 26.5H26.375C26.8584 26.5 27.2959 26.625 27.6876 26.875C28.0792 27.125 28.3917 27.4583 28.6251 27.875L29.3251 29.3C29.5028 29.6676 29.7639 29.9595 30.1084 30.1757C30.4528 30.3919 30.8272 30.5 31.2314 30.5C31.8272 30.5 32.3417 30.2958 32.7751 29.8875C33.2084 29.4792 33.4334 28.975 33.4501 28.375C33.4501 28.3083 33.4251 28.1083 33.3751 27.775L31.2751 19.4C31.1417 18.85 30.855 18.3958 30.4151 18.0375C29.975 17.6792 29.4617 17.5 28.8751 17.5H19.125C18.5466 17.5 18.0354 17.675 17.5912 18.025C17.1471 18.375 16.8584 18.8333 16.725 19.4L14.625 27.775C14.6084 27.8417 14.5834 28.0333 14.55 28.35C14.55 28.9581 14.7689 29.4684 15.2065 29.8811C15.6441 30.2937 16.1725 30.5 16.7916 30.5ZM25.5044 22.75C25.7182 22.75 25.8959 22.6777 26.0375 22.5331C26.1792 22.3885 26.25 22.2094 26.25 21.9956C26.25 21.7819 26.1778 21.6042 26.0332 21.4625C25.8886 21.3208 25.7094 21.25 25.4957 21.25C25.2819 21.25 25.1042 21.3223 24.9626 21.4669C24.8209 21.6115 24.75 21.7906 24.75 22.0044C24.75 22.2181 24.8223 22.3958 24.9669 22.5375C25.1115 22.6792 25.2907 22.75 25.5044 22.75ZM27.5044 20.75C27.7182 20.75 27.8959 20.6777 28.0375 20.5331C28.1792 20.3885 28.2501 20.2094 28.2501 19.9956C28.2501 19.7819 28.1778 19.6042 28.0332 19.4625C27.8886 19.3208 27.7094 19.25 27.4957 19.25C27.2819 19.25 27.1042 19.3223 26.9626 19.4669C26.8209 19.6115 26.75 19.7906 26.75 20.0044C26.75 20.2181 26.8223 20.3958 26.9669 20.5375C27.1115 20.6792 27.2907 20.75 27.5044 20.75ZM27.5044 24.75C27.7182 24.75 27.8959 24.6777 28.0375 24.5331C28.1792 24.3885 28.2501 24.2094 28.2501 23.9956C28.2501 23.7819 28.1778 23.6042 28.0332 23.4625C27.8886 23.3208 27.7094 23.25 27.4957 23.25C27.2819 23.25 27.1042 23.3223 26.9626 23.4669C26.8209 23.6115 26.75 23.7906 26.75 24.0044C26.75 24.2181 26.8223 24.3958 26.9669 24.5375C27.1115 24.6792 27.2907 24.75 27.5044 24.75ZM29.5044 22.75C29.7182 22.75 29.8959 22.6777 30.0375 22.5331C30.1792 22.3885 30.25 22.2094 30.25 21.9956C30.25 21.7819 30.1778 21.6042 30.0332 21.4625C29.8886 21.3208 29.7094 21.25 29.4957 21.25C29.2819 21.25 29.1042 21.3223 28.9626 21.4669C28.8209 21.6115 28.7501 21.7906 28.7501 22.0044C28.7501 22.2181 28.8223 22.3958 28.9669 22.5375C29.1115 22.6792 29.2907 22.75 29.5044 22.75ZM20.5029 24.375C20.6843 24.375 20.8334 24.316 20.95 24.1979C21.0667 24.0799 21.125 23.9306 21.125 23.75V22.625H22.25C22.4306 22.625 22.5799 22.5657 22.698 22.4471C22.816 22.3285 22.875 22.1785 22.875 21.9971C22.875 21.8157 22.816 21.6667 22.698 21.55C22.5799 21.4333 22.4306 21.375 22.25 21.375H21.125V20.25C21.125 20.0694 21.0657 19.9201 20.9471 19.8021C20.8285 19.684 20.6785 19.625 20.4971 19.625C20.3157 19.625 20.1667 19.684 20.05 19.8021C19.9334 19.9201 19.875 20.0694 19.875 20.25V21.375H18.75C18.5695 21.375 18.4202 21.4343 18.3021 21.5529C18.1841 21.6715 18.125 21.8215 18.125 22.0029C18.125 22.1843 18.1841 22.3333 18.3021 22.45C18.4202 22.5667 18.5695 22.625 18.75 22.625H19.875V23.75C19.875 23.9306 19.9343 24.0799 20.0529 24.1979C20.1716 24.316 20.3216 24.375 20.5029 24.375Z" fill="#7367F0"/>
</svg>
