<svg width="48" height="48" viewBox="0 0 48 48" fill="none" xmlns="http://www.w3.org/2000/svg">
<rect width="47.3455" height="48" rx="5" fill="#7367F0" fill-opacity="0.12"/>
<path d="M27.4093 23.1439C28.2377 23.1516 28.9148 22.4863 28.9215 21.6579C28.9283 20.8295 28.2623 20.1517 27.4339 20.144C26.6055 20.1363 25.9284 20.8016 25.9217 21.63C25.9149 22.4584 26.5809 23.1362 27.4093 23.1439Z" fill="#7367F0"/>
<path d="M20.4096 23.0787C21.238 23.0865 21.9151 22.4212 21.9218 21.5928C21.9286 20.7644 21.2626 20.0866 20.4342 20.0788C19.6058 20.0711 18.9287 20.7364 18.922 21.5648C18.9152 22.3932 19.5812 23.071 20.4096 23.0787Z" fill="#7367F0"/>
<path d="M23.8686 28.1112C22.3886 28.0974 21.1253 27.2756 20.4351 26.0791L18.7652 26.0636C19.5484 28.121 21.5264 29.5894 23.8563 29.6111C26.1862 29.6328 28.188 28.2014 29.0047 26.1589L27.3348 26.1433C26.6251 27.3268 25.3485 28.1249 23.8686 28.1112ZM23.9731 14.1115C18.4534 14.0602 13.9469 18.4984 13.9017 24.0182C13.8566 29.538 18.2897 34.0595 23.8095 34.1109C29.3393 34.1623 33.8557 29.7242 33.9009 24.2044C33.946 18.6846 29.5029 14.163 23.9731 14.1115ZM23.8359 32.111C19.416 32.0699 15.8655 28.4567 15.9017 24.0368C15.9378 19.617 19.5469 16.0704 23.9668 16.1116C28.3866 16.1527 31.9371 19.7659 31.901 24.1858C31.8648 28.6056 28.2557 32.1522 23.8359 32.111Z" fill="#7367F0"/>
</svg>
