<svg width="48" height="48" viewBox="0 0 48 48" fill="none" xmlns="http://www.w3.org/2000/svg">
<rect width="48" height="48" rx="5" fill="#7367F0" fill-opacity="0.12"/>
<g clip-path="url(#clip0_402_2025)">
<path d="M14.4465 25.2937C15.7298 25.3049 16.7889 24.2641 16.8001 22.9808C16.8113 21.6975 15.7705 20.6384 14.4872 20.6272C13.2039 20.616 12.1448 21.6568 12.1336 22.9401C12.1224 24.2234 13.1632 25.2825 14.4465 25.2937ZM15.7536 26.5885C15.3225 26.5147 14.8913 26.4643 14.4363 26.4603C13.2813 26.4502 12.1826 26.6857 11.1872 27.1086C10.3206 27.4744 9.75332 28.3095 9.74507 29.2545L9.72909 31.0861L14.9789 31.1319L14.9953 29.2536C15.0037 28.2853 15.28 27.3777 15.7536 26.5885ZM33.1124 25.4566C34.3957 25.4678 35.4548 24.427 35.466 23.1437C35.4772 21.8604 34.4364 20.8013 33.1532 20.7901C31.8699 20.7789 30.8108 21.8197 30.7996 23.103C30.7884 24.3863 31.8292 25.4454 33.1124 25.4566ZM37.744 29.4988C37.7523 28.5539 37.1996 27.709 36.3396 27.3281C35.3517 26.8878 34.2572 26.6333 33.1023 26.6232C32.6473 26.6192 32.2152 26.6621 31.783 26.7284C32.2427 27.5257 32.5031 28.438 32.4946 29.4063L32.4782 31.2846L37.728 31.3304L37.744 29.4988ZM28.7193 26.1766C27.3597 25.5581 25.6836 25.1001 23.782 25.0835C21.8804 25.0669 20.1965 25.5072 18.8264 26.0903C17.5615 26.6393 16.7572 27.8923 16.7452 29.2689L16.7288 31.1472L30.7283 31.2693L30.7447 29.3911C30.7567 28.0145 29.9744 26.7476 28.7193 26.1766ZM19.1641 28.835C19.2714 28.5676 19.3197 28.3813 20.2327 28.0393C21.3682 27.6058 22.56 27.4062 23.7616 27.4167C24.9633 27.4272 26.1514 27.6476 27.2791 28.1008C28.1744 28.4586 28.2194 28.6457 28.3337 28.915L19.1641 28.835ZM23.8304 19.542C24.472 19.5476 24.9924 20.0772 24.9868 20.7188C24.9812 21.3605 24.4516 21.8809 23.81 21.8753C23.1684 21.8697 22.648 21.3401 22.6536 20.6985C22.6592 20.0568 23.1887 19.5364 23.8304 19.542ZM23.8507 17.2088C21.9141 17.1919 20.3372 18.7415 20.3203 20.6781C20.3034 22.6147 21.853 24.1916 23.7896 24.2085C25.7262 24.2254 27.3031 22.6758 27.32 20.7392C27.3369 18.8026 25.7873 17.2257 23.8507 17.2088Z" fill="#7367F0"/>
</g>
<defs>
<clipPath id="clip0_402_2025">
<rect width="28" height="28" fill="white" transform="translate(9.91235 10.0869) rotate(0.5)"/>
</clipPath>
</defs>
</svg>
