<svg width="20" height="20" viewBox="0 0 20 20" fill="none" xmlns="http://www.w3.org/2000/svg">
<path d="M2.91663 17.5C2.58329 17.5 2.29163 17.375 2.04163 17.125C1.79163 16.875 1.66663 16.5833 1.66663 16.25V6.24996C1.66663 5.91663 1.79163 5.62496 2.04163 5.37496C2.29163 5.12496 2.58329 4.99996 2.91663 4.99996H6.66663V2.91663C6.66663 2.58329 6.79163 2.29163 7.04163 2.04163C7.29163 1.79163 7.58329 1.66663 7.91663 1.66663H12.0833C12.4166 1.66663 12.7083 1.79163 12.9583 2.04163C13.2083 2.29163 13.3333 2.58329 13.3333 2.91663V4.99996H17.0833C17.4166 4.99996 17.7083 5.12496 17.9583 5.37496C18.2083 5.62496 18.3333 5.91663 18.3333 6.24996V16.25C18.3333 16.5833 18.2083 16.875 17.9583 17.125C17.7083 17.375 17.4166 17.5 17.0833 17.5H2.91663ZM2.91663 16.25H17.0833V6.24996H2.91663V16.25ZM7.91663 4.99996H12.0833V2.91663H7.91663V4.99996Z" fill="#7367F0"/>
</svg>
