<svg width="48" height="48" viewBox="0 0 48 48" fill="none" xmlns="http://www.w3.org/2000/svg">
<rect width="48" height="48" rx="3.53333" fill="#7367F0"/>
<g clip-path="url(#clip0_2119_2126)">
<path d="M23.4731 14.1115C17.9533 14.0602 13.447 18.4884 13.4017 24.0182C13.3565 29.548 17.7897 34.0595 23.3095 34.1109C28.8293 34.1623 33.3557 29.7342 33.4009 24.2044C33.4462 18.6746 29.0029 14.163 23.4731 14.1115ZM23.3359 32.111C18.916 32.0699 15.3655 28.4567 15.4016 24.0368C15.4378 19.617 19.0469 16.0704 23.4668 16.1116C27.8866 16.1527 31.4372 19.7659 31.401 24.1858C31.3649 28.6056 27.7557 32.1522 23.3359 32.111ZM24.4181 22.0607L25.4694 23.1305L26.5381 22.0804L27.5893 23.1502L28.658 22.1001L26.5554 19.9605L24.4181 22.0607ZM20.2983 22.0223L21.3496 23.0922L22.4182 22.0421L20.3156 19.9024L18.1784 22.0026L19.2297 23.0724L20.2983 22.0223ZM23.3563 29.6111C25.6862 29.6328 27.6781 28.1913 28.4948 26.1588L18.2752 26.0637C19.0584 28.111 21.0264 29.5894 23.3563 29.6111Z" fill="white"/>
</g>
<defs>
<clipPath id="clip0_2119_2126">
<rect width="24.0001" height="24" fill="white" transform="matrix(0.999957 0.00930826 -0.00818116 0.999967 11.5 12)"/>
</clipPath>
</defs>
</svg>
