<svg width="48" height="48" viewBox="0 0 48 48" fill="none" xmlns="http://www.w3.org/2000/svg">
<rect width="48" height="48" rx="5" fill="#FF454C"/>
<path d="M23.6667 35.25V33.0312L30.4167 26.2812L32.6354 28.5L25.8854 35.25H23.6667ZM12.4167 28.6875V26.8125H21.7917V28.6875H12.4167ZM33.9792 27.1562L31.7604 24.9375L32.6667 24.0312C32.8334 23.8646 33.0521 23.7812 33.3229 23.7812C33.5938 23.7812 33.8125 23.8646 33.9792 24.0312L34.8854 24.9375C35.0521 25.1042 35.1354 25.3229 35.1354 25.5938C35.1354 25.8646 35.0521 26.0833 34.8854 26.25L33.9792 27.1562ZM12.4167 23.5312V21.6562H27.1042V23.5312H12.4167ZM12.4167 18.375V16.5H27.1042V18.375H12.4167Z" fill="white"/>
</svg>
