<svg width="48" height="48" viewBox="0 0 48 48" fill="none" xmlns="http://www.w3.org/2000/svg">
<rect width="48" height="48" rx="5" fill="#00CFE8"/>
<path d="M13.7083 36.5C13.1927 36.5 12.7513 36.3164 12.3841 35.9492C12.0169 35.582 11.8333 35.1406 11.8333 34.625V13.375C11.8333 12.8594 12.0169 12.418 12.3841 12.0508C12.7513 11.6836 13.1927 11.5 13.7083 11.5H25.5833L23.7083 13.375H13.7083V34.625H28.7083V30.25H30.5833V34.625C30.5833 35.1406 30.3997 35.582 30.0325 35.9492C29.6653 36.3164 29.2239 36.5 28.7083 36.5H13.7083ZM16.8333 31.1875V29.3125H25.5833V31.1875H16.8333ZM16.8333 27.4375V25.5625H23.0833V27.4375H16.8333ZM28.7083 27.75L23.7083 22.75H19.3333V16.5H23.7083L28.7083 11.5V27.75ZM30.5833 24.875V14.0625C31.7499 14.5 32.6666 15.2708 33.3333 16.375C33.9999 17.4792 34.3333 18.5625 34.3333 19.625C34.3333 20.6875 33.9687 21.7396 33.2395 22.7812C32.5104 23.8229 31.6249 24.5208 30.5833 24.875ZM30.5833 29.3125V27.375C32.0416 26.8542 33.3437 25.9167 34.4895 24.5625C35.6354 23.2083 36.2083 21.5625 36.2083 19.625C36.2083 17.6875 35.6354 16.0417 34.4895 14.6875C33.3437 13.3333 32.0416 12.3958 30.5833 11.875V9.9375C32.7083 10.5 34.4895 11.6719 35.927 13.4531C37.3645 15.2344 38.0833 17.2917 38.0833 19.625C38.0833 21.9583 37.3645 24.0156 35.927 25.7969C34.4895 27.5781 32.7083 28.75 30.5833 29.3125Z" fill="white"/>
</svg>
