<svg width="48" height="48" viewBox="0 0 48 48" fill="none" xmlns="http://www.w3.org/2000/svg">
<rect width="48" height="48" rx="6.38403" fill="#7367F0" fill-opacity="0.12"/>
<path d="M24.3247 13.5001C24.3165 13.5001 24.292 13.502 24.3002 13.5013L24.3171 13.5005C24.0936 13.5063 23.8786 13.6438 23.7796 13.8443L21.0238 19.4279L14.8616 20.3234C14.5787 20.3646 14.3441 20.6257 14.3335 20.9114C14.3335 20.9152 14.3335 20.919 14.3335 20.9228V22.6051V22.5986C14.3335 22.6073 14.3335 22.616 14.3335 22.6248V22.6183V22.6294C14.3336 22.6754 14.344 22.7208 14.3639 22.7623C14.3639 22.7624 14.3639 22.7626 14.3639 22.7627C14.3924 22.871 14.4401 22.9744 14.5203 23.0526L18.7327 27.1587L17.9265 31.8595C17.9265 31.8596 17.9265 31.8597 17.9265 31.8598C17.9192 31.9022 17.9164 31.9453 17.9181 31.9883V31.9761V33.6274V33.615C17.917 33.6317 17.917 33.6482 17.9181 33.6649V33.6526V33.6704C17.9182 33.7334 17.9376 33.7949 17.9738 33.8465C18.0261 33.9856 18.111 34.1126 18.242 34.1833C18.4191 34.2789 18.6438 34.2802 18.822 34.1867C18.822 34.1866 18.822 34.1865 18.822 34.1865L24.3335 31.2891L29.8452 34.1865C29.8452 34.1865 29.8452 34.1866 29.8452 34.1867C30.0234 34.2802 30.2481 34.2789 30.4252 34.1833C30.5559 34.1128 30.6408 33.9862 30.6931 33.8475C30.7298 33.7957 30.7495 33.7338 30.7495 33.6704V31.9635C30.7495 31.9289 30.7465 31.8942 30.7407 31.86C30.7407 31.8598 30.7407 31.8597 30.7407 31.8596L29.9345 27.1585L34.1469 23.0527C34.1469 23.0526 34.1469 23.0525 34.1469 23.0524C34.227 22.9743 34.2745 22.8709 34.3028 22.7627C34.3229 22.7212 34.3334 22.6756 34.3334 22.6294V22.6181V22.6248C34.3334 22.6159 34.3334 22.6069 34.3334 22.598V22.6047V20.9419V20.9486C34.3334 20.9397 34.3334 20.9306 34.3334 20.9217V20.9284V20.9228C34.3335 20.9189 34.3335 20.9151 34.3334 20.9113C34.3227 20.6258 34.0884 20.365 33.8058 20.3237L27.6436 19.4279L24.8882 13.8445V13.8443C24.7855 13.6361 24.5572 13.4965 24.3251 13.5001L24.3247 13.5001Z" fill="#9A2201"/>
<path d="M24.3105 15.4837C24.254 15.4852 24.199 15.5021 24.1514 15.5325C24.1038 15.563 24.0655 15.6058 24.0405 15.6565L21.2131 21.3849L14.8912 22.3037C14.834 22.3121 14.7803 22.3363 14.7361 22.3736C14.6919 22.4109 14.659 22.4598 14.6411 22.5148C14.6233 22.5698 14.6212 22.6286 14.635 22.6848C14.6489 22.7409 14.6781 22.7921 14.7195 22.8324L19.2939 27.2913L18.2141 33.5877C18.2044 33.6447 18.2107 33.7033 18.2325 33.7568C18.2543 33.8104 18.2906 33.8568 18.3374 33.8908C18.3842 33.9248 18.4395 33.945 18.4972 33.9492C18.5549 33.9534 18.6126 33.9414 18.6638 33.9145L24.3182 30.9419L29.9729 33.9145C30.0241 33.9414 30.0818 33.9534 30.1394 33.9492C30.1971 33.945 30.2525 33.9248 30.2993 33.8908C30.346 33.8568 30.3824 33.8104 30.4041 33.7568C30.4259 33.7033 30.4323 33.6447 30.4225 33.5877L29.3427 27.2913L33.9171 22.8324C33.9585 22.7921 33.9878 22.7409 34.0017 22.6848C34.0155 22.6286 34.0134 22.5697 33.9955 22.5148C33.9777 22.4598 33.9448 22.4109 33.9006 22.3736C33.8564 22.3363 33.8026 22.3121 33.7454 22.3037L27.4235 21.3849L24.5964 15.6565C24.5702 15.6034 24.5294 15.5589 24.4787 15.5283C24.428 15.4977 24.3696 15.4822 24.3105 15.4837Z" fill="#C95429"/>
<path d="M34.0108 20.9227H32.4309V22.6295H34.0108V20.9227Z" fill="#C95429"/>
<path d="M16.2059 20.9227H14.626V22.6295H16.2059V20.9227Z" fill="#C95429"/>
<path d="M18.8303 31.9636H18.2092V33.6704H18.8303V31.9636Z" fill="#C95429"/>
<path d="M30.4272 31.9636H29.8062V33.6704H30.4272V31.9636Z" fill="#C95429"/>
<path d="M24.3105 13.8075C24.254 13.8089 24.199 13.8258 24.1514 13.8562C24.1038 13.8867 24.0655 13.9295 24.0405 13.9802L21.2131 19.7087L14.8912 20.6275C14.834 20.6358 14.7803 20.66 14.7361 20.6973C14.6919 20.7346 14.659 20.7835 14.6411 20.8385C14.6233 20.8935 14.6212 20.9524 14.635 21.0085C14.6489 21.0647 14.6781 21.1158 14.7195 21.1562L19.294 25.6151L18.2141 31.9114C18.2044 31.9684 18.2107 32.027 18.2325 32.0806C18.2543 32.1341 18.2906 32.1805 18.3374 32.2145C18.3842 32.2485 18.4396 32.2688 18.4972 32.2729C18.5549 32.2771 18.6126 32.2651 18.6638 32.2382L24.3182 29.2656L29.9729 32.2382C30.0241 32.2651 30.0818 32.2771 30.1395 32.2729C30.1971 32.2688 30.2525 32.2485 30.2993 32.2145C30.346 32.1805 30.3824 32.1341 30.4041 32.0806C30.4259 32.027 30.4323 31.9684 30.4225 31.9114L29.3427 25.6151L33.9171 21.1562C33.9585 21.1158 33.9878 21.0647 34.0017 21.0085C34.0155 20.9524 34.0134 20.8935 33.9955 20.8385C33.9777 20.7835 33.9448 20.7346 33.9006 20.6973C33.8564 20.66 33.8027 20.6358 33.7455 20.6275L27.4235 19.7087L24.5964 13.9802C24.5702 13.9271 24.5294 13.8826 24.4787 13.852C24.428 13.8214 24.3697 13.806 24.3105 13.8075Z" fill="#F6A500"/>
<path d="M24.3183 14.1174L27.2176 19.9922L33.7008 20.9342L29.0095 25.507L30.117 31.964L24.3183 28.9154L18.5196 31.964L19.627 25.507L14.9358 20.9342L21.4189 19.9922L24.3183 14.1174Z" fill="#FAC51B"/>
<path d="M24.319 16.5573C24.2621 16.557 24.2064 16.5727 24.1581 16.6026C24.1097 16.6325 24.0707 16.6754 24.0456 16.7263L22.0637 20.7419L17.6323 21.3859C17.5763 21.3941 17.5237 21.4177 17.4804 21.4542C17.4371 21.4907 17.4049 21.5386 17.3874 21.5924C17.3699 21.6463 17.3678 21.7039 17.3814 21.7589C17.3949 21.8139 17.4236 21.864 17.4641 21.9035L20.6708 25.0291L19.9138 29.4427C19.9043 29.4985 19.9105 29.5559 19.9318 29.6083C19.9532 29.6608 19.9888 29.7062 20.0346 29.7395C20.0804 29.7727 20.1346 29.7925 20.191 29.7966C20.2475 29.8007 20.304 29.7889 20.3541 29.7626L24.3177 27.6788L28.2813 29.7626C28.3314 29.7889 28.3879 29.8007 28.4444 29.7966C28.5009 29.7925 28.555 29.7727 28.6008 29.7395C28.6467 29.7062 28.6822 29.6608 28.7036 29.6083C28.7249 29.5559 28.7312 29.4985 28.7216 29.4427L27.9647 25.0291L31.1713 21.9035C31.2118 21.864 31.2405 21.8139 31.254 21.7589C31.2676 21.7039 31.2655 21.6463 31.248 21.5924C31.2305 21.5386 31.1983 21.4907 31.1551 21.4542C31.1118 21.4177 31.0592 21.3941 31.0031 21.3859L26.5717 20.7419L24.5899 16.7263C24.5649 16.6757 24.5263 16.6331 24.4784 16.6033C24.4306 16.5734 24.3754 16.5575 24.319 16.5573Z" fill="#FAC51B"/>
<path d="M24.318 16.8607L26.3704 21.0194L30.9598 21.6862L27.6389 24.9233L28.4229 29.4941L24.318 27.3361L20.2132 29.4941L20.9971 24.9233L17.6763 21.6862L22.2656 21.0194L24.318 16.8607Z" fill="#F6A500"/>
<path d="M24.3181 16.8607L22.2656 21.0194L17.6763 21.6863L19.1835 23.1554C20.6716 23.1143 24.0813 23.2434 27.6389 24.9232L30.9599 21.6863L26.3705 21.0194L24.3181 16.8607Z" fill="#F6AE00"/>
<path d="M17.6763 21.6862L17.9655 21.9929L22.4269 21.3673L24.3162 17.5659L24.318 16.8607L22.2656 21.0194L17.6763 21.6862Z" fill="#F08700"/>
<path d="M30.9606 21.6862L30.6714 21.9929L26.21 21.3673L24.3207 17.5659L24.3188 16.8607L26.3713 21.0194L30.9606 21.6862Z" fill="#F08700"/>
<path d="M24.4191 21.8968C24.7862 21.8968 25.0838 21.6128 25.0838 21.2624C25.0838 20.9121 24.7862 20.6281 24.4191 20.6281C24.052 20.6281 23.7544 20.9121 23.7544 21.2624C23.7544 21.6128 24.052 21.8968 24.4191 21.8968Z" fill="#FEEE7B"/>
<path d="M28.0604 23.1244C28.1613 22.7757 27.6204 22.3397 26.8523 22.1507C26.0841 21.9616 25.3796 22.091 25.2787 22.4397C25.1777 22.7884 25.7186 23.2243 26.4867 23.4134C27.2549 23.6024 27.9594 23.473 28.0604 23.1244Z" fill="#FEEE7B"/>
</svg>
