<svg width="48" height="48" viewBox="0 0 48 48" fill="none" xmlns="http://www.w3.org/2000/svg">
<path d="M0 5.33333C0 2.38781 2.38781 0 5.33333 0H42.6667C45.6122 0 48 2.38781 48 5.33333V42.6667C48 45.6122 45.6122 48 42.6667 48H5.33333C2.38781 48 0 45.6122 0 42.6667V5.33333Z" fill="#7367F0" fill-opacity="0.12"/>
<path d="M24.039 13.0004C23.7372 12.9935 23.44 13.0691 23.1784 13.2201L14.8216 18.0447C14.8155 18.0484 14.8094 18.0524 14.8037 18.0569C14.3058 18.3529 14 18.8878 14 19.4681V29.1176C14 29.698 14.3058 30.2328 14.8041 30.5289C14.8098 30.5333 14.8155 30.537 14.8216 30.5406L23.1784 35.3652C23.6873 35.6588 24.3127 35.6588 24.8216 35.3652L33.1784 30.5406C33.6873 30.247 34 29.7049 34 29.1176V19.4681C34 18.8805 33.6873 18.3387 33.1784 18.0451L24.8216 13.2205C24.5828 13.0829 24.3139 13.0073 24.0386 13.0008L24.039 13.0004Z" fill="#D19302"/>
<path d="M24.0292 13.4239C23.8066 13.4186 23.5833 13.4759 23.3908 13.5872L15.0339 18.4117C14.6651 18.6245 14.4243 19.042 14.4243 19.4676V29.1171C14.4243 29.5427 14.6651 29.9602 15.0339 30.173L23.3908 34.9976C23.7595 35.2104 24.2416 35.2104 24.6103 34.9976L32.9672 30.173C33.3359 29.9602 33.5768 29.5427 33.5768 29.1171V19.4676C33.5768 19.042 33.3355 18.6245 32.9672 18.4117L24.6103 13.5872C24.4345 13.4856 24.2326 13.4288 24.0292 13.4239Z" fill="#FACA04"/>
<path d="M24.0007 13.4241C23.7879 13.4241 23.5751 13.4805 23.3908 13.5869L15.0339 18.4115C14.6655 18.6243 14.4243 19.0418 14.4243 19.4674V29.1169C14.4243 29.5425 14.6651 29.96 15.0339 30.1728L23.3908 34.9973C23.5751 35.1037 23.7879 35.1569 24.0007 35.1569V13.4241Z" fill="#DEB300"/>
<path d="M24.0064 14.3918C23.9602 14.3906 23.9147 14.4024 23.8749 14.4255L15.518 19.2501C15.44 19.2952 15.3921 19.378 15.3921 19.4678V29.1173C15.3921 29.207 15.44 29.2903 15.518 29.335L23.8749 34.1595C23.9528 34.2046 24.0487 34.2046 24.1263 34.1595L32.4831 29.335C32.5611 29.2899 32.609 29.207 32.609 29.1173V19.4678C32.609 19.378 32.5611 19.2948 32.4831 19.2501L24.1263 14.4255C24.0897 14.4044 24.0487 14.393 24.0064 14.3918Z" fill="#C38F13"/>
<path d="M24.0004 14.6432L32.3573 19.4682V29.1177L24.0004 33.9427L15.6436 29.1177V19.4682L24.0004 14.6432Z" fill="#E6B900"/>
<path d="M24.0005 15.3579L16.2629 19.8251V28.7599L24.0005 33.2271L31.7381 28.7599V19.8251L24.0005 15.3579Z" fill="#FACA04"/>
<mask id="mask0_855_5778" style="mask-type:luminance" maskUnits="userSpaceOnUse" x="16" y="15" width="16" height="19">
<path d="M24.0006 15.2928L16.2065 19.7929V28.7927L24.0006 33.2924L31.7946 28.7927V19.7929L24.0006 15.2928Z" fill="white"/>
</mask>
<g mask="url(#mask0_855_5778)">
<path d="M8.49673 28.4471C8.13367 27.0919 7.94971 25.6953 7.94971 24.2926H24.0003L8.49673 28.4471Z" fill="#E6B900"/>
<path d="M12.6501 35.6438C11.6584 34.6521 10.8007 33.5344 10.0994 32.3198L23.9996 24.2947L12.6501 35.6438Z" fill="#E6B900"/>
<path d="M19.8454 39.8004C18.4906 39.4374 17.189 38.8985 15.9744 38.1971L23.9995 24.2969L19.8454 39.8004Z" fill="#E6B900"/>
<path d="M23.9995 8.23755C22.5968 8.23755 21.2002 8.42152 19.8455 8.78458L23.9995 24.2881V8.23755Z" fill="#E6B900"/>
<path d="M10.0994 16.2667C9.39806 17.4814 8.85915 18.783 8.49609 20.1377L23.9997 24.2918L10.0994 16.2667Z" fill="#E6B900"/>
<path d="M15.9741 10.3899C14.7595 11.0912 13.6419 11.9489 12.6501 12.9407L23.9996 24.2902L15.9741 10.3899Z" fill="#E6B900"/>
<path d="M24.001 40.3481C25.4037 40.3481 26.8003 40.1641 28.1551 39.8011L24.001 24.2975V40.3481Z" fill="#E6B900"/>
<path d="M37.901 32.3189C38.6023 31.1043 39.1412 29.8027 39.5043 28.4479L24.0007 24.2938L37.901 32.3189Z" fill="#E6B900"/>
<path d="M32.0265 38.1957C33.2411 37.4943 34.3588 36.6366 35.3505 35.6449L24.001 24.2954L32.0261 38.1957H32.0265Z" fill="#E6B900"/>
<path d="M39.5038 20.1384C39.8669 21.4932 40.0508 22.8898 40.0508 24.2925H24.0002L39.5038 20.1384Z" fill="#E6B900"/>
<path d="M35.3505 12.9415C36.3422 13.9332 37.1999 15.0509 37.9012 16.2655L24.001 24.2906L35.3505 12.9415Z" fill="#E6B900"/>
<path d="M28.1558 8.7854C29.5106 9.14846 30.8121 9.68737 32.0268 10.3887L24.0017 24.289L28.1558 8.7854Z" fill="#E6B900"/>
</g>
<path d="M28.5362 19.4884C28.5317 19.4884 28.5272 19.4884 28.5228 19.4892H28.5199C28.4972 19.4917 28.4748 19.4986 28.4545 19.5095C28.4497 19.5124 28.4444 19.5152 28.4399 19.5185C28.435 19.5217 28.4306 19.5254 28.4261 19.529C28.4249 19.5302 28.4237 19.5315 28.422 19.5327C28.42 19.5343 28.4184 19.5359 28.4164 19.5375C27.1749 20.7396 25.027 20.859 24.9486 20.8631C24.9393 20.8574 24.9271 20.8497 24.9137 20.8399C24.8852 20.8188 24.8653 20.8005 24.8605 20.7961C24.8024 20.7331 24.7728 20.589 24.7784 20.4484C24.7837 20.3067 24.8142 20.1902 24.8142 20.1902C24.854 20.0387 24.6879 19.9168 24.5555 20.0005C24.3935 20.1028 24.311 20.2685 24.2375 20.4135C24.2367 20.4151 24.2367 20.4151 24.2359 20.4168C24.0893 19.9233 23.7502 19.6911 23.7502 19.6911C23.6206 19.6058 23.4533 19.7223 23.4878 19.8734C23.5187 20.0078 23.5065 20.2121 23.4805 20.3753C23.459 20.5102 23.4395 20.5768 23.4306 20.6093C23.4042 20.576 23.39 20.5329 23.3831 20.4793C23.3721 20.3985 23.3843 20.327 23.3843 20.327C23.4103 20.1861 23.2628 20.0769 23.1353 20.143C22.7621 20.3372 22.637 20.6369 22.5883 20.8318C20.7876 20.6742 19.6513 19.5457 19.6513 19.5457C19.5648 19.4592 19.4182 19.488 19.3707 19.6005C19.2103 19.9814 19.2006 20.3347 19.2213 20.5845C18.9102 20.4939 18.6312 20.5459 18.6312 20.5459C18.4915 20.5678 18.4367 20.74 18.5374 20.8391C18.6036 20.9041 18.6239 20.9431 18.6316 20.9614C18.6137 20.9695 18.5812 20.9829 18.5768 20.9845C18.1447 20.9723 17.849 21.0738 17.6642 21.1924C17.4746 21.3143 17.3917 21.4686 17.3917 21.4686C17.3446 21.5632 17.3926 21.6777 17.4937 21.7098C17.5152 21.7167 17.5765 21.7622 17.6196 21.8117C17.6561 21.854 17.672 21.88 17.6789 21.8905C17.7248 22.0209 17.7081 22.0737 17.6984 22.0924C17.6882 22.1123 17.6955 22.1041 17.6955 22.1041C17.6931 22.1054 17.6902 22.1066 17.6878 22.1078C17.6565 22.124 17.6354 22.124 17.5936 22.1094C17.5513 22.0952 17.4965 22.0603 17.4462 22.0164C17.3459 21.9287 17.2715 21.8187 17.2715 21.8187C17.1802 21.681 16.9666 21.7382 16.956 21.9031C16.9231 22.4311 17.0807 22.7718 17.2659 22.974C17.2066 22.9683 17.1176 22.9618 17.1176 22.9618C16.9251 22.9342 16.8415 23.1966 17.0145 23.2855C17.2277 23.3956 17.3073 23.4902 17.3357 23.5397C17.3442 23.5548 17.3442 23.5584 17.3463 23.5657C17.3442 23.5673 17.3463 23.5678 17.3418 23.5706C17.3272 23.5812 17.2979 23.5942 17.2646 23.6027C17.1984 23.6197 17.131 23.6193 17.131 23.6193C17.1209 23.6193 17.1107 23.6197 17.101 23.6214C16.7741 23.6729 16.5576 23.8772 16.5576 23.8772C16.4589 23.9682 16.4979 24.1318 16.6266 24.1692C16.9069 24.25 17.012 24.3779 17.0648 24.4811C17.0876 24.5258 17.0965 24.5603 17.1026 24.5895C17.0177 24.6504 16.9682 24.6326 16.9073 24.6041C16.8325 24.5692 16.7749 24.5006 16.7749 24.5006C16.664 24.3589 16.4378 24.4608 16.4699 24.6374C16.5495 25.0744 16.7948 25.3372 17.0165 25.474C17.142 25.5516 17.2512 25.5885 17.3337 25.6097C17.2845 25.6572 17.2354 25.7014 17.1875 25.7526C17.1091 25.8355 17.0449 25.9073 17.0449 25.9073L17.0551 25.8972C16.9158 26.0284 16.8764 26.2026 16.8496 26.3443C16.8228 26.486 16.8204 26.6054 16.8204 26.6054C16.8167 26.7663 17.0161 26.8442 17.1221 26.7228C17.1383 26.7045 17.2874 26.6217 17.4206 26.5774C17.5448 26.536 17.6403 26.5149 17.6545 26.5116C17.7402 26.5104 17.7849 26.5258 17.8035 26.5376C17.8234 26.5502 17.8279 26.5596 17.8344 26.5807C17.847 26.6229 17.8344 26.6919 17.8344 26.6919C17.8299 26.7074 17.8279 26.7232 17.8279 26.7395C17.8279 26.733 17.8194 26.7776 17.791 26.8292C17.7625 26.8804 17.7199 26.9413 17.6764 26.9973C17.5895 27.109 17.501 27.2 17.501 27.2C17.4226 27.2804 17.4405 27.4128 17.5375 27.4692C17.7248 27.5781 17.9627 27.6118 18.1666 27.6337C18.3705 27.6556 18.5382 27.6565 18.5382 27.6565H18.5353C18.6019 27.6581 18.6397 27.6662 18.6641 27.6731C18.656 27.7584 18.6145 27.8782 18.5573 27.9797C18.4919 28.095 18.4261 28.1767 18.4261 28.1767C18.2941 28.3399 18.5138 28.5527 18.673 28.4151C18.7274 28.368 18.9565 28.266 19.153 28.2027C19.3427 28.1417 19.497 28.1048 19.5084 28.102C19.5506 28.0979 19.562 28.1003 19.5803 28.102C19.5397 28.331 19.5587 28.5434 19.5937 28.7075C19.6318 28.8857 19.6802 28.9974 19.7029 29.0425C19.7719 29.1806 19.9734 29.1655 20.0209 29.0185C20.0554 28.8695 20.334 28.3732 20.6049 28.4825C20.7738 28.6023 20.9708 28.6591 21.1223 28.6872C21.4228 28.7391 21.8537 28.7274 22.3743 28.4979C22.3767 28.4967 22.3796 28.4955 22.3824 28.4942C22.3824 28.4942 22.4019 28.4845 22.4356 28.4699C22.4397 28.4683 22.4437 28.4662 22.4478 28.4642C22.7069 28.3286 23.5682 27.7811 24.0235 26.4438C24.073 26.5738 24.1299 26.7139 24.201 26.867C24.4446 27.3917 24.8134 28.0114 25.3584 28.3805C25.3624 28.3834 25.3669 28.3862 25.3714 28.3887C25.4177 28.4142 25.4635 28.4423 25.5082 28.4719C25.5123 28.4748 25.5167 28.4772 25.5212 28.4796C25.5212 28.4796 25.522 28.4796 25.522 28.48C25.5931 28.5475 26.2668 29.1521 27.4116 28.9544C27.4202 28.9527 27.4287 28.9507 27.4372 28.9479C27.6472 28.902 27.5981 28.7834 27.7008 28.7477C27.6996 28.8914 27.7901 29.0514 27.938 28.9962C28.4525 28.7793 28.5524 28.2246 28.5662 28.1312C28.5865 28.0914 28.5841 28.1007 28.5902 28.1015C28.5979 28.1024 28.619 28.1133 28.619 28.1133C28.6296 28.1219 28.6409 28.1292 28.6531 28.1353C28.699 28.1576 28.7587 28.2299 28.7973 28.305C28.8355 28.3801 28.8529 28.4431 28.8529 28.4431C28.896 28.6039 29.1197 28.6161 29.1798 28.4605C29.3159 28.1093 29.2911 27.7693 29.2647 27.5927C29.6103 27.6504 29.8597 27.6439 30.0266 27.611C30.122 27.5923 30.1923 27.5663 30.2418 27.5419C30.2914 27.5176 30.3307 27.4855 30.3307 27.4855C30.4225 27.4043 30.4026 27.2556 30.2922 27.2016C30.12 27.1175 30.0688 26.8195 30.0656 26.8C30.0729 26.7171 30.0851 26.7248 30.1106 26.7175C30.1387 26.7098 30.1813 26.7159 30.1813 26.7159C30.1862 26.7171 30.1911 26.7179 30.1959 26.7187C30.4311 26.7569 30.5618 26.923 30.5618 26.923C30.6573 27.0465 30.8546 26.9892 30.8697 26.8337C30.9216 26.2854 30.574 25.8895 30.4859 25.7977C30.483 25.7827 30.4818 25.7721 30.4834 25.7689C30.8717 25.6198 31.0946 25.4273 31.2108 25.2564C31.2713 25.1674 31.3042 25.0854 31.3212 25.0232C31.3383 24.9611 31.3399 24.9055 31.3399 24.9055C31.3399 24.7954 31.2388 24.7134 31.1316 24.7365C30.9456 24.7763 30.8883 24.728 30.8433 24.6797C30.8258 24.661 30.8169 24.6431 30.8079 24.6265C30.9099 24.4405 31.0435 24.3853 31.1767 24.367C31.2506 24.3568 31.3217 24.3609 31.3728 24.3682C31.3984 24.3719 31.4191 24.3759 31.4321 24.3788C31.4386 24.3804 31.4435 24.3816 31.4463 24.3824C31.4475 24.3824 31.4488 24.3832 31.4488 24.3832H31.448C31.5852 24.4246 31.7103 24.2902 31.6587 24.1566C31.5405 23.8504 31.2185 23.6993 30.9436 23.5872C30.7214 23.4963 30.5496 23.452 30.4786 23.435C30.4786 23.4337 30.4786 23.4358 30.4798 23.4321C30.4871 23.4151 30.5086 23.3915 30.5086 23.3915C30.5208 23.3814 30.5314 23.3692 30.5399 23.3562C30.5947 23.2741 30.7564 23.0873 30.7564 23.0873C30.851 22.9797 30.7807 22.8108 30.6378 22.8018C30.7527 22.6573 30.823 22.4993 30.8603 22.3576C30.9322 22.0871 30.9025 21.8572 30.9025 21.8572C30.8855 21.7208 30.7226 21.6582 30.6187 21.7488C30.4761 21.8731 30.1407 21.8398 30.1407 21.8398C30.137 21.839 30.1338 21.8385 30.1301 21.8381C30.0493 21.8288 30.0408 21.8065 30.027 21.7821C30.018 21.7667 30.0189 21.7626 30.0172 21.7557C30.0294 21.7078 30.0749 21.6558 30.146 21.6123C30.2231 21.5656 30.2987 21.5429 30.2987 21.5429C30.4128 21.51 30.4599 21.374 30.3909 21.2773C30.1387 20.9244 29.6883 20.8306 29.3204 20.803C29.1534 20.7904 29.002 20.794 28.8818 20.8009C28.9406 20.4659 28.9134 20.1816 28.8574 19.9737C28.8229 19.8458 28.7798 19.7451 28.7445 19.6752C28.7205 19.6277 28.7088 19.6127 28.6954 19.5928C28.6897 19.5794 28.682 19.5668 28.673 19.555L28.6722 19.5542C28.6714 19.5538 28.6714 19.553 28.6706 19.5526C28.6681 19.5497 28.6657 19.5469 28.6633 19.544C28.6621 19.5424 28.6604 19.5412 28.6592 19.5396C28.6568 19.5371 28.6539 19.5343 28.6511 19.5323C28.6495 19.531 28.6482 19.5294 28.6466 19.5282C28.6438 19.5258 28.6409 19.5237 28.6381 19.5217C28.6361 19.5205 28.6344 19.5189 28.6324 19.5176C28.6296 19.5156 28.6267 19.514 28.6239 19.5124C28.6218 19.5111 28.6198 19.5099 28.6178 19.5091C28.6145 19.5075 28.6113 19.5059 28.608 19.5042C28.606 19.5034 28.6044 19.5026 28.6024 19.5018C28.5991 19.5006 28.5955 19.499 28.5922 19.4981C28.5902 19.4973 28.5881 19.4969 28.5861 19.4961C28.5825 19.4949 28.5788 19.4941 28.5751 19.4933C28.5735 19.4929 28.5715 19.4925 28.5699 19.4921C28.5662 19.4912 28.5622 19.4908 28.5585 19.4904C28.5565 19.4904 28.5544 19.49 28.5524 19.4896C28.5471 19.4892 28.5423 19.4888 28.537 19.4888H28.5366L28.5362 19.4884ZM28.6641 19.7759C28.6641 19.7759 28.6612 19.7796 28.6608 19.7796C28.6608 19.7796 28.6625 19.7776 28.6633 19.7767C28.6633 19.7767 28.6641 19.7763 28.6641 19.7759ZM17.4449 25.5065C17.4393 25.5098 17.434 25.5134 17.4291 25.5171C17.4376 25.5085 17.4449 25.5065 17.4449 25.5065ZM29.0718 27.5509C29.0775 27.5537 29.0832 27.5565 29.0889 27.5586C29.0751 27.5561 29.0718 27.5509 29.0718 27.5509Z" fill="#D19302"/>
<path d="M15.0129 19.3677C15.1589 19.3677 15.2773 19.2494 15.2773 19.1034C15.2773 18.9574 15.1589 18.839 15.0129 18.839C14.8669 18.839 14.7485 18.9574 14.7485 19.1034C14.7485 19.2494 14.8669 19.3677 15.0129 19.3677Z" fill="#D19302"/>
<path d="M32.9873 19.3677C33.1333 19.3677 33.2517 19.2494 33.2517 19.1034C33.2517 18.9574 33.1333 18.839 32.9873 18.839C32.8413 18.839 32.7229 18.9574 32.7229 19.1034C32.7229 19.2494 32.8413 19.3677 32.9873 19.3677Z" fill="#D19302"/>
<path d="M24.0002 14.1903C24.1462 14.1903 24.2646 14.0719 24.2646 13.9259C24.2646 13.7799 24.1462 13.6615 24.0002 13.6615C23.8542 13.6615 23.7358 13.7799 23.7358 13.9259C23.7358 14.0719 23.8542 14.1903 24.0002 14.1903Z" fill="#D19302"/>
<path d="M32.9831 29.7747C33.1291 29.7747 33.2475 29.6564 33.2475 29.5103C33.2475 29.3643 33.1291 29.246 32.9831 29.246C32.8371 29.246 32.7188 29.3643 32.7188 29.5103C32.7188 29.6564 32.8371 29.7747 32.9831 29.7747Z" fill="#D19302"/>
<path d="M24.0002 34.9226C24.1462 34.9226 24.2646 34.8042 24.2646 34.6582C24.2646 34.5122 24.1462 34.3938 24.0002 34.3938C23.8542 34.3938 23.7358 34.5122 23.7358 34.6582C23.7358 34.8042 23.8542 34.9226 24.0002 34.9226Z" fill="#D19302"/>
<path d="M14.9895 29.7747C15.1355 29.7747 15.2539 29.6564 15.2539 29.5103C15.2539 29.3643 15.1355 29.246 14.9895 29.246C14.8435 29.246 14.7251 29.3643 14.7251 29.5103C14.7251 29.6564 14.8435 29.7747 14.9895 29.7747Z" fill="#D19302"/>
<path d="M28.5357 19.6605C27.2036 20.9503 24.9278 21.0368 24.9278 21.0368C24.8677 21.0368 24.7374 20.917 24.7374 20.917C24.5067 20.6766 24.6472 20.1454 24.6472 20.1454C24.4567 20.2656 24.2764 20.7465 24.2764 20.7465C24.1664 20.8967 24.1156 20.6758 24.1156 20.6758C24.0356 20.0845 23.6547 19.8343 23.6547 19.8343C23.7347 20.1852 23.584 20.7058 23.584 20.7058C23.504 20.8663 23.4037 20.8057 23.4037 20.8057C23.1434 20.6754 23.2136 20.2949 23.2136 20.2949C22.7125 20.5556 22.7227 21.0165 22.7227 21.0165C20.7685 20.9065 19.5286 19.6666 19.5286 19.6666C19.2663 20.29 19.436 20.8715 19.436 20.8715C19.103 20.6449 18.6567 20.7156 18.6567 20.7156C19.0323 21.0839 18.5998 21.155 18.5998 21.155C17.7568 21.1197 17.544 21.5445 17.544 21.5445C17.6999 21.594 17.8343 21.8137 17.8343 21.8137C17.9688 22.1678 17.7637 22.26 17.7637 22.26C17.4591 22.416 17.1257 21.9128 17.1257 21.9128C17.0619 22.9402 17.7426 23.0824 17.7426 23.0824C17.6362 23.2099 17.0907 23.1315 17.0907 23.1315C17.5586 23.3723 17.5228 23.5925 17.5228 23.5925C17.4733 23.7979 17.1257 23.791 17.1257 23.791C16.8564 23.8337 16.6725 24.0034 16.6725 24.0034C17.31 24.1878 17.2816 24.663 17.2816 24.663C16.9413 24.996 16.6367 24.6061 16.6367 24.6061C16.7785 25.3854 17.466 25.4634 17.466 25.4634C17.6646 25.5767 17.5297 25.6551 17.5297 25.6551C17.4233 25.74 17.1703 26.0218 17.1703 26.0218C16.9998 26.1822 16.99 26.6086 16.99 26.6086C17.1301 26.4482 17.6321 26.3382 17.6321 26.3382C18.1182 26.3183 17.9976 26.739 17.9976 26.739C17.9976 26.9343 17.6215 27.3197 17.6215 27.3197C17.8973 27.4801 18.5365 27.4834 18.5365 27.4834C18.8695 27.4903 18.8411 27.6251 18.8411 27.6251C18.8553 27.9155 18.5576 28.2838 18.5576 28.2838C18.77 28.0994 19.4787 27.9297 19.4787 27.9297C19.847 27.887 19.7268 28.0852 19.7552 28.0783C19.6561 28.5177 19.8332 28.9218 19.8543 28.9645C19.9908 28.5429 20.2734 28.3602 20.366 28.3066L20.3688 28.3005C20.3688 28.3005 20.5699 28.1799 20.7327 28.3687C20.7327 28.3687 21.3204 28.772 22.3023 28.339C22.3023 28.339 22.3271 28.3269 22.3653 28.3102C22.6272 28.1729 23.64 27.5435 24.0055 25.8569C24.0055 25.8569 24.4539 27.5605 25.4525 28.2367C25.5025 28.2647 25.5524 28.2944 25.6011 28.3269C25.6105 28.3317 25.6198 28.337 25.6292 28.3419C25.6292 28.3419 25.6263 28.3439 25.6263 28.3443C25.6495 28.3671 26.2793 28.9734 27.3803 28.7833C27.3803 28.7833 27.4063 28.7744 27.4461 28.7447C27.4871 28.6883 27.5261 28.6489 27.5626 28.6229C27.5643 28.6209 27.5659 28.6197 27.5671 28.6176L27.5679 28.6193C27.7023 28.5259 27.7982 28.6034 27.7982 28.6034C27.8973 28.6745 27.8688 28.8369 27.8688 28.8369C28.3225 28.6457 28.4 28.0722 28.4 28.0722C28.5276 27.8172 28.7261 27.9796 28.7261 27.9796C28.9316 28.0787 29.0173 28.3979 29.0173 28.3979C29.1875 27.9585 29.0734 27.5053 29.0734 27.5053C29.0307 27.3351 29.1513 27.3993 29.1513 27.3993C29.9733 27.5695 30.2145 27.3563 30.2145 27.3563C29.9242 27.2145 29.8884 26.8036 29.8884 26.8036C29.9095 26.4705 30.221 26.5489 30.221 26.5489C30.5256 26.5985 30.6954 26.8182 30.6954 26.8182C30.7449 26.2939 30.327 25.8829 30.327 25.8829C30.2633 25.7058 30.377 25.6275 30.377 25.6275C31.1636 25.344 31.1652 24.9058 31.1652 24.9058C30.6994 25.0061 30.6141 24.6154 30.6141 24.6154C30.8696 24.029 31.4954 24.2191 31.4954 24.2191C31.335 23.8032 30.3766 23.5872 30.3766 23.5872C30.1995 23.4276 30.394 23.2611 30.394 23.2611C30.4647 23.1547 30.6243 22.974 30.6243 22.974C30.3656 23.0909 30.0854 23.0625 30.0854 23.0625C30.0111 23.0093 30.1272 22.9813 30.1272 22.9813C30.8286 22.6706 30.7291 21.8791 30.7291 21.8791C30.4988 22.0797 30.1077 22.0094 30.1077 22.0094C29.8474 21.9794 29.8373 21.7487 29.8373 21.7487C29.8673 21.488 30.2478 21.378 30.2478 21.378C29.847 20.8167 28.6616 20.993 28.6616 20.993C28.9024 20.171 28.5341 19.6605 28.5341 19.6605H28.5357Z" fill="#FACA04"/>
<path d="M27.3055 27.308C28.688 27.308 29.8087 26.128 29.8087 24.6724C29.8087 23.2168 28.688 22.0367 27.3055 22.0367C25.923 22.0367 24.8022 23.2168 24.8022 24.6724C24.8022 26.128 25.923 27.308 27.3055 27.308Z" fill="#C38F13"/>
<path d="M24.0048 24.8929C23.584 25.055 23.1536 26.1856 23.1536 26.1856C23.2681 27.0352 23.991 27.5318 24.0048 27.5448V27.5485C24.0048 27.5485 24.006 27.5469 24.0064 27.5469L24.0072 27.5477V27.546C24.0206 27.5326 24.7183 27.0161 24.8263 26.1787C24.8263 26.1787 24.4263 25.0546 24.0056 24.8929H24.0048Z" fill="#C38F13"/>
<path d="M20.7159 27.3016C22.0984 27.3016 23.2191 26.1215 23.2191 24.6659C23.2191 23.2103 22.0984 22.0303 20.7159 22.0303C19.3334 22.0303 18.2126 23.2103 18.2126 24.6659C18.2126 26.1215 19.3334 27.3016 20.7159 27.3016Z" fill="#C38F13"/>
<path d="M23.1543 26.1903C23.1543 26.1903 23.5852 25.4224 24.0063 25.2819L24.0079 27.5963C24.0079 27.5963 23.2144 26.9319 23.1543 26.1903Z" fill="#D19302"/>
<path d="M24.8281 26.1843C24.8281 26.1843 24.4273 25.4229 24.0066 25.2823V27.5972C24.0066 27.5972 24.768 26.9259 24.8281 26.1843Z" fill="#E6B900"/>
<path d="M20.8084 27.1578C22.1171 27.1578 23.178 26.0409 23.178 24.6631C23.178 23.2853 22.1171 22.1683 20.8084 22.1683C19.4996 22.1683 18.4387 23.2853 18.4387 24.6631C18.4387 26.0409 19.4996 27.1578 20.8084 27.1578Z" fill="#FFE26B"/>
<path d="M27.2131 27.1617C28.5219 27.1617 29.5828 26.0448 29.5828 24.667C29.5828 23.2892 28.5219 22.1722 27.2131 22.1722C25.9044 22.1722 24.8435 23.2892 24.8435 24.667C24.8435 26.0448 25.9044 27.1617 27.2131 27.1617Z" fill="#FFE26B"/>
<path d="M21.3356 26.2257C22.1022 26.2257 22.7237 25.6068 22.7237 24.8433C22.7237 24.0799 22.1022 23.4609 21.3356 23.4609C20.569 23.4609 19.9475 24.0799 19.9475 24.8433C19.9475 25.6068 20.569 26.2257 21.3356 26.2257Z" fill="#D19302"/>
<path d="M21.3458 25.861C21.9173 25.861 22.3806 25.3997 22.3806 24.8307C22.3806 24.2617 21.9173 23.8004 21.3458 23.8004C20.7743 23.8004 20.311 24.2617 20.311 24.8307C20.311 25.3997 20.7743 25.861 21.3458 25.861Z" fill="#835C00"/>
<path d="M20.7753 24.4989C20.9588 24.4989 21.1075 24.3507 21.1075 24.1679C21.1075 23.9851 20.9588 23.8369 20.7753 23.8369C20.5918 23.8369 20.4431 23.9851 20.4431 24.1679C20.4431 24.3507 20.5918 24.4989 20.7753 24.4989Z" fill="#FFE26B"/>
<path d="M26.7521 26.2299C27.5187 26.2299 28.1402 25.611 28.1402 24.8475C28.1402 24.084 27.5187 23.4651 26.7521 23.4651C25.9855 23.4651 25.364 24.084 25.364 24.8475C25.364 25.611 25.9855 26.2299 26.7521 26.2299Z" fill="#D19302"/>
<path d="M26.7623 25.8654C27.3338 25.8654 27.7971 25.4041 27.7971 24.8351C27.7971 24.2661 27.3338 23.8048 26.7623 23.8048C26.1908 23.8048 25.7275 24.2661 25.7275 24.8351C25.7275 25.4041 26.1908 25.8654 26.7623 25.8654Z" fill="#835C00"/>
<path d="M26.1916 24.5029C26.375 24.5029 26.5238 24.3547 26.5238 24.1719C26.5238 23.9891 26.375 23.8409 26.1916 23.8409C26.0081 23.8409 25.8594 23.9891 25.8594 24.1719C25.8594 24.3547 26.0081 24.5029 26.1916 24.5029Z" fill="#FFE26B"/>
<path d="M21.8299 28.4943C21.8299 28.4943 21.2995 28.6791 20.6834 28.357C20.6834 28.357 20.1323 28.1646 19.8529 28.9658C19.8338 28.9467 19.6129 28.6978 19.7457 28.0586C19.7457 28.0586 19.8018 27.8823 19.4712 27.9355C19.4712 27.9355 18.635 28.1771 18.5262 28.3242C18.5262 28.3242 18.832 27.888 18.8271 27.5944C18.8271 27.5944 18.8271 27.488 18.5241 27.4924C18.5241 27.4924 17.8634 27.4855 17.6002 27.3125C17.6002 27.3032 17.9438 26.9929 18.0007 26.7322C18.0007 26.7322 18.079 26.3367 17.7095 26.3582C17.7095 26.3582 17.2713 26.3582 16.9919 26.6189C16.9919 26.6189 16.9042 26.0832 17.4971 25.6646C17.4971 25.6646 17.6242 25.5943 17.4735 25.5204C17.4735 25.5204 16.7921 25.3908 16.6357 24.5997C16.6357 24.5997 16.9135 24.8755 17.1787 24.7333C17.1787 24.7333 17.2307 24.7143 17.264 24.6387C17.264 24.6387 17.2522 24.1806 16.6426 23.9963C16.6426 23.9963 16.8282 23.7859 17.2827 23.7481C17.2827 23.7481 17.5954 23.658 17.4439 23.4545C17.4439 23.4545 17.2274 23.2035 17.0902 23.128C17.0902 23.128 17.5592 23.1715 17.7156 23.0764C17.7014 23.0716 17.0224 22.9997 17.1219 21.9052C17.1219 21.9052 17.6571 22.5777 17.861 22.1091C17.8468 22.0807 17.9682 21.7781 17.5422 21.5458C17.5422 21.5458 17.7643 21.1101 18.5952 21.1381C18.5952 21.1381 18.979 21.0435 18.6521 20.7165C18.6521 20.7165 19.1922 20.6264 19.4338 20.8538C19.4387 20.8445 19.2689 20.2909 19.5297 19.6655C19.5297 19.6655 19.5098 20.8871 19.6897 21.3277C19.6661 21.3135 19.4009 20.9488 19.0549 20.8116C19.0549 20.8116 19.2304 21.3943 18.6143 21.4085C18.6143 21.4085 18.1168 21.309 17.8801 21.4938C17.8801 21.4938 18.2541 22.157 17.9653 22.4364C17.9653 22.4364 17.7002 22.6687 17.3541 22.3418C17.3541 22.3418 17.3184 22.8722 18.0287 23.0143C18.0287 23.0143 17.9069 23.29 17.5373 23.2994C17.5373 23.2994 17.8504 23.5877 17.6185 23.8058C17.6185 23.8058 17.3939 23.9975 17.0934 23.9995C17.0934 23.9995 17.5978 24.2846 17.5308 24.7268C17.5308 24.7268 17.368 25.0854 16.9578 24.9612C16.9578 24.9612 17.2291 25.1931 17.6847 25.3405C17.6847 25.3405 17.9613 25.5131 17.8342 25.7007C17.8342 25.7007 17.4143 25.8489 17.2871 26.2709C17.2871 26.2709 17.917 25.9764 18.2049 26.1974C18.2049 26.1974 18.4068 26.7501 17.9292 27.1919C17.9292 27.1919 18.8328 27.3369 19.2015 27.2898C19.2015 27.2898 19.0899 27.7751 18.9891 27.9091C19.0427 27.8823 19.7311 27.6074 20.1465 27.7008C20.1465 27.7008 19.8452 28.2766 19.8789 28.4911C19.8789 28.4911 20.4134 27.9412 20.8755 28.0216C20.8755 28.0216 20.7212 28.357 21.8307 28.4943H21.8299Z" fill="#E6B900"/>
<path d="M25.6238 28.342C25.6238 28.342 26.1237 28.9873 27.3903 28.7855C27.3903 28.7855 27.4724 28.7688 27.5707 28.6787C27.5707 28.6787 27.8363 28.5223 27.8696 28.8399C27.8696 28.8399 28.3 28.6929 28.3951 28.1008C28.3951 28.1008 28.4946 27.8307 28.7504 28.0106C28.7504 28.0106 28.9128 28.0923 29.0197 28.4078C29.0197 28.4078 29.2142 27.9769 29.072 27.4985C29.072 27.4985 29.0631 27.395 29.1626 27.4185C29.1626 27.4185 29.8899 27.6366 30.2217 27.3527C30.2217 27.3527 29.8477 27.1513 29.933 26.6587C29.933 26.6587 30.0203 26.4873 30.3233 26.5775C30.3233 26.5775 30.5783 26.6595 30.6981 26.8256C30.6981 26.8256 30.8077 26.2952 30.3513 25.8786C30.3513 25.8786 30.242 25.7336 30.4122 25.6268C30.4122 25.6268 31.1123 25.3884 31.1761 24.8966C31.1761 24.8966 30.7899 25.0237 30.6205 24.618C30.6205 24.618 30.8281 24.0665 31.503 24.2229C31.503 24.2229 31.3467 23.7571 30.398 23.5861C30.398 23.5861 30.2225 23.5219 30.3858 23.2783L30.6335 22.9668C30.6335 22.9668 30.2741 23.1166 30.08 23.0362C30.08 23.0362 30.0378 23.0159 30.1348 22.9822C30.1348 22.9822 30.7972 22.7442 30.7367 21.8699C30.7367 21.8699 30.1588 22.2008 29.8721 21.8496C29.8721 21.8496 29.6999 21.5994 30.2526 21.3781C30.2526 21.3781 30.0788 20.8367 28.6769 20.9833C28.6769 20.9833 28.925 20.202 28.5364 19.6594C28.5364 19.6594 28.6416 20.7344 28.246 21.3431C28.246 21.3431 29.213 21.0276 30.0877 21.3411C30.0877 21.3411 29.4002 21.4102 29.7393 21.9909C29.7393 21.9909 29.9403 22.3056 30.5702 22.1651C30.5702 22.1651 30.2351 22.8084 29.8331 23.0492C29.8331 23.0492 30.1279 23.2234 30.3289 23.2031C30.3192 23.2385 30.082 23.608 30.0016 23.6413C30.0016 23.6413 30.6169 23.7189 31.0254 24.034C31.0254 24.034 30.6368 24.1209 30.4492 24.6505C30.4492 24.6505 30.6636 25.0391 30.8914 25.0927C30.8971 25.0724 30.4293 25.5147 30.0674 25.6353C30.0942 25.6686 30.5028 26.3322 30.5767 26.5665C30.5767 26.5665 30.1677 26.2002 29.8331 26.5064C29.8331 26.5064 29.6227 26.8727 29.812 27.2183C29.812 27.2183 29.2861 27.2987 28.9498 27.2134C28.9498 27.2134 29.016 27.8007 28.9734 27.9761C28.9734 27.9761 28.7366 27.7771 28.4332 27.758C28.4332 27.758 28.2298 28.4212 28.0068 28.5114C28.0068 28.5114 27.874 28.3408 27.6848 28.2791C27.6848 28.2791 26.5477 29.0978 25.6242 28.34L25.6238 28.342Z" fill="#E6B900"/>
<path d="M23.9964 32.9471L24.4233 31.6504L25.7886 31.6529L24.6872 30.8459L25.112 29.5484L24.0046 30.3464L22.902 29.5415L23.3186 30.8415L22.2124 31.6415L23.5773 31.6472L23.9964 32.9463V32.9471Z" fill="#D19302"/>
<path fill-rule="evenodd" clip-rule="evenodd" d="M22.9036 29.5437L24.0066 31.069L23.3178 30.8493L22.9036 29.5437Z" fill="#FFD219"/>
<path fill-rule="evenodd" clip-rule="evenodd" d="M22.2223 31.6416L24.0011 31.0609L23.5804 31.6485L22.2219 31.6416H22.2223Z" fill="#FFD219"/>
<path fill-rule="evenodd" clip-rule="evenodd" d="M24.0045 31.0688L23.9988 32.9499L24.428 31.6386L24.0049 31.0688H24.0045Z" fill="#FFD219"/>
<path fill-rule="evenodd" clip-rule="evenodd" d="M24.0027 31.0678L25.7762 31.6509L24.6841 30.844L24.0031 31.0674L24.0027 31.0678Z" fill="#FFD219"/>
<path fill-rule="evenodd" clip-rule="evenodd" d="M24.0024 31.0702L25.1119 29.5493L24.0037 30.3493L24.0024 31.0702Z" fill="#FFD219"/>
<path d="M26.6357 31.4122L26.9143 30.5659L27.8053 30.5675L27.0865 30.0408L27.3639 29.194L26.641 29.7151L25.9214 29.1896L26.1935 30.0379L25.4714 30.5602L26.3624 30.5638L26.6362 31.4118L26.6357 31.4122Z" fill="#D19302"/>
<path fill-rule="evenodd" clip-rule="evenodd" d="M25.9221 29.1903L26.6421 30.1861L26.1926 30.0427L25.9221 29.1907V29.1903Z" fill="#FFD219"/>
<path fill-rule="evenodd" clip-rule="evenodd" d="M25.4778 30.5596L26.6388 30.1807L26.3643 30.564L25.4778 30.5596Z" fill="#FFD219"/>
<path fill-rule="evenodd" clip-rule="evenodd" d="M26.6409 30.186L26.6372 31.4137L26.9174 30.558L26.6413 30.186H26.6409Z" fill="#FFD219"/>
<path fill-rule="evenodd" clip-rule="evenodd" d="M26.6399 30.1852L27.7973 30.5662L27.0846 30.0394L26.6399 30.1852Z" fill="#FFD219"/>
<path fill-rule="evenodd" clip-rule="evenodd" d="M26.6399 30.1867L27.364 29.1942L26.6407 29.7165L26.6399 30.1871V30.1867Z" fill="#FFD219"/>
<path d="M21.3601 31.4122L21.6387 30.5659L22.5297 30.5675L21.8109 30.0408L22.0883 29.194L21.3654 29.7151L20.6458 29.1896L20.9179 30.0379L20.1958 30.5602L21.0868 30.5638L21.3605 31.4118L21.3601 31.4122Z" fill="#D19302"/>
<path fill-rule="evenodd" clip-rule="evenodd" d="M20.6462 29.1903L21.3663 30.1861L20.9167 30.0427L20.6462 29.1907V29.1903Z" fill="#FFD219"/>
<path fill-rule="evenodd" clip-rule="evenodd" d="M20.2021 30.5596L21.3632 30.1807L21.0887 30.564L20.2021 30.5596Z" fill="#FFD219"/>
<path fill-rule="evenodd" clip-rule="evenodd" d="M21.3652 30.186L21.3616 31.4137L21.6418 30.558L21.3656 30.186H21.3652Z" fill="#FFD219"/>
<path fill-rule="evenodd" clip-rule="evenodd" d="M21.364 30.1852L22.5214 30.5662L21.8087 30.0394L21.364 30.1852Z" fill="#FFD219"/>
<path fill-rule="evenodd" clip-rule="evenodd" d="M21.364 30.1867L22.0881 29.1942L21.3648 29.7165L21.364 30.1871V30.1867Z" fill="#FFD219"/>
<path d="M23.9964 16.0294L24.4233 17.3261L25.7886 17.3237L24.6872 18.1306L25.112 19.4281L24.0046 18.6301L22.902 19.435L23.3186 18.1351L22.2124 17.3351L23.5773 17.3294L23.9964 16.0302V16.0294Z" fill="#D19302"/>
<path fill-rule="evenodd" clip-rule="evenodd" d="M22.9036 19.4328L24.0066 17.9075L23.3178 18.1272L22.9036 19.4328Z" fill="#FFD219"/>
<path fill-rule="evenodd" clip-rule="evenodd" d="M22.2223 17.3349L24.0011 17.9156L23.5804 17.328L22.2219 17.3349H22.2223Z" fill="#FFD219"/>
<path fill-rule="evenodd" clip-rule="evenodd" d="M24.0045 17.9073L23.9988 16.0262L24.428 17.3376L24.0049 17.9073H24.0045Z" fill="#FFD219"/>
<path fill-rule="evenodd" clip-rule="evenodd" d="M24.0027 17.9085L25.7762 17.3253L24.6841 18.1323L24.0031 17.9089L24.0027 17.9085Z" fill="#FFD219"/>
<path fill-rule="evenodd" clip-rule="evenodd" d="M24.0024 17.9062L25.1119 19.4271L24.0037 18.6271L24.0024 17.9062Z" fill="#FFD219"/>
<path d="M26.6357 17.5643L26.9143 18.4107L27.8053 18.409L27.0865 18.9358L27.3639 19.7825L26.641 19.2615L25.9214 19.787L26.1935 18.9386L25.4714 18.4163L26.3624 18.4127L26.6362 17.5647L26.6357 17.5643Z" fill="#D19302"/>
<path fill-rule="evenodd" clip-rule="evenodd" d="M25.9221 19.7856L26.6421 18.7898L26.1926 18.9332L25.9221 19.7852V19.7856Z" fill="#FFD219"/>
<path fill-rule="evenodd" clip-rule="evenodd" d="M25.4778 18.4162L26.6388 18.7951L26.3643 18.4117L25.4778 18.4162Z" fill="#FFD219"/>
<path fill-rule="evenodd" clip-rule="evenodd" d="M26.6409 18.7903L26.6372 17.5626L26.9174 18.4183L26.6413 18.7903H26.6409Z" fill="#FFD219"/>
<path fill-rule="evenodd" clip-rule="evenodd" d="M26.6399 18.7911L27.7973 18.4102L27.0846 18.9369L26.6399 18.7911Z" fill="#FFD219"/>
<path fill-rule="evenodd" clip-rule="evenodd" d="M26.6399 18.7895L27.364 19.782L26.6407 19.2597L26.6399 18.7891V18.7895Z" fill="#FFD219"/>
<path d="M21.3601 17.5643L21.6387 18.4107L22.5297 18.409L21.8109 18.9358L22.0883 19.7825L21.3654 19.2615L20.6458 19.787L20.9179 18.9386L20.1958 18.4163L21.0868 18.4127L21.3605 17.5647L21.3601 17.5643Z" fill="#D19302"/>
<path fill-rule="evenodd" clip-rule="evenodd" d="M20.6462 19.7856L21.3663 18.7898L20.9167 18.9332L20.6462 19.7852V19.7856Z" fill="#FFD219"/>
<path fill-rule="evenodd" clip-rule="evenodd" d="M20.2021 18.4162L21.3632 18.7951L21.0887 18.4117L20.2021 18.4162Z" fill="#FFD219"/>
<path fill-rule="evenodd" clip-rule="evenodd" d="M21.3652 18.7903L21.3616 17.5626L21.6418 18.4183L21.3656 18.7903H21.3652Z" fill="#FFD219"/>
<path fill-rule="evenodd" clip-rule="evenodd" d="M21.364 18.7911L22.5214 18.4102L21.8087 18.9369L21.364 18.7911Z" fill="#FFD219"/>
<path fill-rule="evenodd" clip-rule="evenodd" d="M21.364 18.7895L22.0881 19.782L21.3648 19.2597L21.364 18.7891V18.7895Z" fill="#FFD219"/>
</svg>
