<svg width="48" height="48" viewBox="0 0 48 48" fill="none" xmlns="http://www.w3.org/2000/svg">
<path d="M0 5.33333C0 2.38781 2.38781 0 5.33333 0H42.6667C45.6122 0 48 2.38781 48 5.33333V42.6667C48 45.6122 45.6122 48 42.6667 48H5.33333C2.38781 48 0 45.6122 0 42.6667V5.33333Z" fill="#7367F0" fill-opacity="0.12"/>
<path d="M23.9916 12C21.1297 12.0043 18.2864 13.1759 16.2549 15.1882C14.2344 17.1891 13.0432 19.9974 13.0033 22.8378C13.0011 22.8552 13 22.8727 13 22.8902V25.1524C13 25.1729 13.0016 25.1933 13.0044 25.2136C13.0044 25.2137 13.0044 25.2139 13.0044 25.214C13.058 28.0469 14.2557 30.8427 16.2763 32.833C18.3105 34.8365 21.1505 35.9999 24.008 36C26.8655 35.9999 29.7061 34.8366 31.7403 32.8331C33.7613 30.8424 34.9591 28.0457 35.0122 25.2121C35.0149 25.1923 35.0165 25.1724 35.0165 25.1524V25.0109C35.0165 25.0057 35.0165 25.0004 35.0165 24.9952V22.9891C35.0165 22.9838 35.0165 22.9784 35.0165 22.9732V22.8902C35.0165 22.873 35.0154 22.8557 35.0132 22.8387C34.9733 19.9953 33.7799 17.184 31.7561 15.1825C29.7208 13.1698 26.8731 12.0001 24.0085 12C24.0031 12 23.9976 12 23.9921 12H23.9916Z" fill="#31306C"/>
<path d="M24.0239 33.2715C29.6819 33.2715 34.2686 28.6929 34.2686 23.0449C34.2686 17.3969 29.6819 12.8182 24.0239 12.8182C18.366 12.8182 13.7793 17.3969 13.7793 23.0449C13.7793 28.6929 18.366 33.2715 24.0239 33.2715Z" fill="#7775F3"/>
<g filter="url(#filter0_d_855_5772)">
<path d="M23.9615 16.0844C23.9237 16.0854 23.8869 16.0968 23.8551 16.1174C23.8232 16.138 23.7976 16.167 23.7808 16.2012L21.8889 20.0747L17.6587 20.696C17.6204 20.7016 17.5844 20.718 17.5549 20.7432C17.5253 20.7684 17.5033 20.8015 17.4913 20.8387C17.4794 20.8759 17.478 20.9157 17.4872 20.9536C17.4965 20.9916 17.5161 21.0262 17.5438 21.0535L20.6047 24.0685L19.8822 28.326C19.8756 28.3645 19.8799 28.4042 19.8945 28.4404C19.9091 28.4766 19.9334 28.508 19.9647 28.531C19.996 28.5539 20.033 28.5676 20.0716 28.5705C20.1102 28.5733 20.1488 28.5652 20.1831 28.547L23.9667 26.537L27.7505 28.547C27.7847 28.5652 27.8233 28.5733 27.8619 28.5705C27.9005 28.5676 27.9376 28.5539 27.9689 28.531C28.0002 28.508 28.0245 28.4766 28.039 28.4404C28.0536 28.4042 28.0579 28.3645 28.0514 28.326L27.3288 24.0685L30.3897 21.0535C30.4174 21.0262 30.437 20.9916 30.4463 20.9536C30.4556 20.9157 30.4541 20.8759 30.4422 20.8387C30.4302 20.8015 30.4082 20.7684 30.3787 20.7432C30.3491 20.718 30.3131 20.7016 30.2748 20.696L26.0446 20.0747L24.1528 16.2012C24.1353 16.1653 24.108 16.1352 24.0741 16.1146C24.0402 16.0939 24.0011 16.0834 23.9615 16.0844Z" fill="#EAEAFF"/>
</g>
<defs>
<filter id="filter0_d_855_5772" x="17.4812" y="16.0844" width="12.9712" height="15.4867" filterUnits="userSpaceOnUse" color-interpolation-filters="sRGB">
<feFlood flood-opacity="0" result="BackgroundImageFix"/>
<feColorMatrix in="SourceAlpha" type="matrix" values="0 0 0 0 0 0 0 0 0 0 0 0 0 0 0 0 0 0 127 0" result="hardAlpha"/>
<feOffset dy="3"/>
<feComposite in2="hardAlpha" operator="out"/>
<feColorMatrix type="matrix" values="0 0 0 0 0.192157 0 0 0 0 0.188235 0 0 0 0 0.423529 0 0 0 0.2 0"/>
<feBlend mode="normal" in2="BackgroundImageFix" result="effect1_dropShadow_855_5772"/>
<feBlend mode="normal" in="SourceGraphic" in2="effect1_dropShadow_855_5772" result="shape"/>
</filter>
</defs>
</svg>
