<svg width="26" height="26" viewBox="0 0 26 26" fill="none" xmlns="http://www.w3.org/2000/svg">
<path d="M12.1875 18.4167H7.58335C6.08474 18.4167 4.80731 17.8886 3.75106 16.8323C2.69481 15.7761 2.16669 14.4987 2.16669 13C2.16669 11.5014 2.69481 10.224 3.75106 9.16775C4.80731 8.1115 6.08474 7.58337 7.58335 7.58337H12.1875V9.20837H7.58335C6.53012 9.20837 5.63486 9.57639 4.89758 10.3124C4.16032 11.0484 3.79169 11.9422 3.79169 12.9937C3.79169 14.0451 4.16032 14.941 4.89758 15.6813C5.63486 16.4216 6.53012 16.7917 7.58335 16.7917H12.1875V18.4167ZM8.8021 13.8125V12.1875H17.1979V13.8125H8.8021ZM13.8125 18.4167V16.7917H18.4167C19.4699 16.7917 20.3652 16.4237 21.1025 15.6877C21.8397 14.9516 22.2084 14.0579 22.2084 13.0064C22.2084 11.9549 21.8397 11.0591 21.1025 10.3188C20.3652 9.57851 19.4699 9.20837 18.4167 9.20837H13.8125V7.58337H18.4167C19.9153 7.58337 21.1927 8.1115 22.249 9.16775C23.3052 10.224 23.8334 11.5014 23.8334 13C23.8334 14.4987 23.3052 15.7761 22.249 16.8323C21.1927 17.8886 19.9153 18.4167 18.4167 18.4167H13.8125Z" fill="#7367F0"/>
</svg>
