<svg width="26" height="26" viewBox="0 0 26 26" fill="none" xmlns="http://www.w3.org/2000/svg">
<path d="M11.9302 12.4584C10.8017 12.4584 9.84028 12.0606 9.04583 11.265C8.25139 10.4694 7.85417 9.51306 7.85417 8.39587C7.85417 7.25837 8.25195 6.29692 9.04751 5.5115C9.84309 4.72608 10.7995 4.33337 11.9167 4.33337C13.0542 4.33337 14.0156 4.72608 14.801 5.5115C15.5865 6.29692 15.9792 7.25386 15.9792 8.38233C15.9792 9.5108 15.5865 10.4723 14.801 11.2667C14.0156 12.0612 13.0587 12.4584 11.9302 12.4584ZM11.9167 10.8334C12.6028 10.8334 13.1806 10.5947 13.65 10.1173C14.1194 9.64001 14.3542 9.06619 14.3542 8.39587C14.3542 7.70976 14.1194 7.13199 13.65 6.66254C13.1806 6.1931 12.6073 5.95837 11.9302 5.95837C11.2531 5.95837 10.6753 6.1931 10.1969 6.66254C9.7184 7.13199 9.47917 7.70525 9.47917 8.38233C9.47917 9.05942 9.71784 9.63719 10.1952 10.1157C10.6725 10.5941 11.2464 10.8334 11.9167 10.8334ZM24.3208 25.4584L20.5292 21.6667C20.1139 21.9737 19.6851 22.1858 19.2427 22.3032C18.8003 22.4205 18.3484 22.4792 17.8868 22.4792C16.6046 22.4792 15.5147 22.0313 14.6171 21.1354C13.7196 20.2395 13.2708 19.1517 13.2708 17.8718C13.2708 16.592 13.7188 15.5052 14.6147 14.6115C15.5105 13.7177 16.5984 13.2709 17.8782 13.2709C19.158 13.2709 20.2448 13.7196 21.1385 14.6172C22.0323 15.5147 22.4792 16.6046 22.4792 17.8868C22.4792 18.3484 22.4205 18.8004 22.3031 19.2427C22.1858 19.6851 21.9736 20.1139 21.6667 20.5292L25.4583 24.3209L24.3208 25.4584ZM17.875 20.8542C18.7236 20.8542 19.4323 20.5698 20.001 20.0011C20.5698 19.4323 20.8542 18.7237 20.8542 17.875C20.8542 17.0264 20.5698 16.3177 20.001 15.749C19.4323 15.1802 18.7236 14.8959 17.875 14.8959C17.0264 14.8959 16.3177 15.1802 15.749 15.749C15.1802 16.3177 14.8958 17.0264 14.8958 17.875C14.8958 18.7237 15.1802 19.4323 15.749 20.0011C16.3177 20.5698 17.0264 20.8542 17.875 20.8542ZM3.25 21.6667V19.1209C3.25 18.4528 3.40799 17.8841 3.72396 17.4146C4.03993 16.9452 4.49583 16.557 5.09167 16.25C5.94028 15.8348 7.04618 15.4421 8.40938 15.0719C9.77257 14.7018 11.1583 14.5618 12.5667 14.6521C12.4222 14.8868 12.2868 15.1441 12.1604 15.424C12.034 15.7039 11.9347 15.9792 11.8625 16.25C10.4542 16.232 9.22639 16.399 8.17917 16.7511C7.13194 17.1032 6.31944 17.4237 5.74167 17.7125C5.48889 17.857 5.28125 18.0511 5.11875 18.2948C4.95625 18.5386 4.875 18.8139 4.875 19.1209V20.0417H11.8625C12.0611 20.3487 12.2417 20.633 12.4042 20.8948C12.5667 21.1566 12.7472 21.4139 12.9458 21.6667H3.25Z" fill="#7367F0"/>
</svg>
