<svg width="26" height="26" viewBox="0 0 26 26" fill="none" xmlns="http://www.w3.org/2000/svg">
<path d="M13.0032 17.0625C14.2831 17.0625 15.3698 16.6146 16.2636 15.7187C17.1573 14.8229 17.6042 13.735 17.6042 12.4552C17.6042 11.1754 17.1563 10.0886 16.2604 9.19483C15.3645 8.30108 14.2767 7.85421 12.9968 7.85421C11.717 7.85421 10.6302 8.30215 9.7365 9.19803C8.84275 10.0939 8.39587 11.1817 8.39587 12.4616C8.39587 13.7414 8.84381 14.8282 9.7397 15.7219C10.6356 16.6157 11.7234 17.0625 13.0032 17.0625ZM12.9937 15.4917C12.1493 15.4917 11.4337 15.1962 10.8469 14.6051C10.2601 14.0141 9.96671 13.2964 9.96671 12.452C9.96671 11.6076 10.2622 10.8921 10.8533 10.3052C11.4443 9.71844 12.1621 9.42504 13.0064 9.42504C13.8508 9.42504 14.5664 9.72056 15.1532 10.3116C15.74 10.9027 16.0334 11.6204 16.0334 12.4647C16.0334 13.3091 15.7379 14.0247 15.1468 14.6115C14.5557 15.1983 13.838 15.4917 12.9937 15.4917ZM13 20.5834C10.3639 20.5834 7.9806 19.8341 5.85004 18.3355C3.71949 16.8368 2.1306 14.8778 1.08337 12.4584C2.1306 10.0389 3.71949 8.0799 5.85004 6.58129C7.9806 5.08268 10.3639 4.33337 13 4.33337C15.6362 4.33337 18.0195 5.08268 20.15 6.58129C22.2806 8.0799 23.8695 10.0389 24.9167 12.4584C23.8695 14.8778 22.2806 16.8368 20.15 18.3355C18.0195 19.8341 15.6362 20.5834 13 20.5834ZM12.9955 18.9584C15.1832 18.9584 17.1934 18.3671 19.0261 17.1844C20.8587 16.0018 22.2535 14.4264 23.2105 12.4584C22.2535 10.4903 20.8602 8.91497 19.0307 7.73233C17.2011 6.54969 15.1924 5.95837 13.0046 5.95837C10.8168 5.95837 8.80664 6.54969 6.974 7.73233C5.14136 8.91497 3.73754 10.4903 2.76254 12.4584C3.73754 14.4264 5.13983 16.0018 6.96942 17.1844C8.79903 18.3671 10.8077 18.9584 12.9955 18.9584Z" fill="#7367F0"/>
</svg>
