<svg width="26" height="26" viewBox="0 0 26 26" fill="none" xmlns="http://www.w3.org/2000/svg">
<path d="M10.4271 14.8416L11.4021 11.727L8.82918 9.72288H11.9708L13 6.49996L14.0021 9.72288H17.1708L14.5979 11.727L15.5458 14.8416L13 12.9187L10.4271 14.8416ZM6.60834 24.9166V16.6833C5.79584 15.8347 5.21355 14.9048 4.86147 13.8937C4.50939 12.8826 4.33334 11.8625 4.33334 10.8333C4.33334 8.37774 5.1639 6.3194 6.82501 4.65829C8.48612 2.99718 10.5445 2.16663 13 2.16663C15.4556 2.16663 17.5139 2.99718 19.175 4.65829C20.8361 6.3194 21.6667 8.37774 21.6667 10.8333C21.6667 11.8625 21.4906 12.8826 21.1386 13.8937C20.7865 14.9048 20.2042 15.8347 19.3917 16.6833V24.9166L13 22.777L6.60834 24.9166ZM13 17.875C14.9681 17.875 16.6337 17.1934 17.9969 15.8302C19.3601 14.467 20.0417 12.8013 20.0417 10.8333C20.0417 8.86524 19.3601 7.19961 17.9969 5.83642C16.6337 4.47322 14.9681 3.79163 13 3.79163C11.032 3.79163 9.36633 4.47322 8.00314 5.83642C6.63994 7.19961 5.95834 8.86524 5.95834 10.8333C5.95834 12.8013 6.63994 14.467 8.00314 15.8302C9.36633 17.1934 11.032 17.875 13 17.875ZM8.23334 22.6416L13 21.152L17.7667 22.6416V18.0104C17.0445 18.534 16.2681 18.9132 15.4375 19.1479C14.607 19.3826 13.7945 19.5 13 19.5C12.2056 19.5 11.3931 19.3826 10.5625 19.1479C9.73195 18.9132 8.95557 18.534 8.23334 18.0104V22.6416Z" fill="#7367F0"/>
</svg>
