<svg width="48" height="48" viewBox="0 0 48 48" fill="none" xmlns="http://www.w3.org/2000/svg">
<path d="M0 5.33333C0 2.38781 2.38781 0 5.33333 0H42.6667C45.6122 0 48 2.38781 48 5.33333V42.6667C48 45.6122 45.6122 48 42.6667 48H5.33333C2.38781 48 0 45.6122 0 42.6667V5.33333Z" fill="#7367F0" fill-opacity="0.12"/>
<path d="M28.1956 12.2333C25.8158 12.2333 23.8038 13.0689 22.1321 14.7519C20.4595 16.4357 19.6292 18.4549 19.6292 20.8359C19.6292 21.7995 19.786 22.7269 20.0989 23.621C20.411 24.5127 20.8797 25.3526 21.51 26.1406L21.7913 26.4921L21.4719 26.8085L12.4426 35.7695L13.2981 36.6259L22.6243 27.2997L22.9758 27.6044C23.6374 28.1778 24.4132 28.6277 25.3079 28.9521C26.1983 29.2749 27.1485 29.4374 28.1604 29.4374C30.5901 29.4373 32.6308 28.5997 34.3127 26.9179C35.9967 25.2339 36.8332 23.2156 36.8333 20.8359C36.8333 18.456 35.9968 16.4379 34.3127 14.7538C32.6297 13.0708 30.6005 12.2334 28.1956 12.2333ZM28.1956 13.3671C30.2706 13.3671 32.0514 14.1 33.509 15.5576C34.9654 17.0139 35.6995 18.7827 35.6995 20.8359C35.6994 22.8889 34.9652 24.657 33.509 26.1132C32.0514 27.5708 30.2706 28.3046 28.1956 28.3046C26.1423 28.3046 24.3789 27.5698 22.9338 26.1122C21.4899 24.6557 20.762 22.8875 20.762 20.8359C20.762 18.7842 21.4899 17.0161 22.9338 15.5595C24.3789 14.1018 26.1423 13.3671 28.1956 13.3671Z" fill="#7367F0" stroke="#7367F0"/>
</svg>
