<svg width="48" height="48" viewBox="0 0 48 48" fill="none" xmlns="http://www.w3.org/2000/svg">
<rect width="48" height="48" rx="2" fill="#7367F0"/>
<mask id="mask0_1979_182" style="mask-type:alpha" maskUnits="userSpaceOnUse" x="5" y="6" width="37" height="36">
<rect x="5.66666" y="6" width="36" height="36" fill="#D9D9D9"/>
</mask>
<g mask="url(#mask0_1979_182)">
<path d="M12.6417 39C11.2917 39 10.2917 38.725 9.64166 38.175C8.99166 37.625 8.66666 36.8 8.66666 35.7C8.66666 34.25 9.27916 33.325 10.5042 32.925C11.7292 32.525 13.1792 32.325 14.8542 32.325H15.6417V30.225C15.6417 29.4418 15.625 28.7771 15.5918 28.2311C15.5583 27.6854 15.479 27.2375 15.354 26.8875C15.229 26.5375 15.0853 26.2813 14.9228 26.1188C14.7603 25.9563 14.5499 25.875 14.2917 25.875C14.0667 25.875 13.8604 25.9125 13.6729 25.9875C13.4854 26.0625 13.3292 26.1625 13.2042 26.2875C13.1042 26.4125 13.0417 26.5438 13.0167 26.6813C12.9917 26.8188 13.0042 26.9625 13.0542 27.1125C13.2042 27.3875 13.3792 27.6563 13.5792 27.9188C13.7792 28.1813 13.8792 28.4875 13.8792 28.8375C13.8792 29.4625 13.6604 29.9938 13.2229 30.4313C12.7854 30.8688 12.2542 31.0875 11.6292 31.0875C11.0042 31.0875 10.4729 30.8688 10.0354 30.4313C9.59791 29.9938 9.37916 29.4625 9.37916 28.8375C9.37916 28.1625 9.52916 27.6125 9.82916 27.1875C10.1292 26.7625 10.5354 26.425 11.0479 26.175C11.5604 25.925 12.1542 25.75 12.8292 25.65C13.5042 25.55 14.2292 25.5 15.0042 25.5C17.1292 25.5 18.6042 25.8813 19.4292 26.6438C20.2542 27.4063 20.6667 28.75 20.6667 30.675V36.1875C20.6667 36.6625 20.7229 37.0125 20.8354 37.2375C20.9479 37.4625 21.1417 37.575 21.4167 37.575C21.7167 37.575 21.9604 37.35 22.1479 36.9C22.3354 36.45 22.4542 35.75 22.5042 34.8H22.9167C22.8417 36.35 22.5479 37.4375 22.0354 38.0625C21.5229 38.6875 20.6667 39 19.4667 39C18.3917 39 17.5479 38.8313 16.9354 38.4938C16.3229 38.1563 15.9292 37.65 15.7542 36.975C15.5042 37.7 15.1354 38.2188 14.6479 38.5313C14.1604 38.8438 13.4917 39 12.6417 39ZM26.6292 39C26.1292 39 25.7229 38.7938 25.4104 38.3813C25.0979 37.9688 25.0417 37.525 25.2417 37.05L29.0667 26.9625C29.2417 26.5375 29.5167 26.1875 29.8917 25.9125C30.2667 25.6375 30.6917 25.5 31.1667 25.5C31.6417 25.5 32.0667 25.6375 32.4417 25.9125C32.8167 26.1875 33.0917 26.5375 33.2667 26.9625L37.0917 37.05C37.2917 37.525 37.2354 37.9688 36.9229 38.3813C36.6104 38.7938 36.2042 39 35.7042 39C35.4042 39 35.1292 38.9125 34.8792 38.7375C34.6292 38.5625 34.4417 38.325 34.3167 38.025L33.5667 35.85H28.7667L28.0167 38.025C27.9167 38.3 27.7417 38.5313 27.4917 38.7188C27.2417 38.9063 26.9542 39 26.6292 39ZM14.4792 37.9125C14.8042 37.9125 15.0792 37.6563 15.3042 37.1438C15.5292 36.6313 15.6417 36.0125 15.6417 35.2875V32.775C14.9917 32.775 14.5167 32.9688 14.2167 33.3563C13.9167 33.7438 13.7667 34.375 13.7667 35.25V35.6625C13.7667 36.5625 13.8167 37.1625 13.9167 37.4625C14.0167 37.7625 14.2042 37.9125 14.4792 37.9125ZM29.7417 33.225H32.6292L31.1667 28.95L29.7417 33.225ZM28.3542 22.5375C27.1542 22.5375 26.1979 22.1188 25.4854 21.2813C24.7729 20.4438 24.4167 19.3125 24.4167 17.8875C24.4167 15.2875 25.2375 13.1604 26.8793 11.5061C28.5208 9.85213 30.6374 9.02512 33.2292 9.02512C34.3124 9.02512 35.1708 9.13963 35.8043 9.36863C36.4375 9.59788 36.7542 9.9 36.7542 10.275C36.7542 10.425 36.7292 10.575 36.6792 10.725C36.6292 10.875 36.5417 11.0125 36.4167 11.1375C36.2917 11.3125 36.1354 11.4375 35.9479 11.5125C35.7604 11.5875 35.5667 11.6 35.3667 11.55C35.0167 11.45 34.6167 11.3625 34.1667 11.2875C33.7167 11.2125 33.3042 11.175 32.9292 11.175C31.1542 11.175 29.7292 11.775 28.6542 12.975C27.5792 14.175 27.0417 15.7625 27.0417 17.7375C27.0417 18.2875 27.1417 18.8625 27.3417 19.4625C27.5417 20.0625 27.9917 20.3625 28.6917 20.3625C28.9667 20.3625 29.2354 20.3 29.4979 20.175C29.7604 20.05 29.9917 19.875 30.1917 19.65C30.6167 19.2 31.0104 18.45 31.3729 17.4C31.7354 16.35 32.0667 15.075 32.3667 13.575C32.4167 13.25 32.5479 13.0188 32.7604 12.8813C32.9729 12.7438 33.2667 12.675 33.6417 12.675C34.0917 12.675 34.4354 12.7938 34.6729 13.0312C34.9104 13.2688 34.9792 13.5625 34.8792 13.9125C34.5792 14.9875 34.3604 15.925 34.2229 16.725C34.0854 17.525 34.0167 18.25 34.0167 18.9C34.0167 19.4 34.0854 19.7625 34.2229 19.9875C34.3604 20.2125 34.5667 20.325 34.8417 20.325C35.1167 20.325 35.3854 20.225 35.6479 20.025C35.9104 19.825 36.2792 19.45 36.7542 18.9C36.8042 18.825 36.9917 18.7375 37.3167 18.6375C37.5167 18.6375 37.6667 18.7125 37.7667 18.8625C37.8667 19.0125 37.9167 19.225 37.9167 19.5C37.9167 20.2 37.5167 20.875 36.7167 21.525C35.9167 22.175 35.0792 22.5 34.2042 22.5C33.5542 22.5 32.9979 22.325 32.5354 21.975C32.0729 21.625 31.7542 21.125 31.5792 20.475C31.2042 21.125 30.7417 21.6313 30.1917 21.9938C29.6417 22.3563 29.0292 22.5375 28.3542 22.5375ZM10.1667 22.5V14.25C10.1667 12.8 10.6792 11.5625 11.7042 10.5375C12.7292 9.5125 13.9667 9 15.4167 9C16.8667 9 18.1042 9.5125 19.1292 10.5375C20.1542 11.5625 20.6667 12.8 20.6667 14.25V22.5H17.6667V19.5H13.1667V22.5H10.1667ZM13.1667 16.5H17.6667V14.25C17.6667 13.625 17.4479 13.0938 17.0104 12.6563C16.5729 12.2188 16.0417 12 15.4167 12C14.7917 12 14.2604 12.2188 13.8229 12.6563C13.3854 13.0938 13.1667 13.625 13.1667 14.25V16.5Z" fill="white"/>
</g>
</svg>
