<svg width="48" height="48" viewBox="0 0 48 48" fill="none" xmlns="http://www.w3.org/2000/svg">
<rect width="48" height="48" rx="2" fill="#FFAA48"/>
<mask id="mask0_1979_160" style="mask-type:alpha" maskUnits="userSpaceOnUse" x="5" y="6" width="37" height="36">
<rect x="5.66669" y="6" width="36" height="36" fill="#D9D9D9"/>
</mask>
<g mask="url(#mask0_1979_160)">
<path d="M11.6667 37.5V32.175L32.5291 11.325C32.8126 11.0418 33.1126 10.8334 33.4291 10.6999C33.7458 10.5666 34.0751 10.5 34.4168 10.5C34.7501 10.5 35.0729 10.5666 35.3854 10.6999C35.6979 10.8334 35.9917 11.0418 36.2667 11.325L37.8417 12.9C38.1249 13.1583 38.3333 13.4436 38.4668 13.7561C38.6001 14.0686 38.6667 14.3999 38.6667 14.7499C38.6667 15.0749 38.6001 15.3999 38.4668 15.7249C38.3333 16.0499 38.1249 16.3541 37.8417 16.6376L16.9917 37.5H11.6667ZM14.1668 34.9999H15.9668L32.0292 18.9499L31.1292 18.0375L30.2168 17.1375L14.1668 33.1999V34.9999ZM31.1292 18.0375L30.2168 17.1375L32.0292 18.9499L31.1292 18.0375ZM26.6667 37.5C28.5834 37.5 30.3126 37.0416 31.8541 36.1249C33.3958 35.2084 34.1667 33.9167 34.1667 32.25C34.1667 31.2833 33.8417 30.4124 33.1917 29.6374C32.5417 28.8624 31.5583 28.2374 30.2416 27.7624L28.3291 29.6749C29.3541 29.9584 30.1666 30.3334 30.7666 30.7999C31.3666 31.2666 31.6666 31.75 31.6666 32.25C31.6666 32.975 31.1771 33.6146 30.1981 34.1689C29.2188 34.7229 28.0417 34.9999 26.6667 34.9999C26.3249 34.9999 26.0312 35.1186 25.7854 35.3561C25.5397 35.5936 25.4168 35.8916 25.4168 36.2501C25.4168 36.5916 25.5397 36.8854 25.7854 37.1314C26.0312 37.3771 26.3249 37.5 26.6667 37.5ZM13.9542 26.325L15.9042 24.375C14.8374 24.0918 14.0312 23.7939 13.4854 23.4814C12.9397 23.1689 12.6668 22.8418 12.6668 22.5C12.6668 22.1333 12.9209 21.7791 13.4292 21.4376C13.9374 21.0959 14.9916 20.6125 16.5916 19.9875C18.7083 19.1543 20.1251 18.3709 20.8418 17.6374C21.5583 16.9041 21.9166 16.0334 21.9166 15.0251C21.9166 13.6334 21.3916 12.5312 20.3416 11.7188C19.2916 10.9063 17.8999 10.5 16.1667 10.5C15.0917 10.5 14.1229 10.6875 13.2604 11.0625C12.3979 11.4375 11.7458 11.9041 11.3041 12.4624C11.0791 12.7209 10.9791 13.0168 11.0041 13.35C11.0291 13.6832 11.1874 13.9583 11.4792 14.175C11.7542 14.4 12.0626 14.4916 12.4043 14.4499C12.7458 14.4084 13.0291 14.2751 13.2541 14.0501C13.6208 13.6834 14.0333 13.4166 14.4916 13.2499C14.9501 13.0834 15.5084 13.0001 16.1667 13.0001C17.2749 13.0001 18.0937 13.2001 18.6229 13.6001C19.1522 14.0001 19.4168 14.4751 19.4168 15.0251C19.4168 15.4751 19.1856 15.873 18.7231 16.2188C18.2606 16.5645 17.2168 17.0582 15.5918 17.7C13.3583 18.5582 11.8958 19.3395 11.2043 20.0437C10.5126 20.748 10.1667 21.5668 10.1667 22.5C10.1667 23.3 10.4708 24.0437 11.0791 24.7312C11.6876 25.4187 12.6459 25.95 13.9542 26.325Z" fill="white"/>
</g>
</svg>
