<svg width="48" height="48" viewBox="0 0 48 48" fill="none" xmlns="http://www.w3.org/2000/svg">
<rect width="48" height="48" rx="5" fill="#7367F0" fill-opacity="0.12"/>
<g clip-path="url(#clip0_402_2030)">
<path d="M33.1875 17.6669L28.521 17.6234L28.5401 15.2902L26.226 12.9352L21.5595 12.8918L19.2071 15.2033L19.188 17.5366L14.5216 17.4931C13.2383 17.4812 12.1797 18.5214 12.1692 19.8047L12.1215 25.6378C12.1143 26.5128 12.575 27.2521 13.2716 27.6669L13.2404 31.4818C13.2298 32.7768 14.2596 33.8247 15.5545 33.8368L31.8873 33.9888C33.1822 34.0009 34.229 32.9722 34.2396 31.6773L34.2709 27.8507C34.9625 27.4488 35.447 26.7066 35.4539 25.855L35.5017 20.0219C35.5122 18.7386 34.4708 17.6788 33.1875 17.6669ZM21.5404 15.225L26.2069 15.2685L26.1878 17.6017L21.5213 17.5583L21.5404 15.225ZM14.5025 19.8264L33.1684 20.0001L33.1207 25.8333L27.2876 25.779L27.3162 22.2791L20.3165 22.2139L20.2879 25.7138L14.4547 25.6595L14.5025 19.8264ZM24.9448 26.9239L22.6116 26.9022L22.6306 24.5689L24.9639 24.5906L24.9448 26.9239ZM31.9064 31.6556L15.5736 31.5035L15.6023 28.0036L20.2688 28.0471L20.2592 29.2137L27.259 29.2789L27.2685 28.1122L31.935 28.1557L31.9064 31.6556Z" fill="#7367F0"/>
</g>
<defs>
<clipPath id="clip0_402_2030">
<rect width="28.0001" height="28" fill="white" transform="matrix(0.999957 0.00930826 -0.00818116 0.999967 9.92188 9.28329)"/>
</clipPath>
</defs>
</svg>
