<svg width="48" height="48" viewBox="0 0 48 48" fill="none" xmlns="http://www.w3.org/2000/svg">
<rect width="48" height="48" rx="5" fill="#7367F0" fill-opacity="0.12"/>
<g clip-path="url(#clip0_402_2035)">
<path d="M17.85 35C17.0583 35 16.3854 34.7229 15.8312 34.1688C15.2771 33.6146 15 32.9417 15 32.15C15 31.3583 15.2771 30.6854 15.8312 30.1313C16.3854 29.5771 17.0583 29.3 17.85 29.3C18.0833 29.3 18.2875 29.3208 18.4625 29.3625C18.6375 29.4042 18.8167 29.4667 19 29.55L21.125 26.9C20.8083 26.5167 20.5667 26.0792 20.4 25.5875C20.2333 25.0958 20.1917 24.5833 20.275 24.05L17.25 23.025C17 23.4417 16.6708 23.7667 16.2625 24C15.8542 24.2333 15.3833 24.35 14.85 24.35C14.0583 24.35 13.3854 24.0729 12.8313 23.5188C12.2771 22.9646 12 22.2917 12 21.5C12 20.7083 12.2771 20.0354 12.8313 19.4813C13.3854 18.9271 14.0583 18.65 14.85 18.65C15.6417 18.65 16.3146 18.9271 16.8688 19.4813C17.4229 20.0354 17.7 20.7083 17.7 21.5V21.6L20.75 22.65C21.05 22.1167 21.4125 21.7083 21.8375 21.425C22.2625 21.1417 22.7333 20.9417 23.25 20.825V17.6C22.6 17.4167 22.0875 17.0583 21.7125 16.525C21.3375 15.9917 21.15 15.4333 21.15 14.85C21.15 14.0583 21.4271 13.3854 21.9812 12.8313C22.5354 12.2771 23.2083 12 24 12C24.7917 12 25.4646 12.2771 26.0188 12.8313C26.5729 13.3854 26.85 14.0583 26.85 14.85C26.85 15.4333 26.6583 15.9917 26.275 16.525C25.8917 17.0583 25.3833 17.4167 24.75 17.6V20.825C25.2667 20.9417 25.7417 21.1417 26.175 21.425C26.6083 21.7083 26.975 22.1167 27.275 22.65L30.3 21.6V21.5C30.3 20.7083 30.5771 20.0354 31.1313 19.4813C31.6854 18.9271 32.3583 18.65 33.15 18.65C33.9417 18.65 34.6146 18.9271 35.1688 19.4813C35.7229 20.0354 36 20.7083 36 21.5C36 22.2917 35.7229 22.9646 35.1688 23.5188C34.6146 24.0729 33.9417 24.35 33.15 24.35C32.6167 24.35 32.1417 24.2333 31.725 24C31.3083 23.7667 30.9833 23.4417 30.75 23.025L27.725 24.05C27.8083 24.5833 27.7708 25.0958 27.6125 25.5875C27.4542 26.0792 27.2083 26.5167 26.875 26.9L29 29.55C29.1833 29.4667 29.3625 29.4042 29.5375 29.3625C29.7125 29.3208 29.913 29.3 30.1391 29.3C30.9464 29.3 31.625 29.5771 32.175 30.1313C32.725 30.6854 33 31.3583 33 32.15C33 32.9417 32.7229 33.6146 32.1688 34.1688C31.6146 34.7229 30.9417 35 30.15 35C29.3583 35 28.6854 34.7229 28.1313 34.1688C27.5771 33.6146 27.3 32.9417 27.3 32.15C27.3 31.8167 27.3458 31.5167 27.4375 31.25C27.5292 30.9833 27.6583 30.725 27.825 30.475L25.7 27.825C25.1645 28.1083 24.5932 28.25 23.9859 28.25C23.3786 28.25 22.8083 28.1083 22.275 27.825L20.175 30.5C20.3417 30.75 20.4708 31.0042 20.5625 31.2625C20.6542 31.5208 20.7 31.8167 20.7 32.15C20.7 32.9417 20.4229 33.6146 19.8688 34.1688C19.3146 34.7229 18.6417 35 17.85 35ZM14.8509 22.85C15.2336 22.85 15.5542 22.7205 15.8125 22.4616C16.0708 22.2027 16.2 21.8819 16.2 21.4991C16.2 21.1164 16.0705 20.7958 15.8116 20.5375C15.5527 20.2792 15.2319 20.15 14.8491 20.15C14.4664 20.15 14.1458 20.2795 13.8875 20.5384C13.6292 20.7973 13.5 21.1181 13.5 21.5009C13.5 21.8836 13.6295 22.2042 13.8884 22.4625C14.1473 22.7208 14.4681 22.85 14.8509 22.85ZM17.8509 33.5C18.2336 33.5 18.5542 33.3705 18.8125 33.1116C19.0708 32.8527 19.2 32.5319 19.2 32.1491C19.2 31.7664 19.0705 31.4458 18.8116 31.1875C18.5527 30.9292 18.2319 30.8 17.8491 30.8C17.4664 30.8 17.1458 30.9295 16.8875 31.1884C16.6292 31.4473 16.5 31.7681 16.5 32.1509C16.5 32.5336 16.6295 32.8542 16.8884 33.1125C17.1473 33.3708 17.4681 33.5 17.8509 33.5ZM24.0009 16.2C24.3836 16.2 24.7042 16.0705 24.9625 15.8116C25.2208 15.5527 25.35 15.2319 25.35 14.8491C25.35 14.4664 25.2205 14.1458 24.9616 13.8875C24.7027 13.6292 24.3819 13.5 23.9991 13.5C23.6164 13.5 23.2958 13.6295 23.0375 13.8884C22.7792 14.1473 22.65 14.4681 22.65 14.8509C22.65 15.2336 22.7795 15.5542 23.0384 15.8125C23.2973 16.0708 23.6181 16.2 24.0009 16.2ZM24.0125 26.75C24.6375 26.75 25.1667 26.5292 25.6 26.0875C26.0333 25.6458 26.25 25.1125 26.25 24.4875C26.25 23.8625 26.0325 23.3333 25.5975 22.9C25.1625 22.4667 24.63 22.25 24 22.25C23.3833 22.25 22.8542 22.4675 22.4125 22.9025C21.9708 23.3375 21.75 23.87 21.75 24.5C21.75 25.1167 21.9708 25.6458 22.4125 26.0875C22.8542 26.5292 23.3875 26.75 24.0125 26.75ZM30.1509 33.5C30.5336 33.5 30.8542 33.3705 31.1125 33.1116C31.3708 32.8527 31.5 32.5319 31.5 32.1491C31.5 31.7664 31.3705 31.4458 31.1116 31.1875C30.8527 30.9292 30.5319 30.8 30.1491 30.8C29.7664 30.8 29.4458 30.9295 29.1875 31.1884C28.9292 31.4473 28.8 31.7681 28.8 32.1509C28.8 32.5336 28.9295 32.8542 29.1884 33.1125C29.4473 33.3708 29.7681 33.5 30.1509 33.5ZM33.1509 22.85C33.5336 22.85 33.8542 22.7205 34.1125 22.4616C34.3708 22.2027 34.5 21.8819 34.5 21.4991C34.5 21.1164 34.3705 20.7958 34.1116 20.5375C33.8527 20.2792 33.5319 20.15 33.1491 20.15C32.7664 20.15 32.4458 20.2795 32.1875 20.5384C31.9292 20.7973 31.8 21.1181 31.8 21.5009C31.8 21.8836 31.9295 22.2042 32.1884 22.4625C32.4473 22.7208 32.7681 22.85 33.1509 22.85Z" fill="#7367F0"/>
</g>
<defs>
<clipPath id="clip0_402_2035">
<rect width="24" height="24" fill="white" transform="translate(12 12)"/>
</clipPath>
</defs>
</svg>
