<svg width="48" height="48" viewBox="0 0 48 48" fill="none" xmlns="http://www.w3.org/2000/svg">
<rect width="48" height="48" rx="5" fill="#7367F0"/>
<path d="M21.2812 35.25C19.9688 35.25 18.8594 34.7969 17.9531 33.8906C17.0469 32.9844 16.5938 31.875 16.5938 30.5625C16.5938 29.25 17.0469 28.1406 17.9531 27.2344C18.8594 26.3281 19.9688 25.875 21.2812 25.875C21.8646 25.875 22.3906 25.9583 22.8594 26.125C23.3281 26.2917 23.7396 26.5208 24.0938 26.8125V12.75H31.4062V16.9688H25.9688V30.5625C25.9688 31.875 25.5156 32.9844 24.6094 33.8906C23.7031 34.7969 22.5938 35.25 21.2812 35.25Z" fill="white"/>
</svg>
