<svg width="48" height="48" viewBox="0 0 48 48" fill="none" xmlns="http://www.w3.org/2000/svg">
<rect width="48" height="48" rx="5" fill="#FFAA48"/>
<path d="M11.5 37.75V35.875H36.5V37.75H11.5ZM14 34V27.4375C13.1875 25.5417 12.625 24.0052 12.3125 22.8281C12 21.651 11.8438 20.4688 11.8438 19.2812C11.8438 18.0729 11.9948 16.8021 12.2969 15.4688C12.599 14.1354 13.0208 12.875 13.5625 11.6875C13.7708 11.2292 14.0469 10.8802 14.3906 10.6406C14.7344 10.401 15.1146 10.2812 15.5312 10.2812C16.0938 10.2812 16.5208 10.4635 16.8125 10.8281C17.1042 11.1927 17.25 11.7396 17.25 12.4688V16.5625C17.25 17.4792 17.4271 18.3438 17.7812 19.1562C18.1354 19.9688 18.6198 20.6771 19.2344 21.2812C19.849 21.8854 20.5625 22.3594 21.375 22.7031C22.1875 23.0469 23.0625 23.2188 24 23.2188C25.6875 23.2188 27.1562 23.3438 28.4062 23.5938C29.6562 23.8438 30.6979 24.2083 31.5312 24.6875C32.3646 25.1667 32.9844 25.776 33.3906 26.5156C33.7969 27.2552 34 28.125 34 29.125V34H14ZM15.875 32.125H32.125V29.125C32.125 28.4375 31.9583 27.8438 31.625 27.3438C31.2917 26.8438 30.7917 26.4271 30.125 26.0938C29.4583 25.7604 28.6146 25.5104 27.5938 25.3438C26.5729 25.1771 25.375 25.0938 24 25.0938C22.8125 25.0938 21.6927 24.8698 20.6406 24.4219C19.5885 23.974 18.6719 23.3646 17.8906 22.5938C17.1094 21.8229 16.4896 20.9167 16.0312 19.875C15.5729 18.8333 15.3438 17.7188 15.3438 16.5312V12.4688C14.8646 13.4062 14.474 14.4948 14.1719 15.7344C13.8698 16.974 13.7188 18.1562 13.7188 19.2812C13.7188 20.3438 13.8802 21.4427 14.2031 22.5781C14.526 23.7135 15.0833 25.1562 15.875 26.9062V32.125ZM24 21.5C22.625 21.5 21.4479 21.0104 20.4688 20.0312C19.4896 19.0521 19 17.875 19 16.5C19 15.125 19.4896 13.9479 20.4688 12.9688C21.4479 11.9896 22.625 11.5 24 11.5C25.375 11.5 26.5521 11.9896 27.5312 12.9688C28.5104 13.9479 29 15.125 29 16.5C29 17.875 28.5104 19.0521 27.5312 20.0312C26.5521 21.0104 25.375 21.5 24 21.5ZM24 19.625C24.875 19.625 25.6146 19.3229 26.2188 18.7188C26.8229 18.1146 27.125 17.375 27.125 16.5C27.125 15.625 26.8229 14.8854 26.2188 14.2812C25.6146 13.6771 24.875 13.375 24 13.375C23.125 13.375 22.3854 13.6771 21.7812 14.2812C21.1771 14.8854 20.875 15.625 20.875 16.5C20.875 17.375 21.1771 18.1146 21.7812 18.7188C22.3854 19.3229 23.125 19.625 24 19.625ZM19.3125 34V32.8438C19.3125 31.5312 19.7656 30.4062 20.6719 29.4688C21.5781 28.5312 22.6875 28.0625 24 28.0625H28.6875V29.9375H24C23.2083 29.9375 22.5417 30.224 22 30.7969C21.4583 31.3698 21.1875 32.0521 21.1875 32.8438V34H19.3125Z" fill="white"/>
</svg>
