<svg width="48" height="48" viewBox="0 0 48 48" fill="none" xmlns="http://www.w3.org/2000/svg">
<rect width="48" height="48" rx="5" fill="#FF454C"/>
<g clip-path="url(#clip0_816_96)">
<path d="M28.8119 23.1219C29.0008 22.9553 29.0008 22.6846 28.8119 22.5182C28.6235 22.3512 28.3179 22.3512 28.129 22.5182C27.9406 22.6846 27.9406 22.9553 28.129 23.1219C28.3179 23.2889 28.6235 23.2889 28.8119 23.1219Z" fill="white"/>
<path d="M12.1191 34.9736H35.8805C36.0757 34.9736 36.2519 34.8697 36.3266 34.7101C36.4013 34.5505 36.36 34.3669 36.2219 34.2448L12.4605 13.238C12.3224 13.1158 12.1147 13.0794 11.9342 13.1454C11.7538 13.2115 11.6361 13.3671 11.6361 13.5399V34.5467C11.6361 34.7825 11.8523 34.9736 12.1191 34.9736ZM12.602 14.5706L16.4868 18.0051L15.462 18.9105C15.2734 19.0773 15.2734 19.3477 15.462 19.5145C15.6503 19.6811 15.9563 19.6814 16.1449 19.5145L17.1697 18.6088L19.2187 20.4204L18.1941 21.3259C18.0055 21.4927 18.0055 21.7631 18.1939 21.9299C18.3824 22.0965 18.6884 22.0968 18.877 21.9299L19.9018 21.0242L21.9506 22.8357L20.9262 23.7415C20.7375 23.9081 20.7375 24.1785 20.9262 24.3452C21.1149 24.512 21.4205 24.512 21.6091 24.3452L22.6337 23.4394L24.6827 25.2511L23.6583 26.1569C23.4696 26.3235 23.4696 26.5938 23.6583 26.7606C23.8469 26.9274 24.1526 26.9274 24.3412 26.7606L25.3658 25.855L27.4148 27.6663L26.3904 28.5722C26.2017 28.739 26.2017 29.0094 26.3904 29.1762C26.579 29.3428 26.8849 29.3428 27.0735 29.176L28.0977 28.2702L30.1467 30.0817L29.1223 30.9876C28.9338 31.1544 28.9338 31.4248 29.1225 31.5914C29.3109 31.7582 29.6169 31.7582 29.8056 31.5914L30.8298 30.6854L34.7144 34.1197H12.602V14.5706Z" fill="white"/>
<path d="M16.614 21.9899C16.4759 21.8678 16.2682 21.8313 16.0876 21.8974C15.9073 21.9634 15.7896 22.1192 15.7896 22.2918V30.8742C15.7896 31.1101 16.0057 31.3012 16.2725 31.3012H25.9803C26.1757 31.3012 26.3517 31.1973 26.4266 31.0377C26.5013 30.8782 26.4598 30.6944 26.3219 30.5724L16.614 21.9899ZM16.7555 30.4474V23.3227L24.8144 30.4474H16.7555Z" fill="white"/>
<path d="M26.763 21.9144C26.9517 22.0812 27.2573 22.0812 27.4462 21.9144C27.6346 21.7478 27.6346 21.4774 27.4462 21.3106L25.3968 19.499C25.2083 19.3322 24.9025 19.3322 24.7139 19.499C24.5252 19.6656 24.5252 19.936 24.7139 20.1028L26.763 21.9144Z" fill="white"/>
<path d="M18.9673 17.464L32.524 29.4491C33.0899 29.9497 34.0068 29.9497 34.5731 29.4491L35.939 28.2417C36.5036 27.7425 36.5036 26.9298 35.939 26.4299L22.3825 14.4449C22.3295 14.398 22.2648 14.3627 22.1936 14.3418L18.0957 13.1343C17.9223 13.0833 17.7308 13.1231 17.6016 13.2375C17.4722 13.3518 17.4271 13.5209 17.4848 13.6743L18.8507 17.2973C18.8744 17.3601 18.9143 17.4172 18.9673 17.464ZM35.2557 27.0337C35.4441 27.2003 35.4441 27.4715 35.2559 27.6378L33.8902 28.8453C33.7015 29.0121 33.3957 29.0122 33.2069 28.8453L32.1604 27.9201L34.2094 26.1085L35.2557 27.0337ZM33.5265 25.5048L31.4773 27.3164L30.7944 26.7124L32.8435 24.9012L33.5265 25.5048ZM22.3606 15.6332L32.1604 24.2971L30.1114 26.1087L20.3114 17.4447L22.3606 15.6332ZM21.6262 15.0747L19.6796 16.7954L18.7065 14.2144L21.6262 15.0747Z" fill="white"/>
</g>
<defs>
<clipPath id="clip0_816_96">
<rect width="24.7273" height="21.8182" fill="white" transform="translate(11.6361 13.0911)"/>
</clipPath>
</defs>
</svg>
