<svg width="48" height="48" viewBox="0 0 48 48" fill="none" xmlns="http://www.w3.org/2000/svg">
<rect width="48" height="48" rx="5" fill="#7367F0"/>
<g clip-path="url(#clip0_816_67)">
<path d="M12.1193 14.9351C12.3351 14.9351 12.5179 14.8015 12.5798 14.6172C12.7616 14.7061 12.9912 14.6787 13.1438 14.5348C13.3325 14.3571 13.3325 14.0687 13.1438 13.8908L12.4607 13.2468C12.3226 13.1166 12.1147 13.0776 11.9344 13.1481C11.7538 13.2185 11.6361 13.3845 11.6361 13.5688V14.4797C11.6361 14.7312 11.8523 14.9351 12.1193 14.9351Z" fill="white"/>
<path d="M12.1193 16.807C12.3858 16.807 12.6022 16.6029 12.6022 16.3516C12.6022 16.1002 12.3858 15.8961 12.1193 15.8961C11.8525 15.8961 11.6361 16.1002 11.6361 16.3516C11.6361 16.6029 11.8525 16.807 12.1193 16.807Z" fill="white"/>
<path d="M12.1193 22.421C12.3853 22.421 12.6022 22.2169 12.6022 21.9656C12.6022 21.7145 12.3853 21.5101 12.1193 21.5101C11.8531 21.5101 11.6361 21.7145 11.6361 21.9656C11.6361 22.2169 11.8529 22.421 12.1193 22.421Z" fill="white"/>
<path d="M12.1193 20.5498C12.3853 20.5498 12.6022 20.3458 12.6022 20.0944V18.223C12.6022 17.972 12.3853 17.7676 12.1193 17.7676C11.8529 17.7676 11.6361 17.972 11.6361 18.223V20.0944C11.6361 20.3458 11.8529 20.5498 12.1193 20.5498Z" fill="white"/>
<path d="M12.1193 28.0357C12.3853 28.0357 12.6022 27.8312 12.6022 27.5803C12.6022 27.3289 12.3853 27.1249 12.1193 27.1249C11.8529 27.1249 11.6361 27.3289 11.6361 27.5803C11.6361 27.8312 11.8529 28.0357 12.1193 28.0357Z" fill="white"/>
<path d="M12.1193 33.6499C12.3853 33.6499 12.6022 33.4453 12.6022 33.1944C12.6022 32.9429 12.3853 32.739 12.1193 32.739C11.8529 32.739 11.6361 32.9431 11.6361 33.1944C11.6361 33.4453 11.8529 33.6499 12.1193 33.6499Z" fill="white"/>
<path d="M12.1193 26.1638C12.3853 26.1638 12.6022 25.9598 12.6022 25.7084V23.837C12.6022 23.586 12.3853 23.3816 12.1193 23.3816C11.8529 23.3816 11.6361 23.586 11.6361 23.837V25.7084C11.6361 25.9598 11.8529 26.1638 12.1193 26.1638Z" fill="white"/>
<path d="M12.1193 31.7785C12.3853 31.7785 12.6022 31.5739 12.6022 31.323V29.4517C12.6022 29.2001 12.3853 28.9962 12.1193 28.9962C11.8531 28.9962 11.6361 29.2001 11.6361 29.4517V31.323C11.6361 31.5739 11.8529 31.7785 12.1193 31.7785Z" fill="white"/>
<path d="M22.0038 23.3448C22.1274 23.3448 22.2511 23.3005 22.3453 23.2114C22.5341 23.0337 22.5341 22.7455 22.3453 22.5674C22.157 22.3897 21.8512 22.3897 21.6623 22.5674C21.4739 22.7455 21.4739 23.0337 21.6623 23.2114C21.7565 23.3005 21.8802 23.3448 22.0038 23.3448Z" fill="white"/>
<path d="M18.0607 19.6243C18.185 19.6243 18.3093 19.5804 18.4019 19.4931C18.5904 19.3153 18.5904 19.0268 18.4021 18.849C18.2148 18.6724 17.906 18.6727 17.719 18.849C17.5305 19.0266 17.5305 19.3153 17.7188 19.4929C17.8118 19.5808 17.9363 19.6243 18.0607 19.6243Z" fill="white"/>
<path d="M20.1573 21.8962C20.2486 21.9823 20.3699 22.0296 20.4987 22.0296C20.6278 22.0296 20.7491 21.9823 20.8402 21.8962C21.0287 21.7184 21.0287 21.4297 20.8402 21.2522L19.526 20.0123C19.4347 19.9264 19.3129 19.8789 19.184 19.8789C19.055 19.8789 18.9338 19.9264 18.8425 20.0123C18.7512 20.0984 18.701 20.2128 18.701 20.3343C18.701 20.456 18.7512 20.5708 18.8425 20.6563L20.1573 21.8962Z" fill="white"/>
<path d="M16.404 18.2538C16.4952 18.3399 16.6165 18.3872 16.7459 18.3872C16.8749 18.3872 16.996 18.3399 17.0875 18.2538C17.2758 18.0762 17.2758 17.787 17.0875 17.6094L15.7726 16.3701C15.6813 16.284 15.5602 16.2367 15.4311 16.2367C15.3021 16.2367 15.181 16.284 15.0897 16.3701C14.9984 16.4562 14.948 16.5704 14.948 16.6921C14.948 16.8136 14.9984 16.928 15.0897 17.014L16.404 18.2538Z" fill="white"/>
<path d="M14.1172 15.903C14.3829 15.9028 14.5998 15.7053 14.6 15.453C14.6 15.2063 14.3776 14.9974 14.1169 14.9974C13.8648 14.9974 13.6339 15.1958 13.6339 15.4529C13.6339 15.7053 13.8507 15.9031 14.1172 15.903Z" fill="white"/>
<path d="M36.2257 35.6546L23.6602 23.8068C23.4715 23.629 23.1655 23.629 22.9771 23.8068C22.7884 23.9847 22.7884 24.273 22.9771 24.4509L23.3185 24.773L12.5713 34.9062C12.5028 34.7335 12.3264 34.6103 12.1193 34.6103C11.8523 34.6103 11.6361 34.8142 11.6361 35.0658V35.9767C11.6361 36.2175 11.8599 36.4317 12.1193 36.4321H35.884C36.3055 36.4321 36.5236 35.9356 36.2257 35.6546ZM14.9992 33.9051C15.3805 34.3743 15.6267 34.9356 15.7092 35.5212H13.2853L14.9992 33.9051ZM16.683 35.5212C16.6822 35.5145 16.6811 35.5079 16.6803 35.5011C16.5862 34.6833 16.2376 33.8948 15.6878 33.256L24.0016 25.417L34.7179 35.5212H16.683Z" fill="white"/>
<path d="M17.1628 27.7789C17.3077 27.7789 17.5529 27.7138 17.5529 27.5398C17.5529 27.5249 17.5529 26.1116 17.5529 26.1116C17.5529 25.7852 17.4435 25.5142 17.2246 25.2984C17.0058 25.0828 16.6713 24.975 16.2214 24.975C15.9859 24.975 15.762 25.0168 15.5494 25.1002C15.2836 25.2048 15.1374 25.3884 15.3047 25.6512C15.4154 25.8248 15.5794 25.7451 15.7318 25.6688C15.9786 25.5453 16.4283 25.4961 16.6209 25.7346C16.7096 25.8446 16.754 25.9734 16.754 26.1212V26.1991H16.5C16.0335 26.1991 15.6764 26.2616 15.4287 26.3861C15.1808 26.5108 15.057 26.7263 15.057 27.0323C15.057 27.4792 15.3679 27.8316 15.8622 27.8316C16.2048 27.8316 16.5187 27.6686 16.8036 27.3429V27.5235C16.8036 27.6985 17.0134 27.7789 17.1628 27.7789ZM16.5681 27.0709C16.4444 27.1815 16.3163 27.2367 16.1842 27.2367C15.9929 27.2367 15.856 27.1139 15.856 26.9382C15.856 26.798 15.9271 26.7049 16.0695 26.6588C16.1372 26.637 16.754 26.5557 16.754 26.5896C16.754 26.7761 16.714 26.9408 16.5681 27.0709Z" fill="white"/>
<path d="M29.83 27.539C29.8332 27.5589 29.8383 27.5783 29.846 27.5972C29.89 27.7029 30.0134 27.7621 30.133 27.776C30.256 27.7902 30.3882 27.7635 30.4808 27.686C30.5737 27.6084 30.6176 27.4759 30.5689 27.3684C30.811 27.7648 31.3956 27.9356 31.8331 27.7376C32.2923 27.5298 32.5074 27.0162 32.5415 26.5369C32.5655 26.1998 32.5175 25.8502 32.3455 25.5538C32.1733 25.2574 31.864 25.0211 31.5084 24.9779C31.153 24.9347 30.7644 25.1142 30.6301 25.4277C30.6274 24.8701 30.6248 24.3127 30.622 23.7552C30.6216 23.6854 30.6206 23.6127 30.5865 23.5508C30.4748 23.3483 29.9622 23.3371 29.8594 23.5495C29.8232 23.6242 29.8226 23.7091 29.8226 23.7911C29.8232 25.0051 29.8238 26.219 29.8243 27.433C29.8243 27.4682 29.8243 27.5042 29.83 27.539ZM30.6231 26.1601C30.6231 26.0058 30.6797 25.8804 30.7934 25.784C30.9068 25.6876 31.0338 25.6394 31.1743 25.6394C31.323 25.6394 31.4509 25.6926 31.5582 25.7984C31.6656 25.9044 31.7194 26.0251 31.7194 26.1599V26.6344C31.7194 26.7694 31.6656 26.892 31.5582 27.0018C31.4509 27.1117 31.3251 27.1667 31.1806 27.1667C31.0359 27.1667 30.907 27.1137 30.7934 27.0076C30.6799 26.9016 30.6231 26.8118 30.6231 26.7386V26.1601Z" fill="white"/>
<path d="M23.3911 32.8193V33.2856C23.3911 34.0445 23.9663 34.4808 24.7351 34.4808C25.0158 34.4808 25.2563 34.4311 25.4565 34.332C25.7053 34.2089 25.8549 33.999 25.661 33.7636C25.5237 33.5971 25.3573 33.6517 25.1873 33.7316C25.0673 33.788 24.9373 33.8161 24.797 33.8161C24.3923 33.8161 24.1901 33.6387 24.1901 33.2838V32.8211C24.1901 32.4662 24.3902 32.2888 24.7907 32.2888C25.0147 32.2888 25.199 32.4461 25.4039 32.4462C25.5882 32.4461 25.7199 32.2354 25.7199 32.0789C25.7197 31.7085 25.0009 31.6241 24.7289 31.6241C23.9703 31.6241 23.3911 32.0751 23.3911 32.8193Z" fill="white"/>
</g>
<defs>
<clipPath id="clip0_816_67">
<rect width="24.7273" height="23.2727" fill="white" transform="translate(11.6361 13.0911)"/>
</clipPath>
</defs>
</svg>
