<svg width="48" height="48" viewBox="0 0 48 48" fill="none" xmlns="http://www.w3.org/2000/svg">
<rect width="48" height="48" rx="5" fill="#8BC728"/>
<g clip-path="url(#clip0_816_626)">
<path d="M33.8362 35.4548H32.8392V20.9791C32.8392 20.3053 32.291 19.7572 31.6173 19.7572H29.389C28.7152 19.7572 28.167 20.3054 28.167 20.9791V35.4548H25.6356V27.5377C25.6356 26.8639 25.0875 26.3158 24.4137 26.3158H22.1853C21.5115 26.3158 20.9634 26.864 20.9634 27.5377V35.4548H18.432V31.3546C18.432 30.6808 17.8838 30.1327 17.21 30.1327H14.9816C14.3079 30.1327 13.7597 30.6808 13.7597 31.3546V35.4548H12.709C12.458 35.4548 12.2545 35.6582 12.2545 35.9093C12.2545 36.1603 12.458 36.3638 12.709 36.3638H33.8362C34.0872 36.3638 34.2907 36.1603 34.2907 35.9093C34.2907 35.6582 34.0872 35.4548 33.8362 35.4548ZM17.5228 35.4548H14.6688V31.3546C14.6688 31.1821 14.8091 31.0417 14.9816 31.0417H17.21C17.3825 31.0417 17.5228 31.1821 17.5228 31.3546V35.4548ZM24.7265 35.4548H21.8725V27.5377C21.8725 27.3652 22.0128 27.2249 22.1853 27.2249H24.4136C24.5861 27.2249 24.7265 27.3652 24.7265 27.5377V35.4548ZM31.9301 35.4548H29.0761V20.9791C29.0761 20.8066 29.2165 20.6663 29.389 20.6663H31.6173C31.7898 20.6663 31.9301 20.8066 31.9301 20.9791V35.4548Z" fill="white"/>
<path d="M32.838 13.5691C32.8444 13.445 32.8007 13.3189 32.706 13.2242C32.6113 13.1294 32.4852 13.0857 32.3611 13.0922C32.3538 13.0918 32.3466 13.0911 32.3391 13.0911H29.5891C29.3381 13.0911 29.1346 13.2946 29.1346 13.5456C29.1346 13.7967 29.3381 14.0002 29.5891 14.0002H31.2872L26.7937 18.4937L25.0991 16.7992C25.0139 16.7139 24.8983 16.666 24.7777 16.666C24.6572 16.666 24.5415 16.7139 24.4563 16.7992L16.285 24.9705C16.1075 25.148 16.1075 25.4358 16.285 25.6134C16.3738 25.7021 16.4901 25.7464 16.6064 25.7464C16.7227 25.7464 16.8391 25.7021 16.9278 25.6133L24.7777 17.7633L26.4722 19.4579C26.6498 19.6354 26.9376 19.6354 27.1151 19.4579L31.93 14.643V16.1798C31.93 16.4309 32.1335 16.6344 32.3846 16.6344C32.6356 16.6344 32.8391 16.4309 32.8391 16.1798V13.5911C32.8391 13.5837 32.8383 13.5764 32.838 13.5691Z" fill="white"/>
<path d="M15.0744 27.3324C15.3255 27.3324 15.529 27.1289 15.529 26.8779C15.529 26.6268 15.3255 26.4233 15.0744 26.4233C14.8234 26.4233 14.6199 26.6268 14.6199 26.8779C14.6199 27.1289 14.8234 27.3324 15.0744 27.3324Z" fill="white"/>
</g>
<defs>
<clipPath id="clip0_816_626">
<rect width="23.2727" height="23.2727" fill="white" transform="translate(11.6361 13.0911)"/>
</clipPath>
</defs>
</svg>
