<svg width="48" height="48" viewBox="0 0 48 48" fill="none" xmlns="http://www.w3.org/2000/svg">
<rect width="48" height="48" rx="5" fill="#8BC728"/>
<g clip-path="url(#clip0_816_1406)">
<path d="M21.9938 26.4062C21.2646 25.6771 20.5979 24.901 19.9938 24.0781C19.3896 23.2552 18.8479 22.375 18.3688 21.4375C18.2021 21.8542 18.0771 22.276 17.9938 22.7031C17.9104 23.1302 17.8688 23.5625 17.8688 24C17.8688 25.8125 18.5042 27.3542 19.775 28.625C21.0459 29.8958 22.5875 30.5312 24.4 30.5312C24.8375 30.5312 25.2646 30.4896 25.6813 30.4062C26.0979 30.3229 26.5146 30.1979 26.9313 30.0312C25.9938 29.5521 25.1188 29.0104 24.3063 28.4062C23.4938 27.8021 22.7229 27.1354 21.9938 26.4062ZM23.3375 25.0938C24.3792 26.1354 25.5198 27.0312 26.7594 27.7812C27.999 28.5312 29.3375 29.1146 30.775 29.5312C29.9834 30.4688 29.0354 31.1875 27.9313 31.6875C26.8271 32.1875 25.6604 32.4375 24.4313 32.4375C22.0979 32.4375 20.1084 31.6146 18.4625 29.9688C16.8167 28.3229 15.9938 26.3333 15.9938 24C15.9938 22.7708 16.2438 21.6042 16.7438 20.5C17.2438 19.3958 17.9625 18.4479 18.9 17.6562C19.3167 19.0938 19.9 20.4323 20.65 21.6719C21.4 22.9115 22.2959 24.0521 23.3375 25.0938ZM31.9 27.9062C31.5875 27.8229 31.275 27.7344 30.9625 27.6406C30.65 27.5469 30.3479 27.4375 30.0563 27.3125C30.3479 26.8125 30.5719 26.2812 30.7281 25.7188C30.8844 25.1562 30.9625 24.5833 30.9625 24C30.9625 22.1667 30.3271 20.6146 29.0563 19.3438C27.7854 18.0729 26.2334 17.4375 24.4 17.4375C23.8167 17.4375 23.2438 17.5156 22.6813 17.6719C22.1188 17.8281 21.5875 18.0521 21.0875 18.3438C20.9834 18.0521 20.8844 17.7552 20.7906 17.4531C20.6969 17.151 20.6084 16.8438 20.525 16.5312C21.1292 16.2188 21.7594 15.9792 22.4156 15.8125C23.0719 15.6458 23.7438 15.5625 24.4313 15.5625C26.7646 15.5625 28.7542 16.3854 30.4 18.0312C32.0459 19.6771 32.8688 21.6667 32.8688 24C32.8688 24.6875 32.7854 25.3594 32.6188 26.0156C32.4521 26.6719 32.2125 27.3021 31.9 27.9062ZM23.4625 12.75V9H25.3375V12.75H23.4625ZM23.4625 39V35.25H25.3375V39H23.4625ZM33.025 16.7188L31.6813 15.375L34.3375 12.75L35.6813 14.0625L33.025 16.7188ZM14.4625 35.25L13.1188 33.9375L15.775 31.2812L17.1188 32.625L14.4625 35.25ZM35.65 24.9375V23.0625H39.4V24.9375H35.65ZM9.40002 24.9375V23.0625H13.15V24.9375H9.40002ZM34.3375 35.2812L31.6813 32.625L33.025 31.2812L35.65 33.9375L34.3375 35.2812ZM15.775 16.7188L13.15 14.0625L14.4625 12.7188L17.1188 15.375L15.775 16.7188Z" fill="white"/>
</g>
<defs>
<clipPath id="clip0_816_1406">
<rect width="30" height="30" fill="white" transform="translate(9.40002 9)"/>
</clipPath>
</defs>
</svg>
