<svg width="48" height="48" viewBox="0 0 48 48" fill="none" xmlns="http://www.w3.org/2000/svg">
<path d="M0 5.33333C0 2.38781 2.38781 0 5.33333 0H42.6667C45.6122 0 48 2.38781 48 5.33333V42.6667C48 45.6122 45.6122 48 42.6667 48H5.33333C2.38781 48 0 45.6122 0 42.6667V5.33333Z" fill="#7367F0" fill-opacity="0.12"/>
<path d="M23.7931 13.3128C23.4914 13.3059 23.1941 13.3814 22.9326 13.5325L14.5757 18.3571C14.5696 18.3607 14.5635 18.3648 14.5578 18.3693C14.0599 18.6653 13.7542 19.2002 13.7542 19.7805V29.43C13.7542 30.0103 14.0599 30.5452 14.5582 30.8412C14.5639 30.8457 14.5696 30.8494 14.5757 30.853L22.9326 35.6776C23.4414 35.9712 24.0669 35.9712 24.5757 35.6776L32.9326 30.853C33.4414 30.5594 33.7542 30.0172 33.7542 29.43V19.7805C33.7542 19.1928 33.4414 18.6511 32.9326 18.3575L24.5757 13.5329C24.3369 13.3952 24.0681 13.3197 23.7927 13.3132L23.7931 13.3128Z" fill="#AD7340"/>
<path d="M23.7833 13.7363C23.5608 13.731 23.3374 13.7883 23.1449 13.8996L14.788 18.7241C14.4193 18.9369 14.1785 19.3544 14.1785 19.78V29.4295C14.1785 29.8551 14.4193 30.2726 14.788 30.4854L23.1449 35.31C23.5137 35.5228 23.9957 35.5228 24.3645 35.31L32.7214 30.4854C33.0901 30.2726 33.3309 29.8551 33.3309 29.4295V19.78C33.3309 19.3544 33.0897 18.9369 32.7214 18.7241L24.3645 13.8996C24.1886 13.798 23.9868 13.7412 23.7833 13.7363Z" fill="#DEAA87"/>
<path d="M23.7549 13.7364C23.5421 13.7364 23.3293 13.7928 23.1449 13.8992L14.788 18.7238C14.4197 18.9366 14.1785 19.3541 14.1785 19.7797V29.4292C14.1785 29.8548 14.4193 30.2723 14.788 30.4851L23.1449 35.3096C23.3293 35.416 23.5421 35.4692 23.7549 35.4692V13.736V13.7364Z" fill="#D38D5F"/>
<path d="M23.7606 14.7042C23.7143 14.703 23.6688 14.7147 23.629 14.7379L15.2721 19.5625C15.1942 19.6075 15.1462 19.6904 15.1462 19.7801V29.4297C15.1462 29.5194 15.1942 29.6027 15.2721 29.6473L23.629 34.4719C23.707 34.517 23.8028 34.517 23.8804 34.4719L32.2373 29.6473C32.3153 29.6023 32.3632 29.5194 32.3632 29.4297V19.7801C32.3632 19.6904 32.3153 19.6071 32.2373 19.5625L23.8804 14.7379C23.8439 14.7168 23.8028 14.7054 23.7606 14.7042Z" fill="#AD7340"/>
<path d="M23.7546 14.9556L32.1115 19.7805V29.4301L23.7546 34.255L15.3977 29.4301V19.7805L23.7546 14.9556Z" fill="#D38D5F"/>
<path d="M23.7547 15.6703L16.0171 20.1375V29.0723L23.7547 33.5394L31.4922 29.0723V20.1375L23.7547 15.6703Z" fill="#DEAA87"/>
<mask id="mask0_855_5776" style="mask-type:luminance" maskUnits="userSpaceOnUse" x="15" y="15" width="17" height="19">
<path d="M23.7547 15.6052L15.9607 20.1053V29.1051L23.7547 33.6047L31.5487 29.1051V20.1053L23.7547 15.6052Z" fill="white"/>
</mask>
<g mask="url(#mask0_855_5776)">
<path d="M8.25088 28.7595C7.88782 27.4043 7.70386 26.0077 7.70386 24.605H23.7545L8.25088 28.7595Z" fill="#D38D5F"/>
<path d="M12.4043 35.9561C11.4126 34.9644 10.5549 33.8468 9.85352 32.6322L23.7538 24.6071L12.4043 35.9566V35.9561Z" fill="#D38D5F"/>
<path d="M19.5995 40.1128C18.2448 39.7498 16.9432 39.2109 15.7285 38.5095L23.7536 24.6093L19.5995 40.1128Z" fill="#D38D5F"/>
<path d="M23.7539 8.54993C22.3512 8.54993 20.9546 8.73389 19.5999 9.09695L23.7539 24.6005V8.54993Z" fill="#D38D5F"/>
<path d="M9.85405 16.5791C9.1527 17.7938 8.61379 19.0953 8.25073 20.4501L23.7543 24.6042L9.85405 16.5791Z" fill="#D38D5F"/>
<path d="M15.7283 10.7023C14.5136 11.4036 13.396 12.2613 12.4043 13.253L23.7538 24.6025L15.7287 10.7023H15.7283Z" fill="#D38D5F"/>
<path d="M23.7554 40.6605C25.1581 40.6605 26.5547 40.4765 27.9094 40.1134L23.7554 24.6099V40.6605Z" fill="#D38D5F"/>
<path d="M37.6551 32.6313C38.3565 31.4166 38.8954 30.1151 39.2585 28.7603L23.7549 24.6062L37.6551 32.6313Z" fill="#D38D5F"/>
<path d="M31.7809 38.508C32.9955 37.8067 34.1131 36.949 35.1049 35.9573L23.7554 24.6078L31.7805 38.508H31.7809Z" fill="#D38D5F"/>
<path d="M39.258 20.4508C39.621 21.8056 39.805 23.2022 39.805 24.6049H23.7544L39.258 20.4508Z" fill="#D38D5F"/>
<path d="M35.1049 13.2539C36.0966 14.2457 36.9543 15.3633 37.6556 16.5779L23.7554 24.603L35.1049 13.2535V13.2539Z" fill="#D38D5F"/>
<path d="M27.9099 9.09778C29.2647 9.46084 30.5663 9.99974 31.781 10.7011L23.7559 24.6014L27.9099 9.09778Z" fill="#D38D5F"/>
</g>
<path d="M28.2903 19.8008C28.2858 19.8008 28.2814 19.8008 28.2769 19.8016H28.2741C28.2513 19.804 28.229 19.8109 28.2087 19.8219C28.2038 19.8247 28.1985 19.8276 28.1941 19.8308C28.1892 19.8341 28.1847 19.8377 28.1803 19.8414C28.179 19.8426 28.1778 19.8438 28.1762 19.845C28.1742 19.8467 28.1725 19.8483 28.1705 19.8499C26.929 21.052 24.7811 21.1714 24.7028 21.1755C24.6934 21.1698 24.6812 21.1621 24.6678 21.1523C24.6394 21.1312 24.6195 21.1129 24.6146 21.1084C24.5566 21.0455 24.5269 20.9013 24.5326 20.7608C24.5379 20.6191 24.5683 20.5025 24.5683 20.5025C24.6081 20.3511 24.442 20.2292 24.3096 20.3129C24.1476 20.4152 24.0652 20.5809 23.9917 20.7259C23.9908 20.7275 23.9908 20.7275 23.99 20.7291C23.8434 20.2357 23.5043 20.0034 23.5043 20.0034C23.3748 19.9181 23.2075 20.0347 23.242 20.1858C23.2728 20.3202 23.2607 20.5245 23.2347 20.6877C23.2131 20.8225 23.1937 20.8891 23.1847 20.9216C23.1583 20.8883 23.1441 20.8453 23.1372 20.7917C23.1262 20.7109 23.1384 20.6394 23.1384 20.6394C23.1644 20.4985 23.017 20.3892 22.8895 20.4554C22.5163 20.6495 22.3912 20.9493 22.3425 21.1442C20.5418 20.9866 19.4055 19.858 19.4055 19.858C19.319 19.7715 19.1724 19.8004 19.1249 19.9129C18.9644 20.2938 18.9547 20.6471 18.9754 20.8969C18.6643 20.8063 18.3853 20.8583 18.3853 20.8583C18.2456 20.8802 18.1908 21.0524 18.2915 21.1515C18.3577 21.2165 18.378 21.2555 18.3857 21.2737C18.3679 21.2819 18.3354 21.2953 18.3309 21.2969C17.8988 21.2847 17.6032 21.3862 17.4184 21.5048C17.2287 21.6266 17.1459 21.781 17.1459 21.781C17.0988 21.8756 17.1467 21.9901 17.2478 22.0222C17.2694 22.0291 17.3307 22.0746 17.3737 22.1241C17.4103 22.1664 17.4261 22.1924 17.433 22.2029C17.4789 22.3333 17.4623 22.3861 17.4525 22.4047C17.4424 22.4246 17.4497 22.4165 17.4497 22.4165C17.4472 22.4177 17.4444 22.419 17.4419 22.4202C17.4107 22.4364 17.3896 22.4364 17.3477 22.4218C17.3055 22.4076 17.2507 22.3727 17.2003 22.3288C17.1 22.2411 17.0257 22.131 17.0257 22.131C16.9343 21.9934 16.7207 22.0506 16.7101 22.2155C16.6772 22.7434 16.8348 23.0842 17.02 23.2864C16.9607 23.2807 16.8718 23.2742 16.8718 23.2742C16.6793 23.2466 16.5956 23.509 16.7686 23.5979C16.9818 23.7079 17.0614 23.8026 17.0899 23.8521C17.0984 23.8671 17.0984 23.8708 17.1004 23.8781C17.0984 23.8797 17.1004 23.8801 17.0959 23.883C17.0813 23.8935 17.0521 23.9065 17.0188 23.9151C16.9526 23.9321 16.8852 23.9317 16.8852 23.9317C16.875 23.9317 16.8649 23.9321 16.8551 23.9337C16.5282 23.9853 16.3118 24.1896 16.3118 24.1896C16.2131 24.2806 16.2521 24.4442 16.3808 24.4816C16.661 24.5624 16.7662 24.6903 16.819 24.7935C16.8417 24.8381 16.8507 24.8727 16.8567 24.9019C16.7719 24.9628 16.7223 24.9449 16.6614 24.9165C16.5867 24.8816 16.529 24.813 16.529 24.813C16.4182 24.6712 16.1919 24.7732 16.224 24.9498C16.3036 25.3868 16.5489 25.6495 16.7707 25.7864C16.8961 25.864 17.0054 25.9009 17.0878 25.922C17.0387 25.9696 16.9895 26.0138 16.9416 26.065C16.8632 26.1478 16.7991 26.2197 16.7991 26.2197L16.8092 26.2096C16.6699 26.3407 16.6305 26.515 16.6037 26.6567C16.5769 26.7984 16.5745 26.9178 16.5745 26.9178C16.5708 27.0786 16.7702 27.1566 16.8762 27.0352C16.8925 27.0169 17.0415 26.9341 17.1747 26.8898C17.299 26.8484 17.3944 26.8273 17.4086 26.824C17.4943 26.8228 17.539 26.8382 17.5577 26.85C17.5776 26.8626 17.5821 26.8719 17.5886 26.893C17.6011 26.9353 17.5886 27.0043 17.5886 27.0043C17.5841 27.0198 17.5821 27.0356 17.5821 27.0518C17.5821 27.0453 17.5735 27.09 17.5451 27.1416C17.5167 27.1928 17.474 27.2537 17.4306 27.3097C17.3437 27.4214 17.2551 27.5124 17.2551 27.5124C17.1768 27.5928 17.1946 27.7252 17.2917 27.7816C17.4789 27.8904 17.7169 27.9242 17.9208 27.9461C18.1246 27.968 18.2923 27.9688 18.2923 27.9688H18.2895C18.3561 27.9705 18.3939 27.9786 18.4182 27.9855C18.4101 28.0708 18.3687 28.1906 18.3114 28.2921C18.246 28.4074 18.1803 28.489 18.1803 28.489C18.0483 28.6523 18.268 28.8651 18.4272 28.7274C18.4816 28.6803 18.7106 28.5784 18.9072 28.515C19.0968 28.4541 19.2512 28.4172 19.2625 28.4143C19.3048 28.4103 19.3161 28.4127 19.3344 28.4143C19.2938 28.6434 19.3129 28.8558 19.3478 29.0198C19.386 29.1981 19.4343 29.3098 19.4571 29.3549C19.5261 29.493 19.7275 29.4779 19.775 29.3309C19.8096 29.1819 20.0881 28.6856 20.359 28.7949C20.528 28.9147 20.7249 28.9715 20.8764 28.9995C21.1769 29.0515 21.6078 29.0397 22.1284 28.8103C22.1309 28.8091 22.1337 28.8078 22.1366 28.8066C22.1366 28.8066 22.156 28.7969 22.1898 28.7823C22.1938 28.7806 22.1979 28.7786 22.2019 28.7766C22.461 28.6409 23.3224 28.0935 23.7776 26.7562C23.8272 26.8861 23.884 27.0262 23.9551 27.1794C24.1988 27.704 24.5675 28.3238 25.1125 28.6929C25.1166 28.6958 25.121 28.6986 25.1255 28.701C25.1718 28.7266 25.2177 28.7546 25.2624 28.7843C25.2664 28.7871 25.2709 28.7896 25.2754 28.792C25.2754 28.792 25.2762 28.792 25.2762 28.7924C25.3472 28.8598 26.021 29.4645 27.1658 29.2667C27.1743 29.2651 27.1829 29.2631 27.1914 29.2602C27.4013 29.2144 27.3522 29.0958 27.4549 29.06C27.4537 29.2038 27.5443 29.3638 27.6921 29.3086C28.2067 29.0917 28.3066 28.537 28.3204 28.4436C28.3407 28.4038 28.3382 28.4131 28.3443 28.4139C28.352 28.4147 28.3732 28.4257 28.3732 28.4257C28.3837 28.4342 28.3951 28.4415 28.4073 28.4476C28.4532 28.47 28.5129 28.5423 28.5514 28.6174C28.5896 28.6925 28.6071 28.7555 28.6071 28.7555C28.6501 28.9163 28.8739 28.9285 28.934 28.7729C29.07 28.4216 29.0453 28.0817 29.0189 27.9051C29.3645 27.9627 29.6138 27.9562 29.7807 27.9233C29.8762 27.9047 29.9464 27.8787 29.996 27.8543C30.0455 27.8299 30.0849 27.7979 30.0849 27.7979C30.1767 27.7166 30.1568 27.568 30.0463 27.514C29.8741 27.4299 29.823 27.1318 29.8197 27.1123C29.827 27.0295 29.8392 27.0372 29.8648 27.0299C29.8928 27.0222 29.9355 27.0283 29.9355 27.0283C29.9403 27.0295 29.9452 27.0303 29.9501 27.0311C30.1852 27.0693 30.316 27.2354 30.316 27.2354C30.4114 27.3589 30.6088 27.3016 30.6238 27.1461C30.6758 26.5978 30.3282 26.2019 30.24 26.1101C30.2372 26.095 30.236 26.0845 30.2376 26.0812C30.6258 25.9322 30.8488 25.7397 30.9649 25.5687C31.0254 25.4798 31.0583 25.3978 31.0754 25.3356C31.0925 25.2735 31.0941 25.2179 31.0941 25.2179C31.0941 25.1078 30.993 25.0258 30.8857 25.0489C30.6997 25.0887 30.6425 25.0404 30.5974 24.9921C30.5799 24.9734 30.571 24.9555 30.5621 24.9389C30.664 24.7529 30.7976 24.6976 30.9308 24.6794C31.0047 24.6692 31.0758 24.6733 31.127 24.6806C31.1526 24.6842 31.1733 24.6883 31.1863 24.6911C31.1928 24.6928 31.1976 24.694 31.2005 24.6948C31.2017 24.6948 31.2029 24.6956 31.2029 24.6956H31.2021C31.3394 24.737 31.4644 24.6026 31.4129 24.469C31.2947 24.1628 30.9727 24.0117 30.6977 23.8996C30.4756 23.8087 30.3038 23.7644 30.2327 23.7473C30.2327 23.7461 30.2327 23.7481 30.2339 23.7445C30.2413 23.7274 30.2628 23.7039 30.2628 23.7039C30.275 23.6937 30.2855 23.6815 30.294 23.6686C30.3489 23.5865 30.5105 23.3997 30.5105 23.3997C30.6051 23.2921 30.5349 23.1231 30.3919 23.1142C30.5068 22.9696 30.5771 22.8117 30.6145 22.6699C30.6863 22.3995 30.6567 22.1696 30.6567 22.1696C30.6396 22.0332 30.4768 21.9706 30.3728 22.0612C30.2303 22.1854 29.8948 22.1521 29.8948 22.1521C29.8912 22.1513 29.8879 22.1509 29.8843 22.1505C29.8035 22.1412 29.7949 22.1188 29.7811 22.0945C29.7722 22.079 29.773 22.075 29.7714 22.0681C29.7836 22.0202 29.8291 21.9682 29.9001 21.9247C29.9773 21.878 30.0528 21.8553 30.0528 21.8553C30.1669 21.8224 30.214 21.6863 30.145 21.5897C29.8928 21.2368 29.4424 21.143 29.0745 21.1154C28.9076 21.1028 28.7561 21.1064 28.6359 21.1133C28.6948 20.7783 28.6676 20.494 28.6115 20.2861C28.577 20.1582 28.534 20.0574 28.4986 19.9876C28.4747 19.9401 28.4629 19.925 28.4495 19.9051C28.4438 19.8917 28.4361 19.8792 28.4272 19.8674L28.4264 19.8666C28.4255 19.8662 28.4255 19.8654 28.4247 19.8649C28.4223 19.8621 28.4199 19.8593 28.4174 19.8564C28.4162 19.8548 28.4146 19.8536 28.4134 19.852C28.4109 19.8495 28.4081 19.8467 28.4052 19.8446C28.4036 19.8434 28.4024 19.8418 28.4008 19.8406C28.3979 19.8381 28.3951 19.8361 28.3922 19.8341C28.3902 19.8329 28.3886 19.8312 28.3866 19.83C28.3837 19.828 28.3809 19.8264 28.378 19.8247C28.376 19.8235 28.374 19.8223 28.3719 19.8215C28.3687 19.8199 28.3654 19.8182 28.3622 19.8166C28.3602 19.8158 28.3585 19.815 28.3565 19.8142C28.3533 19.813 28.3496 19.8113 28.3464 19.8105C28.3443 19.8097 28.3423 19.8093 28.3403 19.8085C28.3366 19.8073 28.333 19.8065 28.3293 19.8057C28.3277 19.8052 28.3256 19.8048 28.324 19.8044C28.3204 19.8036 28.3163 19.8032 28.3126 19.8028C28.3106 19.8028 28.3086 19.8024 28.3066 19.802C28.3013 19.8016 28.2964 19.8012 28.2911 19.8012H28.2907L28.2903 19.8008ZM28.4182 20.0883C28.4182 20.0883 28.4154 20.092 28.415 20.092C28.415 20.092 28.4166 20.0899 28.4174 20.0891C28.4174 20.0891 28.4182 20.0887 28.4182 20.0883ZM17.1991 25.8189C17.1934 25.8221 17.1881 25.8258 17.1833 25.8295C17.1918 25.8209 17.1991 25.8189 17.1991 25.8189ZM28.826 27.8632C28.8317 27.8661 28.8373 27.8689 28.843 27.871C28.8292 27.8685 28.826 27.8632 28.826 27.8632Z" fill="#AD7340"/>
<path d="M14.7671 19.6801C14.9131 19.6801 15.0314 19.5618 15.0314 19.4157C15.0314 19.2697 14.9131 19.1514 14.7671 19.1514C14.6211 19.1514 14.5027 19.2697 14.5027 19.4157C14.5027 19.5618 14.6211 19.6801 14.7671 19.6801Z" fill="#AD7340"/>
<path d="M32.7414 19.6801C32.8874 19.6801 33.0058 19.5618 33.0058 19.4157C33.0058 19.2697 32.8874 19.1514 32.7414 19.1514C32.5954 19.1514 32.4771 19.2697 32.4771 19.4157C32.4771 19.5618 32.5954 19.6801 32.7414 19.6801Z" fill="#AD7340"/>
<path d="M23.7544 14.5026C23.9004 14.5026 24.0187 14.3843 24.0187 14.2382C24.0187 14.0922 23.9004 13.9739 23.7544 13.9739C23.6084 13.9739 23.49 14.0922 23.49 14.2382C23.49 14.3843 23.6084 14.5026 23.7544 14.5026Z" fill="#AD7340"/>
<path d="M32.7373 30.0871C32.8833 30.0871 33.0017 29.9687 33.0017 29.8227C33.0017 29.6767 32.8833 29.5583 32.7373 29.5583C32.5913 29.5583 32.4729 29.6767 32.4729 29.8227C32.4729 29.9687 32.5913 30.0871 32.7373 30.0871Z" fill="#AD7340"/>
<path d="M23.7544 35.2349C23.9004 35.2349 24.0187 35.1166 24.0187 34.9706C24.0187 34.8245 23.9004 34.7062 23.7544 34.7062C23.6084 34.7062 23.49 34.8245 23.49 34.9706C23.49 35.1166 23.6084 35.2349 23.7544 35.2349Z" fill="#AD7340"/>
<path d="M14.7436 30.0871C14.8896 30.0871 15.008 29.9687 15.008 29.8227C15.008 29.6767 14.8896 29.5583 14.7436 29.5583C14.5976 29.5583 14.4792 29.6767 14.4792 29.8227C14.4792 29.9687 14.5976 30.0871 14.7436 30.0871Z" fill="#AD7340"/>
<path d="M28.2898 19.9729C26.9578 21.2627 24.682 21.3492 24.682 21.3492C24.6219 21.3492 24.4915 21.2294 24.4915 21.2294C24.2608 20.989 24.4013 20.4578 24.4013 20.4578C24.2109 20.578 24.0306 21.0588 24.0306 21.0588C23.9205 21.2091 23.8698 20.9882 23.8698 20.9882C23.7897 20.3969 23.4088 20.1467 23.4088 20.1467C23.4888 20.4976 23.3382 21.0182 23.3382 21.0182C23.2582 21.1786 23.1578 21.1181 23.1578 21.1181C22.8975 20.9878 22.9678 20.6072 22.9678 20.6072C22.4666 20.868 22.4768 21.3289 22.4768 21.3289C20.5226 21.2188 19.2828 19.979 19.2828 19.979C19.0204 20.6024 19.1902 21.1839 19.1902 21.1839C18.8572 20.9573 18.4108 21.028 18.4108 21.028C18.7865 21.3963 18.354 21.4674 18.354 21.4674C17.5109 21.432 17.2981 21.8568 17.2981 21.8568C17.4541 21.9064 17.5885 22.1261 17.5885 22.1261C17.7229 22.4802 17.5178 22.5724 17.5178 22.5724C17.2132 22.7283 16.8798 22.2252 16.8798 22.2252C16.8161 23.2526 17.4967 23.3948 17.4967 23.3948C17.3903 23.5223 16.8449 23.4439 16.8449 23.4439C17.3127 23.6847 17.277 23.9048 17.277 23.9048C17.2275 24.1103 16.8798 24.1034 16.8798 24.1034C16.6106 24.1461 16.4266 24.3158 16.4266 24.3158C17.0642 24.5002 17.0358 24.9753 17.0358 24.9753C16.6954 25.3083 16.3909 24.9185 16.3909 24.9185C16.5326 25.6978 17.2201 25.7758 17.2201 25.7758C17.4187 25.8891 17.2839 25.9675 17.2839 25.9675C17.1775 26.0523 16.9245 26.3342 16.9245 26.3342C16.7539 26.4946 16.7442 26.921 16.7442 26.921C16.8843 26.7606 17.3862 26.6505 17.3862 26.6505C17.8724 26.6306 17.7517 27.0514 17.7517 27.0514C17.7517 27.2467 17.3757 27.6321 17.3757 27.6321C17.6514 27.7925 18.2906 27.7958 18.2906 27.7958C18.6237 27.8027 18.5952 27.9375 18.5952 27.9375C18.6094 28.2279 18.3118 28.5962 18.3118 28.5962C18.5242 28.4118 19.2328 28.2421 19.2328 28.2421C19.6012 28.1994 19.4809 28.3976 19.5094 28.3907C19.4103 28.8301 19.5873 29.2342 19.6085 29.2768C19.7449 28.8553 20.0276 28.6725 20.1202 28.6189L20.123 28.6128C20.123 28.6128 20.324 28.4922 20.4869 28.6811C20.4869 28.6811 21.0745 29.0843 22.0565 28.6514C22.0565 28.6514 22.0813 28.6392 22.1194 28.6226C22.3814 28.4853 23.3942 27.8559 23.7597 26.1693C23.7597 26.1693 24.208 27.8729 25.2067 28.5491C25.2566 28.5771 25.3066 28.6068 25.3553 28.6392C25.3646 28.6441 25.374 28.6494 25.3833 28.6543C25.3833 28.6543 25.3805 28.6563 25.3805 28.6567C25.4036 28.6794 26.0335 29.2858 27.1345 29.0957C27.1345 29.0957 27.1604 29.0868 27.2002 29.0571C27.2413 29.0007 27.2802 28.9613 27.3168 28.9353C27.3184 28.9333 27.32 28.932 27.3213 28.93L27.3221 28.9316C27.4565 28.8382 27.5523 28.9158 27.5523 28.9158C27.6514 28.9869 27.623 29.1493 27.623 29.1493C28.0766 28.958 28.1542 28.3846 28.1542 28.3846C28.2817 28.1296 28.4803 28.292 28.4803 28.292C28.6858 28.3911 28.7715 28.7103 28.7715 28.7103C28.9416 28.2709 28.8275 27.8177 28.8275 27.8177C28.7849 27.6475 28.9055 27.7117 28.9055 27.7117C29.7275 27.8818 29.9687 27.6686 29.9687 27.6686C29.6783 27.5269 29.6426 27.1159 29.6426 27.1159C29.6637 26.7829 29.9752 26.8613 29.9752 26.8613C30.2798 26.9108 30.4495 27.1306 30.4495 27.1306C30.4991 26.6063 30.0812 26.1953 30.0812 26.1953C30.0174 26.0182 30.1311 25.9398 30.1311 25.9398C30.9178 25.6564 30.9194 25.2182 30.9194 25.2182C30.4536 25.3185 30.3683 24.9278 30.3683 24.9278C30.6237 24.3414 31.2495 24.5315 31.2495 24.5315C31.0891 24.1156 30.1307 23.8996 30.1307 23.8996C29.9537 23.74 30.1482 23.5735 30.1482 23.5735C30.2188 23.4671 30.3784 23.2863 30.3784 23.2863C30.1198 23.4033 29.8395 23.3749 29.8395 23.3749C29.7652 23.3217 29.8814 23.2936 29.8814 23.2936C30.5827 22.983 30.4832 22.1915 30.4832 22.1915C30.253 22.3921 29.8619 22.3218 29.8619 22.3218C29.6016 22.2918 29.5914 22.0611 29.5914 22.0611C29.6215 21.8004 30.002 21.6903 30.002 21.6903C29.6012 21.1291 28.4157 21.3053 28.4157 21.3053C28.6565 20.4834 28.2882 19.9729 28.2882 19.9729H28.2898Z" fill="#DEAA87"/>
<path d="M27.0596 27.6204C28.4422 27.6204 29.5629 26.4404 29.5629 24.9848C29.5629 23.5291 28.4422 22.3491 27.0596 22.3491C25.6771 22.3491 24.5564 23.5291 24.5564 24.9848C24.5564 26.4404 25.6771 27.6204 27.0596 27.6204Z" fill="#AD7340"/>
<path d="M23.7589 25.2053C23.3382 25.3674 22.9077 26.498 22.9077 26.498C23.0222 27.3475 23.7451 27.8442 23.7589 27.8572V27.8609C23.7589 27.8609 23.7601 27.8592 23.7605 27.8592L23.7614 27.86V27.8584C23.7748 27.845 24.4724 27.3285 24.5805 26.4911C24.5805 26.4911 24.1805 25.367 23.7597 25.2053H23.7589Z" fill="#AD7340"/>
<path d="M20.47 27.6139C21.8526 27.6139 22.9733 26.4339 22.9733 24.9783C22.9733 23.5227 21.8526 22.3427 20.47 22.3427C19.0875 22.3427 17.9668 23.5227 17.9668 24.9783C17.9668 26.4339 19.0875 27.6139 20.47 27.6139Z" fill="#AD7340"/>
<path d="M22.9084 26.5027C22.9084 26.5027 23.3393 25.7348 23.7605 25.5942L23.7621 27.9087C23.7621 27.9087 22.9686 27.2443 22.9084 26.5027Z" fill="#D38D5F"/>
<path d="M24.5823 26.4967C24.5823 26.4967 24.1815 25.7352 23.7607 25.5947V27.9095C23.7607 27.9095 24.5222 27.2382 24.5823 26.4967Z" fill="#E9C6AF"/>
<path d="M20.5625 27.4702C21.8712 27.4702 22.9322 26.3532 22.9322 24.9754C22.9322 23.5976 21.8712 22.4807 20.5625 22.4807C19.2538 22.4807 18.1929 23.5976 18.1929 24.9754C18.1929 26.3532 19.2538 27.4702 20.5625 27.4702Z" fill="#E9C6AF"/>
<path d="M26.9673 27.4741C28.276 27.4741 29.3369 26.3571 29.3369 24.9793C29.3369 23.6015 28.276 22.4846 26.9673 22.4846C25.6586 22.4846 24.5977 23.6015 24.5977 24.9793C24.5977 26.3571 25.6586 27.4741 26.9673 27.4741Z" fill="#E9C6AF"/>
<path d="M21.0897 26.5381C21.8564 26.5381 22.4778 25.9192 22.4778 25.1557C22.4778 24.3922 21.8564 23.7733 21.0897 23.7733C20.3231 23.7733 19.7017 24.3922 19.7017 25.1557C19.7017 25.9192 20.3231 26.5381 21.0897 26.5381Z" fill="#C87137"/>
<path d="M21.0999 26.1734C21.6714 26.1734 22.1347 25.7121 22.1347 25.1431C22.1347 24.5741 21.6714 24.1128 21.0999 24.1128C20.5285 24.1128 20.0652 24.5741 20.0652 25.1431C20.0652 25.7121 20.5285 26.1734 21.0999 26.1734Z" fill="#A05A2C"/>
<path d="M20.5295 24.8112C20.7129 24.8112 20.8617 24.6631 20.8617 24.4803C20.8617 24.2975 20.7129 24.1493 20.5295 24.1493C20.346 24.1493 20.1973 24.2975 20.1973 24.4803C20.1973 24.6631 20.346 24.8112 20.5295 24.8112Z" fill="#E9C6AF"/>
<path d="M26.5062 26.5423C27.2729 26.5423 27.8943 25.9233 27.8943 25.1599C27.8943 24.3964 27.2729 23.7775 26.5062 23.7775C25.7396 23.7775 25.1182 24.3964 25.1182 25.1599C25.1182 25.9233 25.7396 26.5423 26.5062 26.5423Z" fill="#C87137"/>
<path d="M26.5165 26.1778C27.0879 26.1778 27.5512 25.7165 27.5512 25.1475C27.5512 24.5785 27.0879 24.1172 26.5165 24.1172C25.945 24.1172 25.4817 24.5785 25.4817 25.1475C25.4817 25.7165 25.945 26.1778 26.5165 26.1778Z" fill="#A05A2C"/>
<path d="M25.9457 24.8153C26.1292 24.8153 26.2779 24.6671 26.2779 24.4843C26.2779 24.3015 26.1292 24.1533 25.9457 24.1533C25.7623 24.1533 25.6135 24.3015 25.6135 24.4843C25.6135 24.6671 25.7623 24.8153 25.9457 24.8153Z" fill="#E9C6AF"/>
<path d="M21.584 28.8067C21.584 28.8067 21.0536 28.9915 20.4376 28.6694C20.4376 28.6694 19.8865 28.4769 19.6071 29.2782C19.588 29.2591 19.3671 29.0101 19.4999 28.3709C19.4999 28.3709 19.5559 28.1947 19.2253 28.2479C19.2253 28.2479 18.3892 28.4895 18.2803 28.6365C18.2803 28.6365 18.5861 28.2004 18.5812 27.9068C18.5812 27.9068 18.5813 27.8004 18.2783 27.8048C18.2783 27.8048 17.6176 27.7979 17.3544 27.6249C17.3544 27.6156 17.698 27.3053 17.7548 27.0446C17.7548 27.0446 17.8332 26.649 17.4636 26.6706C17.4636 26.6706 17.0255 26.6706 16.746 26.9313C16.746 26.9313 16.6583 26.3956 17.2512 25.9769C17.2512 25.9769 17.3784 25.9067 17.2277 25.8328C17.2277 25.8328 16.5462 25.7032 16.3899 24.9121C16.3899 24.9121 16.6677 25.1879 16.9329 25.0457C16.9329 25.0457 16.9848 25.0266 17.0181 24.9511C17.0181 24.9511 17.0064 24.493 16.3968 24.3086C16.3968 24.3086 16.5824 24.0983 17.0368 24.0605C17.0368 24.0605 17.3495 23.9703 17.198 23.7669C17.198 23.7669 16.9816 23.5159 16.8443 23.4404C16.8443 23.4404 17.3134 23.4838 17.4697 23.3888C17.4555 23.3839 16.7765 23.3121 16.876 22.2176C16.876 22.2176 17.4113 22.8901 17.6151 22.4215C17.6009 22.393 17.7223 22.0905 17.2963 21.8582C17.2963 21.8582 17.5185 21.4224 18.3494 21.4505C18.3494 21.4505 18.7331 21.3558 18.4062 21.0289C18.4062 21.0289 18.9463 20.9388 19.188 21.1662C19.1928 21.1568 19.0231 20.6033 19.2838 19.9779C19.2838 19.9779 19.2639 21.1995 19.4438 21.6401C19.4203 21.6259 19.1551 21.2612 18.8091 21.1239C18.8091 21.1239 18.9845 21.7067 18.3684 21.7209C18.3684 21.7209 17.871 21.6214 17.6342 21.8062C17.6342 21.8062 18.0082 22.4694 17.7195 22.7488C17.7195 22.7488 17.4543 22.9811 17.1083 22.6542C17.1083 22.6542 17.0726 23.1845 17.7828 23.3267C17.7828 23.3267 17.661 23.6024 17.2915 23.6118C17.2915 23.6118 17.6046 23.9001 17.3727 24.1182C17.3727 24.1182 17.1481 24.3099 16.8476 24.3119C16.8476 24.3119 17.352 24.597 17.285 25.0392C17.285 25.0392 17.1221 25.3978 16.7119 25.2736C16.7119 25.2736 16.9832 25.5054 17.4389 25.6529C17.4389 25.6529 17.7154 25.8255 17.5883 26.0131C17.5883 26.0131 17.1684 26.1613 17.0413 26.5833C17.0413 26.5833 17.6712 26.2888 17.9591 26.5097C17.9591 26.5097 18.1609 27.0625 17.6833 27.5043C17.6833 27.5043 18.5869 27.6493 18.9557 27.6022C18.9557 27.6022 18.844 28.0875 18.7433 28.2215C18.7969 28.1947 19.4852 27.9197 19.9007 28.0132C19.9007 28.0132 19.5994 28.589 19.6331 28.8034C19.6331 28.8034 20.1675 28.2536 20.6297 28.334C20.6297 28.334 20.4753 28.6694 21.5848 28.8067H21.584Z" fill="#D38D5F"/>
<path d="M25.3779 28.6544C25.3779 28.6544 25.8778 29.2997 27.1445 29.0979C27.1445 29.0979 27.2265 29.0812 27.3248 28.991C27.3248 28.991 27.5904 28.8347 27.6237 29.1523C27.6237 29.1523 28.0542 29.0053 28.1492 28.4132C28.1492 28.4132 28.2487 28.1431 28.5046 28.323C28.5046 28.323 28.667 28.4046 28.7738 28.7202C28.7738 28.7202 28.9683 28.2893 28.8262 27.8109C28.8262 27.8109 28.8173 27.7073 28.9168 27.7309C28.9168 27.7309 29.6441 27.949 29.9759 27.6651C29.9759 27.6651 29.6019 27.4637 29.6871 26.9711C29.6871 26.9711 29.7745 26.7997 30.0774 26.8898C30.0774 26.8898 30.3324 26.9719 30.4522 27.138C30.4522 27.138 30.5619 26.6076 30.1054 26.1909C30.1054 26.1909 29.9962 26.046 30.1663 25.9392C30.1663 25.9392 30.8665 25.7008 30.9302 25.209C30.9302 25.209 30.544 25.3361 30.3747 24.9304C30.3747 24.9304 30.5822 24.3789 31.2572 24.5352C31.2572 24.5352 31.1008 24.0694 30.1521 23.8985C30.1521 23.8985 29.9767 23.8343 30.1399 23.5906L30.3877 23.2791C30.3877 23.2791 30.0283 23.429 29.8342 23.3486C29.8342 23.3486 29.7919 23.3283 29.889 23.2946C29.889 23.2946 30.5513 23.0566 30.4908 22.1822C30.4908 22.1822 29.9129 22.5132 29.6262 22.1619C29.6262 22.1619 29.454 21.9118 30.0067 21.6904C30.0067 21.6904 29.8329 21.1491 28.431 21.2957C28.431 21.2957 28.6792 20.5144 28.2905 19.9718C28.2905 19.9718 28.3957 21.0468 28.0002 21.6555C28.0002 21.6555 28.9671 21.34 29.8419 21.6535C29.8419 21.6535 29.1543 21.7225 29.4934 22.3033C29.4934 22.3033 29.6945 22.618 30.3243 22.4775C30.3243 22.4775 29.9893 23.1208 29.5872 23.3616C29.5872 23.3616 29.8821 23.5358 30.0831 23.5155C30.0733 23.5508 29.8362 23.9204 29.7558 23.9537C29.7558 23.9537 30.371 24.0313 30.7796 24.3464C30.7796 24.3464 30.3909 24.4333 30.2033 24.9629C30.2033 24.9629 30.4177 25.3515 30.6456 25.4051C30.6512 25.3848 30.1834 25.8271 29.8216 25.9477C29.8484 25.981 30.2569 26.6446 30.3308 26.8789C30.3308 26.8789 29.9219 26.5126 29.5872 26.8188C29.5872 26.8188 29.3769 27.1851 29.5661 27.5307C29.5661 27.5307 29.0402 27.6111 28.704 27.5258C28.704 27.5258 28.7701 28.113 28.7275 28.2885C28.7275 28.2885 28.4907 28.0895 28.1874 28.0704C28.1874 28.0704 27.9839 28.7336 27.761 28.8237C27.761 28.8237 27.6282 28.6532 27.4389 28.5914C27.4389 28.5914 26.3018 29.4102 25.3783 28.6524L25.3779 28.6544Z" fill="#D38D5F"/>
<path d="M23.7506 33.2595L24.1774 31.9628L25.5427 31.9652L24.4414 31.1583L24.8662 29.8608L23.7587 30.6588L22.6561 29.8539L23.0728 31.1538L21.9666 31.9539L23.3315 31.9596L23.7506 33.2587V33.2595Z" fill="#AD7340"/>
<path fill-rule="evenodd" clip-rule="evenodd" d="M22.658 29.8561L23.7609 31.3814L23.0722 31.1617L22.658 29.8561Z" fill="#E9C6AF"/>
<path fill-rule="evenodd" clip-rule="evenodd" d="M21.9765 31.954L23.7552 31.3733L23.3345 31.9609L21.9761 31.954H21.9765Z" fill="#E9C6AF"/>
<path fill-rule="evenodd" clip-rule="evenodd" d="M23.7589 31.3812L23.7532 33.2623L24.1824 31.951L23.7593 31.3812H23.7589Z" fill="#E9C6AF"/>
<path fill-rule="evenodd" clip-rule="evenodd" d="M23.7571 31.3801L25.5306 31.9633L24.4385 31.1564L23.7575 31.3797L23.7571 31.3801Z" fill="#E9C6AF"/>
<path fill-rule="evenodd" clip-rule="evenodd" d="M23.7566 31.3826L24.8661 29.8617L23.7578 30.6617L23.7566 31.3826Z" fill="#E9C6AF"/>
<path d="M26.3899 31.7246L26.6685 30.8783L27.5595 30.8799L26.8407 30.3532L27.118 29.5064L26.3952 30.0275L25.6756 29.502L25.9476 30.3503L25.2256 30.8726L26.1166 30.8762L26.3903 31.7242L26.3899 31.7246Z" fill="#AD7340"/>
<path fill-rule="evenodd" clip-rule="evenodd" d="M25.6765 29.5027L26.3965 30.4985L25.947 30.3551L25.6765 29.5031V29.5027Z" fill="#E9C6AF"/>
<path fill-rule="evenodd" clip-rule="evenodd" d="M25.2322 30.8722L26.3932 30.4933L26.1187 30.8767L25.2322 30.8722Z" fill="#E9C6AF"/>
<path fill-rule="evenodd" clip-rule="evenodd" d="M26.395 30.4984L26.3914 31.7261L26.6716 30.8704L26.3954 30.4984H26.395Z" fill="#E9C6AF"/>
<path fill-rule="evenodd" clip-rule="evenodd" d="M26.394 30.4977L27.5515 30.8786L26.8387 30.3519L26.394 30.4977Z" fill="#E9C6AF"/>
<path fill-rule="evenodd" clip-rule="evenodd" d="M26.394 30.4992L27.1181 29.5067L26.3949 30.029L26.394 30.4996V30.4992Z" fill="#E9C6AF"/>
<path d="M21.1143 31.7246L21.3929 30.8783L22.2839 30.8799L21.565 30.3532L21.8424 29.5064L21.1195 30.0275L20.3999 29.502L20.672 30.3503L19.95 30.8726L20.841 30.8762L21.1147 31.7242L21.1143 31.7246Z" fill="#AD7340"/>
<path fill-rule="evenodd" clip-rule="evenodd" d="M20.4004 29.5027L21.1204 30.4985L20.6709 30.3551L20.4004 29.5031V29.5027Z" fill="#E9C6AF"/>
<path fill-rule="evenodd" clip-rule="evenodd" d="M19.9563 30.8722L21.1174 30.4933L20.8428 30.8767L19.9563 30.8722Z" fill="#E9C6AF"/>
<path fill-rule="evenodd" clip-rule="evenodd" d="M21.1196 30.4984L21.116 31.7261L21.3962 30.8704L21.12 30.4984H21.1196Z" fill="#E9C6AF"/>
<path fill-rule="evenodd" clip-rule="evenodd" d="M21.1184 30.4976L22.2758 30.8785L21.5631 30.3518L21.1184 30.4976Z" fill="#E9C6AF"/>
<path fill-rule="evenodd" clip-rule="evenodd" d="M21.1184 30.4992L21.8425 29.5067L21.1192 30.029L21.1184 30.4996V30.4992Z" fill="#E9C6AF"/>
<path d="M23.7506 16.3418L24.1774 17.6385L25.5427 17.6361L24.4414 18.443L24.8662 19.7405L23.7587 18.9425L22.6561 19.7474L23.0728 18.4475L21.9666 17.6474L23.3315 17.6417L23.7506 16.3426V16.3418Z" fill="#AD7340"/>
<path fill-rule="evenodd" clip-rule="evenodd" d="M22.658 19.7452L23.7609 18.2198L23.0722 18.4396L22.658 19.7452Z" fill="#E9C6AF"/>
<path fill-rule="evenodd" clip-rule="evenodd" d="M21.9765 17.6473L23.7552 18.228L23.3345 17.6404L21.9761 17.6473H21.9765Z" fill="#E9C6AF"/>
<path fill-rule="evenodd" clip-rule="evenodd" d="M23.7589 18.2197L23.7532 16.3386L24.1824 17.6499L23.7593 18.2197H23.7589Z" fill="#E9C6AF"/>
<path fill-rule="evenodd" clip-rule="evenodd" d="M23.7571 18.2209L25.5306 17.6377L24.4385 18.4446L23.7575 18.2213L23.7571 18.2209Z" fill="#E9C6AF"/>
<path fill-rule="evenodd" clip-rule="evenodd" d="M23.7566 18.2186L24.8661 19.7395L23.7578 18.9395L23.7566 18.2186Z" fill="#E9C6AF"/>
<path d="M26.3899 17.8766L26.6685 18.7229L27.5595 18.7213L26.8407 19.248L27.118 20.0947L26.3952 19.5737L25.6756 20.0992L25.9476 19.2509L25.2256 18.7286L26.1166 18.7249L26.3903 17.877L26.3899 17.8766Z" fill="#AD7340"/>
<path fill-rule="evenodd" clip-rule="evenodd" d="M25.6765 20.098L26.3965 19.1022L25.947 19.2455L25.6765 20.0975V20.098Z" fill="#E9C6AF"/>
<path fill-rule="evenodd" clip-rule="evenodd" d="M25.2322 18.7286L26.3932 19.1075L26.1187 18.7241L25.2322 18.7286Z" fill="#E9C6AF"/>
<path fill-rule="evenodd" clip-rule="evenodd" d="M26.395 19.1027L26.3914 17.875L26.6716 18.7307L26.3954 19.1027H26.395Z" fill="#E9C6AF"/>
<path fill-rule="evenodd" clip-rule="evenodd" d="M26.394 19.1035L27.5515 18.7225L26.8387 19.2493L26.394 19.1035Z" fill="#E9C6AF"/>
<path fill-rule="evenodd" clip-rule="evenodd" d="M26.394 19.1018L27.1181 20.0944L26.3949 19.5721L26.394 19.1014V19.1018Z" fill="#E9C6AF"/>
<path d="M21.1143 17.8766L21.3929 18.7229L22.2839 18.7213L21.565 19.248L21.8424 20.0947L21.1195 19.5737L20.3999 20.0992L20.672 19.2509L19.95 18.7286L20.841 18.7249L21.1147 17.877L21.1143 17.8766Z" fill="#AD7340"/>
<path fill-rule="evenodd" clip-rule="evenodd" d="M20.4004 20.098L21.1204 19.1022L20.6709 19.2455L20.4004 20.0975V20.098Z" fill="#E9C6AF"/>
<path fill-rule="evenodd" clip-rule="evenodd" d="M19.9563 18.7286L21.1174 19.1075L20.8428 18.7241L19.9563 18.7286Z" fill="#E9C6AF"/>
<path fill-rule="evenodd" clip-rule="evenodd" d="M21.1196 19.1027L21.116 17.875L21.3962 18.7307L21.12 19.1027H21.1196Z" fill="#E9C6AF"/>
<path fill-rule="evenodd" clip-rule="evenodd" d="M21.1184 19.1035L22.2758 18.7225L21.5631 19.2493L21.1184 19.1035Z" fill="#E9C6AF"/>
<path fill-rule="evenodd" clip-rule="evenodd" d="M21.1184 19.1018L21.8425 20.0944L21.1192 19.5721L21.1184 19.1014V19.1018Z" fill="#E9C6AF"/>
</svg>
