<svg width="48" height="48" viewBox="0 0 48 48" fill="none" xmlns="http://www.w3.org/2000/svg">
<path d="M0 5.33333C0 2.38781 2.38781 0 5.33333 0H42.6667C45.6122 0 48 2.38781 48 5.33333V42.6667C48 45.6122 45.6122 48 42.6667 48H5.33333C2.38781 48 0 45.6122 0 42.6667V5.33333Z" fill="#7367F0" fill-opacity="0.12"/>
<path d="M15.6857 17.6867C15.7002 17.1145 15.3333 16.9653 15.3333 16.9653L15.2773 16.9416C14.78 16.7482 14.2107 16.951 13.9462 17.416C13.9167 17.4668 13.8965 17.5025 13.894 17.5079C13.6082 18.1583 14.3392 18.7242 14.924 19.1259C15.4115 19.4586 16.073 19.9118 16.073 19.9118C17.7426 21.2496 19.4167 22.8842 18.6778 23.8901C18.0271 24.7442 16.5895 24.4905 16.7237 23.3395C16.7732 22.8746 16.5861 22.4147 16.2266 22.1174C15.3519 21.3839 14.2386 20.9086 13.3385 20.1759C11.507 18.8427 12.0873 17.1403 12.0873 17.1403C12.5988 15.4633 14.2361 15.43 14.2361 15.43C15.7553 15.3614 17.2878 16.5162 16.9958 18.1541C16.9163 18.7754 16.191 18.5949 16.191 18.5949C15.5917 18.4614 15.6857 17.6867 15.6857 17.6867Z" fill="#F3BE57"/>
<path d="M14.0179 15.6835C14.3041 15.6232 14.2444 15.8499 14.2444 15.8499C14.2113 15.97 14.0249 15.9771 14.0249 15.9771C12.8544 16.084 12.4419 17.0791 12.4419 17.0791C12.4419 17.0791 12.5148 15.9127 14.0179 15.6835Z" fill="#F7C665"/>
<path d="M15.5375 16.598L15.5934 16.6217C15.5934 16.6217 15.9599 16.7714 15.9458 17.3436C15.9318 17.9157 15.851 18.1166 16.4511 18.2513C16.4511 18.2513 16.7494 18.3253 16.9842 18.2147C16.8662 18.7628 16.1898 18.5948 16.1898 18.5948C15.5913 18.4613 15.6853 17.6866 15.6853 17.6866C15.6998 17.1144 15.3328 16.9652 15.3328 16.9652L15.2769 16.9415C14.8985 16.793 14.4673 16.8728 14.1665 17.1469C14.1756 17.1307 14.1905 17.1053 14.2079 17.0724C14.4723 16.6083 15.0406 16.4055 15.5375 16.598Z" fill="#F3B744"/>
<path d="M12.0873 17.1398C12.191 16.7841 12.3743 16.457 12.6233 16.1833C12.5055 16.3748 12.4131 16.5809 12.3482 16.7963C12.2834 17.0117 11.7684 18.5012 13.5999 19.8318C14.4995 20.5645 15.6132 21.0377 16.488 21.7733C16.8475 22.0704 17.0346 22.5302 16.985 22.995C16.8608 24.0579 18.076 24.3548 18.7755 23.7223C18.7489 23.7811 18.7161 23.8368 18.6778 23.8887C18.0271 24.7428 16.5895 24.4891 16.7237 23.3381C16.7732 22.8732 16.5861 22.4133 16.2266 22.116C15.3519 21.3825 14.2386 20.9076 13.3385 20.1745C11.507 18.843 12.0873 17.1398 12.0873 17.1398Z" fill="#F3B744"/>
<path d="M25.5599 31.1515H20.4241C21.9354 29.6496 22.1442 28.1476 21.9247 26.6456H23.9103C23.7698 28.0258 24.0453 29.5377 25.5599 31.1515Z" fill="#F3BE57"/>
<path d="M17.0545 14.6237C16.8964 15.4178 16.8173 16.2257 16.8184 17.0355C16.8184 21.879 19.5764 25.8057 22.9785 25.8057C26.3806 25.8057 29.1391 21.879 29.1391 17.0355C29.1401 16.2257 29.061 15.4178 28.903 14.6237H17.0545Z" fill="#F3BE57"/>
<path d="M19.0437 15.5801C18.9215 16.1953 18.8603 16.8211 18.8611 17.4484C18.8611 21.2008 20.9974 24.2426 23.6333 24.2426C26.2692 24.2426 28.4043 21.2013 28.4043 17.4488C28.4054 16.8214 28.3444 16.1954 28.2221 15.5801H19.0437Z" fill="#F7C665"/>
<path d="M22.9547 26.6456H21.9193C22.1388 28.1476 21.9301 29.6496 20.4187 31.1515H21.4521C22.9655 29.6496 23.1743 28.1476 22.9547 26.6456Z" fill="#F3B744"/>
<path d="M17.8224 17.0355C17.8212 16.2257 17.9001 15.4178 18.058 14.6237H17.0545C16.8964 15.4178 16.8173 16.2257 16.8184 17.0355C16.8184 21.879 19.5764 25.8057 22.9785 25.8057C23.1463 25.8056 23.3139 25.7959 23.4805 25.7766C20.3132 25.4128 17.8224 21.6387 17.8224 17.0355Z" fill="#F3B744"/>
<path fill-rule="evenodd" clip-rule="evenodd" d="M25.6592 26.0975C25.6592 25.6754 25.3179 25.3328 24.8975 25.3328H21.0617C20.6413 25.3328 20.3 25.6754 20.3 26.0975C20.3 26.5195 20.6413 26.8622 21.0617 26.8622H24.8975C25.3179 26.8622 25.6592 26.5195 25.6592 26.0975Z" fill="#F3B744"/>
<path d="M22.2488 26.0979C22.2488 26.0978 22.2488 26.0976 22.2488 26.0975C22.2488 25.678 22.5926 25.3328 23.0105 25.3328H21.0617C20.6439 25.3328 20.3 25.678 20.3 26.0975C20.3 26.0976 20.3 26.0978 20.3 26.0979C20.3 26.5174 20.6439 26.8626 21.0617 26.8626H23.0105C22.5926 26.8626 22.2488 26.5174 22.2488 26.0979Z" fill="#EDAC3F"/>
<path fill-rule="evenodd" clip-rule="evenodd" d="M29.9782 15.0094C29.9782 14.4523 29.5277 14 28.9727 14H16.9883C16.4334 14 15.9829 14.4523 15.9829 15.0094C15.9829 15.5666 16.4334 16.0188 16.9883 16.0188H28.9727C29.5277 16.0188 29.9782 15.5666 29.9782 15.0094Z" fill="#F3B744"/>
<path d="M17.1039 15.0098C17.1054 14.4566 17.5584 14.0018 18.1095 14.0002H16.9875C16.9807 14.0001 16.9739 14 16.9671 14C16.4154 14 15.9614 14.4557 15.9614 15.0096C15.9614 15.5635 16.4154 16.0193 16.9671 16.0193C16.9739 16.0193 16.9807 16.0192 16.9875 16.0191H18.1095C17.5586 16.0175 17.1057 15.5629 17.1039 15.0098Z" fill="#EDAC3F"/>
<path d="M23.8121 25.4883H24.8248C24.9757 25.4866 25.1236 25.5317 25.2481 25.6172C25.3961 25.7142 25.4837 25.8819 25.4792 26.0593C25.4751 26.3287 25.3086 26.3466 25.1682 26.3133C25.0742 26.2889 24.9914 26.233 24.9333 26.1549C24.8505 26.0484 24.6177 25.8726 23.9733 25.8368C23.3876 25.8044 23.4245 25.6767 23.5346 25.5852C23.6131 25.5215 23.7112 25.4872 23.8121 25.4883Z" fill="#F7C665"/>
<path fill-rule="evenodd" clip-rule="evenodd" d="M25.6592 30.9748C25.6592 30.5527 25.3179 30.2101 24.8975 30.2101H21.0617C20.6413 30.2101 20.3 30.5527 20.3 30.9748C20.3 31.3969 20.6413 31.7395 21.0617 31.7395H24.8975C25.3179 31.7395 25.6592 31.3969 25.6592 30.9748Z" fill="#EDAC3F"/>
<path d="M22.2488 30.9748C22.2488 30.5553 22.5926 30.2101 23.0105 30.2101H21.0617C20.6439 30.2101 20.3 30.5553 20.3 30.9748C20.3 31.3943 20.6439 31.7395 21.0617 31.7395H23.0105C22.5926 31.7395 22.2488 31.3943 22.2488 30.9748Z" fill="#EDAC3F"/>
<path d="M23.8121 30.365H24.8248C24.9758 30.3633 25.1237 30.4085 25.2481 30.4944C25.3961 30.5911 25.4837 30.7584 25.4792 30.9356C25.4751 31.2054 25.3086 31.2229 25.1682 31.1896C25.0742 31.1652 24.9914 31.1093 24.9333 31.0312C24.8505 30.9247 24.6177 30.7493 23.9733 30.7135C23.3876 30.6811 23.4245 30.553 23.5346 30.4615C23.6132 30.398 23.7113 30.3638 23.8121 30.365Z" fill="#F7C665"/>
<path fill-rule="evenodd" clip-rule="evenodd" d="M26.6927 32.503C26.6927 32.0286 26.3091 31.6434 25.8366 31.6434H20.1213C19.6488 31.6434 19.2651 32.0286 19.2651 32.503V33.1392C19.2651 33.6135 19.6488 33.9987 20.1213 33.9987H25.8366C26.3091 33.9987 26.6927 33.6135 26.6927 33.1392V32.503Z" fill="#F3B744"/>
<path d="M30.3661 17.6867C30.3661 17.6867 30.4593 18.4614 29.8608 18.5949C29.8608 18.5949 29.1355 18.7754 29.0556 18.1541C28.7636 16.5162 30.2982 15.3614 31.8157 15.43C31.8157 15.43 33.4517 15.4633 33.9641 17.1395C33.9641 17.1395 34.5439 18.8444 32.7124 20.175C31.8132 20.9077 30.6995 21.381 29.8243 22.1166C29.4648 22.4138 29.2777 22.8738 29.3273 23.3387C29.4615 24.4897 28.0239 24.7433 27.3728 23.8892C26.6343 22.8833 28.308 21.2487 29.9776 19.911C29.9776 19.911 30.6403 19.4598 31.1269 19.1251C31.7118 18.7234 32.4428 18.1574 32.1558 17.5071C32.1533 17.5017 32.1326 17.4655 32.1032 17.4152C31.8387 16.9516 31.2709 16.7492 30.7745 16.9416C30.7557 16.949 30.7371 16.9569 30.7185 16.9653C30.7 16.9736 30.3516 17.1145 30.3657 17.6867H30.3661Z" fill="#F3BE57"/>
<path d="M33.6142 17.0795C33.6142 17.0795 33.2001 16.0844 32.0316 15.978C32.0316 15.978 31.8453 15.9709 31.8121 15.8507C31.8121 15.8507 31.7521 15.6237 32.0383 15.6844C33.5397 15.9131 33.6142 17.0795 33.6142 17.0795Z" fill="#F7C665"/>
<path d="M30.5158 16.5982C30.4973 16.6057 30.4787 16.6136 30.4599 16.6219C30.4412 16.6302 30.093 16.7716 30.1075 17.3438C30.1219 17.916 30.2006 18.1181 29.6021 18.2516C29.6021 18.2516 29.3039 18.3256 29.0691 18.215C29.1871 18.763 29.8635 18.595 29.8635 18.595C30.462 18.4615 30.3688 17.6869 30.3688 17.6869C30.3539 17.1147 30.7229 16.9654 30.7229 16.9654C30.7417 16.9571 30.7603 16.9492 30.7788 16.9417C31.1572 16.7933 31.5884 16.873 31.8893 17.1471L31.8478 17.0727C31.5761 16.6099 31.0104 16.3999 30.5158 16.5982Z" fill="#F3B744"/>
<path d="M33.9632 17.1398C33.8596 16.784 33.6761 16.4568 33.4269 16.1833C33.5448 16.3747 33.6372 16.5808 33.7019 16.7963C33.7665 17.0118 34.2817 18.5012 32.4506 19.8318C31.551 20.5645 30.4373 21.0377 29.5621 21.7733C29.2026 22.0704 29.0155 22.5302 29.0651 22.995C29.1894 24.0579 27.9741 24.3548 27.2742 23.7223C27.301 23.781 27.3337 23.8368 27.3719 23.8887C28.023 24.7428 29.4606 24.4891 29.3264 23.3381C29.2769 22.8732 29.464 22.4132 29.8235 22.116C30.6986 21.3825 31.8115 20.9076 32.7116 20.1745C34.5435 18.843 33.9632 17.1398 33.9632 17.1398Z" fill="#F3B744"/>
<path d="M20.7566 33.1389V32.5043C20.7566 32.0328 21.1431 31.6448 21.6127 31.6448H20.1217C20.1214 31.6448 20.1211 31.6448 20.1208 31.6448C19.6514 31.6448 19.2651 32.0326 19.2651 32.5039C19.2651 32.504 19.2651 32.5042 19.2651 32.5043V33.1405C19.2651 33.1406 19.2651 33.1408 19.2651 33.1409C19.2651 33.6122 19.6514 34 20.1208 34C20.121 34 20.1211 34 20.1213 34H21.6123C21.1428 33.9998 20.7566 33.6119 20.7566 33.1405C20.7566 33.14 20.7566 33.1394 20.7566 33.1389Z" fill="#EDAC3F"/>
<path d="M24.8148 31.9905H25.8271C25.9782 31.9888 26.1262 32.034 26.2508 32.1198C26.3988 32.2167 26.4865 32.3841 26.4819 32.5615C26.4773 32.8309 26.3108 32.8484 26.1708 32.8151C26.0768 32.7906 25.9938 32.7347 25.9356 32.6567C25.8527 32.5502 25.6204 32.3747 24.9759 32.339C24.3898 32.3066 24.4271 32.1785 24.5369 32.087C24.6156 32.0235 24.7139 31.9894 24.8148 31.9905Z" fill="#F7C665"/>
<g filter="url(#filter0_i_855_5775)">
<path d="M23.0362 17.3615C23.024 17.3618 23.0121 17.3655 23.0018 17.3722C22.9915 17.3789 22.9832 17.3883 22.9778 17.3995L22.366 18.66L20.9981 18.8621C20.9857 18.864 20.9741 18.8693 20.9645 18.8775C20.9549 18.8857 20.9478 18.8965 20.944 18.9086C20.9401 18.9207 20.9396 18.9336 20.9426 18.946C20.9456 18.9583 20.952 18.9696 20.9609 18.9785L21.9507 19.9596L21.7171 21.3451C21.715 21.3576 21.7163 21.3705 21.7211 21.3823C21.7258 21.3941 21.7336 21.4043 21.7438 21.4118C21.7539 21.4192 21.7658 21.4237 21.7783 21.4246C21.7908 21.4255 21.8033 21.4229 21.8144 21.417L23.0379 20.7629L24.2614 21.417C24.2725 21.4229 24.285 21.4255 24.2975 21.4246C24.3099 21.4237 24.3219 21.4192 24.332 21.4118C24.3422 21.4043 24.35 21.3941 24.3547 21.3823C24.3594 21.3705 24.3608 21.3576 24.3587 21.3451L24.1251 19.9596L25.1149 18.9785C25.1238 18.9696 25.1302 18.9583 25.1332 18.946C25.1362 18.9336 25.1357 18.9207 25.1318 18.9086C25.128 18.8965 25.1209 18.8857 25.1113 18.8775C25.1017 18.8693 25.0901 18.864 25.0777 18.8621L23.7098 18.66L23.0981 17.3995C23.0924 17.3878 23.0836 17.378 23.0726 17.3713C23.0616 17.3645 23.049 17.3611 23.0362 17.3615Z" fill="#FF9124"/>
</g>
<defs>
<filter id="filter0_i_855_5775" x="20.9407" y="17.3615" width="4.19434" height="4.06335" filterUnits="userSpaceOnUse" color-interpolation-filters="sRGB">
<feFlood flood-opacity="0" result="BackgroundImageFix"/>
<feBlend mode="normal" in="SourceGraphic" in2="BackgroundImageFix" result="shape"/>
<feColorMatrix in="SourceAlpha" type="matrix" values="0 0 0 0 0 0 0 0 0 0 0 0 0 0 0 0 0 0 127 0" result="hardAlpha"/>
<feOffset dy="6"/>
<feComposite in2="hardAlpha" operator="arithmetic" k2="-1" k3="1"/>
<feColorMatrix type="matrix" values="0 0 0 0 1 0 0 0 0 0.521569 0 0 0 0 0 0 0 0 1 0"/>
<feBlend mode="normal" in2="shape" result="effect1_innerShadow_855_5775"/>
</filter>
</defs>
</svg>
