<svg width="48" height="48" viewBox="0 0 48 48" fill="none" xmlns="http://www.w3.org/2000/svg">
<path d="M0 5.33333C0 2.38781 2.38781 0 5.33333 0H42.6667C45.6122 0 48 2.38781 48 5.33333V42.6667C48 45.6122 45.6122 48 42.6667 48H5.33333C2.38781 48 0 45.6122 0 42.6667V5.33333Z" fill="#7367F0" fill-opacity="0.12"/>
<path d="M16.6857 17.6867C16.7002 17.1145 16.3333 16.9653 16.3333 16.9653L16.2773 16.9416C15.78 16.7482 15.2107 16.951 14.9462 17.416C14.9167 17.4668 14.8965 17.5025 14.894 17.5079C14.6082 18.1583 15.3392 18.7242 15.924 19.1259C16.4115 19.4586 17.073 19.9118 17.073 19.9118C18.7426 21.2496 20.4167 22.8842 19.6778 23.8901C19.0271 24.7442 17.5895 24.4905 17.7237 23.3395C17.7732 22.8746 17.5861 22.4147 17.2266 22.1174C16.3519 21.3839 15.2386 20.9086 14.3385 20.1759C12.507 18.8427 13.0873 17.1403 13.0873 17.1403C13.5988 15.4633 15.2361 15.43 15.2361 15.43C16.7553 15.3614 18.2878 16.5162 17.9958 18.1541C17.9163 18.7754 17.191 18.5949 17.191 18.5949C16.5917 18.4614 16.6857 17.6867 16.6857 17.6867Z" fill="#A8A8A8"/>
<path d="M15.0179 15.6835C15.3041 15.6232 15.2444 15.8499 15.2444 15.8499C15.2113 15.97 15.0249 15.9771 15.0249 15.9771C13.8544 16.084 13.4419 17.0791 13.4419 17.0791C13.4419 17.0791 13.5148 15.9127 15.0179 15.6835Z" fill="#B7B7B7"/>
<path d="M16.5375 16.598L16.5934 16.6217C16.5934 16.6217 16.9599 16.7714 16.9458 17.3436C16.9318 17.9157 16.851 18.1166 17.4511 18.2513C17.4511 18.2513 17.7494 18.3253 17.9842 18.2147C17.8662 18.7628 17.1898 18.5948 17.1898 18.5948C16.5913 18.4613 16.6853 17.6866 16.6853 17.6866C16.6998 17.1144 16.3328 16.9652 16.3328 16.9652L16.2769 16.9415C15.8985 16.793 15.4673 16.8728 15.1665 17.1469C15.1756 17.1307 15.1905 17.1053 15.2079 17.0724C15.4723 16.6083 16.0406 16.4055 16.5375 16.598Z" fill="#9E9E9E"/>
<path d="M13.0873 17.1398C13.191 16.7841 13.3743 16.457 13.6233 16.1833C13.5055 16.3748 13.4131 16.5809 13.3482 16.7963C13.2834 17.0117 12.7684 18.5012 14.5999 19.8318C15.4995 20.5645 16.6132 21.0377 17.488 21.7733C17.8475 22.0704 18.0346 22.5302 17.985 22.995C17.8608 24.0579 19.076 24.3548 19.7755 23.7223C19.7489 23.7811 19.7161 23.8368 19.6778 23.8887C19.0271 24.7428 17.5895 24.4891 17.7237 23.3381C17.7732 22.8732 17.5861 22.4133 17.2266 22.116C16.3519 21.3825 15.2386 20.9076 14.3385 20.1745C12.507 18.843 13.0873 17.1398 13.0873 17.1398Z" fill="#A8A8A8"/>
<path d="M26.5599 31.1515H21.4241C22.9354 29.6496 23.1442 28.1476 22.9247 26.6456H24.9103C24.7698 28.0258 25.0453 29.5377 26.5599 31.1515Z" fill="#B7B7B7"/>
<path d="M18.0545 14.6237C17.8964 15.4178 17.8173 16.2257 17.8184 17.0355C17.8184 21.879 20.5764 25.8057 23.9785 25.8057C27.3806 25.8057 30.1391 21.879 30.1391 17.0355C30.1401 16.2257 30.061 15.4178 29.903 14.6237H18.0545Z" fill="#A8A8A8"/>
<path d="M20.0437 15.5801C19.9215 16.1953 19.8603 16.8211 19.8611 17.4484C19.8611 21.2008 21.9974 24.2426 24.6333 24.2426C27.2692 24.2426 29.4043 21.2013 29.4043 17.4488C29.4054 16.8214 29.3444 16.1954 29.2221 15.5801H20.0437Z" fill="#B7B7B7"/>
<path d="M23.9547 26.6456H22.9193C23.1388 28.1476 22.9301 29.6496 21.4187 31.1515H22.4521C23.9655 29.6496 24.1743 28.1476 23.9547 26.6456Z" fill="#A8A8A8"/>
<path d="M18.8224 17.0355C18.8212 16.2257 18.9001 15.4178 19.058 14.6237H18.0545C17.8964 15.4178 17.8173 16.2257 17.8184 17.0355C17.8184 21.879 20.5764 25.8057 23.9785 25.8057C24.1463 25.8056 24.3139 25.7959 24.4805 25.7766C21.3132 25.4128 18.8224 21.6387 18.8224 17.0355Z" fill="#9E9E9E"/>
<path fill-rule="evenodd" clip-rule="evenodd" d="M26.6592 26.0975C26.6592 25.6754 26.3179 25.3328 25.8975 25.3328H22.0617C21.6413 25.3328 21.3 25.6754 21.3 26.0975C21.3 26.5195 21.6413 26.8622 22.0617 26.8622H25.8975C26.3179 26.8622 26.6592 26.5195 26.6592 26.0975Z" fill="#A8A8A8"/>
<path d="M23.2488 26.0979C23.2488 26.0978 23.2488 26.0976 23.2488 26.0975C23.2488 25.678 23.5926 25.3328 24.0105 25.3328H22.0617C21.6439 25.3328 21.3 25.678 21.3 26.0975C21.3 26.0976 21.3 26.0978 21.3 26.0979C21.3 26.5174 21.6439 26.8626 22.0617 26.8626H24.0105C23.5926 26.8626 23.2488 26.5174 23.2488 26.0979Z" fill="#9E9E9E"/>
<path fill-rule="evenodd" clip-rule="evenodd" d="M30.9782 15.0094C30.9782 14.4523 30.5277 14 29.9727 14H17.9883C17.4334 14 16.9829 14.4523 16.9829 15.0094C16.9829 15.5666 17.4334 16.0188 17.9883 16.0188H29.9727C30.5277 16.0188 30.9782 15.5666 30.9782 15.0094Z" fill="#A8A8A8"/>
<path d="M18.1039 15.0098C18.1054 14.4566 18.5584 14.0018 19.1095 14.0002H17.9875C17.9807 14.0001 17.9739 14 17.9671 14C17.4154 14 16.9614 14.4557 16.9614 15.0096C16.9614 15.5635 17.4154 16.0193 17.9671 16.0193C17.9739 16.0193 17.9807 16.0192 17.9875 16.0191H19.1095C18.5586 16.0175 18.1057 15.5629 18.1039 15.0098Z" fill="#9E9E9E"/>
<path d="M24.8121 25.4883H25.8248C25.9757 25.4866 26.1236 25.5317 26.2481 25.6172C26.3961 25.7142 26.4837 25.8819 26.4792 26.0593C26.4751 26.3287 26.3086 26.3466 26.1682 26.3133C26.0742 26.2889 25.9914 26.233 25.9333 26.1549C25.8505 26.0484 25.6177 25.8726 24.9733 25.8368C24.3876 25.8044 24.4245 25.6767 24.5346 25.5852C24.6131 25.5215 24.7112 25.4872 24.8121 25.4883Z" fill="#B7B7B7"/>
<path fill-rule="evenodd" clip-rule="evenodd" d="M26.6592 30.9748C26.6592 30.5527 26.3179 30.2101 25.8975 30.2101H22.0617C21.6413 30.2101 21.3 30.5527 21.3 30.9748C21.3 31.3969 21.6413 31.7395 22.0617 31.7395H25.8975C26.3179 31.7395 26.6592 31.3969 26.6592 30.9748Z" fill="#9E9E9E"/>
<path d="M23.2488 30.9748C23.2488 30.5553 23.5926 30.2101 24.0105 30.2101H22.0617C21.6439 30.2101 21.3 30.5553 21.3 30.9748C21.3 31.3943 21.6439 31.7395 22.0617 31.7395H24.0105C23.5926 31.7395 23.2488 31.3943 23.2488 30.9748Z" fill="#9E9E9E"/>
<path d="M24.8121 30.365H25.8248C25.9758 30.3633 26.1237 30.4085 26.2481 30.4944C26.3961 30.5911 26.4837 30.7584 26.4792 30.9356C26.4751 31.2054 26.3086 31.2229 26.1682 31.1896C26.0742 31.1652 25.9914 31.1093 25.9333 31.0312C25.8505 30.9247 25.6177 30.7493 24.9733 30.7135C24.3876 30.6811 24.4245 30.553 24.5346 30.4615C24.6132 30.398 24.7113 30.3638 24.8121 30.365Z" fill="#B7B7B7"/>
<path fill-rule="evenodd" clip-rule="evenodd" d="M27.6927 32.503C27.6927 32.0286 27.3091 31.6434 26.8366 31.6434H21.1213C20.6488 31.6434 20.2651 32.0286 20.2651 32.503V33.1392C20.2651 33.6135 20.6488 33.9987 21.1213 33.9987H26.8366C27.3091 33.9987 27.6927 33.6135 27.6927 33.1392V32.503Z" fill="#A8A8A8"/>
<path d="M31.3661 17.6867C31.3661 17.6867 31.4593 18.4614 30.8608 18.5949C30.8608 18.5949 30.1355 18.7754 30.0556 18.1541C29.7636 16.5162 31.2982 15.3614 32.8157 15.43C32.8157 15.43 34.4517 15.4633 34.9641 17.1395C34.9641 17.1395 35.5439 18.8444 33.7124 20.175C32.8132 20.9077 31.6995 21.381 30.8243 22.1166C30.4648 22.4138 30.2777 22.8738 30.3273 23.3387C30.4615 24.4897 29.0239 24.7433 28.3728 23.8892C27.6343 22.8833 29.308 21.2487 30.9776 19.911C30.9776 19.911 31.6403 19.4598 32.1269 19.1251C32.7118 18.7234 33.4428 18.1574 33.1558 17.5071C33.1533 17.5017 33.1326 17.4655 33.1032 17.4152C32.8387 16.9516 32.2709 16.7492 31.7745 16.9416C31.7557 16.949 31.7371 16.9569 31.7185 16.9653C31.7 16.9736 31.3516 17.1145 31.3657 17.6867H31.3661Z" fill="#A8A8A8"/>
<path d="M34.6142 17.0795C34.6142 17.0795 34.2001 16.0844 33.0316 15.978C33.0316 15.978 32.8453 15.9709 32.8121 15.8507C32.8121 15.8507 32.7521 15.6237 33.0383 15.6844C34.5397 15.9131 34.6142 17.0795 34.6142 17.0795Z" fill="#B7B7B7"/>
<path d="M31.5158 16.5982C31.4973 16.6057 31.4787 16.6136 31.4599 16.6219C31.4412 16.6302 31.093 16.7716 31.1075 17.3438C31.1219 17.916 31.2006 18.1181 30.6021 18.2516C30.6021 18.2516 30.3039 18.3256 30.0691 18.215C30.1871 18.763 30.8635 18.595 30.8635 18.595C31.462 18.4615 31.3688 17.6869 31.3688 17.6869C31.3539 17.1147 31.7229 16.9654 31.7229 16.9654C31.7417 16.9571 31.7603 16.9492 31.7788 16.9417C32.1572 16.7933 32.5884 16.873 32.8893 17.1471L32.8478 17.0727C32.5761 16.6099 32.0104 16.3999 31.5158 16.5982Z" fill="#9E9E9E"/>
<path d="M34.9632 17.1398C34.8596 16.784 34.6761 16.4568 34.4269 16.1833C34.5448 16.3747 34.6372 16.5808 34.7019 16.7963C34.7665 17.0118 35.2817 18.5012 33.4506 19.8318C32.551 20.5645 31.4373 21.0377 30.5621 21.7733C30.2026 22.0704 30.0155 22.5302 30.0651 22.995C30.1894 24.0579 28.9741 24.3548 28.2742 23.7223C28.301 23.781 28.3337 23.8368 28.3719 23.8887C29.023 24.7428 30.4606 24.4891 30.3264 23.3381C30.2769 22.8732 30.464 22.4132 30.8235 22.116C31.6986 21.3825 32.8115 20.9076 33.7116 20.1745C35.5435 18.843 34.9632 17.1398 34.9632 17.1398Z" fill="#A8A8A8"/>
<path d="M21.7566 33.1389V32.5043C21.7566 32.0328 22.1431 31.6448 22.6127 31.6448H21.1217C21.1214 31.6448 21.1211 31.6448 21.1208 31.6448C20.6514 31.6448 20.2651 32.0326 20.2651 32.5039C20.2651 32.504 20.2651 32.5042 20.2651 32.5043V33.1405C20.2651 33.1406 20.2651 33.1408 20.2651 33.1409C20.2651 33.6122 20.6514 34 21.1208 34C21.121 34 21.1211 34 21.1213 34H22.6123C22.1428 33.9998 21.7566 33.6119 21.7566 33.1405C21.7566 33.14 21.7566 33.1394 21.7566 33.1389Z" fill="#9E9E9E"/>
<path d="M25.8148 31.9905H26.8271C26.9782 31.9888 27.1262 32.034 27.2508 32.1198C27.3988 32.2167 27.4865 32.3841 27.4819 32.5615C27.4773 32.8309 27.3108 32.8484 27.1708 32.8151C27.0768 32.7906 26.9938 32.7347 26.9356 32.6567C26.8527 32.5502 26.6204 32.3747 25.9759 32.339C25.3898 32.3066 25.4271 32.1785 25.5369 32.087C25.6156 32.0235 25.7139 31.9894 25.8148 31.9905Z" fill="#B7B7B7"/>
<g filter="url(#filter0_i_855_5774)">
<path d="M24.0362 17.3615C24.024 17.3618 24.0121 17.3655 24.0018 17.3722C23.9915 17.3789 23.9832 17.3883 23.9778 17.3995L23.366 18.66L21.9981 18.8621C21.9857 18.864 21.9741 18.8693 21.9645 18.8775C21.9549 18.8857 21.9478 18.8965 21.944 18.9086C21.9401 18.9207 21.9396 18.9336 21.9426 18.946C21.9456 18.9583 21.952 18.9696 21.9609 18.9785L22.9507 19.9596L22.7171 21.3451C22.715 21.3576 22.7163 21.3705 22.7211 21.3823C22.7258 21.3941 22.7336 21.4043 22.7438 21.4118C22.7539 21.4192 22.7658 21.4237 22.7783 21.4246C22.7908 21.4255 22.8033 21.4229 22.8144 21.417L24.0379 20.7629L25.2614 21.417C25.2725 21.4229 25.285 21.4255 25.2975 21.4246C25.3099 21.4237 25.3219 21.4192 25.332 21.4118C25.3422 21.4043 25.35 21.3941 25.3547 21.3823C25.3594 21.3705 25.3608 21.3576 25.3587 21.3451L25.1251 19.9596L26.1149 18.9785C26.1238 18.9696 26.1302 18.9583 26.1332 18.946C26.1362 18.9336 26.1357 18.9207 26.1318 18.9086C26.128 18.8965 26.1209 18.8857 26.1113 18.8775C26.1017 18.8693 26.0901 18.864 26.0777 18.8621L24.7098 18.66L24.0981 17.3995C24.0924 17.3878 24.0836 17.378 24.0726 17.3713C24.0616 17.3645 24.049 17.3611 24.0362 17.3615Z" fill="#9E9E9E"/>
</g>
<defs>
<filter id="filter0_i_855_5774" x="21.9407" y="17.3615" width="4.19434" height="4.06335" filterUnits="userSpaceOnUse" color-interpolation-filters="sRGB">
<feFlood flood-opacity="0" result="BackgroundImageFix"/>
<feBlend mode="normal" in="SourceGraphic" in2="BackgroundImageFix" result="shape"/>
<feColorMatrix in="SourceAlpha" type="matrix" values="0 0 0 0 0 0 0 0 0 0 0 0 0 0 0 0 0 0 127 0" result="hardAlpha"/>
<feOffset dy="6"/>
<feComposite in2="hardAlpha" operator="arithmetic" k2="-1" k3="1"/>
<feColorMatrix type="matrix" values="0 0 0 0 0.541667 0 0 0 0 0.541667 0 0 0 0 0.541667 0 0 0 1 0"/>
<feBlend mode="normal" in2="shape" result="effect1_innerShadow_855_5774"/>
</filter>
</defs>
</svg>
