<svg width="20" height="20" viewBox="0 0 20 20" fill="none" xmlns="http://www.w3.org/2000/svg">
<path d="M9.99999 15.8333C8.37499 15.8333 6.99652 15.2673 5.86457 14.1354C4.73263 13.0034 4.16666 11.625 4.16666 9.99996C4.16666 8.37496 4.73263 6.99649 5.86457 5.86454C6.99652 4.7326 8.37499 4.16663 9.99999 4.16663C11.625 4.16663 13.0035 4.7326 14.1354 5.86454C15.2674 6.99649 15.8333 8.37496 15.8333 9.99996C15.8333 11.625 15.2674 13.0034 14.1354 14.1354C13.0035 15.2673 11.625 15.8333 9.99999 15.8333ZM9.99999 14.5833C11.2778 14.5833 12.3611 14.1388 13.25 13.25C14.1389 12.3611 14.5833 11.2777 14.5833 9.99996C14.5833 8.72218 14.1389 7.63885 13.25 6.74996C12.3611 5.86107 11.2778 5.41663 9.99999 5.41663C8.72221 5.41663 7.63888 5.86107 6.74999 6.74996C5.8611 7.63885 5.41666 8.72218 5.41666 9.99996C5.41666 11.2777 5.8611 12.3611 6.74999 13.25C7.63888 14.1388 8.72221 14.5833 9.99999 14.5833Z" fill="#7367F0"/>
</svg>
