<svg width="20" height="20" viewBox="0 0 20 20" fill="none" xmlns="http://www.w3.org/2000/svg">
<path d="M4.29165 10.0417L1.33331 7.08337L4.29165 4.14587L7.22915 7.08337L4.29165 10.0417ZM7.77081 18.3334V13.9025C6.88192 13.8286 5.99998 13.7327 5.12498 13.6146C4.24998 13.4966 3.37498 13.3334 2.49998 13.125L2.81248 11.875C3.99676 12.1528 5.18456 12.3507 6.3759 12.4688C7.56723 12.5868 8.77619 12.6459 10.0028 12.6459C11.2294 12.6459 12.4383 12.5868 13.6296 12.4688C14.821 12.3507 16.0069 12.1528 17.1875 11.875L17.5 13.125C16.625 13.3334 15.7501 13.498 14.8753 13.619C14.0006 13.7399 13.1185 13.8322 12.2291 13.8959V18.3334H7.77081ZM4.29165 8.31254L5.49998 7.08337L4.29165 5.87504L3.06248 7.08337L4.29165 8.31254ZM9.99752 5.41671C9.36027 5.41671 8.81942 5.19367 8.37498 4.74758C7.93053 4.30151 7.70831 3.75985 7.70831 3.12258C7.70831 2.48533 7.93135 1.94449 8.37744 1.50004C8.82351 1.0556 9.36517 0.833374 10.0024 0.833374C10.6397 0.833374 11.1805 1.05642 11.625 1.5025C12.0694 1.94857 12.2916 2.49023 12.2916 3.1275C12.2916 3.76475 12.0686 4.3056 11.6225 4.75004C11.1765 5.19449 10.6348 5.41671 9.99752 5.41671ZM10.0016 11.375C9.58387 11.375 9.22567 11.2263 8.92706 10.9288C8.62845 10.6313 8.47915 10.2736 8.47915 9.85587C8.47915 9.4381 8.6279 9.0799 8.9254 8.78129C9.22291 8.48268 9.58055 8.33337 9.99831 8.33337C10.4161 8.33337 10.7743 8.48212 11.0729 8.77962C11.3715 9.07714 11.5208 9.43478 11.5208 9.85254C11.5208 10.2703 11.3721 10.6285 11.0746 10.9271C10.777 11.2257 10.4194 11.375 10.0016 11.375ZM9.99633 4.16671C10.2904 4.16671 10.5382 4.06723 10.7396 3.86827C10.941 3.66933 11.0416 3.4228 11.0416 3.12869C11.0416 2.83459 10.9422 2.58685 10.7432 2.38546C10.5443 2.18407 10.2977 2.08337 10.0036 2.08337C9.70953 2.08337 9.46178 2.18285 9.2604 2.38181C9.05901 2.58076 8.95831 2.82728 8.95831 3.1214C8.95831 3.41549 9.05779 3.66324 9.25675 3.86462C9.4557 4.06601 9.70222 4.16671 9.99633 4.16671ZM14.5416 9.79171L13.25 7.50004L14.5486 5.20837H17.1458L18.4375 7.50004L17.1389 9.79171H14.5416ZM15.2639 8.54171H16.4166L17 7.50004L16.4236 6.45837H15.2708L14.6875 7.50004L15.2639 8.54171Z" fill="#7367F0"/>
</svg>
