<svg width="20" height="20" viewBox="0 0 20 20" fill="none" xmlns="http://www.w3.org/2000/svg">
<path d="M10.625 9.37496H17.0625C16.9097 7.68051 16.2257 6.21176 15.0104 4.96871C13.7952 3.72565 12.3334 3.04857 10.625 2.93746V9.37496ZM9.37502 17.0625V2.93746C7.55558 3.09024 6.02433 3.84718 4.78127 5.20829C3.53821 6.5694 2.91669 8.16663 2.91669 9.99996C2.91669 11.8333 3.53821 13.4305 4.78127 14.7916C6.02433 16.1527 7.55558 16.9097 9.37502 17.0625ZM10.625 17.0625C12.3334 16.9513 13.7952 16.2743 15.0104 15.0312C16.2257 13.7882 16.9097 12.3194 17.0625 10.625H10.625V17.0625ZM10 18.3333C8.84724 18.3333 7.76391 18.1145 6.75002 17.677C5.73613 17.2395 4.85419 16.6458 4.10419 15.8958C3.35419 15.1458 2.76044 14.2638 2.32294 13.25C1.88544 12.2361 1.66669 11.1527 1.66669 9.99996C1.66669 8.84718 1.88544 7.76385 2.32294 6.74996C2.76044 5.73607 3.35419 4.85413 4.10419 4.10413C4.85419 3.35413 5.73613 2.76038 6.75002 2.32288C7.76391 1.88538 8.84724 1.66663 10 1.66663C11.1528 1.66663 12.2361 1.88538 13.25 2.32288C14.2639 2.76038 15.1459 3.35413 15.8959 4.10413C16.6459 4.85413 17.2396 5.73607 17.6771 6.74996C18.1146 7.76385 18.3334 8.84718 18.3334 9.99996C18.3334 11.1527 18.1146 12.2361 17.6771 13.25C17.2396 14.2638 16.6459 15.1458 15.8959 15.8958C15.1459 16.6458 14.2639 17.2395 13.25 17.677C12.2361 18.1145 11.1528 18.3333 10 18.3333Z" fill="#7367F0"/>
</svg>
