<svg width="20" height="20" viewBox="0 0 20 20" fill="none" xmlns="http://www.w3.org/2000/svg">
<path d="M9.45829 7.45829H16.6458C16.2569 6.43051 15.6388 5.52426 14.7916 4.73954C13.9444 3.95482 12.9791 3.41663 11.8958 3.12496L9.45829 7.45829ZM7.52079 9.18746L11.1458 2.95829C10.9791 2.9444 10.7916 2.93399 10.5833 2.92704C10.375 2.9201 10.1805 2.91663 9.99996 2.91663C8.99996 2.91663 8.08329 3.09718 7.24996 3.45829C6.41663 3.8194 5.66663 4.3194 4.99996 4.95829L7.52079 9.18746ZM3.12496 11.8125H8.06246L4.52079 5.49996C3.99301 6.12496 3.59371 6.82288 3.32288 7.59371C3.05204 8.36454 2.91663 9.16663 2.91663 9.99996C2.91663 10.2916 2.93051 10.5972 2.95829 10.9166C2.98607 11.2361 3.04163 11.5347 3.12496 11.8125ZM8.12496 16.8541L10.625 12.5416H3.37496C3.76385 13.5694 4.37843 14.4757 5.21871 15.2604C6.05899 16.0451 7.02774 16.5763 8.12496 16.8541ZM9.99996 17.0833C11 17.0833 11.9201 16.9027 12.7604 16.5416C13.6007 16.1805 14.3472 15.6805 15 15.0416L12.5 10.8125L8.85413 17.0416C9.03468 17.0555 9.22565 17.0659 9.42704 17.0729C9.62843 17.0798 9.8194 17.0833 9.99996 17.0833ZM15.5 14.5C15.9722 13.9166 16.3541 13.2291 16.6458 12.4375C16.9375 11.6458 17.0833 10.8333 17.0833 9.99996C17.0833 9.6944 17.0694 9.38538 17.0416 9.07288C17.0138 8.76038 16.9652 8.45829 16.8958 8.16663H11.9583L15.5 14.5ZM9.99996 18.3333C8.86107 18.3333 7.78468 18.1145 6.77079 17.677C5.7569 17.2395 4.87149 16.6423 4.11454 15.8854C3.3576 15.1284 2.76038 14.243 2.32288 13.2291C1.88538 12.2152 1.66663 11.1388 1.66663 9.99996C1.66663 8.84718 1.88538 7.76732 2.32288 6.76038C2.76038 5.75343 3.3576 4.87149 4.11454 4.11454C4.87149 3.3576 5.7569 2.76038 6.77079 2.32288C7.78468 1.88538 8.86107 1.66663 9.99996 1.66663C11.1527 1.66663 12.2326 1.88538 13.2395 2.32288C14.2465 2.76038 15.1284 3.3576 15.8854 4.11454C16.6423 4.87149 17.2395 5.75343 17.677 6.76038C18.1145 7.76732 18.3333 8.84718 18.3333 9.99996C18.3333 11.1388 18.1145 12.2152 17.677 13.2291C17.2395 14.243 16.6423 15.1284 15.8854 15.8854C15.1284 16.6423 14.2465 17.2395 13.2395 17.677C12.2326 18.1145 11.1527 18.3333 9.99996 18.3333Z" fill="#7367F0"/>
</svg>
