<svg width="20" height="20" viewBox="0 0 20 20" fill="none" xmlns="http://www.w3.org/2000/svg">
<path d="M0 15V13.8958C0 13.3602 0.288194 12.9242 0.864583 12.5878C1.44097 12.2515 2.19706 12.0833 3.13283 12.0833C3.30179 12.0833 3.46426 12.0868 3.62023 12.0938C3.77619 12.1007 3.93056 12.1156 4.08333 12.1386C3.97222 12.3795 3.88889 12.6237 3.83333 12.8712C3.77778 13.1186 3.75 13.3769 3.75 13.6458V15H0ZM5 15V13.6458C5 13.2014 5.12153 12.7951 5.36458 12.4271C5.60764 12.059 5.95139 11.7361 6.39583 11.4583C6.84028 11.1806 7.37153 10.9722 7.98958 10.8333C8.60764 10.6944 9.27778 10.625 10 10.625C10.7361 10.625 11.4132 10.6944 12.0312 10.8333C12.6493 10.9722 13.1806 11.1806 13.625 11.4583C14.0694 11.7361 14.4097 12.059 14.6458 12.4271C14.8819 12.7951 15 13.2014 15 13.6458V15H5ZM16.25 15V13.6458C16.25 13.37 16.2257 13.11 16.1771 12.866C16.1285 12.622 16.0486 12.38 15.9375 12.1401C16.0903 12.1162 16.2442 12.1007 16.3994 12.0938C16.5546 12.0868 16.7131 12.0833 16.875 12.0833C17.8125 12.0833 18.5677 12.2484 19.1406 12.5785C19.7135 12.9086 20 13.3477 20 13.8958V15H16.25ZM6.25 13.75H13.75V13.625C13.75 13.1111 13.3993 12.691 12.6979 12.3646C11.9965 12.0382 11.0972 11.875 10 11.875C8.90278 11.875 8.00347 12.0382 7.30208 12.3646C6.60069 12.691 6.25 13.1181 6.25 13.6458V13.75ZM3.11598 11.4583C2.71922 11.4583 2.37847 11.3155 2.09375 11.03C1.80903 10.7444 1.66667 10.401 1.66667 10C1.66667 9.59722 1.80946 9.25347 2.09504 8.96875C2.38064 8.68403 2.72396 8.54167 3.125 8.54167C3.52778 8.54167 3.87153 8.68403 4.15625 8.96875C4.44097 9.25347 4.58333 9.60023 4.58333 10.009C4.58333 10.4058 4.44097 10.7465 4.15625 11.0312C3.87153 11.316 3.52477 11.4583 3.11598 11.4583ZM16.866 11.4583C16.4692 11.4583 16.1285 11.3155 15.8438 11.03C15.559 10.7444 15.4167 10.401 15.4167 10C15.4167 9.59722 15.5595 9.25347 15.845 8.96875C16.1306 8.68403 16.474 8.54167 16.875 8.54167C17.2778 8.54167 17.6215 8.68403 17.9062 8.96875C18.191 9.25347 18.3333 9.60023 18.3333 10.009C18.3333 10.4058 18.191 10.7465 17.9062 11.0312C17.6215 11.316 17.2748 11.4583 16.866 11.4583ZM10 10C9.30556 10 8.71528 9.75694 8.22917 9.27083C7.74306 8.78472 7.5 8.19444 7.5 7.5C7.5 6.79167 7.74306 6.19792 8.22917 5.71875C8.71528 5.23958 9.30556 5 10 5C10.7083 5 11.3021 5.23958 11.7812 5.71875C12.2604 6.19792 12.5 6.79167 12.5 7.5C12.5 8.19444 12.2604 8.78472 11.7812 9.27083C11.3021 9.75694 10.7083 10 10 10ZM10.0073 8.75C10.3635 8.75 10.6597 8.62951 10.8958 8.38852C11.1319 8.14753 11.25 7.84892 11.25 7.49269C11.25 7.13645 11.1309 6.84028 10.8927 6.60417C10.6545 6.36806 10.3594 6.25 10.0073 6.25C9.65522 6.25 9.35764 6.36909 9.11458 6.60727C8.87153 6.84545 8.75 7.14059 8.75 7.49269C8.75 7.84478 8.87049 8.14236 9.11148 8.38542C9.35247 8.62847 9.65108 8.75 10.0073 8.75Z" fill="#7367F0"/>
</svg>
