<svg width="20" height="20" viewBox="0 0 20 20" fill="none" xmlns="http://www.w3.org/2000/svg">
<path d="M1.66669 16.6667V14.7084C1.66669 14.2362 1.78474 13.8021 2.02085 13.4063C2.25696 13.0105 2.61113 12.7084 3.08335 12.5C4.08335 12.0556 5.00002 11.7362 5.83335 11.5417C6.66669 11.3473 7.50002 11.25 8.33335 11.25C8.73613 11.25 9.16321 11.2743 9.6146 11.323C10.066 11.3716 10.5278 11.4584 11 11.5834L9.97919 12.6042C9.70141 12.5764 9.4271 12.5521 9.15627 12.5313C8.88544 12.5105 8.61113 12.5 8.33335 12.5C7.5278 12.5 6.79516 12.573 6.13544 12.7188C5.47571 12.8646 4.62502 13.1667 3.58335 13.625C3.34724 13.7362 3.1771 13.8959 3.07294 14.1042C2.96877 14.3125 2.91669 14.5139 2.91669 14.7084V15.4167H9.56252L10.8125 16.6667H1.66669ZM13.0209 17L10.0834 14.0625L10.9584 13.1875L13.0209 15.25L17.4584 10.8125L18.3334 11.6875L13.0209 17ZM8.33335 9.95837C7.41669 9.95837 6.66669 9.66671 6.08335 9.08337C5.50002 8.50004 5.20835 7.75004 5.20835 6.83337C5.20835 5.91671 5.50002 5.16671 6.08335 4.58337C6.66669 4.00004 7.41669 3.70837 8.33335 3.70837C9.25002 3.70837 10 4.00004 10.5834 4.58337C11.1667 5.16671 11.4584 5.91671 11.4584 6.83337C11.4584 7.75004 11.1667 8.50004 10.5834 9.08337C10 9.66671 9.25002 9.95837 8.33335 9.95837ZM8.33335 8.70837C8.87502 8.70837 9.32294 8.53129 9.6771 8.17712C10.0313 7.82296 10.2084 7.37504 10.2084 6.83337C10.2084 6.29171 10.0313 5.84379 9.6771 5.48962C9.32294 5.13546 8.87502 4.95837 8.33335 4.95837C7.79169 4.95837 7.34377 5.13546 6.9896 5.48962C6.63544 5.84379 6.45835 6.29171 6.45835 6.83337C6.45835 7.37504 6.63544 7.82296 6.9896 8.17712C7.34377 8.53129 7.79169 8.70837 8.33335 8.70837Z" fill="#7367F0"/>
</svg>
