<svg width="48" height="48" viewBox="0 0 48 48" fill="none" xmlns="http://www.w3.org/2000/svg">
<rect width="48" height="48" rx="5" fill="#7367F0" fill-opacity="0.12"/>
<path d="M23.8863 22.6956C22.611 22.6956 21.5675 22.2898 20.7559 21.4782C19.9443 20.6666 19.5385 19.6231 19.5385 18.3478C19.5385 17.0724 19.9443 16.0289 20.7559 15.2173C21.5675 14.4057 22.611 13.9999 23.8863 13.9999C25.1617 13.9999 26.2052 14.4057 27.0168 15.2173C27.8284 16.0289 28.2341 17.0724 28.2341 18.3478C28.2341 19.6231 27.8284 20.6666 27.0168 21.4782C26.2052 22.2898 25.1617 22.6956 23.8863 22.6956ZM14.611 31.9999V29.2753C14.611 28.541 14.7945 27.913 15.1617 27.3912C15.5288 26.8695 16.0023 26.4734 16.582 26.2028C17.8767 25.6231 19.1182 25.1883 20.3066 24.8985C21.495 24.6086 22.6883 24.4637 23.8863 24.4637C25.0844 24.4637 26.2728 24.6135 27.4515 24.913C28.6303 25.2125 29.8662 25.6443 31.1594 26.2085C31.7642 26.4814 32.2492 26.8772 32.6142 27.3959C32.9792 27.9145 33.1617 28.541 33.1617 29.2753V31.9999H14.611ZM16.3501 30.2608H31.4226V29.2753C31.4226 28.9661 31.3308 28.6714 31.1472 28.3912C30.9636 28.1111 30.7366 27.9033 30.466 27.7681C29.2293 27.169 28.0989 26.7584 27.0747 26.5362C26.0506 26.3139 24.9878 26.2028 23.8863 26.2028C22.7849 26.2028 21.7124 26.3139 20.6689 26.5362C19.6255 26.7584 18.495 27.169 17.2776 27.7681C17.0071 27.9033 16.7849 28.1111 16.611 28.3912C16.437 28.6714 16.3501 28.9661 16.3501 29.2753V30.2608ZM23.8863 20.9565C24.6399 20.9565 25.2631 20.7101 25.7559 20.2173C26.2486 19.7246 26.495 19.1014 26.495 18.3478C26.495 17.5941 26.2486 16.971 25.7559 16.4782C25.2631 15.9854 24.6399 15.7391 23.8863 15.7391C23.1327 15.7391 22.5095 15.9854 22.0168 16.4782C21.524 16.971 21.2776 17.5941 21.2776 18.3478C21.2776 19.1014 21.524 19.7246 22.0168 20.2173C22.5095 20.7101 23.1327 20.9565 23.8863 20.9565Z" fill="#7367F0"/>
</svg>
