<svg width="48" height="48" viewBox="0 0 48 48" fill="none" xmlns="http://www.w3.org/2000/svg">
<rect width="48" height="48" rx="5" fill="#62D2CD"/>
<path d="M14.625 35.25C14.125 35.25 13.6875 35.0625 13.3125 34.6875C12.9375 34.3125 12.75 33.875 12.75 33.375V14.625C12.75 14.125 12.9375 13.6875 13.3125 13.3125C13.6875 12.9375 14.125 12.75 14.625 12.75H33.375C33.875 12.75 34.3125 12.9375 34.6875 13.3125C35.0625 13.6875 35.25 14.125 35.25 14.625V33.375C35.25 33.875 35.0625 34.3125 34.6875 34.6875C34.3125 35.0625 33.875 35.25 33.375 35.25H14.625ZM14.625 33.375H33.375V14.625H14.625V33.375ZM16.375 30.3438H31.6562L27.0625 24.2188L22.9375 29.5625L20.0312 25.5938L16.375 30.3438ZM19.6287 21.1875C20.0637 21.1875 20.4323 21.0352 20.7344 20.7307C21.0365 20.4262 21.1875 20.0564 21.1875 19.6213C21.1875 19.1863 21.0352 18.8177 20.7307 18.5156C20.4262 18.2135 20.0564 18.0625 19.6213 18.0625C19.1863 18.0625 18.8177 18.2148 18.5156 18.5193C18.2135 18.8238 18.0625 19.1936 18.0625 19.6287C18.0625 20.0637 18.2148 20.4323 18.5193 20.7344C18.8238 21.0365 19.1936 21.1875 19.6287 21.1875Z" fill="white"/>
</svg>
