<svg width="48" height="48" viewBox="0 0 48 48" fill="none" xmlns="http://www.w3.org/2000/svg">
<rect width="48" height="48" rx="5" fill="#99CE42"/>
<path d="M15.4751 23.375V15.8438H23.0063V23.375H15.4751ZM15.4751 32.1562V24.625H23.0063V32.1562H15.4751ZM24.2251 23.375V15.8438H31.7563V23.375H24.2251ZM24.2251 32.1562V24.625H31.7563V32.1562H24.2251ZM17.3501 21.5H21.1313V17.7188H17.3501V21.5ZM26.1001 21.5H29.8813V17.7188H26.1001V21.5ZM17.3501 30.2812H21.1313V26.5H17.3501V30.2812ZM26.1001 30.2812H29.8813V26.5H26.1001V30.2812ZM14.2251 35.25C13.7251 35.25 13.2876 35.0625 12.9126 34.6875C12.5376 34.3125 12.3501 33.875 12.3501 33.375V14.625C12.3501 14.125 12.5376 13.6875 12.9126 13.3125C13.2876 12.9375 13.7251 12.75 14.2251 12.75H32.9751C33.4751 12.75 33.9126 12.9375 34.2876 13.3125C34.6626 13.6875 34.8501 14.125 34.8501 14.625V33.375C34.8501 33.875 34.6626 34.3125 34.2876 34.6875C33.9126 35.0625 33.4751 35.25 32.9751 35.25H14.2251ZM14.2251 33.375H32.9751V14.625H14.2251V33.375Z" fill="white"/>
</svg>
