<svg width="48" height="48" viewBox="0 0 48 48" fill="none" xmlns="http://www.w3.org/2000/svg">
<rect width="48" height="48" rx="5" fill="#62D2CD"/>
<path d="M32.1803 24.7091V23.2908H36.4711V24.7091H32.1803ZM33.6586 33.3509L30.2019 30.7788L31.0625 29.6514L34.5192 32.2235L33.6586 33.3509ZM31.0841 18.2812L30.2236 17.1538L33.6106 14.601L34.4711 15.7283L31.0841 18.2812ZM16.2909 32.1009V27.2211H14.3318C13.8402 27.2211 13.4168 27.0435 13.0616 26.6883C12.7065 26.3332 12.5289 25.9098 12.5289 25.4182V22.5817C12.5289 22.0901 12.7065 21.6667 13.0616 21.3116C13.4168 20.9564 13.8402 20.7788 14.3318 20.7788H19.6202L25.2211 17.4375V30.5624L19.6202 27.2211H17.7091V32.1009H16.2909ZM26.9519 27.899V20.1009C27.4423 20.5448 27.8373 21.1041 28.137 21.7788C28.4367 22.4535 28.5865 23.1939 28.5865 24C28.5865 24.806 28.4367 25.5464 28.137 26.2211C27.8373 26.8958 27.4423 27.4551 26.9519 27.899ZM14.3318 22.1971C14.2356 22.1971 14.1475 22.2371 14.0673 22.3173C13.9872 22.3974 13.9471 22.4856 13.9471 22.5817V25.4182C13.9471 25.5143 13.9872 25.6025 14.0673 25.6826C14.1475 25.7628 14.2356 25.8028 14.3318 25.8028H20L23.8029 28.0552V19.9447L20 22.1971H14.3318Z" fill="white"/>
</svg>
