<svg width="48" height="48" viewBox="0 0 48 48" fill="none" xmlns="http://www.w3.org/2000/svg">
<rect width="48" height="48" rx="5" fill="#FFAA48"/>
<path d="M30.3771 20.1688H31.8979V18.648H30.3771V20.1688ZM30.3771 24.7167H31.8979V23.1959H30.3771V24.7167ZM30.3771 29.248H31.8979V27.7271H30.3771V29.248ZM28.6 33.2084V31.9792H34.6458V16.0209H23.875V19.0751L22.6459 18.2188V14.7917H35.875V33.2084H28.6ZM13.125 33.2084V23.3855L19.9854 18.4855L26.8291 23.382V33.2084H21.4729V28.0459H18.4979V33.2084H13.125ZM14.3542 31.9792H17.2688V26.8167H22.7021V31.9792H25.6V24.0167L19.9854 20.0209L14.3542 24.031V31.9792Z" fill="white"/>
</svg>
