<svg width="48" height="48" viewBox="0 0 48 48" fill="none" xmlns="http://www.w3.org/2000/svg">
<rect width="48" height="48" rx="2" fill="#00BDB9"/>
<mask id="mask0_1979_130" style="mask-type:alpha" maskUnits="userSpaceOnUse" x="5" y="6" width="37" height="36">
<rect x="5.66663" y="6" width="36" height="36" fill="#D9D9D9"/>
</mask>
<g mask="url(#mask0_1979_130)">
<path d="M11.1416 35.9998C10.4499 35.9998 9.86451 35.755 9.38551 35.2655C8.90626 34.7758 8.66663 34.1871 8.66663 33.4996V11.4999C8.66663 10.8124 8.90626 10.2238 9.38551 9.73401C9.86451 9.24451 10.4499 8.99976 11.1416 8.99976H25.6665C26.354 8.99976 26.9426 9.24451 27.4324 9.73401C27.9219 10.2238 28.1666 10.8124 28.1666 11.4999V18.5874C27.7249 18.6456 27.2964 18.7266 26.8811 18.8304C26.4659 18.9341 26.061 19.0614 25.6665 19.2121V11.4999H11.1416V33.4996H18.1665V35.9998H11.1416ZM18.1665 31.4874V29.9998C18.1665 29.8223 18.1728 29.6486 18.1853 29.4789C18.1978 29.3094 18.2124 29.1371 18.2291 28.9621C17.5209 28.9206 16.9125 28.6374 16.404 28.1124C15.8958 27.5874 15.6416 26.9665 15.6416 26.2498C15.6416 25.4858 15.909 24.8365 16.4438 24.302C16.9785 23.7673 17.6278 23.4999 18.3915 23.4999C18.6665 23.4999 18.9249 23.5415 19.1666 23.6248C19.4084 23.708 19.6418 23.8246 19.8668 23.9746C20.0833 23.6081 20.3186 23.2603 20.5729 22.931C20.8271 22.6018 21.1043 22.283 21.4043 21.9748C20.9793 21.6665 20.5146 21.4269 20.0104 21.2559C19.5061 21.0851 18.9665 20.9998 18.3915 20.9998C16.9415 20.9998 15.704 21.5123 14.679 22.5373C13.654 23.5623 13.1415 24.7998 13.1415 26.2498C13.1415 27.6615 13.6311 28.8708 14.6104 29.8775C15.5896 30.884 16.775 31.4206 18.1665 31.4874ZM18.4166 18.7498C19.0416 18.7498 19.5729 18.531 20.0104 18.0935C20.4479 17.656 20.6666 17.1248 20.6666 16.4998C20.6666 15.8748 20.4479 15.3435 20.0104 14.906C19.5729 14.4685 19.0416 14.2498 18.4166 14.2498C17.7916 14.2498 17.2604 14.4685 16.8229 14.906C16.3854 15.3435 16.1666 15.8748 16.1666 16.4998C16.1666 17.1248 16.3854 17.656 16.8229 18.0935C17.2604 18.531 17.7916 18.7498 18.4166 18.7498ZM26.1668 38.9998H23.4143C22.6575 38.9998 22.0104 38.7305 21.4729 38.192C20.9354 37.6535 20.6666 37.0061 20.6666 36.2499V29.9998C20.6666 27.4998 21.5416 25.3748 23.2916 23.6248C25.0416 21.8748 27.1666 20.9998 29.6666 20.9998C32.1666 20.9998 34.2916 21.8748 36.0416 23.6248C37.7916 25.3748 38.6666 27.4998 38.6666 29.9998V36.2499C38.6666 37.0061 38.3974 37.6535 37.8589 38.192C37.3204 38.7305 36.673 38.9998 35.9168 38.9998H33.1665V31.9996H36.9165V29.9998C36.9165 27.9858 36.2123 26.274 34.8038 24.8645C33.3953 23.4548 31.6849 22.7499 29.6726 22.7499C27.6604 22.7499 25.948 23.4548 24.5355 24.8645C23.123 26.274 22.4168 27.9858 22.4168 29.9998V31.9996H26.1668V38.9998Z" fill="white"/>
</g>
</svg>
