<svg width="48" height="48" viewBox="0 0 48 48" fill="none" xmlns="http://www.w3.org/2000/svg">
<rect width="48" height="48" rx="2" fill="#8BC728"/>
<mask id="mask0_1979_154" style="mask-type:alpha" maskUnits="userSpaceOnUse" x="5" y="6" width="37" height="36">
<rect x="5.66666" y="6" width="36" height="36" fill="#D9D9D9"/>
</mask>
<g mask="url(#mask0_1979_154)">
<path d="M35.6667 30.3499L33.6417 28.3249C34.8084 27.1334 35.7084 25.8583 36.3417 24.4998C36.9749 23.1416 37.2915 21.55 37.2915 19.725C37.2915 17.9 36.9749 16.3125 36.3417 14.9625C35.7084 13.6125 34.8084 12.3416 33.6417 11.1498L35.6667 9.1001C37.0667 10.5083 38.1667 12.0833 38.9667 13.8251C39.7667 15.5666 40.1667 17.5332 40.1667 19.725C40.1667 21.9167 39.7667 23.8833 38.9667 25.6248C38.1667 27.3666 37.0667 28.9416 35.6667 30.3499ZM30.5918 25.2L28.5417 23.1498C28.9917 22.6748 29.3458 22.1603 29.604 21.6063C29.8625 21.0521 29.9918 20.425 29.9918 19.725C29.9918 19.025 29.8625 18.3979 29.604 17.8436C29.3458 17.2896 28.9917 16.7751 28.5417 16.3001L30.5918 14.25C31.2918 14.9582 31.85 15.7853 32.2665 16.7313C32.6833 17.6771 32.8917 18.675 32.8917 19.725C32.8917 20.775 32.6833 21.7728 32.2665 22.7186C31.85 23.6646 31.2918 24.4917 30.5918 25.2ZM19.1667 25.4748C17.5167 25.4748 16.1458 24.9291 15.054 23.8376C13.9625 22.7458 13.4168 21.375 13.4168 19.725C13.4168 18.075 13.9625 16.7041 15.054 15.6123C16.1458 14.5208 17.5167 13.9751 19.1667 13.9751C20.8167 13.9751 22.1875 14.5208 23.2793 15.6123C24.3708 16.7041 24.9165 18.075 24.9165 19.725C24.9165 21.375 24.3708 22.7458 23.2793 23.8376C22.1875 24.9291 20.8167 25.4748 19.1667 25.4748ZM7.16667 37.5V33.75C7.16667 32.8417 7.39579 32.0459 7.85404 31.3624C8.31254 30.6791 8.91679 30.15 9.66679 29.775C10.9418 29.125 12.425 28.5833 14.1165 28.1501C15.8083 27.7166 17.4917 27.4998 19.1667 27.4998C20.8417 27.4998 22.5208 27.7166 24.204 28.1501C25.8875 28.5833 27.3668 29.125 28.6418 29.775C29.3918 30.15 30 30.6791 30.4665 31.3624C30.9333 32.0459 31.1667 32.8417 31.1667 33.75V37.5H7.16667ZM9.66679 34.9999H28.6665V33.75C28.6665 33.3917 28.5728 33.0626 28.3853 32.7626C28.1978 32.4626 27.9333 32.2167 27.5918 32.025C26.4918 31.425 25.198 30.9375 23.7105 30.5625C22.223 30.1875 20.7084 30 19.1667 30C17.6249 30 16.1062 30.1958 14.6104 30.5876C13.1147 30.9791 11.8168 31.4582 10.7168 32.025C10.4083 32.1832 10.1562 32.4207 9.96042 32.7375C9.76467 33.0542 9.66679 33.3917 9.66679 33.75V34.9999ZM19.1667 22.9751C20.0917 22.9751 20.8645 22.6646 21.4853 22.0436C22.1063 21.4228 22.4168 20.65 22.4168 19.725C22.4168 18.8 22.1063 18.0271 21.4853 17.4063C20.8645 16.7853 20.0917 16.4748 19.1667 16.4748C18.2417 16.4748 17.4688 16.7853 16.848 17.4063C16.227 18.0271 15.9165 18.8 15.9165 19.725C15.9165 20.65 16.227 21.4228 16.848 22.0436C17.4688 22.6646 18.2417 22.9751 19.1667 22.9751Z" fill="white"/>
</g>
</svg>
