<svg width="20" height="20" viewBox="0 0 20 20" fill="none" xmlns="http://www.w3.org/2000/svg">
<path d="M11.3125 12.9166C11.5429 12.9166 11.7429 12.8319 11.9124 12.6624C12.0819 12.4929 12.1666 12.2929 12.1666 12.0625C12.1666 11.832 12.0819 11.632 11.9124 11.4625C11.7429 11.293 11.5429 11.2083 11.3125 11.2083C11.082 11.2083 10.882 11.293 10.7125 11.4625C10.543 11.632 10.4583 11.832 10.4583 12.0625C10.4583 12.2929 10.543 12.4929 10.7125 12.6624C10.882 12.8319 11.082 12.9166 11.3125 12.9166ZM10.7916 10.2916H11.7708C11.7986 9.88885 11.8576 9.59024 11.9479 9.39579C12.0382 9.20135 12.2638 8.93051 12.625 8.58329C13 8.22218 13.2604 7.90694 13.4062 7.63756C13.552 7.36819 13.625 7.05149 13.625 6.68746C13.625 6.05021 13.4062 5.52979 12.9687 5.12619C12.5312 4.72259 11.9583 4.52079 11.25 4.52079C10.7222 4.52079 10.25 4.66315 9.83329 4.94788C9.41663 5.2326 9.11107 5.6319 8.91663 6.14579L9.85413 6.54163C10.0069 6.1944 10.1979 5.93051 10.427 5.74996C10.6562 5.5694 10.9305 5.47913 11.25 5.47913C11.6635 5.47913 11.9996 5.59718 12.2581 5.83329C12.5165 6.0694 12.6458 6.36801 12.6458 6.72913C12.6458 7.0069 12.5833 7.24996 12.4583 7.45829C12.3333 7.66663 12.1111 7.88885 11.7916 8.12496C11.3472 8.52774 11.0694 8.85065 10.9583 9.09371C10.8472 9.33676 10.7916 9.73607 10.7916 10.2916ZM5.41663 15.8333C5.08329 15.8333 4.79163 15.7083 4.54163 15.4583C4.29163 15.2083 4.16663 14.9166 4.16663 14.5833V2.91663C4.16663 2.58329 4.29163 2.29163 4.54163 2.04163C4.79163 1.79163 5.08329 1.66663 5.41663 1.66663H17.0833C17.4166 1.66663 17.7083 1.79163 17.9583 2.04163C18.2083 2.29163 18.3333 2.58329 18.3333 2.91663V14.5833C18.3333 14.9166 18.2083 15.2083 17.9583 15.4583C17.7083 15.7083 17.4166 15.8333 17.0833 15.8333H5.41663ZM5.41663 14.5833H17.0833V2.91663H5.41663V14.5833ZM2.91663 18.3333C2.58329 18.3333 2.29163 18.2083 2.04163 17.9583C1.79163 17.7083 1.66663 17.4166 1.66663 17.0833V4.16663H2.91663V17.0833H15.8333V18.3333H2.91663Z" fill="#7367F0"/>
</svg>
