<svg width="20" height="20" viewBox="0 0 20 20" fill="none" xmlns="http://www.w3.org/2000/svg">
<path d="M3.75 18.3333C3.41667 18.3333 3.125 18.2083 2.875 17.9583C2.625 17.7083 2.5 17.4166 2.5 17.0833V4.16663C2.5 3.83329 2.625 3.54163 2.875 3.29163C3.125 3.04163 3.41667 2.91663 3.75 2.91663H5.10417V1.66663H6.45833V2.91663H13.5417V1.66663H14.8958V2.91663H16.25C16.5833 2.91663 16.875 3.04163 17.125 3.29163C17.375 3.54163 17.5 3.83329 17.5 4.16663V17.0833C17.5 17.4166 17.375 17.7083 17.125 17.9583C16.875 18.2083 16.5833 18.3333 16.25 18.3333H3.75ZM3.75 17.0833H16.25V8.12496H3.75V17.0833ZM3.75 6.87496H16.25V4.16663H3.75V6.87496Z" fill="#7367F0"/>
</svg>
