<svg width="48" height="48" viewBox="0 0 48 48" fill="none" xmlns="http://www.w3.org/2000/svg">
<rect width="48" height="48" rx="5" fill="#FFAA48"/>
<path d="M17.5097 22.1298L23.5192 12.4136L29.5288 22.1298H17.5097ZM30.5084 36.0192C29.091 36.0192 27.9035 35.5385 26.946 34.577C25.9884 33.6154 25.5097 32.4259 25.5097 31.0085C25.5097 29.591 25.9884 28.4035 26.946 27.446C27.9035 26.4885 29.091 26.0097 30.5084 26.0097C31.9259 26.0097 33.1154 26.4885 34.0769 27.446C35.0385 28.4035 35.5192 29.591 35.5192 31.0085C35.5192 32.4259 35.0385 33.6154 34.0769 34.577C33.1154 35.5385 31.9259 36.0192 30.5084 36.0192ZM12.7308 35.274V26.6035H21.4014V35.274H12.7308ZM30.5167 34.601C31.5152 34.601 32.3622 34.2525 33.0577 33.5554C33.7532 32.8584 34.101 32.0086 34.101 31.0061C34.101 30.0037 33.7525 29.1567 33.0554 28.4652C32.3584 27.7737 31.5086 27.4279 30.5061 27.4279C29.5037 27.4279 28.6567 27.7748 27.9651 28.4687C27.2736 29.1625 26.9279 30.0119 26.9279 31.0168C26.9279 32.0152 27.2748 32.8622 27.9687 33.5577C28.6625 34.2533 29.5119 34.601 30.5167 34.601ZM14.1491 33.8558H19.9832V28.0217H14.1491V33.8558ZM20.0433 20.7116H27.0072L23.5192 15.1155L20.0433 20.7116Z" fill="white"/>
</svg>
