<svg width="48" height="48" viewBox="0 0 48 48" fill="none" xmlns="http://www.w3.org/2000/svg">
<rect width="48" height="48" rx="5" fill="#7367F0" fill-opacity="0.12"/>
<path d="M21.1589 22.6466C19.7719 22.6466 18.637 22.2431 17.7544 21.4361C16.8717 20.6291 16.4304 19.5915 16.4304 18.3233C16.4304 17.0551 16.8717 16.0175 17.7544 15.2105C18.637 14.4035 19.7719 14 21.1589 14C22.546 14 23.6808 14.4035 24.5635 15.2105C25.4461 16.0175 25.8875 17.0551 25.8875 18.3233C25.8875 19.5915 25.4461 20.6291 24.5635 21.4361C23.6808 22.2431 22.546 22.6466 21.1589 22.6466ZM11.0713 31.8985V29.1892C11.0713 28.5167 11.2552 27.9114 11.623 27.3734C11.9908 26.8354 12.5214 26.4223 13.2149 26.1341C14.7281 25.5192 16.1309 25.0773 17.4234 24.8083C18.7158 24.5393 19.961 24.4048 21.1589 24.4048H21.884C21.7579 24.6738 21.6633 24.938 21.6002 25.1974C21.5372 25.4568 21.4847 25.769 21.4426 26.1341H21.1589C19.94 26.1341 18.7473 26.2542 17.581 26.4944C16.4146 26.7345 15.2114 27.1333 13.9715 27.6905C13.6353 27.8442 13.3831 28.0604 13.2149 28.339C13.0468 28.6176 12.9627 28.901 12.9627 29.1892V30.1692H21.4426C21.5477 30.515 21.6738 30.8273 21.8209 31.1059C21.968 31.3845 22.1467 31.6487 22.3568 31.8985H11.0713ZM29.5758 33.1667L29.2605 31.2644C28.9032 31.1683 28.5407 31.029 28.1729 30.8465C27.8052 30.6639 27.4952 30.4574 27.243 30.2268L25.5092 30.5727L24.7211 29.3622L26.2027 28.094C26.1607 27.9211 26.1397 27.6809 26.1397 27.3734C26.1397 27.066 26.1607 26.8258 26.2027 26.6529L24.7211 25.3847L25.5092 24.1742L27.243 24.5201C27.4952 24.2895 27.8052 24.0829 28.1729 23.9004C28.5407 23.7178 28.9032 23.5785 29.2605 23.4825L29.5758 21.5802H31.278L31.5933 23.4825C31.9505 23.5785 32.3131 23.7178 32.6808 23.9004C33.0486 24.0829 33.3586 24.2895 33.6108 24.5201L35.3446 24.1742L36.1327 25.3847L34.6511 26.6529C34.6931 26.8258 34.7141 27.066 34.7141 27.3734C34.7141 27.6809 34.6931 27.9211 34.6511 28.094L36.1327 29.3622L35.3446 30.5727L33.6108 30.2268C33.3586 30.4574 33.0486 30.6639 32.6808 30.8465C32.3131 31.029 31.9505 31.1683 31.5933 31.2644L31.278 33.1667H29.5758ZM30.4269 29.6792C31.1835 29.6792 31.7929 29.4678 32.2553 29.0451C32.7176 28.6224 32.9488 28.0652 32.9488 27.3734C32.9488 26.6817 32.7176 26.1245 32.2553 25.7018C31.7929 25.279 31.1835 25.0677 30.4269 25.0677C29.6703 25.0677 29.0609 25.279 28.5985 25.7018C28.1362 26.1245 27.905 26.6817 27.905 27.3734C27.905 28.0652 28.1362 28.6224 28.5985 29.0451C29.0609 29.4678 29.6703 29.6792 30.4269 29.6792ZM21.1589 20.9173C21.9785 20.9173 22.6563 20.6723 23.1922 20.1823C23.7281 19.6924 23.9961 19.0727 23.9961 18.3233C23.9961 17.5739 23.7281 16.9543 23.1922 16.4643C22.6563 15.9743 21.9785 15.7293 21.1589 15.7293C20.3393 15.7293 19.6615 15.9743 19.1256 16.4643C18.5897 16.9543 18.3218 17.5739 18.3218 18.3233C18.3218 19.0727 18.5897 19.6924 19.1256 20.1823C19.6615 20.6723 20.3393 20.9173 21.1589 20.9173Z" fill="#7367F0"/>
</svg>
