<svg width="44" height="44" viewBox="0 0 44 44" fill="none" xmlns="http://www.w3.org/2000/svg">
<rect width="44" height="44" rx="6" fill="#2D2D2D"/>
<path d="M4.91806 17.9357C5.98389 14.946 9.80311 15.5575 11.5795 16.237C12.3789 15.4216 14.5771 15.4442 15.5763 15.5575C20.9055 12.5677 26.9008 14.3117 29.2323 15.5575C30.831 14.1985 33.6732 14.5382 34.8945 14.878C41.2894 16.7805 38.6693 23.3714 36.5598 26.4291C38.1586 27.5162 37.8241 28.9476 37.491 29.6271C34.0271 35.0629 29.0292 33.34 27.1418 31.4148C23.145 34.1327 19.0181 32.6576 17.2417 31.8649C12.4455 36.2135 8.13775 30.5059 6.58342 27.1086C5.58421 25.2966 3.85224 20.9254 4.91806 17.9357Z" fill="#2D2D2D"/>
<path d="M5.59116 16.5891C6.65699 13.5994 10.4762 14.2109 12.2526 14.8904C13.0519 14.075 15.2502 14.0977 16.2494 14.2109C21.5786 11.2212 27.5739 12.9652 29.9054 14.2109C31.5041 12.8519 34.3463 13.1917 35.5676 13.5314C41.9625 15.434 39.3518 22.2969 37.2424 25.3545C38.8411 26.4417 38.2488 28.3787 37.9158 29.0582C34.4518 34.494 30.1274 31.4243 28.24 29.4991C24.2431 32.217 19.6912 31.3111 17.9148 30.5183C13.1186 34.867 8.81085 29.1594 7.25651 25.762C6.2573 23.9501 4.52533 19.5788 5.59116 16.5891Z" fill="#656565"/>
<path d="M5.25654 17.2739C6.33396 14.3109 9.85981 14.8695 11.6555 15.5429C12.4636 14.7349 14.6858 14.7573 15.6959 14.8695C21.083 11.9066 27.1435 13.635 29.5004 14.8695C31.1165 13.5227 33.9896 13.8594 35.2242 14.1961C41.6887 16.0816 39.0401 22.6135 36.9077 25.6438C38.5238 26.7212 38.2545 28.3373 37.9178 29.0107C34.4161 34.3978 29.7248 31.9287 27.8169 30.0208C23.7766 32.7144 19.1751 31.8165 17.3793 31.0309C12.5309 35.3406 8.17634 29.6841 6.60509 26.3172C5.59501 24.5215 4.17911 20.2368 5.25654 17.2739Z" fill="#464646"/>
<path d="M10.7313 15.9281C10.6682 15.9307 10.6273 15.9421 10.6273 15.9421C10.5152 15.9558 10.4045 15.9768 10.2965 16.0024C9.99011 16.0231 8.34641 16.0735 7.19049 17.1411C7.19049 17.1411 6.44879 17.7341 6.63236 18.9351C6.63236 18.9351 7.46945 22.809 8.76177 25.5625C8.76177 25.5625 10.245 28.7702 11.3758 30.1762C11.3758 30.1762 12.5653 31.4652 15.3849 29.9712C15.3849 29.9712 17.529 28.8874 18.3808 27.203C18.3808 27.203 18.8287 26.2946 18.7424 25.8634C18.7897 25.7061 18.7773 25.5773 18.7773 25.5773C18.7553 25.299 18.4322 24.9109 18.4322 24.9109C18.2413 24.6986 18.0725 24.8302 18.0725 24.8302C17.0225 25.504 13.9238 26.6099 13.9238 26.6099C13.5934 26.7269 13.5245 26.537 13.5245 26.537C12.5276 24.3932 11.3958 16.7293 11.3958 16.7293C11.3101 15.9992 10.9207 15.9214 10.7313 15.9281Z" fill="#DADADA"/>
<path d="M8.31114 18.1009C8.31114 18.1009 8.12941 16.9772 8.9965 16.5525C8.9965 16.5525 9.7753 16.0451 10.6268 15.9415C10.6268 15.9415 11.281 15.7551 11.3952 16.7287C11.3952 16.7287 12.5271 24.3925 13.524 26.5363C13.524 26.5363 13.5927 26.7264 13.9232 26.6092C13.9232 26.6092 17.0218 25.5034 18.0718 24.8297C18.0718 24.8297 18.2407 24.6979 18.4316 24.9102C18.4316 24.9102 18.7547 25.2984 18.7767 25.5767C18.7767 25.5767 18.8208 25.9648 18.505 26.2211C18.505 26.2211 16.148 28.3741 13.7616 28.9673C13.7616 28.9673 11.8851 29.4114 11.2187 27.9656C11.2187 27.9656 8.70574 23.4139 8.31114 18.1009Z" fill="#C3C3C3"/>
<path d="M10.7308 15.9274C10.6677 15.9301 10.6103 15.9378 10.6103 15.9378C9.75882 16.0413 8.99652 16.5524 8.99652 16.5524C8.12943 16.9771 8.31114 18.1009 8.31114 18.1009C8.70574 23.4138 11.2187 27.9656 11.2187 27.9656C11.8851 29.4115 13.7617 28.9673 13.7617 28.9673C16.1481 28.374 18.5052 26.2211 18.5052 26.2211C18.6754 26.083 18.7394 25.9081 18.7638 25.7747L17.9029 26.719C16.4265 27.5396 14.169 28.3401 14.169 28.3401C12.5384 28.7708 11.7379 27.5925 11.7379 27.5925C9.84802 25.0656 9.01824 18.0923 9.01824 18.0923C8.9081 17.2941 9.20193 16.9133 9.20193 16.9133C9.46626 16.5031 10.7805 15.9394 10.7805 15.9394L10.7904 15.9288C10.7691 15.927 10.7489 15.927 10.7308 15.927V15.9274Z" fill="#9E9E9E"/>
<path d="M10.7884 15.9292C10.7902 15.9468 11.5531 23.6756 12.7119 26.2944C12.7119 26.2944 13.0259 27.1474 14.1266 26.785C14.1266 26.785 16.7954 25.7078 17.4599 25.1692L17.4694 25.1621C16.1524 25.8151 13.9177 26.6096 13.9177 26.6096C13.5873 26.7267 13.5186 26.5367 13.5186 26.5367C12.5217 24.3929 11.3898 16.7289 11.3898 16.7289C11.3128 16.0721 10.9902 15.9438 10.7883 15.9296L10.7884 15.9292ZM18.1748 24.7902C18.1087 24.7964 18.0664 24.8297 18.0664 24.8297C18.0416 24.8457 18.0103 24.863 17.9832 24.8794C18.0487 24.9401 18.1069 25.04 18.1383 25.2031C18.1383 25.2031 18.1676 25.6792 17.8886 26.0528C17.8886 26.0528 17.6579 26.4516 17.9157 26.71C18.2818 26.4193 18.4997 26.2211 18.4997 26.2211C18.8154 25.9648 18.7713 25.5767 18.7713 25.5767C18.7492 25.2984 18.4261 24.9101 18.4261 24.9101C18.3307 24.804 18.2409 24.7838 18.1748 24.7902Z" fill="#EDEDED"/>
<path d="M23.9211 14.5807C21.4429 14.6047 19.2741 15.431 18.3831 15.822C18.3831 15.822 16.3066 16.5053 16.0383 18.2663C16.0383 18.2663 15.9254 18.9845 16.5751 20.3227C16.5751 20.3227 18.2699 24.5207 18.6371 25.7886C18.6371 25.7886 19.2024 28.2957 20.982 28.5633C20.982 28.5633 22.3096 28.7748 22.7051 27.7606L22.7026 27.747C22.8531 27.668 22.7896 27.5566 22.7896 27.5566C22.7543 27.3451 22.9167 27.3451 22.9167 27.3451C23.8277 27.3662 24.4423 27.169 24.4423 27.169C29.3575 24.9995 28.8067 18.6322 28.8067 18.6322C28.4677 15.3783 26.2219 14.8146 26.2219 14.8146C25.4459 14.6405 24.67 14.5744 23.9213 14.5817L23.9211 14.5807ZM22.8905 17.4413C23.5229 17.5628 24.4217 17.9658 24.6242 19.2662C24.6242 19.2662 24.9238 21.6169 23.9651 23.2705C23.9651 23.2705 23.5049 24.0304 22.4273 24.5377C22.4003 24.4952 22.3798 24.4333 22.3727 24.3438C22.2656 23.0181 22.7745 18.4556 22.8905 17.4413Z" fill="#DADADA"/>
<path d="M23.9206 14.5808C20.6764 14.6123 17.9444 16.0256 17.9444 16.0256C17.1535 16.4484 17.7325 16.8848 17.7325 16.8848C18.092 17.3024 19.4753 17.7672 19.4903 17.7621C19.695 17.8171 19.67 17.9914 19.67 17.9914C19.1108 25.243 20.4619 27.316 20.4619 27.316C20.935 27.9003 22.1603 27.823 22.1603 27.823C22.9513 27.8366 22.7889 27.5558 22.7889 27.5558C22.7536 27.3444 22.916 27.3444 22.916 27.3444C23.827 27.3653 24.4415 27.1681 24.4415 27.1681C29.3568 24.9986 28.806 18.6314 28.806 18.6314C28.467 15.3775 26.2212 14.8139 26.2212 14.8139C25.4452 14.6397 24.6693 14.5735 23.9206 14.5808ZM23.6191 16.7684C24.0836 16.765 25.0519 16.7717 25.3678 16.8559C25.3678 16.8559 26.5653 16.9865 26.4331 18.3781C26.4331 18.3781 26.3908 23.7591 22.6479 24.6185C22.6479 24.6185 22.4005 24.7031 22.3723 24.3439C22.2522 22.858 22.9353 17.0392 22.9353 17.0392C22.9353 17.0392 22.9235 16.7797 23.3654 16.7712C23.3654 16.7712 23.4643 16.7713 23.6191 16.7679V16.7684Z" fill="#C3C3C3"/>
<path d="M18.3833 15.8214C18.1074 15.9425 17.9444 16.0253 17.9444 16.0253C17.1535 16.4481 17.7325 16.8844 17.7325 16.8844C18.092 17.3019 19.4753 17.7669 19.4903 17.7618C19.695 17.8169 19.67 17.9911 19.67 17.9911C19.1108 25.2427 20.4619 27.3157 20.4619 27.3157C20.935 27.9 22.1604 27.8227 22.1604 27.8227C22.9513 27.8363 22.7889 27.5554 22.7889 27.5554C22.7536 27.3441 22.916 27.3441 22.916 27.3441C23.827 27.3648 24.4415 27.1678 24.4415 27.1678C24.9633 26.9374 25.4199 26.6576 25.8257 26.3454C25.8001 26.3095 25.7692 26.2663 25.7692 26.2663C21.1082 27.7594 20.7687 25.1031 20.7687 25.1031C19.9896 21.7562 20.3192 18.2301 20.3192 18.2301C20.4091 17.5527 19.9996 17.4431 19.9996 17.4431C19.9198 17.4233 18.4816 16.7659 18.4816 16.7659C17.7925 16.3178 18.3826 15.8218 18.3826 15.8218L18.3833 15.8214ZM25.0648 16.8101C25.0648 16.8101 25.2947 16.8362 25.3678 16.8555C25.3678 16.8555 26.5659 16.984 26.4337 18.3756C26.4337 18.3756 26.3914 23.7568 22.6485 24.616C22.6485 24.616 22.5902 24.635 22.5315 24.6193C22.5264 24.6261 22.3994 24.6565 22.3994 24.6565C22.3994 24.6565 24.6682 24.9948 26.4196 21.811C26.4196 21.811 27.2247 20.3742 26.9493 17.9232C26.9493 17.9232 26.7324 16.7672 24.988 16.8026L25.0648 16.8101Z" fill="#9E9E9E"/>
<path d="M25.8996 14.7479C25.8995 14.7479 25.8965 14.7713 25.8965 14.7713C29.4996 16.6795 28.7802 23.3505 25.4531 25.7805C23.82 27.1151 21.3506 27.2252 20.4066 27.2158C20.4406 27.2823 20.4622 27.3158 20.4622 27.3158C20.9353 27.9001 22.1606 27.8228 22.1606 27.8228C22.9516 27.8364 22.7892 27.5555 22.7892 27.5555C22.7539 27.3442 22.9163 27.3442 22.9163 27.3442C23.8273 27.3651 24.4418 27.1679 24.4418 27.1679C29.3571 24.9984 28.8063 18.6311 28.8063 18.6311C28.4673 15.3772 26.2215 14.8136 26.2215 14.8136C26.1141 14.7895 26.0069 14.768 25.8997 14.7479H25.8996ZM22.9646 16.7475C22.2226 16.7695 22.1678 17.0958 22.1678 17.0958C20.9814 20.8711 21.8676 24.0573 21.8676 24.0573C22.0975 24.8187 22.5594 24.6527 22.6319 24.6214C22.5891 24.6231 22.3978 24.6656 22.3725 24.3436C22.2525 22.8579 22.9355 17.0389 22.9355 17.0389C22.9355 17.0389 22.9461 16.8025 23.3269 16.7728C23.3269 16.7728 23.327 16.7728 23.3269 16.7728C23.2598 16.7677 23.1817 16.7494 23.1222 16.7477H22.9646V16.7475Z" fill="#EDEDED"/>
<path d="M35.267 15.9271C34.9551 15.9271 34.6009 15.9702 34.2018 16.0777C34.2018 16.0777 29.0855 17.2795 28.8287 23.598C28.8287 23.598 28.6288 28.9343 31.4968 30.5852C31.4968 30.5852 32.3387 31.1686 33.737 30.7985C33.737 30.7985 33.7455 30.7942 33.746 30.7942C33.7585 30.7908 33.787 30.7845 33.787 30.7845C36.0771 29.9877 36.9617 28.0699 36.9617 28.0699C37.1222 27.6501 36.9511 27.3982 36.9511 27.3982C36.8755 27.2423 36.5576 26.9858 36.5576 26.9858C36.3927 26.8643 36.28 26.9789 36.2279 27.0549C36.1616 26.9163 36.0135 26.8015 35.6848 26.8852C35.6848 26.8852 35.0997 26.9848 34.3935 27.3833C34.3935 27.3833 33.6342 27.8058 32.7862 27.8007C31.5196 26.2615 32.278 23.4271 32.278 23.4271C32.9353 21.3577 33.7704 20.1304 34.4892 19.4046C34.206 19.975 33.9374 20.6865 33.9511 21.321C33.9511 21.321 33.9724 21.9615 34.3077 22.3102C34.3077 22.3102 35.121 23.3702 36.5193 23.3132C36.5193 23.3132 36.8276 23.2805 37.0809 23.1218C37.4685 23.1628 37.6323 22.9078 37.6323 22.9078C38.36 21.8547 38.3315 19.5991 38.3315 19.5991C38.4391 17.947 37.5741 17.0476 37.1416 16.7046C37.0038 16.5349 36.4308 15.9283 35.267 15.9272V15.9271Z" fill="#DADADA"/>
<path d="M35.7271 16.2307C34.051 16.2281 32.5816 17.8912 32.5816 17.8912C29.7136 20.894 29.682 24.4197 29.682 24.4197C29.5912 27.5693 30.6909 29.411 30.6909 29.411C31.7111 31.3819 33.7872 30.7842 33.7872 30.7842C36.0774 29.9873 36.9619 28.0698 36.9619 28.0698C37.1225 27.65 36.9514 27.398 36.9514 27.398C36.8757 27.2421 36.5579 26.9856 36.5579 26.9856C36.3258 26.8145 36.1947 27.1114 36.1947 27.1114C35.2909 28.4258 34.2078 28.7033 33.2512 28.2345C31.3535 26.8825 32.2782 23.4269 32.2782 23.4269C33.7336 18.8446 36.063 18.3822 36.063 18.3822C36.6766 18.1331 36.6623 18.7308 36.6623 18.7308C36.6123 19.8551 35.4495 21.0718 35.4495 21.0718C35.1356 21.3565 35.3497 21.6838 35.3497 21.6838C35.9062 22.7083 36.8193 23.057 36.8193 23.057C37.3972 23.2775 37.6326 22.9076 37.6326 22.9076C38.3603 21.8545 38.3318 19.5988 38.3318 19.5988C38.4744 17.4074 36.9049 16.5394 36.9049 16.5394C36.5116 16.3206 36.1139 16.2313 35.7271 16.2307Z" fill="#C3C3C3"/>
<path d="M37.2696 16.8125C37.5401 17.2402 38.3742 18.8299 37.7331 21.3705C37.7331 21.3705 37.4253 22.4119 37.1277 22.6787C37.1277 22.6787 36.7377 22.9755 36.1929 22.6787C36.5379 22.9488 36.8191 23.0567 36.8191 23.0567C37.3969 23.2771 37.6323 22.9073 37.6323 22.9073C38.36 21.8541 38.3315 19.5985 38.3315 19.5985C38.4292 18.0976 37.7239 17.218 37.2696 16.8123V16.8125ZM31.9678 23.0427C31.9678 23.0427 31.1615 24.9281 32.0319 27.3474C32.0319 27.3474 32.6633 28.895 34.108 28.4503L34.1071 28.446C33.8161 28.4426 33.5282 28.37 33.2509 28.2342C31.3532 26.8821 32.2779 23.4266 32.2779 23.4266C33.684 18.9996 35.8995 18.4197 36.0484 18.3854C36.0484 18.3854 36.0566 18.3732 36.0484 18.3854C33.8464 18.8587 32.474 21.7167 31.9678 23.0427ZM36.6215 27.0397C36.6188 27.0414 36.6215 27.0397 36.6215 27.0397C36.8334 27.256 36.7494 27.6495 36.7494 27.6495C36.593 28.1377 35.963 28.8987 35.963 28.8987C34.0419 30.9719 32.1983 30.7113 32.0586 30.6882C32.9377 31.0276 33.787 30.784 33.787 30.784C36.0771 29.9872 36.9617 28.0695 36.9617 28.0695C37.1222 27.6497 36.9512 27.3978 36.9512 27.3978C36.8965 27.2852 36.7178 27.1227 36.6215 27.0397Z" fill="#EDEDED"/>
<path d="M35.7271 16.2307C34.051 16.2281 32.5816 17.8912 32.5816 17.8912C29.7136 20.8941 29.682 24.4197 29.682 24.4197C29.5912 27.5693 30.6909 29.411 30.6909 29.411C31.7111 31.3819 33.7872 30.7842 33.7872 30.7842C34.0669 30.687 34.3253 30.5726 34.564 30.4475C33.8038 30.6199 32.0935 30.7711 31.0844 28.9881C31.0844 28.9881 29.7324 26.7139 30.3781 23.6951C30.3781 23.6951 31.069 19.3713 34.3079 16.952C34.3079 16.952 35.7313 15.8638 37.2063 16.7565C37.0302 16.6082 36.9048 16.5394 36.9048 16.5394C36.5116 16.3206 36.1139 16.2314 35.7271 16.2307H35.7271ZM36.3172 18.321C36.662 18.321 36.6623 18.7308 36.6623 18.7308C36.6123 19.8551 35.4495 21.0718 35.4495 21.0718C35.1356 21.3565 35.3497 21.6838 35.3497 21.6838C35.5858 22.1183 35.8856 22.4302 36.1531 22.6466C36.1531 22.6466 36.1531 22.6466 36.1531 22.6466C36.1531 22.6466 35.4281 22.0962 36.0274 21.1926C36.0274 21.1926 36.4911 20.4741 36.591 20.3601C36.591 20.3601 37.2117 19.4351 37.2046 19.001C37.1767 18.5232 37.12 18.2261 36.3172 18.321ZM36.4032 26.9331C36.2685 26.9444 36.1947 27.1114 36.1947 27.1114C35.2909 28.4258 34.2078 28.7033 33.2512 28.2345C33.1394 28.1549 33.0378 28.0677 32.9448 27.9746C32.9137 27.9729 32.914 27.9729 32.9448 27.9746C32.9448 27.9746 33.3449 29.2182 35.1927 28.4568C35.1927 28.4568 36.1574 27.9959 36.5925 27.0139C36.5925 27.0139 36.5925 27.0191 36.5925 27.0139C36.5768 27.0008 36.5579 26.9849 36.5579 26.9849C36.4999 26.9421 36.4481 26.9287 36.4032 26.9324L36.4032 26.9331Z" fill="#9E9E9E"/>
</svg>
