<svg width="24" height="25" viewBox="0 0 24 25" fill="none" xmlns="http://www.w3.org/2000/svg">
<rect y="0.5" width="24" height="24" rx="8" fill="#28C76F"/>
<circle cx="10.8942" cy="9.18424" r="3.68424" fill="white"/>
<path d="M17.5264 10.6582L17.5264 15.0793" stroke="white" stroke-width="2" stroke-linecap="round"/>
<path d="M19.7363 12.8682L15.3152 12.8682" stroke="white" stroke-width="2" stroke-linecap="round"/>
<path d="M13.606 18.8857C15.3191 18.4978 16.2951 16.6221 14.8744 15.5893C14.7884 15.5268 14.7002 15.4663 14.6099 15.4077C13.5441 14.7165 12.2382 14.3418 10.8948 14.3418C9.55136 14.3418 8.24548 14.7165 7.17968 15.4077C7.08934 15.4662 7.00116 15.5268 6.91521 15.5893C5.49444 16.6221 6.47045 18.4978 8.18356 18.8857L10.2322 19.3497C10.6684 19.4485 11.1212 19.4485 11.5574 19.3497L13.606 18.8857Z" fill="white"/>
</svg>
