<svg width="48" height="48" viewBox="0 0 48 48" fill="none" xmlns="http://www.w3.org/2000/svg">
<g clip-path="url(#clip0_3036_86102)">
<rect width="48" height="48" rx="5" fill="#28C76F" fill-opacity="0.12"/>
<g clip-path="url(#clip1_3036_86102)">
<path d="M32.7848 13.6069C31.4766 13.1944 30.0387 13.0176 28.6598 13.0176C26.3616 13.0176 23.8866 13.489 22.1777 14.7854C20.4687 13.489 17.9937 13.0176 15.6955 13.0176C13.3973 13.0176 10.9223 13.489 9.21338 14.7854V32.0515C9.21338 32.3461 9.50802 32.6408 9.80266 32.6408C9.92052 32.6408 9.97945 32.5819 10.0973 32.5819C11.6884 31.8158 13.9866 31.2854 15.6955 31.2854C17.9937 31.2854 20.4687 31.7569 22.1777 33.0533C23.7687 32.0515 26.6562 31.2854 28.6598 31.2854C30.6044 31.2854 32.608 31.639 34.258 32.5229C34.3759 32.5819 34.4348 32.5819 34.5527 32.5819C34.8473 32.5819 35.1419 32.2872 35.1419 31.9926V14.7854C34.4348 14.2551 33.6687 13.9015 32.7848 13.6069ZM32.7848 29.5176C31.4884 29.1051 30.0741 28.9283 28.6598 28.9283C26.6562 28.9283 23.7687 29.6944 22.1777 30.6961V17.1426C23.7687 16.1408 26.6562 15.3747 28.6598 15.3747C30.0741 15.3747 31.4884 15.5515 32.7848 15.964V29.5176Z" fill="#28C76F"/>
<path d="M28.6598 20.0891C29.6969 20.0891 30.6987 20.1952 31.6062 20.3956V18.6041C30.6751 18.4274 29.6733 18.3213 28.6598 18.3213C26.6562 18.3213 24.8412 18.6631 23.3562 19.2995V21.2559C24.688 20.5016 26.5383 20.0891 28.6598 20.0891Z" fill="#28C76F"/>
<path d="M23.3562 22.4343V24.3907C24.688 23.6364 26.5383 23.2239 28.6598 23.2239C29.6969 23.2239 30.6987 23.33 31.6062 23.5303V21.7389C30.6751 21.5621 29.6733 21.4561 28.6598 21.4561C26.6562 21.4561 24.8412 21.8096 23.3562 22.4343Z" fill="#28C76F"/>
<path d="M28.6598 24.603C26.6562 24.603 24.8412 24.9448 23.3562 25.5812V27.5377C24.688 26.7834 26.5383 26.3709 28.6598 26.3709C29.6969 26.3709 30.6987 26.477 31.6062 26.6773V24.8859C30.6751 24.6973 29.6733 24.603 28.6598 24.603Z" fill="#28C76F"/>
</g>
</g>
<defs>
<clipPath id="clip0_3036_86102">
<rect width="48" height="48" fill="white"/>
</clipPath>
<clipPath id="clip1_3036_86102">
<rect width="28.2857" height="28.2857" fill="white" transform="translate(8.03491 7.71387)"/>
</clipPath>
</defs>
</svg>
