<svg width="22" height="24" viewBox="0 0 22 24" fill="none" xmlns="http://www.w3.org/2000/svg">
<path d="M21.1343 6V12C21.1343 12.6 20.7821 13 20.2537 13C19.7254 13 19.3731 12.6 19.3731 12V8.4L12.5045 16.2C12.1522 16.6 11.6239 16.6 11.2716 16.2L7.48507 11.9L1.49701 18.7C1.3209 18.9 1.14478 19 0.880597 19C0.616418 19 0.440299 18.9 0.264179 18.7C-0.0880597 18.3 -0.0880597 17.7 0.264179 17.3L6.86866 9.8C7.2209 9.4 7.74925 9.4 8.10149 9.8L11.8881 14.1L18.1403 7H14.9701C14.4418 7 14.0896 6.6 14.0896 6C14.0896 5.4 14.4418 5 14.9701 5H20.2537C20.3418 5 20.5179 5 20.606 5.1C20.7821 5.2 20.9582 5.4 21.0463 5.6C21.1343 5.7 21.1343 5.9 21.1343 6Z" fill="black"/>
<mask id="mask0_3020_84919" style="mask-type:luminance" maskUnits="userSpaceOnUse" x="0" y="5" width="22" height="14">
<path d="M21.1343 6V12C21.1343 12.6 20.7821 13 20.2537 13C19.7254 13 19.3731 12.6 19.3731 12V8.4L12.5045 16.2C12.1522 16.6 11.6239 16.6 11.2716 16.2L7.48507 11.9L1.49701 18.7C1.3209 18.9 1.14478 19 0.880597 19C0.616418 19 0.440299 18.9 0.264179 18.7C-0.0880597 18.3 -0.0880597 17.7 0.264179 17.3L6.86866 9.8C7.2209 9.4 7.74925 9.4 8.10149 9.8L11.8881 14.1L18.1403 7H14.9701C14.4418 7 14.0896 6.6 14.0896 6C14.0896 5.4 14.4418 5 14.9701 5H20.2537C20.3418 5 20.5179 5 20.606 5.1C20.7821 5.2 20.9582 5.4 21.0463 5.6C21.1343 5.7 21.1343 5.9 21.1343 6Z" fill="white"/>
</mask>
<g mask="url(#mask0_3020_84919)">
<rect width="21.1343" height="24" fill="#7367F0"/>
</g>
</svg>
