<svg width="48" height="48" viewBox="0 0 48 48" fill="none" xmlns="http://www.w3.org/2000/svg">
<rect width="48" height="48" rx="5" fill="#FF454C"/>
<path d="M33.1562 17.875C33.4396 17.875 33.6771 17.7708 33.8687 17.5625C34.0604 17.3542 34.1562 17.125 34.1562 16.875C34.1562 16.5917 34.0604 16.3542 33.8687 16.1625C33.6771 15.9708 33.4396 15.875 33.1562 15.875C32.8729 15.875 32.6354 15.9708 32.4438 16.1625C32.2521 16.3542 32.1562 16.5917 32.1562 16.875C32.1562 17.125 32.2521 17.3542 32.4438 17.5625C32.6354 17.7708 32.8729 17.875 33.1562 17.875ZM27.7812 17.875C28.0646 17.875 28.3021 17.7708 28.4937 17.5625C28.6854 17.3542 28.7812 17.125 28.7812 16.875C28.7812 16.5917 28.6854 16.3542 28.4937 16.1625C28.3021 15.9708 28.0646 15.875 27.7812 15.875C27.4979 15.875 27.2604 15.9708 27.0688 16.1625C26.8771 16.3542 26.7812 16.5917 26.7812 16.875C26.7812 17.125 26.8771 17.3542 27.0688 17.5625C27.2604 17.7708 27.4979 17.875 27.7812 17.875ZM27.0938 22.4375H33.7812C33.7812 21.75 33.4375 21.2135 32.75 20.8281C32.0625 20.4427 31.2917 20.25 30.4375 20.25C29.5833 20.25 28.8125 20.4427 28.125 20.8281C27.4375 21.2135 27.0938 21.75 27.0938 22.4375ZM17.5625 36.4688C15.5312 36.4688 13.8047 35.7396 12.3828 34.2812C10.9609 32.8229 10.25 31.1146 10.25 29.1562V20.8125H24.875V29.1562C24.875 31.1146 24.1641 32.8229 22.7422 34.2812C21.3203 35.7396 19.5938 36.4688 17.5625 36.4688ZM17.5675 34.5938C19.0642 34.5938 20.3438 34.0469 21.4062 32.9531C22.4688 31.8594 23 30.5938 23 29.1562V22.6875H12.125V29.1562C12.125 30.5938 12.6579 31.8594 13.7237 32.9531C14.7896 34.0469 16.0708 34.5938 17.5675 34.5938ZM30.4375 27.1562C29.7292 27.1562 29.0417 27.0677 28.375 26.8906C27.7083 26.7135 27.0729 26.4583 26.4688 26.125V24.0312C27.0104 24.3438 27.6198 24.6302 28.2969 24.8906C28.974 25.151 29.6875 25.2812 30.4375 25.2812C31.9328 25.2812 33.2129 24.7812 34.2778 23.7812C35.3426 22.7812 35.875 21.5625 35.875 20.125V13.375H24.9062V19.2812H23.0312V11.5H37.75V20.125C37.75 22.0625 37.0391 23.7188 35.6172 25.0938C34.1953 26.4688 32.4688 27.1562 30.4375 27.1562ZM14.9062 26.9375C15.1896 26.9375 15.4271 26.8417 15.6188 26.65C15.8104 26.4583 15.9062 26.2208 15.9062 25.9375C15.9062 25.6542 15.8104 25.4167 15.6188 25.225C15.4271 25.0333 15.1896 24.9375 14.9062 24.9375C14.6229 24.9375 14.3854 25.0333 14.1937 25.225C14.0021 25.4167 13.9062 25.6542 13.9062 25.9375C13.9062 26.2208 14.0021 26.4583 14.1937 26.65C14.3854 26.8417 14.6229 26.9375 14.9062 26.9375ZM20.3125 26.9375C20.5958 26.9375 20.8333 26.8417 21.025 26.65C21.2167 26.4583 21.3125 26.2208 21.3125 25.9375C21.3125 25.6542 21.2167 25.4167 21.025 25.225C20.8333 25.0333 20.5958 24.9375 20.3125 24.9375C20.0292 24.9375 19.7917 25.0333 19.6 25.225C19.4083 25.4167 19.3125 25.6542 19.3125 25.9375C19.3125 26.2208 19.4083 26.4583 19.6 26.65C19.7917 26.8417 20.0292 26.9375 20.3125 26.9375ZM17.6562 31.7812C18.5104 31.7812 19.2812 31.5885 19.9688 31.2031C20.6562 30.8177 21 30.2812 21 29.5938H14.3125C14.3125 30.2812 14.6562 30.8177 15.3438 31.2031C16.0312 31.5885 16.8021 31.7812 17.6562 31.7812Z" fill="white"/>
</svg>
