<svg width="48" height="48" viewBox="0 0 48 48" fill="none" xmlns="http://www.w3.org/2000/svg">
<rect width="48" height="48" rx="5" fill="#62D2CD"/>
<path d="M10.25 34V29C10.25 28.3958 10.4635 27.8802 10.8906 27.4531C11.3177 27.026 11.8333 26.8125 12.4375 26.8125H16.8438C17.1979 26.8125 17.5365 26.901 17.8594 27.0781C18.1823 27.2552 18.4583 27.5 18.6875 27.8125C19.2917 28.6875 20.0625 29.3646 21 29.8438C21.9375 30.3229 22.9375 30.5625 24 30.5625C25.0625 30.5625 26.0625 30.3229 27 29.8438C27.9375 29.3646 28.7188 28.6875 29.3438 27.8125C29.5729 27.5 29.8438 27.2552 30.1562 27.0781C30.4688 26.901 30.8021 26.8125 31.1562 26.8125H35.5625C36.1667 26.8125 36.6823 27.026 37.1094 27.4531C37.5365 27.8802 37.75 28.3958 37.75 29V34H29.625V30.2812C28.875 30.9688 28.0156 31.5 27.0469 31.875C26.0781 32.25 25.0625 32.4375 24 32.4375C22.9375 32.4375 21.9271 32.25 20.9688 31.875C20.0104 31.5 19.1458 30.9688 18.375 30.2812V34H10.25ZM24 28.6875C23.2708 28.6875 22.5677 28.5156 21.8906 28.1719C21.2135 27.8281 20.6667 27.3542 20.25 26.75C19.9167 26.2708 19.5156 25.8854 19.0469 25.5938C18.5781 25.3021 18.0729 25.1042 17.5312 25C18.1354 24.375 19.0833 23.8958 20.375 23.5625C21.6667 23.2292 22.875 23.0625 24 23.0625C25.125 23.0625 26.3385 23.2292 27.6406 23.5625C28.9427 23.8958 29.8958 24.375 30.5 25C29.9583 25.1042 29.4531 25.3021 28.9844 25.5938C28.5156 25.8854 28.1146 26.2708 27.7812 26.75C27.3646 27.3542 26.8177 27.8281 26.1406 28.1719C25.4635 28.5156 24.75 28.6875 24 28.6875ZM14 24.625C13.0625 24.625 12.2552 24.2865 11.5781 23.6094C10.901 22.9323 10.5625 22.125 10.5625 21.1875C10.5625 20.2292 10.901 19.4167 11.5781 18.75C12.2552 18.0833 13.0625 17.75 14 17.75C14.9583 17.75 15.7708 18.0833 16.4375 18.75C17.1042 19.4167 17.4375 20.2292 17.4375 21.1875C17.4375 22.125 17.1042 22.9323 16.4375 23.6094C15.7708 24.2865 14.9583 24.625 14 24.625ZM34 24.625C33.0625 24.625 32.2552 24.2865 31.5781 23.6094C30.901 22.9323 30.5625 22.125 30.5625 21.1875C30.5625 20.2292 30.901 19.4167 31.5781 18.75C32.2552 18.0833 33.0625 17.75 34 17.75C34.9583 17.75 35.7708 18.0833 36.4375 18.75C37.1042 19.4167 37.4375 20.2292 37.4375 21.1875C37.4375 22.125 37.1042 22.9323 36.4375 23.6094C35.7708 24.2865 34.9583 24.625 34 24.625ZM24 20.875C23.0625 20.875 22.2552 20.5365 21.5781 19.8594C20.901 19.1823 20.5625 18.375 20.5625 17.4375C20.5625 16.4792 20.901 15.6667 21.5781 15C22.2552 14.3333 23.0625 14 24 14C24.9583 14 25.7708 14.3333 26.4375 15C27.1042 15.6667 27.4375 16.4792 27.4375 17.4375C27.4375 18.375 27.1042 19.1823 26.4375 19.8594C25.7708 20.5365 24.9583 20.875 24 20.875Z" fill="white"/>
</svg>
