<svg width="48" height="48" viewBox="0 0 48 48" fill="none" xmlns="http://www.w3.org/2000/svg">
<rect width="48" height="48" rx="5" fill="#7367F0"/>
<path d="M17.5593 22.125C16.4364 22.125 15.4792 21.7281 14.6875 20.9343C13.8958 20.1406 13.5 19.1822 13.5 18.0593C13.5 16.9364 13.8969 15.9792 14.6907 15.1875C15.4844 14.3958 16.4428 14 17.5657 14C18.6886 14 19.6458 14.3969 20.4375 15.1907C21.2292 15.9844 21.625 16.9428 21.625 18.0657C21.625 19.1886 21.2281 20.1458 20.4343 20.9375C19.6406 21.7292 18.6822 22.125 17.5593 22.125ZM17.5588 20.25C18.1654 20.25 18.6823 20.0377 19.1094 19.6131C19.5365 19.1884 19.75 18.6728 19.75 18.0662C19.75 17.4596 19.5377 16.9427 19.1131 16.5156C18.6884 16.0885 18.1728 15.875 17.5662 15.875C16.9596 15.875 16.4427 16.0873 16.0156 16.5119C15.5885 16.9366 15.375 17.4522 15.375 18.0588C15.375 18.6654 15.5873 19.1823 16.0119 19.6094C16.4366 20.0365 16.9522 20.25 17.5588 20.25ZM29.4343 34C28.3114 34 27.3542 33.6031 26.5625 32.8093C25.7708 32.0156 25.375 31.0572 25.375 29.9343C25.375 28.8114 25.7719 27.8542 26.5657 27.0625C27.3594 26.2708 28.3178 25.875 29.4407 25.875C30.5636 25.875 31.5208 26.2719 32.3125 27.0657C33.1042 27.8594 33.5 28.8178 33.5 29.9407C33.5 31.0636 33.1031 32.0208 32.3093 32.8125C31.5156 33.6042 30.5572 34 29.4343 34ZM29.4338 32.125C30.0404 32.125 30.5573 31.9127 30.9844 31.4881C31.4115 31.0634 31.625 30.5478 31.625 29.9412C31.625 29.3346 31.4127 28.8177 30.9881 28.3906C30.5634 27.9635 30.0478 27.75 29.4412 27.75C28.8346 27.75 28.3177 27.9623 27.8906 28.3869C27.4635 28.8116 27.25 29.3272 27.25 29.9338C27.25 30.5404 27.4623 31.0573 27.8869 31.4844C28.3116 31.9115 28.8272 32.125 29.4338 32.125ZM14.8125 34L13.5 32.6875L32.1875 14L33.5 15.3125L14.8125 34Z" fill="white"/>
</svg>
