<svg width="50" height="17" viewBox="0 0 50 17" fill="none" xmlns="http://www.w3.org/2000/svg">
<g clip-path="url(#clip0_1389_3921)">
<mask id="mask0_1389_3921" style="mask-type:luminance" maskUnits="userSpaceOnUse" x="0" y="0" width="26" height="17">
<path d="M26 0.915375H0V16.0846H26V0.915375Z" fill="white"/>
</mask>
<g mask="url(#mask0_1389_3921)">
<path d="M26 0.915375H0V16.0846H26V0.915375Z" fill="#3C9242"/>
<path d="M4.01318 8.50001L13.0001 14.2408L21.9947 8.50001L13.0001 2.75925L4.01318 8.50001Z" fill="#EDC226"/>
<mask id="mask1_1389_3921" style="mask-type:luminance" maskUnits="userSpaceOnUse" x="0" y="0" width="26" height="17">
<path d="M26 0.915375H0V16.0846H26V0.915375Z" fill="white"/>
</mask>
<g mask="url(#mask1_1389_3921)">
<path d="M16.7885 8.50001C16.7885 10.5918 15.0919 12.2885 13.0001 12.2885C10.9083 12.2885 9.21167 10.5918 9.21167 8.50001C9.21167 6.40824 10.9083 4.70383 13.0001 4.70383C15.0919 4.70383 16.7885 6.40824 16.7885 8.50001Z" fill="#2D146E"/>
<path d="M10.8387 6.87308C10.3971 6.87308 9.96323 6.90407 9.53712 6.96605C9.4519 7.15198 9.38992 7.34566 9.33569 7.54709C9.82377 7.46187 10.3273 7.41539 10.8387 7.41539C13.0622 7.41539 15.0919 8.2521 16.6259 9.63112C16.6879 9.43744 16.7344 9.23601 16.7576 9.03458C15.1539 7.68655 13.0931 6.87308 10.8387 6.87308Z" fill="white"/>
</g>
</g>
</g>
<path d="M32.47 14V4.2H36.292C37.1507 4.2 37.8833 4.33533 38.49 4.606C39.0967 4.87667 39.5633 5.26867 39.89 5.782C40.2167 6.29533 40.38 6.90667 40.38 7.616C40.38 8.32533 40.2167 8.93667 39.89 9.45C39.5633 9.954 39.0967 10.346 38.49 10.626C37.8833 10.8967 37.1507 11.032 36.292 11.032H33.24L33.87 10.374V14H32.47ZM33.87 10.514L33.24 9.814H36.25C37.146 9.814 37.8227 9.62267 38.28 9.24C38.7467 8.85733 38.98 8.316 38.98 7.616C38.98 6.916 38.7467 6.37467 38.28 5.992C37.8227 5.60933 37.146 5.418 36.25 5.418H33.24L33.87 4.718V10.514ZM44.4683 14V5.418H41.1083V4.2H49.2143V5.418H45.8543V14H44.4683Z" fill="#6E6B7B"/>
<defs>
<clipPath id="clip0_1389_3921">
<rect width="26" height="15.1692" fill="white" transform="translate(0 0.915375)"/>
</clipPath>
</defs>
</svg>
