<svg width="48" height="48" viewBox="0 0 48 48" fill="none" xmlns="http://www.w3.org/2000/svg">
<rect width="48" height="48" rx="5" fill="#FF454C"/>
<path d="M12.7917 35.25C12.2917 35.25 11.8542 35.0625 11.4792 34.6875C11.1042 34.3125 10.9167 33.875 10.9167 33.375V14.625C10.9167 14.125 11.1042 13.6875 11.4792 13.3125C11.8542 12.9375 12.2917 12.75 12.7917 12.75H34.5417C35.0417 12.75 35.4792 12.9375 35.8542 13.3125C36.2292 13.6875 36.4167 14.125 36.4167 14.625V33.375C36.4167 33.875 36.2292 34.3125 35.8542 34.6875C35.4792 35.0625 35.0417 35.25 34.5417 35.25H12.7917ZM12.7917 33.375H34.5417V14.625H12.7917V33.375ZM14.9167 30.25H21.1667V27.75H14.9167V30.25ZM26.8542 27.75L33.0417 21.5625L31.2604 19.7812L26.8542 24.2188L25.0729 22.4375L23.3229 24.2188L26.8542 27.75ZM14.9167 25.25H21.1667V22.75H14.9167V25.25ZM14.9167 20.25H21.1667V17.75H14.9167V20.25Z" fill="white"/>
</svg>
