<svg width="26" height="26" viewBox="0 0 26 26" fill="none" xmlns="http://www.w3.org/2000/svg">
<path d="M13.8125 12.1875H22.1812C21.9826 9.98468 21.0934 8.07531 19.5135 6.45933C17.9337 4.84336 16.0333 3.96315 13.8125 3.81871V12.1875ZM12.1875 22.1812V3.81871C9.82222 4.01732 7.83159 5.00135 6.21562 6.77079C4.59965 8.54024 3.79166 10.6166 3.79166 13C3.79166 15.3833 4.59965 17.4597 6.21562 19.2291C7.83159 20.9986 9.82222 21.9826 12.1875 22.1812ZM13.8125 22.1812C16.0333 22.0368 17.9337 21.1566 19.5135 19.5406C21.0934 17.9246 21.9826 16.0152 22.1812 13.8125H13.8125V22.1812ZM13 23.8333C11.5014 23.8333 10.0931 23.5489 8.775 22.9802C7.45694 22.4114 6.31041 21.6395 5.33541 20.6645C4.36041 19.6895 3.58854 18.543 3.01979 17.225C2.45104 15.9069 2.16666 14.4986 2.16666 13C2.16666 11.5013 2.45104 10.093 3.01979 8.77496C3.58854 7.4569 4.36041 6.31038 5.33541 5.33538C6.31041 4.36038 7.45694 3.5885 8.775 3.01975C10.0931 2.451 11.5014 2.16663 13 2.16663C14.4986 2.16663 15.9069 2.451 17.225 3.01975C18.5431 3.5885 19.6896 4.36038 20.6646 5.33538C21.6396 6.31038 22.4115 7.4569 22.9802 8.77496C23.549 10.093 23.8333 11.5013 23.8333 13C23.8333 14.4986 23.549 15.9069 22.9802 17.225C22.4115 18.543 21.6396 19.6895 20.6646 20.6645C19.6896 21.6395 18.5431 22.4114 17.225 22.9802C15.9069 23.5489 14.4986 23.8333 13 23.8333Z" fill="#7367F0"/>
</svg>
