<svg width="48" height="48" viewBox="0 0 48 48" fill="none" xmlns="http://www.w3.org/2000/svg">
<rect width="48" height="48" rx="5" fill="#FFAA48"/>
<path d="M23.6667 37.125C22.0417 35.6875 20.2656 34.5833 18.3386 33.8125C16.4115 33.0417 14.4375 32.6562 12.4167 32.6562V19.25C14.375 19.25 16.3177 19.6979 18.2448 20.5938C20.1719 21.4896 21.9792 22.7396 23.6667 24.3438C25.3542 22.7396 27.1615 21.4896 29.0886 20.5938C31.0156 19.6979 32.9584 19.25 34.9167 19.25V32.6562C32.8959 32.6562 30.9219 33.0417 28.9948 33.8125C27.0677 34.5833 25.2917 35.6875 23.6667 37.125ZM23.6667 34.7188C25.1459 33.6562 26.6719 32.8073 28.2448 32.1719C29.8177 31.5365 31.4167 31.1354 33.0417 30.9688V21.2812C31.625 21.5104 30.1302 22.0781 28.5573 22.9844C26.9844 23.8906 25.3542 25.1458 23.6667 26.75C21.8334 25.0625 20.1667 23.7812 18.6667 22.9062C17.1667 22.0312 15.7084 21.4896 14.2917 21.2812V30.9688C15.9167 31.1354 17.5156 31.5365 19.0886 32.1719C20.6615 32.8073 22.1875 33.6562 23.6667 34.7188ZM23.7604 19.875C22.4063 19.875 21.2656 19.4115 20.3386 18.4844C19.4115 17.5573 18.9479 16.4167 18.9479 15.0625C18.9479 13.7083 19.4115 12.5677 20.3386 11.6406C21.2656 10.7135 22.4063 10.25 23.7604 10.25C25.1146 10.25 26.2552 10.7135 27.1823 11.6406C28.1094 12.5677 28.5729 13.7083 28.5729 15.0625C28.5729 16.4167 28.1094 17.5573 27.1823 18.4844C26.2552 19.4115 25.1146 19.875 23.7604 19.875ZM23.7654 18C24.5746 18 25.2656 17.7119 25.8386 17.1357C26.4115 16.5594 26.6979 15.8667 26.6979 15.0575C26.6979 14.2483 26.4098 13.5573 25.8336 12.9844C25.2573 12.4115 24.5646 12.125 23.7555 12.125C22.9463 12.125 22.2552 12.4131 21.6823 12.9893C21.1094 13.5656 20.8229 14.2583 20.8229 15.0675C20.8229 15.8767 21.1111 16.5677 21.6873 17.1406C22.2635 17.7135 22.9562 18 23.7654 18Z" fill="white"/>
</svg>
