<svg width="48" height="48" viewBox="0 0 48 48" fill="none" xmlns="http://www.w3.org/2000/svg">
<rect width="48" height="48" rx="5" fill="#7367F0" fill-opacity="0.12"/>
<path d="M21.5625 16.9583H23.1875V15.3333H21.5625V16.9583ZM24.8125 16.9583V15.3333H26.4375V16.9583H24.8125ZM21.5625 23.4583V21.8333H23.1875V23.4583H21.5625ZM28.0625 20.2083V18.5833H29.6875V20.2083H28.0625ZM28.0625 23.4583V21.8333H29.6875V23.4583H28.0625ZM24.8125 23.4583V21.8333H26.4375V23.4583H24.8125ZM28.0625 16.9583V15.3333H29.6875V16.9583H28.0625ZM23.1875 18.5833V16.9583H24.8125V18.5833H23.1875ZM18.3125 32.6667V15.3333H19.9375V16.9583H21.5625V18.5833H19.9375V20.2083H21.5625V21.8333H19.9375V32.6667H18.3125ZM26.4375 21.8333V20.2083H28.0625V21.8333H26.4375ZM23.1875 21.8333V20.2083H24.8125V21.8333H23.1875ZM21.5625 20.2083V18.5833H23.1875V20.2083H21.5625ZM24.8125 20.2083V18.5833H26.4375V20.2083H24.8125ZM26.4375 18.5833V16.9583H28.0625V18.5833H26.4375Z" fill="#7367F0"/>
</svg>
