<svg width="48" height="48" viewBox="0 0 48 48" fill="none" xmlns="http://www.w3.org/2000/svg">
<path d="M0 5.33333C0 2.38781 2.38781 0 5.33333 0H42.6667C45.6122 0 48 2.38781 48 5.33333V42.6667C48 45.6122 45.6122 48 42.6667 48H5.33333C2.38781 48 0 45.6122 0 42.6667V5.33333Z" fill="#7367F0" fill-opacity="0.12"/>
<path d="M21.4271 25.8417L22.4021 22.7271L19.8292 20.7229H22.9709L24 17.5L25.0021 20.7229H28.1709L25.598 22.7271L26.5459 25.8417L24 23.9187L21.4271 25.8417ZM17.6084 35.9167V27.6833C16.7959 26.8347 16.2136 25.9049 15.8615 24.8937C15.5094 23.8826 15.3334 22.8625 15.3334 21.8333C15.3334 19.3778 16.1639 17.3194 17.825 15.6583C19.4862 13.9972 21.5445 13.1667 24 13.1667C26.4556 13.1667 28.5139 13.9972 30.175 15.6583C31.8362 17.3194 32.6667 19.3778 32.6667 21.8333C32.6667 22.8625 32.4907 23.8826 32.1386 24.8937C31.7865 25.9049 31.2042 26.8347 30.3917 27.6833V35.9167L24 33.7771L17.6084 35.9167ZM24 28.875C25.9681 28.875 27.6337 28.1934 28.9969 26.8302C30.3601 25.467 31.0417 23.8014 31.0417 21.8333C31.0417 19.8653 30.3601 18.1996 28.9969 16.8364C27.6337 15.4733 25.9681 14.7917 24 14.7917C22.032 14.7917 20.3664 15.4733 19.0032 16.8364C17.64 18.1996 16.9584 19.8653 16.9584 21.8333C16.9584 23.8014 17.64 25.467 19.0032 26.8302C20.3664 28.1934 22.032 28.875 24 28.875ZM19.2334 33.6417L24 32.1521L28.7667 33.6417V29.0104C28.0445 29.534 27.2681 29.9132 26.4375 30.1479C25.607 30.3826 24.7945 30.5 24 30.5C23.2056 30.5 22.3931 30.3826 21.5625 30.1479C20.732 29.9132 19.9556 29.534 19.2334 29.0104V33.6417Z" fill="#7367F0"/>
</svg>
