<svg width="48" height="48" viewBox="0 0 48 48" fill="none" xmlns="http://www.w3.org/2000/svg">
<rect width="48" height="48" rx="5" fill="#FF454C"/>
<g clip-path="url(#clip0_816_297)">
<path d="M28.8119 23.1218C29.0008 22.9552 29.0008 22.6845 28.8119 22.518C28.6235 22.3511 28.3179 22.3511 28.129 22.518C27.9406 22.6845 27.9406 22.9552 28.129 23.1218C28.3179 23.2888 28.6235 23.2888 28.8119 23.1218Z" fill="white"/>
<path d="M12.1191 34.9735H35.8805C36.0757 34.9735 36.2519 34.8696 36.3266 34.71C36.4013 34.5504 36.36 34.3667 36.2219 34.2447L12.4605 13.2379C12.3224 13.1156 12.1147 13.0793 11.9342 13.1453C11.7538 13.2114 11.6361 13.367 11.6361 13.5398V34.5465C11.6361 34.7824 11.8523 34.9735 12.1191 34.9735ZM12.602 14.5705L16.4868 18.0049L15.462 18.9104C15.2734 19.0772 15.2734 19.3476 15.462 19.5143C15.6503 19.681 15.9563 19.6813 16.1449 19.5143L17.1697 18.6087L19.2187 20.4203L18.1941 21.3258C18.0055 21.4926 18.0055 21.7629 18.1939 21.9297C18.3824 22.0964 18.6884 22.0967 18.877 21.9297L19.9018 21.0241L21.9506 22.8355L20.9262 23.7414C20.7375 23.908 20.7375 24.1783 20.9262 24.3451C21.1149 24.5119 21.4205 24.5119 21.6091 24.3451L22.6337 23.4393L24.6827 25.2509L23.6583 26.1567C23.4696 26.3234 23.4696 26.5937 23.6583 26.7605C23.8469 26.9273 24.1526 26.9273 24.3412 26.7605L25.3658 25.8549L27.4148 27.6661L26.3904 28.5721C26.2017 28.7389 26.2017 29.0093 26.3904 29.1761C26.579 29.3427 26.8849 29.3427 27.0735 29.1759L28.0977 28.2701L30.1467 30.0815L29.1223 30.9875C28.9338 31.1543 28.9338 31.4247 29.1225 31.5913C29.3109 31.7581 29.6169 31.7581 29.8056 31.5913L30.8298 30.6853L34.7144 34.1196H12.602V14.5705Z" fill="white"/>
<path d="M16.614 21.99C16.4759 21.868 16.2682 21.8314 16.0876 21.8975C15.9073 21.9635 15.7896 22.1193 15.7896 22.2919V30.8744C15.7896 31.1102 16.0057 31.3013 16.2725 31.3013H25.9803C26.1757 31.3013 26.3517 31.1974 26.4266 31.0378C26.5013 30.8784 26.4598 30.6946 26.3219 30.5725L16.614 21.99ZM16.7555 30.4476V23.3228L24.8144 30.4476H16.7555Z" fill="white"/>
<path d="M26.7631 21.9145C26.9518 22.0813 27.2574 22.0813 27.4462 21.9145C27.6347 21.7479 27.6347 21.4775 27.4462 21.3107L25.3969 19.4991C25.2084 19.3323 24.9026 19.3323 24.7139 19.4991C24.5253 19.6657 24.5253 19.9361 24.7139 20.1029L26.7631 21.9145Z" fill="white"/>
<path d="M18.9672 17.4642L32.5239 29.4492C33.0899 29.9499 34.0067 29.9499 34.5731 29.4492L35.9389 28.2418C36.5036 27.7426 36.5036 26.9299 35.9389 26.43L22.3824 14.445C22.3294 14.3981 22.2647 14.3628 22.1936 14.3419L18.0956 13.1344C17.9222 13.0834 17.7308 13.1232 17.6015 13.2377C17.4721 13.3519 17.427 13.521 17.4848 13.6745L18.8506 17.2974C18.8744 17.3603 18.9142 17.4173 18.9672 17.4642ZM35.2556 27.0338C35.4441 27.2004 35.4441 27.4716 35.2558 27.6379L33.8901 28.8454C33.7015 29.0122 33.3957 29.0124 33.2068 28.8454L32.1604 27.9203L34.2093 26.1086L35.2556 27.0338ZM33.5264 25.5049L31.4772 27.3165L30.7943 26.7126L32.8435 24.9013L33.5264 25.5049ZM22.3605 15.6334L32.1604 24.2972L30.1114 26.1088L20.3114 17.4448L22.3605 15.6334ZM21.6261 15.0748L19.6796 16.7955L18.7065 14.2145L21.6261 15.0748Z" fill="white"/>
</g>
<defs>
<clipPath id="clip0_816_297">
<rect width="24.7273" height="21.8182" fill="white" transform="translate(11.6361 13.0911)"/>
</clipPath>
</defs>
</svg>
