<svg width="24" height="24" viewBox="0 0 24 24" fill="none" xmlns="http://www.w3.org/2000/svg">
<g clip-path="url(#clip0_1443_200)">
<path d="M10.4014 14.0599L14.3295 11.7941L10.4014 9.52832V14.0599Z" fill="#82868B"/>
<path d="M12 0C5.37188 0 0 5.27763 0 11.7895C0 18.3013 5.37188 23.5789 12 23.5789C18.6281 23.5789 24 18.3013 24 11.7895C24 5.27763 18.6281 0 12 0ZM18 13.8987C18 15.9296 15.9328 15.9296 15.9328 15.9296H8.06719C6 15.9296 6 13.8987 6 13.8987V9.68487C6 7.65395 8.06719 7.65395 8.06719 7.65395H15.9328C18 7.65395 18 9.68487 18 9.68487V13.8987Z" fill="#82868B"/>
</g>
<defs>
<clipPath id="clip0_1443_200">
<rect width="24" height="23.5789" fill="white"/>
</clipPath>
</defs>
</svg>
