<svg width="48" height="48" viewBox="0 0 48 48" fill="none" xmlns="http://www.w3.org/2000/svg">
<rect width="48" height="48" rx="5" fill="#8BC728"/>
<path d="M17.7812 26.5312C18.1354 26.5312 18.4323 26.4115 18.6719 26.1719C18.9115 25.9323 19.0312 25.6354 19.0312 25.2812C19.0312 24.9271 18.9115 24.6302 18.6719 24.3906C18.4323 24.151 18.1354 24.0312 17.7812 24.0312C17.4271 24.0312 17.1302 24.151 16.8906 24.3906C16.651 24.6302 16.5312 24.9271 16.5312 25.2812C16.5312 25.6354 16.651 25.9323 16.8906 26.1719C17.1302 26.4115 17.4271 26.5312 17.7812 26.5312ZM17.7812 22.7812C18.1354 22.7812 18.4323 22.6615 18.6719 22.4219C18.9115 22.1823 19.0312 21.8854 19.0312 21.5312C19.0312 21.1771 18.9115 20.8802 18.6719 20.6406C18.4323 20.401 18.1354 20.2812 17.7812 20.2812C17.4271 20.2812 17.1302 20.401 16.8906 20.6406C16.651 20.8802 16.5312 21.1771 16.5312 21.5312C16.5312 21.8854 16.651 22.1823 16.8906 22.4219C17.1302 22.6615 17.4271 22.7812 17.7812 22.7812ZM17.7812 19.0312C18.1354 19.0312 18.4323 18.9115 18.6719 18.6719C18.9115 18.4323 19.0312 18.1354 19.0312 17.7812C19.0312 17.4271 18.9115 17.1302 18.6719 16.8906C18.4323 16.651 18.1354 16.5312 17.7812 16.5312C17.4271 16.5312 17.1302 16.651 16.8906 16.8906C16.651 17.1302 16.5312 17.4271 16.5312 17.7812C16.5312 18.1354 16.651 18.4323 16.8906 18.6719C17.1302 18.9115 17.4271 19.0312 17.7812 19.0312ZM21.5 26.2188H27.75V24.3438H21.5V26.2188ZM21.5 22.4688H31.5312V20.5938H21.5V22.4688ZM21.5 18.7188H31.5312V16.8438H21.5V18.7188ZM11.5 36.5V13.375C11.5 12.875 11.6875 12.4375 12.0625 12.0625C12.4375 11.6875 12.875 11.5 13.375 11.5H34.625C35.125 11.5 35.5625 11.6875 35.9375 12.0625C36.3125 12.4375 36.5 12.875 36.5 13.375V29.625C36.5 30.125 36.3125 30.5625 35.9375 30.9375C35.5625 31.3125 35.125 31.5 34.625 31.5H16.5L11.5 36.5ZM15.6875 29.625H34.625V13.375H13.375V32.125L15.6875 29.625Z" fill="white"/>
</svg>
