<svg width="48" height="48" viewBox="0 0 48 48" fill="none" xmlns="http://www.w3.org/2000/svg">
<rect width="48" height="48" rx="5" fill="#FFAA48"/>
<path d="M19.3645 34C18.8645 34 18.427 33.8125 18.052 33.4375C17.677 33.0625 17.4895 32.625 17.4895 32.125V29H21.3645V25.0312C20.5728 25.0938 19.7812 24.9844 18.9895 24.7031C18.1978 24.4219 17.4895 23.9792 16.8645 23.375V21.5625H15.302L11.2083 17.4688C11.9583 16.7604 12.8541 16.1823 13.8958 15.7344C14.9374 15.2865 15.9999 15.0625 17.0833 15.0625C17.7083 15.0625 18.4218 15.1615 19.2239 15.3594C20.026 15.5573 20.7395 15.875 21.3645 16.3125V14H35.5833V30.7188C35.5833 31.6354 35.2655 32.4115 34.6301 33.0469C33.9947 33.6823 33.2187 34 32.302 34H19.3645ZM23.2395 29H30.8958V30.7188C30.8958 31.1354 31.026 31.474 31.2864 31.7344C31.5468 31.9948 31.8853 32.125 32.302 32.125C32.7187 32.125 33.0572 31.9948 33.3176 31.7344C33.578 31.474 33.7083 31.1354 33.7083 30.7188V15.875H23.2395V17.6562L30.7708 25.1875V26.5312H29.427L25.4895 22.5938L24.9583 23.2188C24.6874 23.5312 24.4166 23.7708 24.1458 23.9375C23.8749 24.1042 23.5728 24.2604 23.2395 24.4062V29ZM16.1458 19.6875H18.7395V22.4688C19.0937 22.6979 19.4426 22.8698 19.7864 22.9844C20.1301 23.099 20.4791 23.1562 20.8333 23.1562C21.3541 23.1562 21.8853 23.0156 22.427 22.7344C22.9687 22.4531 23.3645 22.1667 23.6145 21.875L24.1458 21.25L21.9895 19.0938C21.3228 18.4271 20.5728 17.901 19.7395 17.5156C18.9062 17.1302 18.0208 16.9375 17.0833 16.9375C16.5208 16.9375 16.0103 17.0052 15.552 17.1406C15.0937 17.276 14.6249 17.4583 14.1458 17.6875L16.1458 19.6875ZM29.0208 30.875H19.3645V32.125H29.4583C29.3333 32 29.2291 31.8281 29.1458 31.6094C29.0624 31.3906 29.0208 31.1458 29.0208 30.875Z" fill="white"/>
</svg>
