<svg width="48" height="48" viewBox="0 0 48 48" fill="none" xmlns="http://www.w3.org/2000/svg">
<rect width="48" height="48" rx="5" fill="#62D2CD"/>
<g clip-path="url(#clip0_816_165)">
<path d="M23.2728 13.8185V11.6367C20.2161 11.6367 17.6023 13.8191 17.0557 16.8263L15.817 23.6367H12.9092V25.8185H15.4204L14.2526 32.2391C13.8949 34.2081 12.1831 35.6367 10.1819 35.6367V37.8185C13.2386 37.8185 15.8524 35.6362 16.3989 32.629L17.6377 25.8185H20.0001V23.6367H18.0342L19.2021 17.2162C19.5598 15.2472 21.2716 13.8185 23.2728 13.8185Z" fill="white"/>
<path d="M24.3637 18.1822L23.491 17.5276C23.4153 17.6285 21.6365 20.0543 21.6365 24.7277C21.6365 29.4011 23.4153 31.8269 23.491 31.9278L25.236 30.6185C25.2224 30.6001 23.8183 28.6189 23.8183 24.7277C23.8183 20.8376 25.2272 18.8499 25.2413 18.8297L24.3637 18.1822Z" fill="white"/>
<path d="M32.7636 18.8369C32.7777 18.8553 34.1818 20.8365 34.1818 24.7277C34.1818 28.6178 32.7729 30.6054 32.7588 30.6257L33.6364 31.2732L34.5091 31.9278C34.5856 31.8263 36.3636 29.4011 36.3636 24.7277C36.3636 20.0543 34.5848 17.6285 34.5091 17.5276L32.7636 18.8369Z" fill="white"/>
<path d="M30.0271 21.3586L28.7274 23.146L27.4277 21.3586L25.6635 22.6424L27.3784 25.0005L25.6635 27.3586L27.4277 28.6424L28.7274 26.855L30.0271 28.6424L31.7913 27.3586L30.0764 25.0005L31.7913 22.6424L30.0271 21.3586Z" fill="white"/>
</g>
<defs>
<clipPath id="clip0_816_165">
<rect width="26.1818" height="26.1818" fill="white" transform="translate(10.1819 11.6367)"/>
</clipPath>
</defs>
</svg>
