<svg width="24" height="24" viewBox="0 0 24 24" fill="none" xmlns="http://www.w3.org/2000/svg">
<g clip-path="url(#clip0_1443_204)">
<path d="M12.8125 0.0241699C18.9019 0.0241699 23.884 4.91893 23.884 10.9014V12.6009C23.884 18.5834 18.9018 23.4781 12.8125 23.4781H11.0827C4.9934 23.4781 0.0112305 18.5834 0.0112305 12.6009V10.9014C0.0112305 4.91893 4.9934 0.0241699 11.0827 0.0241699H12.8125ZM12.1653 5.9191L12.0112 5.91891C10.7286 5.91891 9.44587 5.96056 9.44587 5.96056C7.57239 5.96056 6.05363 7.45268 6.05363 9.29329C6.05363 9.29329 6.01469 10.3754 6.01144 11.5368L6.01123 11.6887C6.01123 12.9891 6.05363 14.334 6.05363 14.334C6.05363 16.1746 7.57239 17.6667 9.44587 17.6667C9.44587 17.6667 10.6451 17.7084 11.884 17.7084C13.2077 17.7084 14.619 17.6667 14.619 17.6667C16.4925 17.6667 17.9688 16.2163 17.9688 14.3757C17.9688 14.3757 18.0112 13.0459 18.0112 11.772L18.0105 11.473C18.0047 10.3301 17.9688 9.25161 17.9688 9.25161C17.9688 7.411 16.4925 5.96056 14.619 5.96056C14.619 5.96056 13.3978 5.92217 12.1653 5.9191ZM12.0112 6.97993C13.0631 6.97993 14.4117 7.0141 14.4117 7.0141C15.9479 7.0141 16.8964 7.94599 16.8964 9.4553C16.8964 9.4553 16.9312 10.7576 16.9312 11.7794C16.9312 12.824 16.8964 14.1719 16.8964 14.1719C16.8964 15.6812 15.9479 16.6131 14.4117 16.6131C14.4117 16.6131 13.219 16.6418 12.1842 16.6466L11.9069 16.6473C10.891 16.6473 9.6532 16.6131 9.6532 16.6131C8.11697 16.6131 7.12601 15.6395 7.12601 14.1303C7.12601 14.1303 7.09123 12.7775 7.09123 11.7111C7.09123 10.7131 7.12601 9.4553 7.12601 9.4553C7.12601 7.94599 8.11699 7.0141 9.6532 7.0141C9.6532 7.0141 10.9594 6.97993 12.0112 6.97993ZM12.0112 8.794C10.3137 8.794 8.93767 10.1459 8.93767 11.8136C8.93767 13.4813 10.3137 14.8332 12.0112 14.8332C13.7087 14.8332 15.0847 13.4813 15.0847 11.8136C15.0847 10.1459 13.7087 8.794 12.0112 8.794ZM12.0112 9.84869C13.1158 9.84869 14.0112 10.7284 14.0112 11.8136C14.0112 12.8988 13.1158 13.7785 12.0112 13.7785C10.9066 13.7785 10.0112 12.8988 10.0112 11.8136C10.0112 10.7284 10.9066 9.84869 12.0112 9.84869ZM15.2318 7.95604C14.8217 7.95604 14.4892 8.28433 14.4892 8.68927C14.4892 9.09422 14.8217 9.42248 15.2318 9.42248C15.6419 9.42248 15.9744 9.09422 15.9744 8.68927C15.9744 8.2843 15.6419 7.95604 15.2318 7.95604Z" fill="#82868B"/>
</g>
<defs>
<clipPath id="clip0_1443_204">
<rect width="24" height="23.5789" fill="white"/>
</clipPath>
</defs>
</svg>
