<svg width="44" height="44" viewBox="0 0 44 44" fill="none" xmlns="http://www.w3.org/2000/svg">
<rect width="44" height="44" rx="5" fill="#EC6300"/>
<g clip-path="url(#clip0_402_2062)">
<path d="M27.3631 18.8828L24.4657 11.487C24.3047 11.0929 23.8583 10.8997 23.4608 11.052L16.065 13.9494C15.6674 14.1067 15.4726 14.5567 15.63 14.9543L18.5491 22.3501C18.7065 22.7477 19.1564 22.9424 19.5541 22.7851L26.9281 19.8877C27.3257 19.7303 27.5204 19.2804 27.3631 18.8828ZM19.3235 21.9368L16.4957 14.7411L23.6913 11.909L26.5191 19.109L19.3235 21.9368Z" fill="#F5F5F5"/>
<path d="M20.2196 23.5248H12.2974C11.8697 23.5248 11.523 23.8715 11.523 24.2992V32.2257C11.523 32.6534 11.8697 33.0001 12.2974 33.0001H20.2196C20.6473 33.0001 20.9939 32.6534 20.9939 32.2257V24.2992C20.9939 23.8715 20.6472 23.5248 20.2196 23.5248ZM20.1238 32.1256H12.3931V24.3949H20.1238V32.1256Z" fill="#F5F5F5"/>
<path d="M31.9183 23.4812L24.2615 21.4452C23.844 21.3433 23.4219 21.595 23.3131 22.0107L21.2771 29.6675C21.1665 30.0807 21.4117 30.5052 21.8249 30.6158C21.825 30.6159 21.8251 30.6159 21.8252 30.6159L29.482 32.6519C29.8952 32.7626 30.3197 32.5173 30.4303 32.1042C30.4304 32.1041 30.4304 32.1039 30.4304 32.1038L32.449 24.4296C32.5609 24.0216 32.3246 23.5993 31.9183 23.4812ZM29.6169 31.7471L22.1428 29.785L24.131 22.3153L31.6007 24.3034L29.6169 31.7471Z" fill="#F5F5F5"/>
<path d="M24.0961 17.7778C24.0171 17.6275 23.9125 17.492 23.7872 17.3775L21.612 15.0848L21.3553 14.8064C21.2908 14.7395 21.2193 14.6798 21.1421 14.628C21.064 14.5749 20.9747 14.5406 20.8811 14.528C20.6585 14.5124 20.4408 14.5988 20.2894 14.7629C20.2296 14.8363 20.1879 14.9227 20.1676 15.0152C20.1455 15.124 20.1353 15.2349 20.1372 15.3459C20.1372 15.472 20.1372 15.5808 20.1372 15.6721V18.8393C20.1459 18.9698 20.1531 19.0698 20.1589 19.1395C20.1622 19.2049 20.1755 19.2694 20.1981 19.3309C20.2404 19.4329 20.3243 19.5121 20.4287 19.5484C20.5346 19.5919 20.6534 19.5919 20.7593 19.5484C20.867 19.5178 20.953 19.4366 20.9899 19.3309C21.0225 19.1633 21.0342 18.9923 21.0247 18.8219V18.1998L22.7431 17.5254L23.152 17.9605L23.3391 18.1476C23.3924 18.2039 23.4523 18.2535 23.5175 18.2955C23.5664 18.3249 23.6215 18.3428 23.6784 18.3477C23.7423 18.3523 23.8064 18.3419 23.8655 18.3172C23.9677 18.2752 24.0502 18.1959 24.0961 18.0953C24.1394 17.9939 24.1394 17.8792 24.0961 17.7778ZM20.9855 17.4602L20.9246 15.4851L22.2471 16.9642L20.9855 17.4602Z" fill="#F5F5F5"/>
<path d="M17.3441 27.923C17.7585 27.7683 18.0304 27.3691 18.0228 26.9268C18.0232 26.7992 18.001 26.6725 17.9575 26.5526C17.9148 26.4337 17.8515 26.3232 17.7705 26.2263C17.6906 26.1298 17.595 26.0474 17.4877 25.9827C17.3542 25.9028 17.2064 25.8496 17.0526 25.8261C16.8669 25.7977 16.6793 25.7847 16.4914 25.7869H15.0471C14.8904 25.7699 14.7335 25.8169 14.612 25.9175C14.5128 26.0395 14.4659 26.1959 14.4815 26.3525V29.7633C14.4656 29.9192 14.5108 30.0751 14.6077 30.1983C14.729 30.3025 14.8882 30.3513 15.0471 30.3332H16.4349C16.6374 30.3269 16.8393 30.308 17.0396 30.2766C17.2038 30.2573 17.3647 30.2164 17.5181 30.1548C17.7329 30.0653 17.9162 29.9139 18.0445 29.7198C18.1756 29.5147 18.2437 29.2757 18.2403 29.0324C18.2503 28.4941 17.8724 28.0264 17.3441 27.923ZM15.4082 26.4874H16.1347C16.3878 26.4743 16.6409 26.5128 16.8786 26.6005C17.0431 26.6799 17.1405 26.8537 17.1222 27.0355C17.1232 27.138 17.0961 27.2388 17.0439 27.327C16.9841 27.4439 16.8811 27.5328 16.7568 27.575C16.5845 27.6248 16.4053 27.6468 16.226 27.6402H15.3864L15.4082 26.4874ZM17.305 28.9715C17.305 29.4181 16.9946 29.6414 16.374 29.6414H15.3864L15.4082 28.3189H16.3522C16.6028 28.3031 16.8528 28.3573 17.0744 28.4755C17.2341 28.5879 17.3219 28.7769 17.305 28.9715Z" fill="#F5F5F5"/>
<path d="M29.051 25.7608C28.9401 25.4863 28.7621 25.244 28.5333 25.056C28.2809 24.8455 27.9831 24.6966 27.6632 24.621C27.3802 24.5427 27.0847 24.5206 26.7931 24.5557C26.5127 24.5899 26.2429 24.6833 26.0014 24.8298C25.7515 24.9837 25.5366 25.1882 25.3705 25.4302C25.1835 25.7056 25.0465 26.012 24.966 26.3351C24.9094 26.5412 24.8744 26.7525 24.8615 26.9659C24.8503 27.1654 24.8634 27.3656 24.9007 27.5619C24.9358 27.7483 24.9942 27.9295 25.0747 28.1013C25.1584 28.2776 25.27 28.4393 25.4053 28.5799C25.5401 28.7179 25.6957 28.8339 25.8665 28.9236C26.0614 29.0249 26.2672 29.1037 26.4799 29.1585C26.7525 29.2368 27.0381 29.259 27.3195 29.2238C27.5566 29.1873 27.7835 29.1013 27.9852 28.9714C28.1519 28.8672 28.2991 28.7348 28.4202 28.5799C28.5232 28.4516 28.5987 28.3035 28.6421 28.1448C28.6726 28.0423 28.6584 27.9317 28.6029 27.8403C28.5501 27.7487 28.4621 27.6827 28.3593 27.6576C28.2588 27.6214 28.147 27.6359 28.0591 27.6967C27.9751 27.7656 27.903 27.8479 27.8459 27.9404C27.7109 28.137 27.5199 28.2885 27.2978 28.3754C27.0716 28.4492 26.8279 28.4492 26.6017 28.3754C26.3962 28.3355 26.2053 28.2408 26.0492 28.1013C25.8982 27.9295 25.804 27.7153 25.7795 27.4879C25.7503 27.1953 25.7784 26.8997 25.8621 26.6178C25.9397 26.181 26.1638 25.7836 26.4973 25.4911C26.776 25.2741 27.1425 25.2061 27.4805 25.3083C27.6867 25.3557 27.8734 25.465 28.0156 25.6216C28.1548 25.7951 28.2503 25.9995 28.294 26.2176C28.3162 26.3331 28.3558 26.4446 28.4115 26.5482C28.4676 26.6262 28.5519 26.6792 28.6464 26.6961C28.7459 26.7237 28.8524 26.7061 28.9379 26.6483C29.0263 26.5948 29.0903 26.509 29.1163 26.409C29.1621 26.1914 29.1393 25.9649 29.051 25.7608Z" fill="#F5F5F5"/>
</g>
<defs>
<clipPath id="clip0_402_2062">
<rect width="22" height="22" fill="white" transform="translate(11 11)"/>
</clipPath>
</defs>
</svg>
