<svg width="44" height="44" viewBox="0 0 44 44" fill="none" xmlns="http://www.w3.org/2000/svg">
<rect width="37.5833" height="37.5833" rx="5" fill="#848484"/>
<path d="M14.2299 25.1396H15.5349V22.8428H17.8317V21.5378H15.5349V19.2411H14.2299V21.5378H11.9332V22.8428H14.2299V25.1396ZM19.8413 24.2261H25.0873V22.9472H19.8413V24.2261ZM19.8413 21.4334H25.0873V20.1285H19.8413V21.4334ZM20.807 17.1792L22.3991 15.5871L23.9912 17.1792L24.9307 16.2396L23.3387 14.6476L24.9307 13.0555L23.9912 12.1159L22.3991 13.708L20.807 12.1159L19.8674 13.0555L21.4595 14.6476L19.8674 16.2396L20.807 17.1792ZM12.3247 15.3H17.4402V13.9951H12.3247V15.3ZM10.7326 27.9583C10.315 27.9583 9.94961 27.8017 9.63642 27.4885C9.32322 27.1753 9.16663 26.8099 9.16663 26.3924V10.7326C9.16663 10.315 9.32322 9.94964 9.63642 9.63645C9.94961 9.32325 10.315 9.16666 10.7326 9.16666H26.3923C26.8099 9.16666 27.1753 9.32325 27.4885 9.63645C27.8017 9.94964 27.9583 10.315 27.9583 10.7326V26.3924C27.9583 26.8099 27.8017 27.1753 27.4885 27.4885C27.1753 27.8017 26.8099 27.9583 26.3923 27.9583H10.7326ZM10.7326 26.3924H26.3923V10.7326H10.7326V26.3924Z" fill="white"/>
<mask id="mask0_1469_639" style="mask-type:alpha" maskUnits="userSpaceOnUse" x="20" y="20" width="24" height="24">
<circle cx="32.0833" cy="32.0833" r="11.9167" fill="#D9D9D9"/>
</mask>
<g mask="url(#mask0_1469_639)">
<path d="M62.6734 19.0366H12.7961V45.1314H62.6734V19.0366Z" fill="white"/>
<path d="M62.6324 18.9384H12.797V21.0026H62.6324V18.9384Z" fill="#727272"/>
<path d="M62.632 22.9761H12.7966V25.0403H62.632V22.9761Z" fill="#727272"/>
<path d="M62.632 27.0138H12.7966V29.078H62.632V27.0138Z" fill="#727272"/>
<path d="M62.632 31.0515H12.7966V33.1157H62.632V31.0515Z" fill="#727272"/>
<path d="M62.632 35.089H12.7966V37.1531H62.632V35.089Z" fill="#727272"/>
<path d="M62.632 39.1266H12.7966V41.1908H62.632V39.1266Z" fill="#727272"/>
<path d="M62.632 43.1644H12.7966V45.2285H62.632V43.1644Z" fill="#727272"/>
<path d="M32.6992 18.9381H12.7954V33.1162H32.6992V18.9381Z" fill="#585858"/>
</g>
</svg>
