<svg width="44" height="44" viewBox="0 0 44 44" fill="none" xmlns="http://www.w3.org/2000/svg">
<rect width="44" height="44" rx="5" fill="#3E3E3E"/>
<path d="M40.1729 21.9662C39.806 20.9483 37.5128 20.4393 37.5128 20.4393C37.1001 20.0691 37.5587 19.6527 37.5587 19.6527C37.7422 19.3751 38.1091 18.9586 38.1091 18.9586C37.5128 19.2363 36.8249 19.19 36.8249 19.19C36.6414 19.0512 36.9166 19.0049 36.9166 19.0049C38.5677 18.2646 38.3384 16.3674 38.3384 16.3674C37.788 16.8302 36.8707 16.6913 36.8707 16.6913C36.2286 16.5988 36.2286 16.0435 36.2286 16.0435C36.3204 15.3958 37.1918 15.1644 37.1918 15.1644C36.2286 13.8225 33.3851 14.239 33.3851 14.239C33.9813 12.2493 33.064 11.0463 33.064 11.0463C29.8994 14.1464 24.4416 14.3778 24.4416 14.3778C24.304 14.3778 23.983 14.1002 23.983 14.1002C23.4326 13.4986 23.7537 12.2493 23.7537 12.2493C23.295 12.5269 22.8823 13.6837 22.8823 13.6837C22.6071 14.0539 22.5154 13.4986 22.5154 13.4986C22.3319 12.0642 21.4146 11.4627 21.4146 11.4627C21.6439 12.2493 21.277 13.4986 21.277 13.4986C21.0936 13.8688 20.8643 13.73 20.8643 13.73C20.2222 13.4061 20.4056 12.4807 20.4056 12.4807C19.2132 13.1285 19.2132 14.239 19.2132 14.239C14.535 13.9614 11.5998 11 11.5998 11C10.9577 12.4807 11.3704 13.9151 11.3704 13.9151C10.5908 13.3598 9.53588 13.4986 9.53588 13.4986C10.4532 14.3778 9.39829 14.5629 9.39829 14.5629C7.38028 14.4703 6.87578 15.4883 6.87578 15.4883C7.24269 15.6271 7.56374 16.1361 7.56374 16.1361C7.88479 16.969 7.38028 17.2003 7.38028 17.2003C6.64646 17.5705 5.86678 16.3674 5.86678 16.3674C5.72918 18.8661 7.33442 19.2363 7.33442 19.2363C7.05924 19.5602 5.77505 19.3751 5.77505 19.3751C6.92164 19.9303 6.82992 20.4393 6.82992 20.4393C6.69233 20.9483 5.86678 20.902 5.86678 20.902C5.22468 20.9946 4.76604 21.411 4.76604 21.411C6.27955 21.8737 6.23369 22.9842 6.23369 22.9842C5.40814 23.7708 4.67432 22.8454 4.67432 22.8454C4.99536 24.7425 6.64646 24.9276 6.64646 24.9276C7.1051 25.2052 6.78405 25.3903 6.78405 25.3903C6.6006 25.6217 5.9585 26.2695 5.9585 26.2695C5.54573 26.6396 5.54573 27.6576 5.54573 27.6576C5.86678 27.2874 7.05924 27.0098 7.05924 27.0098C8.20583 26.9635 7.93065 27.9815 7.93065 27.9815C7.93065 28.4442 7.01337 29.3696 7.01337 29.3696C7.65547 29.7398 9.21484 29.7398 9.21484 29.7398C9.99452 29.7398 9.94866 30.0637 9.94866 30.0637C9.99452 30.7578 9.2607 31.6369 9.2607 31.6369C9.7652 31.1742 11.4622 30.804 11.4622 30.804C12.3336 30.7115 12.0584 31.1742 12.1043 31.1742C11.9208 32.2847 12.3336 33.2564 12.3794 33.3952C12.7464 32.2384 13.5719 31.822 13.6636 31.7757C14.3057 31.5444 14.214 32.0996 14.214 32.1922C14.3975 32.331 15.2689 32.8862 16.5989 32.5161C17.3327 32.331 18.2042 32.0071 18.9838 31.4056C19.3966 31.1279 19.9011 30.6652 20.4056 29.9711C20.6349 29.6473 20.9101 29.2771 21.1394 28.8144H21.1853C21.6439 28.0278 22.0109 27.0561 22.286 25.853C22.286 25.853 22.5612 27.2874 23.2492 28.8144H23.4326C23.4326 28.8144 24.5334 30.9428 26.0927 31.8683C27.8356 32.9325 28.5694 33.2564 30.0829 33.0713C30.3122 33.025 30.4498 33.025 30.4957 32.9788C30.4498 32.9325 30.4498 32.8862 30.4039 32.84C30.8626 32.1459 31.2753 32.4698 31.2753 32.4698C31.5047 32.6549 31.4588 33.025 31.4588 33.025C32.5595 32.5623 32.743 31.1742 32.743 31.1742C33.064 30.5727 33.5227 30.9428 33.5227 30.9428C34.0272 31.1742 34.2106 31.9608 34.2106 31.9608C34.6234 30.8966 34.3482 29.8323 34.3482 29.8323C34.2565 29.4159 34.5317 29.5547 34.5317 29.5547C36.5038 29.9712 37.0542 29.4622 37.0542 29.4622C36.3662 29.1383 36.2745 28.1203 36.2745 28.1203C36.3204 27.3337 37.0542 27.5188 37.0542 27.5188C37.788 27.6576 38.2008 28.1666 38.2008 28.1666C38.3384 26.9173 37.3294 25.8993 37.3294 25.8993C37.1918 25.4829 37.467 25.2978 37.467 25.2978C39.3474 24.6037 39.3474 23.5395 39.3474 23.5395C38.2467 23.7708 38.0173 22.8454 38.0173 22.8454C38.6594 21.5035 40.1729 21.9662 40.1729 21.9662Z" fill="#707070"/>
<path d="M22.378 23.9545C21.3232 24.3246 20.2683 26.3606 20.2683 26.3606C20.4059 28.304 22.3322 30.0623 22.378 30.1085C22.4239 30.0623 24.2585 28.304 24.3961 26.3606C24.3961 26.3606 23.387 24.3246 22.378 23.9545Z" fill="#424242"/>
<path d="M20.3151 26.7778C20.3151 26.7778 21.3241 24.927 22.3331 24.6031V30.1556C22.3789 30.1556 20.4527 28.5824 20.3151 26.7778Z" fill="#A2A2A2"/>
<path d="M24.3039 26.7778C24.3039 26.7778 23.3408 24.927 22.3318 24.6031V30.1556C22.3318 30.1556 24.1663 28.5361 24.3039 26.7778Z" fill="#A5A5A5"/>
<path d="M14.353 29.0919C17.7978 29.0919 20.5904 26.2745 20.5904 22.799C20.5904 19.3236 17.7978 16.5062 14.353 16.5062C10.9081 16.5062 8.11548 19.3236 8.11548 22.799C8.11548 26.2745 10.9081 29.0919 14.353 29.0919Z" fill="#424242"/>
<path d="M14.7185 29.1368C17.8341 29.1368 20.3598 26.4437 20.3598 23.1216C20.3598 19.7994 17.8341 17.1063 14.7185 17.1063C11.6029 17.1063 9.07727 19.7994 9.07727 23.1216C9.07727 26.4437 11.6029 29.1368 14.7185 29.1368Z" fill="#F2EEE3"/>
<path d="M30.4052 29.0919C33.8501 29.0919 36.6427 26.2745 36.6427 22.799C36.6427 19.3236 33.8501 16.5062 30.4052 16.5062C26.9603 16.5062 24.1677 19.3236 24.1677 22.799C24.1677 26.2745 26.9603 29.0919 30.4052 29.0919Z" fill="#424242"/>
<path d="M29.9918 29.1368C33.1074 29.1368 35.6331 26.4437 35.6331 23.1216C35.6331 19.7994 33.1074 17.1063 29.9918 17.1063C26.8763 17.1063 24.3506 19.7994 24.3506 23.1216C24.3506 26.4437 26.8763 29.1368 29.9918 29.1368Z" fill="#F2EEE3"/>
<path d="M16.0029 26.871C17.8266 26.871 19.3051 25.3794 19.3051 23.5394C19.3051 21.6995 17.8266 20.2079 16.0029 20.2079C14.1791 20.2079 12.7007 21.6995 12.7007 23.5394C12.7007 25.3794 14.1791 26.871 16.0029 26.871Z" fill="#C0C0C0"/>
<path d="M16.0031 25.9917C17.371 25.9917 18.4798 24.873 18.4798 23.493C18.4798 22.1131 17.371 20.9944 16.0031 20.9944C14.6353 20.9944 13.5265 22.1131 13.5265 23.493C13.5265 24.873 14.6353 25.9917 16.0031 25.9917Z" fill="#201E1E"/>
<path d="M14.6267 22.7057C15.0573 22.7057 15.4064 22.3535 15.4064 21.9191C15.4064 21.4846 15.0573 21.1324 14.6267 21.1324C14.1961 21.1324 13.847 21.4846 13.847 21.9191C13.847 22.3535 14.1961 22.7057 14.6267 22.7057Z" fill="#FEFEFE"/>
<path d="M28.8905 26.871C30.7142 26.871 32.1926 25.3794 32.1926 23.5394C32.1926 21.6995 30.7142 20.2079 28.8905 20.2079C27.0667 20.2079 25.5883 21.6995 25.5883 23.5394C25.5883 25.3794 27.0667 26.871 28.8905 26.871Z" fill="#C0C0C0"/>
<path d="M28.9371 26.0365C30.3049 26.0365 31.4137 24.9178 31.4137 23.5378C31.4137 22.1579 30.3049 21.0392 28.9371 21.0392C27.5693 21.0392 26.4604 22.1579 26.4604 23.5378C26.4604 24.9178 27.5693 26.0365 28.9371 26.0365Z" fill="#201E1E"/>
<path d="M27.5607 22.7057C27.9913 22.7057 28.3404 22.3535 28.3404 21.9191C28.3404 21.4846 27.9913 21.1324 27.5607 21.1324C27.1301 21.1324 26.781 21.4846 26.781 21.9191C26.781 22.3535 27.1301 22.7057 27.5607 22.7057Z" fill="#FEFEFE"/>
<path d="M16.8749 32.4235C16.8749 32.4235 15.6366 32.8862 14.1689 32.0996C14.1689 32.0996 13.0682 31.6369 12.4261 33.5803C12.3802 33.5803 11.6464 32.9325 11.9216 31.3593C11.9216 31.3593 12.105 30.9428 11.2795 31.0354C11.2795 31.0354 9.30735 31.6832 9.03217 32.0534C9.03217 32.0534 9.76599 30.9428 9.72013 30.2025C9.72013 30.2025 9.72013 29.9249 8.9863 29.9712C8.9863 29.9712 7.42693 29.9712 6.78484 29.5084C6.87657 29.5084 7.70212 28.7681 7.79384 28.1203C7.79384 28.1203 7.9773 27.1486 7.10589 27.1949C7.10589 27.1949 6.05102 27.1949 5.40892 27.8427C5.40892 27.8427 5.1796 26.5471 6.60138 25.4829C6.60138 25.4829 6.92243 25.2978 6.55552 25.1127C6.55552 25.1127 4.95028 24.6037 4.58337 22.7066C4.58337 22.7066 5.22547 23.5395 5.86756 23.2156C5.86756 23.2156 6.00515 23.1693 6.05102 22.9842C6.05102 22.9842 6.00515 21.8737 4.58337 21.411C4.58337 21.411 5.04201 20.902 6.09688 20.8095C6.09688 20.8095 6.8307 20.5781 6.46379 20.0691C6.46379 20.0691 5.95929 19.5139 5.63824 19.3288C5.63824 19.3288 6.78484 19.3751 7.15175 19.1437C7.10589 19.1437 5.54651 18.9586 5.8217 16.2749C5.8217 16.2749 6.96829 17.9407 7.4728 16.7839C7.42693 16.6913 7.65625 15.9973 6.64725 15.442C6.64725 15.442 7.28934 14.4241 9.21562 14.3778C9.21562 14.3778 10.1329 14.1464 9.35321 13.3598C9.35321 13.3598 10.6374 13.1285 11.1878 13.6837C11.1878 13.6375 10.9584 12.5269 11.5547 11C11.5547 11 11.3712 13.7763 11.784 14.8405C11.7381 14.7942 11.096 13.9151 10.2705 13.5912C10.2705 13.5912 10.6833 15.0256 9.21562 15.0719C9.21562 15.0719 8.02316 14.8405 7.4728 15.3032C7.4728 15.3032 8.34421 16.9227 7.65625 17.6168C7.65625 17.6168 7.01416 18.172 6.23447 17.3854C6.23447 17.3854 6.14275 18.681 7.83971 19.0512C7.83971 19.0512 7.56452 19.7452 6.69311 19.7452C6.69311 19.7452 7.42693 20.4393 6.87657 20.9946C6.87657 20.9946 6.3262 21.4573 5.63824 21.4573C5.63824 21.4573 6.8307 22.1513 6.69311 23.2618C6.69311 23.2618 6.3262 24.141 5.3172 23.8171C5.3172 23.8171 5.95929 24.3723 7.01416 24.7425C7.01416 24.7425 7.65625 25.159 7.38107 25.6217C7.38107 25.6217 6.37206 25.9918 6.09688 27.0098C6.09688 27.0098 7.56452 26.2695 8.25248 26.8247C8.25248 26.8247 8.71112 28.1666 7.61039 29.2771C7.61039 29.2771 9.76599 29.6473 10.6374 29.5084C10.6374 29.5084 10.3622 30.7115 10.1329 31.0354C10.2705 30.9891 11.8757 30.295 12.8847 30.5264C12.8847 30.5264 12.1509 31.9608 12.2426 32.4698C12.2426 32.4698 13.5268 31.1279 14.5817 31.313C14.6276 31.2667 14.2606 32.0996 16.8749 32.4235Z" fill="#424242"/>
<path d="M27.7449 32.6549C27.7449 32.6549 28.6621 33.4415 30.6343 32.9788C30.6343 32.9788 30.9095 32.8862 31.0929 32.7474C31.0929 32.7474 31.4598 32.4235 31.4598 33.0713C31.4598 33.0713 32.7899 32.7937 32.9734 31.3593C32.9734 31.3593 33.0651 30.804 33.6613 31.2205C33.6613 31.2205 33.9824 31.4981 34.1658 32.2384C34.1658 32.2384 34.8996 31.0354 34.5327 29.8786C34.5327 29.8786 34.5327 29.6473 34.762 29.6935C34.762 29.6935 36.459 30.2025 37.2387 29.5084C37.2387 29.5084 36.3214 28.9995 36.5507 27.7964C36.5507 27.7964 36.7342 27.4262 37.4221 27.6576C37.4221 27.6576 38.156 27.9352 38.2477 28.3054C38.2477 28.3054 38.5229 26.9173 37.468 25.8993C37.468 25.8993 37.1928 25.5754 37.6515 25.344C37.6515 25.344 39.2108 24.6962 39.4402 23.4932C39.4402 23.4932 38.477 23.9096 38.1101 22.8917C38.1101 22.8917 38.6146 21.5961 40.174 22.0125C40.174 22.0125 39.7153 20.8557 37.5597 20.4393C37.5597 20.4393 37.147 20.3005 37.5597 19.699L38.2477 18.8198C38.2477 18.8198 37.2846 19.3288 36.8259 19.0974C36.8259 19.0974 36.6883 19.0512 36.9176 18.9586C36.9176 18.9586 38.477 18.2646 38.2936 16.1824C38.2936 16.1824 36.9176 17.2003 36.2755 16.2286C36.2755 16.2286 36.0462 15.6271 37.3304 15.0719C37.3304 15.0719 36.7342 13.7763 33.4779 14.1464C33.4779 14.1464 34.0282 12.3419 32.9734 11C32.9734 11 33.8448 13.8688 32.744 14.8868C32.744 14.8868 34.8079 14.0076 36.8259 14.9793C36.8259 14.9793 35.5876 14.9793 36.0004 16.5525C36.0004 16.5525 36.459 17.2929 37.9266 16.969C37.9266 16.969 37.147 18.5422 36.2297 19.0974C36.2297 19.0974 36.9176 19.5139 37.3763 19.4676C37.3304 19.5602 36.7801 20.4393 36.5966 20.5318C36.5966 20.5318 38.0184 20.7169 38.9815 21.5035C38.9815 21.5035 38.0642 21.7349 37.6515 22.9842C37.6515 22.9842 38.156 23.9096 38.6605 24.0484C38.6605 24.0022 37.6056 25.0664 36.7342 25.344C36.7801 25.4366 37.7432 27.0098 37.9266 27.6113C37.9266 27.6113 37.147 26.9173 36.1838 27.4725C36.1838 27.4725 35.8169 28.583 36.2755 29.4159C36.2755 29.4159 35.0372 29.5547 34.1199 29.1845C34.1199 29.1845 34.2117 30.8503 34.0741 31.2667C34.0741 31.2667 33.2944 30.5727 32.5606 30.6652C32.5606 30.6652 32.423 32.1459 31.8726 32.331C31.8726 32.331 31.5516 31.9145 31.1388 31.7757C31.3681 31.7757 29.9463 33.2101 27.7449 32.6549Z" fill="#424242"/>
</svg>
