<svg width="200" height="28" viewBox="0 0 200 28" fill="none" xmlns="http://www.w3.org/2000/svg">
<path d="M43.8891 13.5984C43.4366 12.3361 40.6087 11.7049 40.6087 11.7049C40.0997 11.2459 40.6653 10.7295 40.6653 10.7295C40.8915 10.3852 41.344 9.86885 41.344 9.86885C40.6087 10.2131 39.7603 10.1557 39.7603 10.1557C39.5341 9.98361 39.8735 9.92623 39.8735 9.92623C41.9095 9.0082 41.6267 6.65574 41.6267 6.65574C40.9481 7.22951 39.8169 7.05738 39.8169 7.05738C39.0251 6.94262 39.0251 6.2541 39.0251 6.2541C39.1382 5.45082 40.2128 5.16393 40.2128 5.16393C39.0251 3.5 35.5185 4.01639 35.5185 4.01639C36.2537 1.54918 35.1226 0.057377 35.1226 0.057377C31.2201 3.90164 24.4897 4.18852 24.4897 4.18852C24.32 4.18852 23.9241 3.84426 23.9241 3.84426C23.2454 3.09836 23.6413 1.54918 23.6413 1.54918C23.0758 1.89344 22.5667 3.32787 22.5667 3.32787C22.2274 3.78689 22.1143 3.09836 22.1143 3.09836C21.888 1.31967 20.7569 0.57377 20.7569 0.57377C21.0397 1.54918 20.5872 3.09836 20.5872 3.09836C20.361 3.55738 20.0782 3.38525 20.0782 3.38525C19.2864 2.98361 19.5126 1.83607 19.5126 1.83607C18.0421 2.63934 18.0421 4.01639 18.0421 4.01639C12.2732 3.67213 8.65351 0 8.65351 0C7.8617 1.83607 8.37072 3.61475 8.37072 3.61475C7.40923 2.92623 6.1084 3.09836 6.1084 3.09836C7.23956 4.18852 5.93873 4.41803 5.93873 4.41803C3.45018 4.30328 2.82804 5.56557 2.82804 5.56557C3.28051 5.7377 3.67641 6.36885 3.67641 6.36885C4.07232 7.40164 3.45018 7.68852 3.45018 7.68852C2.54525 8.14754 1.58377 6.65574 1.58377 6.65574C1.4141 9.7541 3.39362 10.2131 3.39362 10.2131C3.05428 10.6148 1.47065 10.3852 1.47065 10.3852C2.8846 11.0738 2.77149 11.7049 2.77149 11.7049C2.60181 12.3361 1.58377 12.2787 1.58377 12.2787C0.79196 12.3934 0.226382 12.9098 0.226382 12.9098C2.09279 13.4836 2.03623 14.8607 2.03623 14.8607C1.01819 15.8361 0.113266 14.6885 0.113266 14.6885C0.509171 17.041 2.54525 17.2705 2.54525 17.2705C3.11083 17.6148 2.71493 17.8443 2.71493 17.8443C2.4887 18.1311 1.69689 18.9344 1.69689 18.9344C1.18787 19.3934 1.18787 20.6557 1.18787 20.6557C1.58377 20.1967 3.05428 19.8525 3.05428 19.8525C4.46822 19.7951 4.12888 21.0574 4.12888 21.0574C4.12888 21.6311 2.99772 22.7787 2.99772 22.7787C3.78953 23.2377 5.7125 23.2377 5.7125 23.2377C6.67398 23.2377 6.61742 23.6393 6.61742 23.6393C6.67398 24.5 5.76905 25.5902 5.76905 25.5902C6.39119 25.0164 8.48383 24.5574 8.48383 24.5574C9.55843 24.4426 9.21908 25.0164 9.27564 25.0164C9.04941 26.3934 9.55843 27.5984 9.61499 27.7705C10.0675 26.3361 11.0855 25.8197 11.1986 25.7623C11.9904 25.4754 11.8773 26.1639 11.8773 26.2787C12.1035 26.4508 13.1781 27.1393 14.8183 26.6803C15.7232 26.4508 16.7978 26.0492 17.7593 25.3033C18.2683 24.959 18.8905 24.3852 19.5126 23.5246C19.7954 23.1229 20.1348 22.6639 20.4175 22.0902H20.4741C21.0397 21.1148 21.4921 19.9098 21.8315 18.418C21.8315 18.418 22.1708 20.1967 23.0192 22.0902H23.2454C23.2454 22.0902 24.6028 24.7295 26.5258 25.877C28.675 27.1967 29.5799 27.5984 31.4463 27.3689C31.7291 27.3115 31.8988 27.3115 31.9553 27.2541C31.8988 27.1967 31.8988 27.1393 31.8422 27.082C32.4078 26.2213 32.9168 26.623 32.9168 26.623C33.1996 26.8525 33.1431 27.3115 33.1431 27.3115C34.5005 26.7377 34.7267 25.0164 34.7267 25.0164C35.1226 24.2705 35.6882 24.7295 35.6882 24.7295C36.3103 25.0164 36.5365 25.9918 36.5365 25.9918C37.0456 24.6721 36.7062 23.3525 36.7062 23.3525C36.5931 22.8361 36.9324 23.0082 36.9324 23.0082C39.3644 23.5246 40.0431 22.8934 40.0431 22.8934C39.1948 22.4918 39.0816 21.2295 39.0816 21.2295C39.1382 20.2541 40.0431 20.4836 40.0431 20.4836C40.9481 20.6557 41.4571 21.2869 41.4571 21.2869C41.6268 19.7377 40.3825 18.4754 40.3825 18.4754C40.2128 17.959 40.5521 17.7295 40.5521 17.7295C42.871 16.8689 42.871 15.5492 42.871 15.5492C41.5136 15.8361 41.2308 14.6885 41.2308 14.6885C42.0227 13.0246 43.8891 13.5984 43.8891 13.5984Z" fill="#225054"/>
<path d="M21.944 16.0637C20.6432 16.5227 19.3424 19.0473 19.3424 19.0473C19.512 21.4572 21.8875 23.6375 21.944 23.6949C22.0006 23.6375 24.2629 21.4572 24.4326 19.0473C24.4326 19.0473 23.1883 16.5227 21.944 16.0637Z" fill="#225054"/>
<path d="M19.3996 19.5648C19.3996 19.5648 20.6438 17.2697 21.8881 16.868V23.7533C21.9447 23.7533 19.5692 21.8025 19.3996 19.5648Z" fill="#FF9F43"/>
<path d="M24.3194 19.5648C24.3194 19.5648 23.1316 17.2697 21.8874 16.868V23.7533C21.8874 23.7533 24.1497 21.7451 24.3194 19.5648Z" fill="#E9934C"/>
<path d="M12.0475 22.4342C16.2956 22.4342 19.7394 18.9405 19.7394 14.6309C19.7394 10.3213 16.2956 6.82764 12.0475 6.82764C7.79941 6.82764 4.35564 10.3213 4.35564 14.6309C4.35564 18.9405 7.79941 22.4342 12.0475 22.4342Z" fill="#225054"/>
<path d="M12.4987 22.49C16.3407 22.49 19.4553 19.1505 19.4553 15.031C19.4553 10.9115 16.3407 7.57199 12.4987 7.57199C8.65667 7.57199 5.5421 10.9115 5.5421 15.031C5.5421 19.1505 8.65667 22.49 12.4987 22.49Z" fill="white"/>
<path d="M31.8426 22.4342C36.0907 22.4342 39.5345 18.9405 39.5345 14.6309C39.5345 10.3213 36.0907 6.82764 31.8426 6.82764C27.5945 6.82764 24.1507 10.3213 24.1507 14.6309C24.1507 18.9405 27.5945 22.4342 31.8426 22.4342Z" fill="#225054"/>
<path d="M31.3329 22.49C35.1749 22.49 38.2895 19.1505 38.2895 15.031C38.2895 10.9115 35.1749 7.57199 31.3329 7.57199C27.4908 7.57199 24.3763 10.9115 24.3763 15.031C24.3763 19.1505 27.4908 22.49 31.3329 22.49Z" fill="white"/>
<path d="M14.0821 19.6802C16.3311 19.6802 18.1543 17.8306 18.1543 15.549C18.1543 13.2675 16.3311 11.4179 14.0821 11.4179C11.8331 11.4179 10.01 13.2675 10.01 15.549C10.01 17.8306 11.8331 19.6802 14.0821 19.6802Z" fill="#FF9F43"/>
<path d="M14.0822 18.5901C15.769 18.5901 17.1364 17.2029 17.1364 15.4917C17.1364 13.7806 15.769 12.3934 14.0822 12.3934C12.3955 12.3934 11.0281 13.7806 11.0281 15.4917C11.0281 17.2029 12.3955 18.5901 14.0822 18.5901Z" fill="#201E1E"/>
<path d="M12.3851 14.5151C12.9161 14.5151 13.3466 14.0784 13.3466 13.5397C13.3466 13.001 12.9161 12.5643 12.3851 12.5643C11.8541 12.5643 11.4236 13.001 11.4236 13.5397C11.4236 14.0784 11.8541 14.5151 12.3851 14.5151Z" fill="white"/>
<path d="M29.9748 19.6802C32.2238 19.6802 34.0469 17.8306 34.0469 15.549C34.0469 13.2675 32.2238 11.4179 29.9748 11.4179C27.7258 11.4179 25.9026 13.2675 25.9026 15.549C25.9026 17.8306 27.7258 19.6802 29.9748 19.6802Z" fill="#FF9F43"/>
<path d="M30.032 18.6454C31.7187 18.6454 33.0861 17.2582 33.0861 15.547C33.0861 13.8359 31.7187 12.4487 30.032 12.4487C28.3452 12.4487 26.9779 13.8359 26.9779 15.547C26.9779 17.2582 28.3452 18.6454 30.032 18.6454Z" fill="#201E1E"/>
<path d="M28.3354 14.5151C28.8664 14.5151 29.2968 14.0784 29.2968 13.5397C29.2968 13.001 28.8664 12.5643 28.3354 12.5643C27.8044 12.5643 27.3739 13.001 27.3739 13.5397C27.3739 14.0784 27.8044 14.5151 28.3354 14.5151Z" fill="white"/>
<path d="M15.1575 26.5656C15.1575 26.5656 13.6304 27.1393 11.8206 26.1639C11.8206 26.1639 10.4632 25.5902 9.67139 28C9.61483 28 8.70991 27.1967 9.04926 25.2459C9.04926 25.2459 9.27549 24.7295 8.25745 24.8443C8.25745 24.8443 5.82546 25.6475 5.48611 26.1066C5.48611 26.1066 6.39104 24.7295 6.33448 23.8115C6.33448 23.8115 6.33448 23.4672 5.42955 23.5246C5.42955 23.5246 3.50659 23.5246 2.71478 22.9508C2.82789 22.9508 3.84593 22.0328 3.95905 21.2295C3.95905 21.2295 4.18528 20.0246 3.11068 20.082C3.11068 20.082 1.80985 20.082 1.01804 20.8852C1.01804 20.8852 0.735252 19.2787 2.48855 17.959C2.48855 17.959 2.88445 17.7295 2.43199 17.5C2.43199 17.5 0.452463 16.8689 0 14.5164C0 14.5164 0.79181 15.5492 1.58362 15.1475C1.58362 15.1475 1.75329 15.0902 1.80985 14.8607C1.80985 14.8607 1.75329 13.4836 0 12.9098C0 12.9098 0.565578 12.2787 1.86641 12.1639C1.86641 12.1639 2.77133 11.877 2.31887 11.2459C2.31887 11.2459 1.69674 10.5574 1.30083 10.3279C1.30083 10.3279 2.71478 10.3852 3.16724 10.0984C3.11068 10.0984 1.18771 9.86885 1.52706 6.54098C1.52706 6.54098 2.94101 8.60656 3.56314 7.17213C3.50659 7.05738 3.78938 6.19672 2.5451 5.5082C2.5451 5.5082 3.33691 4.2459 5.71234 4.18852C5.71234 4.18852 6.8435 3.90164 5.88202 2.92623C5.88202 2.92623 7.46564 2.63934 8.14433 3.32787C8.14433 3.27049 7.86154 1.89344 8.59679 0C8.59679 0 8.37056 3.44262 8.87958 4.76229C8.82302 4.70492 8.03121 3.61475 7.01317 3.21311C7.01317 3.21311 7.52219 4.9918 5.71234 5.04918C5.71234 5.04918 4.24184 4.76229 3.56314 5.33606C3.56314 5.33606 4.63774 7.34426 3.78938 8.20492C3.78938 8.20492 2.99757 8.89344 2.03608 7.91803C2.03608 7.91803 1.92297 9.52459 4.01561 9.98361C4.01561 9.98361 3.67626 10.8443 2.60166 10.8443C2.60166 10.8443 3.50659 11.7049 2.82789 12.3934C2.82789 12.3934 2.1492 12.9672 1.30083 12.9672C1.30083 12.9672 2.77133 13.8279 2.60166 15.2049C2.60166 15.2049 2.1492 16.2951 0.904926 15.8934C0.904926 15.8934 1.69674 16.582 2.99757 17.041C2.99757 17.041 3.78938 17.5574 3.45003 18.1311C3.45003 18.1311 2.20576 18.5902 1.86641 19.8525C1.86641 19.8525 3.67626 18.9344 4.52463 19.623C4.52463 19.623 5.09021 21.2869 3.73282 22.6639C3.73282 22.6639 6.39104 23.1229 7.46564 22.9508C7.46564 22.9508 7.12629 24.4426 6.8435 24.8443C7.01317 24.7869 8.9927 23.9262 10.237 24.2131C10.237 24.2131 9.33205 25.9918 9.44516 26.623C9.44516 26.623 11.0288 24.959 12.3296 25.1885C12.3862 25.1311 11.9337 26.1639 15.1575 26.5656Z" fill="#173C3F"/>
<path d="M28.5625 26.8525C28.5625 26.8525 29.6937 27.8279 32.1256 27.2541C32.1256 27.2541 32.465 27.1393 32.6912 26.9672C32.6912 26.9672 33.1437 26.5656 33.1437 27.3688C33.1437 27.3688 34.7839 27.0246 35.0101 25.2459C35.0101 25.2459 35.1232 24.5574 35.8585 25.0738C35.8585 25.0738 36.2544 25.418 36.4806 26.3361C36.4806 26.3361 37.3855 24.8443 36.9331 23.4098C36.9331 23.4098 36.9331 23.1229 37.2158 23.1803C37.2158 23.1803 39.3085 23.8115 40.27 22.9508C40.27 22.9508 39.1388 22.3197 39.4216 20.8279C39.4216 20.8279 39.6478 20.3688 40.4962 20.6557C40.4962 20.6557 41.4011 21 41.5142 21.459C41.5142 21.459 41.8536 19.7377 40.5528 18.4754C40.5528 18.4754 40.2134 18.0738 40.779 17.7869C40.779 17.7869 42.702 16.9836 42.9847 15.4918C42.9847 15.4918 41.797 16.0082 41.3446 14.7459C41.3446 14.7459 41.9667 13.1393 43.8897 13.6557C43.8897 13.6557 43.3241 12.2213 40.6659 11.7049C40.6659 11.7049 40.1569 11.5328 40.6659 10.7869L41.5142 9.69672C41.5142 9.69672 40.3265 10.3279 39.7609 10.041C39.7609 10.041 39.5913 9.9836 39.8741 9.86885C39.8741 9.86885 41.797 9.00819 41.5708 6.42623C41.5708 6.42623 39.8741 7.68852 39.0823 6.4836C39.0823 6.4836 38.7995 5.7377 40.3831 5.04918C40.3831 5.04918 39.6478 3.44262 35.6322 3.90164C35.6322 3.90164 36.3109 1.66393 35.0101 0C35.0101 0 36.0847 3.55738 34.7273 4.81967C34.7273 4.81967 37.2724 3.72951 39.7609 4.93442C39.7609 4.93442 38.2339 4.93442 38.7429 6.88524C38.7429 6.88524 39.3085 7.80328 41.1183 7.40164C41.1183 7.40164 40.1569 9.35246 39.0257 10.041C39.0257 10.041 39.8741 10.5574 40.4396 10.5C40.3831 10.6148 39.7044 11.7049 39.4782 11.8197C39.4782 11.8197 41.2315 12.0492 42.4192 13.0246C42.4192 13.0246 41.288 13.3115 40.779 14.8607C40.779 14.8607 41.4011 16.0082 42.0233 16.1803C42.0233 16.1229 40.7224 17.4426 39.6478 17.7869C39.7044 17.9016 40.8921 19.8525 41.1183 20.5984C41.1183 20.5984 40.1569 19.7377 38.9691 20.4262C38.9691 20.4262 38.5167 21.8033 39.0823 22.8361C39.0823 22.8361 37.5552 23.0082 36.424 22.5492C36.424 22.5492 36.5372 24.6147 36.3675 25.1311C36.3675 25.1311 35.406 24.2705 34.5011 24.3852C34.5011 24.3852 34.3314 26.2213 33.6527 26.4508C33.6527 26.4508 33.2568 25.9344 32.7478 25.7623C33.0306 25.7623 31.2773 27.541 28.5625 26.8525Z" fill="#173C3F"/>
<path d="M56.4751 8.88463C55.5399 8.87679 54.5352 8.9865 53.6542 9.33148C53.6542 9.33148 49.1329 11.1035 48.7233 16.1057C48.7233 16.1057 48.1668 20.2454 50.0139 22.9347C50.0139 22.9347 51.4361 25.3575 54.4657 26.0553C54.4657 26.0553 60.6871 27.8664 63.9485 22.1507C63.9485 22.1507 64.2269 21.641 63.8791 21.2254L61.9624 20.0416C61.9624 20.0416 61.4292 19.8064 61.0195 20.4102C61.0195 20.4102 60.1462 22.0645 58.6623 22.5741C58.6623 22.5741 56.5832 23.3425 54.8675 22.5741C54.8675 22.5741 52.5643 21.8057 52.2319 18.0344H63.8405C63.8405 18.0344 64.4122 18.0815 64.5049 17.3994C64.5049 17.3994 64.8993 11.1348 59.8216 9.33929C59.7984 9.33145 58.2604 8.89248 56.4751 8.88463ZM56.7377 12.0443C58.098 12.0286 58.9715 12.5069 58.9715 12.5069C60.9113 13.4399 60.865 15.5883 60.865 15.5883H52.433C53.0899 13.095 54.4503 12.5305 54.4503 12.5305C55.2927 12.1776 56.0731 12.0521 56.7377 12.0443Z" fill="#225054"/>
<path d="M78.9491 1.48236C78.9491 1.48236 78.5007 1.50591 78.4002 2.10179V12.0278C78.4002 12.0278 77.6043 9.98932 75.6258 9.27584C75.6258 9.27584 73.0676 8.3898 70.7955 9.29145C70.7955 9.29145 67.9744 10.0912 66.6682 14.6622C66.6682 14.6622 65.9651 16.9517 66.5834 20.3309C66.5834 20.3309 67.1166 23.7415 70.3471 25.6781C70.3471 25.6781 72.6501 27.0894 76.0198 25.6781C76.0198 25.6781 77.4882 25.0979 78.4156 23.5611V24.9802C78.4156 24.9802 78.3846 25.5212 78.9334 25.6075H81.3371C81.3371 25.6075 81.8857 25.5213 81.8702 24.9254V2.12522C81.8702 2.12522 81.8705 1.62349 81.2676 1.48236H78.9491ZM74.2036 12.1218C76.6458 12.1218 78.6242 14.6073 78.6242 17.6808C78.6242 20.7542 76.6458 23.2397 74.2036 23.2397C71.7613 23.2397 69.7829 20.7542 69.7829 17.6808C69.7829 14.6073 71.7613 12.1218 74.2036 12.1218Z" fill="#225054"/>
<path d="M85.1188 9.42443H87.3371C87.3371 9.42443 87.9012 9.3539 87.9708 10.0831L87.994 19.5387C87.994 19.5387 88.0402 22.228 90.2815 22.816C90.2815 22.816 91.9817 23.2473 93.4656 22.816C93.4656 22.816 95.7612 22.2986 95.7766 19.5152V10.0988C95.7766 10.0988 95.7071 9.44795 96.3563 9.42443H98.6051C98.6051 9.42443 99.2697 9.36174 99.3007 10.0047V18.449C99.3007 18.449 99.3164 23.553 96.3022 25.2544C96.3022 25.2544 92.3142 27.5987 87.4066 25.2544C87.4066 25.2544 84.9488 24.243 84.5391 19.2172V10.0204C84.5314 10.0204 84.5391 9.44795 85.1188 9.42443Z" fill="#225054"/>
<path d="M113.706 12.5934V10.1787C113.706 10.1787 113.744 9.83368 113.211 9.59063C113.211 9.59063 109.517 7.79516 105.366 9.86505C105.366 9.86505 102.422 11.1743 101.51 14.8202C101.51 14.8202 100.753 18.0113 101.51 20.3321C101.51 20.3321 102.36 24.1739 105.791 25.5538C105.791 25.5538 108.875 27.2239 113.273 25.4284C113.273 25.4284 113.721 25.3107 113.713 24.7854V22.4333C113.713 22.4333 113.559 21.7041 112.879 21.8766C112.879 21.8766 112.67 21.9393 112.43 22.1118C112.43 22.1118 111.626 22.7078 110.66 22.8411C110.66 22.8411 108.651 23.2174 107.237 22.3706C107.237 22.3706 105.235 21.6101 104.802 18.2544C104.802 18.2544 104.648 16.8587 104.802 16.2785C104.802 16.2785 105.251 13.0169 108.164 12.3348C108.164 12.3348 109.64 11.9349 111.449 12.3896C111.449 12.3896 112.361 12.7659 112.662 13.0247C112.655 13.0247 113.381 13.4873 113.706 12.5934Z" fill="#225054"/>
<path d="M121.542 8.93036C120.808 8.93036 119.997 9.02438 119.216 9.338C119.216 9.338 116.403 10.1377 115.097 14.7087C115.097 14.7087 114.393 16.9982 115.012 20.3775C115.012 20.3775 115.545 23.788 118.775 25.7246C118.775 25.7246 121.078 27.1359 124.44 25.7246C124.44 25.7246 125.909 25.1444 126.836 23.6077V25.0268C126.836 25.0268 126.805 25.5678 127.354 25.654H129.758C129.758 25.654 130.306 25.5678 130.291 24.972V10.0594C130.291 10.0594 130.291 9.55754 129.688 9.41641H127.354C127.354 9.41641 126.906 9.43996 126.805 10.0358V12.0744C126.805 12.0744 126.009 10.0359 124.039 9.32238C124.046 9.32238 122.941 8.9382 121.542 8.93036ZM122.609 12.1684C125.051 12.1684 127.029 14.6539 127.029 17.7273C127.029 20.793 125.051 23.2863 122.609 23.2863C120.167 23.2863 118.188 20.8008 118.188 17.7273C118.188 14.6617 120.167 12.1684 122.609 12.1684Z" fill="#225054"/>
<path d="M145.075 12.5843V10.1693C145.075 10.1693 145.114 9.82435 144.581 9.58129C144.581 9.58129 140.887 7.78582 136.736 9.85571C136.736 9.85571 133.792 11.1652 132.88 14.811C132.88 14.811 132.122 18.002 132.88 20.3228C132.88 20.3228 133.73 24.1647 137.161 25.5446C137.161 25.5446 140.245 27.2145 144.643 25.4191C144.643 25.4191 145.091 25.3015 145.083 24.7762V22.4241C145.083 22.4241 144.929 21.6949 144.248 21.8674C144.248 21.8674 144.04 21.9301 143.8 22.1026C143.8 22.1026 142.997 22.6984 142.03 22.8317C142.03 22.8317 140.021 23.2081 138.607 22.3613C138.607 22.3613 136.605 21.6008 136.172 18.245C136.172 18.245 136.018 16.8495 136.172 16.2771C136.172 16.2771 136.62 13.0155 139.534 12.3334C139.534 12.3334 141.01 11.9335 142.819 12.3882C142.819 12.3882 143.731 12.7646 144.032 13.0233C144.017 13.0155 144.751 13.4702 145.075 12.5843Z" fill="#DF2B3C"/>
<path fill-rule="evenodd" clip-rule="evenodd" d="M165.826 8.85187C161.15 8.85187 157.363 12.7878 157.363 17.6332C157.363 22.4786 161.15 26.4146 165.826 26.4146C170.501 26.4146 174.288 22.4786 174.288 17.6332C174.288 12.7878 170.501 8.85187 165.826 8.85187ZM165.826 12.1449C168.476 12.1449 170.625 14.6068 170.625 17.641C170.625 20.6753 168.476 23.1372 165.826 23.1372C163.175 23.1372 161.026 20.6753 161.026 17.641C161.026 14.6068 163.175 12.1449 165.826 12.1449Z" fill="#DF2B3C"/>
<path d="M147.456 10.7332V25.5204C147.456 25.5204 147.409 26.2495 148.182 26.2808H150.416C150.416 26.2808 150.964 26.2809 151.026 25.6302V18.1347C151.026 18.1347 150.972 14.1125 152.827 13.007C152.827 13.007 153.925 12.3953 155.695 12.952C155.695 12.952 156.282 13.2108 156.622 12.8266L157.449 10.843C157.449 10.843 157.634 10.0903 157.109 9.95701C157.109 9.95701 154.566 8.73383 152.541 10.3255C152.541 10.3255 151.529 11.0546 151.065 12.5914V10.7097C151.065 10.7097 151.088 10.0511 150.447 10.0432H148.074C148.066 10.0511 147.579 10.0511 147.456 10.7332Z" fill="#DF2B3C"/>
<path d="M183.425 12.7171C183.425 12.7171 183.742 13.1484 184.383 12.8191L185.79 11.7371C185.79 11.7371 186.169 11.3922 185.875 10.9218C185.875 10.9218 184.793 9.10276 182.25 8.89107C182.25 8.89107 180.426 8.73426 179.398 9.04788C179.398 9.04788 176.114 9.65947 175.519 12.7251C175.519 12.7251 175.31 13.6111 175.573 14.8028C175.573 14.8028 175.897 16.7237 178.479 17.884C178.479 17.884 181.786 19.4129 181.956 19.4913C181.956 19.4913 183.827 20.2519 183.463 21.8043C183.463 21.8043 183.34 23.1373 181.856 23.4274C181.856 23.4274 179.159 24.1172 177.899 21.9219C177.899 21.9219 177.582 21.2241 176.964 21.3809L175.163 22.4081C175.163 22.4081 174.645 22.7373 174.978 23.3254C174.978 23.3254 175.72 24.7602 177.157 25.5285C177.157 25.5285 179.337 26.9947 183.185 25.9989C183.185 25.9989 185.852 25.113 186.516 23.3332C186.516 23.3332 187.258 21.867 186.795 19.758C186.795 19.758 186.346 17.9469 184.221 16.8806C184.221 16.8806 181.284 15.5555 180.89 15.4379C180.89 15.4379 178.935 14.5989 178.966 13.5562C178.966 13.5562 178.641 12.4035 179.993 11.8469C179.993 11.8469 181.045 11.3216 182.397 11.8469C182.389 11.8469 183.046 12.1213 183.425 12.7171Z" fill="#DF2B3C"/>
<path d="M196.47 12.8814C196.47 12.8814 196.787 13.3125 197.429 12.9832L198.835 11.9013C198.835 11.9013 199.214 11.5563 198.92 11.0859C198.92 11.0859 197.838 9.26686 195.295 9.05516C195.295 9.05516 193.472 8.89835 192.444 9.21197C192.444 9.21197 189.159 9.82356 188.564 12.8892C188.564 12.8892 188.355 13.7752 188.618 14.9669C188.618 14.9669 188.943 16.8877 191.524 18.0481C191.524 18.0481 194.832 19.577 195.002 19.6554C195.002 19.6554 196.872 20.4161 196.509 21.9763C196.509 21.9763 196.385 23.3092 194.909 23.5993C194.909 23.5993 192.212 24.2893 190.952 22.094C190.952 22.094 190.635 21.3961 190.017 21.5529L188.216 22.58C188.216 22.58 187.698 22.9092 188.031 23.4973C188.031 23.4973 188.773 24.9322 190.21 25.7006C190.21 25.7006 192.389 27.1668 196.238 26.171C196.238 26.171 198.905 25.285 199.569 23.5052C199.569 23.5052 200.311 22.0389 199.847 19.9299C199.847 19.9299 199.399 18.1188 197.274 17.0525C197.274 17.0525 194.337 15.7274 193.943 15.6098C193.943 15.6098 191.988 14.7708 192.019 13.7281C192.019 13.7281 191.694 12.5756 193.046 12.0189C193.046 12.0189 194.098 11.4936 195.45 12.0189C195.442 12.0111 196.099 12.2855 196.47 12.8814Z" fill="#DF2B3C"/>
</svg>
