<svg width="48" height="48" viewBox="0 0 48 48" fill="none" xmlns="http://www.w3.org/2000/svg">
<rect width="48" height="48" rx="6.38403" fill="#7367F0" fill-opacity="0.12"/>
<mask id="mask0_1175_117" style="mask-type:alpha" maskUnits="userSpaceOnUse" x="12" y="11" width="24" height="25">
<rect x="12" y="11.5" width="24" height="24" fill="#D9D9D9"/>
</mask>
<g mask="url(#mask0_1175_117)">
<path d="M20.8 32.5H17C16.45 32.5 15.9792 32.3042 15.5875 31.9125C15.1958 31.5208 15 31.05 15 30.5V26.7C15.8 26.7 16.5 26.4458 17.1 25.9375C17.7 25.4292 18 24.7833 18 24C18 23.2167 17.7 22.5708 17.1 22.0625C16.5 21.5542 15.8 21.3 15 21.3V17.5C15 16.95 15.1958 16.4792 15.5875 16.0875C15.9792 15.6958 16.45 15.5 17 15.5H21C21 14.8 21.2417 14.2083 21.725 13.725C22.2083 13.2417 22.8 13 23.5 13C24.2 13 24.7917 13.2417 25.275 13.725C25.7583 14.2083 26 14.8 26 15.5H30C30.55 15.5 31.0208 15.6958 31.4125 16.0875C31.8042 16.4792 32 16.95 32 17.5V21.5C32.7 21.5 33.2917 21.7417 33.775 22.225C34.2583 22.7083 34.5 23.3 34.5 24C34.5 24.7 34.2583 25.2917 33.775 25.775C33.2917 26.2583 32.7 26.5 32 26.5V30.5C32 31.05 31.8042 31.5208 31.4125 31.9125C31.0208 32.3042 30.55 32.5 30 32.5H26.2C26.2 31.6667 25.9375 30.9583 25.4125 30.375C24.8875 29.7917 24.25 29.5 23.5 29.5C22.75 29.5 22.1125 29.7917 21.5875 30.375C21.0625 30.9583 20.8 31.6667 20.8 32.5ZM17 30.5H19.125C19.525 29.4 20.1667 28.625 21.05 28.175C21.9333 27.725 22.75 27.5 23.5 27.5C24.25 27.5 25.0667 27.725 25.95 28.175C26.8333 28.625 27.475 29.4 27.875 30.5H30V24.5H32C32.1333 24.5 32.25 24.45 32.35 24.35C32.45 24.25 32.5 24.1333 32.5 24C32.5 23.8667 32.45 23.75 32.35 23.65C32.25 23.55 32.1333 23.5 32 23.5H30V17.5H24V15.5C24 15.3667 23.95 15.25 23.85 15.15C23.75 15.05 23.6333 15 23.5 15C23.3667 15 23.25 15.05 23.15 15.15C23.05 15.25 23 15.3667 23 15.5V17.5H17V19.7C17.9 20.0333 18.625 20.5917 19.175 21.375C19.725 22.1583 20 23.0333 20 24C20 24.95 19.725 25.8167 19.175 26.6C18.625 27.3833 17.9 27.95 17 28.3V30.5Z" fill="#7367F0"/>
</g>
</svg>
