<svg width="48" height="48" viewBox="0 0 48 48" fill="none" xmlns="http://www.w3.org/2000/svg">
<rect width="47.3455" height="48" rx="5" fill="#7367F0" fill-opacity="0.12"/>
<path d="M18.7205 33.525C18.1205 33.5083 17.5496 33.3542 17.008 33.0625C16.4663 32.7708 15.9538 32.3417 15.4705 31.775C14.8038 30.975 14.283 30.0208 13.908 28.9125C13.533 27.8042 13.3455 26.6667 13.3455 25.5C13.3455 24.1167 13.608 22.8167 14.133 21.6C14.658 20.3833 15.3705 19.325 16.2705 18.425C17.1705 17.525 18.2288 16.8125 19.4455 16.2875C20.6621 15.7625 21.9621 15.5 23.3455 15.5C24.7288 15.5 26.0288 15.7625 27.2455 16.2875C28.4621 16.8125 29.5205 17.5333 30.4205 18.45C31.3205 19.3667 32.033 20.4417 32.558 21.675C33.083 22.9083 33.3455 24.2333 33.3455 25.65C33.3455 26.9 33.1455 28.0833 32.7455 29.2C32.3455 30.3167 31.7705 31.2583 31.0205 32.025C30.5371 32.525 30.033 32.9 29.508 33.15C28.983 33.4 28.4455 33.525 27.8955 33.525C27.5955 33.525 27.2955 33.4875 26.9955 33.4125C26.6955 33.3375 26.3955 33.225 26.0955 33.075L24.6955 32.375C24.4788 32.2583 24.258 32.175 24.033 32.125C23.808 32.075 23.5788 32.05 23.3455 32.05C23.1121 32.05 22.883 32.075 22.658 32.125C22.433 32.175 22.2121 32.2583 21.9955 32.375L20.5955 33.075C20.2788 33.2417 19.9663 33.3625 19.658 33.4375C19.3496 33.5125 19.0371 33.5417 18.7205 33.525ZM18.7955 32.025C18.9788 32.025 19.1663 32 19.358 31.95C19.5496 31.9 19.7371 31.8333 19.9205 31.75L21.3205 31.05C21.6371 30.9 21.9621 30.7833 22.2955 30.7C22.6288 30.6167 22.9705 30.575 23.3205 30.575C23.6705 30.575 24.0121 30.6125 24.3455 30.6875C24.6788 30.7625 25.0121 30.8833 25.3455 31.05L26.7705 31.75C26.9538 31.8333 27.1371 31.9 27.3205 31.95C27.5038 32 27.6871 32.025 27.8705 32.025C28.2538 32.025 28.6246 31.9333 28.983 31.75C29.3413 31.5667 29.6871 31.2917 30.0205 30.925C30.6038 30.2917 31.0538 29.5125 31.3705 28.5875C31.6871 27.6625 31.8455 26.6833 31.8455 25.65C31.8455 23.2167 31.0246 21.1667 29.383 19.5C27.7413 17.8333 25.7288 17 23.3455 17C20.9621 17 18.9496 17.8417 17.308 19.525C15.6663 21.2083 14.8455 23.2667 14.8455 25.7C14.8455 26.75 15.0038 27.7292 15.3205 28.6375C15.6371 29.5458 16.0871 30.3167 16.6705 30.95C17.0038 31.3167 17.3455 31.5875 17.6955 31.7625C18.0455 31.9375 18.4121 32.025 18.7955 32.025ZM23.3455 27.25C23.8288 27.25 24.2413 27.0792 24.583 26.7375C24.9246 26.3958 25.0955 25.9833 25.0955 25.5C25.0955 25.3667 25.083 25.2333 25.058 25.1C25.033 24.9667 24.9871 24.8417 24.9205 24.725L26.5205 22.675C26.7205 22.9083 26.8955 23.1542 27.0455 23.4125C27.1955 23.6708 27.3121 23.95 27.3955 24.25H28.9455C28.6455 22.9333 27.9746 21.8542 26.933 21.0125C25.8913 20.1708 24.6955 19.75 23.3455 19.75C21.9955 19.75 20.7955 20.1708 19.7455 21.0125C18.6955 21.8542 18.0288 22.9333 17.7455 24.25H19.2955C19.5788 23.35 20.0913 22.625 20.833 22.075C21.5746 21.525 22.4121 21.25 23.3455 21.25C23.6955 21.25 24.0413 21.2917 24.383 21.375C24.7246 21.4583 25.0455 21.5833 25.3455 21.75L23.7455 23.8C23.6788 23.7833 23.6121 23.7708 23.5455 23.7625C23.4788 23.7542 23.4121 23.75 23.3455 23.75C22.8621 23.75 22.4496 23.9208 22.108 24.2625C21.7663 24.6042 21.5955 25.0167 21.5955 25.5C21.5955 25.9833 21.7663 26.3958 22.108 26.7375C22.4496 27.0792 22.8621 27.25 23.3455 27.25Z" fill="#7367F0"/>
</svg>
