<svg width="48" height="48" viewBox="0 0 48 48" fill="none" xmlns="http://www.w3.org/2000/svg">
<path d="M0 5.33333C0 2.38781 2.38781 0 5.33333 0H42.6667C45.6122 0 48 2.38781 48 5.33333V42.6667C48 45.6122 45.6122 48 42.6667 48H5.33333C2.38781 48 0 45.6122 0 42.6667V5.33333Z" fill="#7367F0" fill-opacity="0.12"/>
<path d="M16.7709 32.3938L12.6316 28.2986L13.8559 27.0874L16.7709 29.9425L21.9887 24.7802L23.213 26.0203L16.7709 32.3938ZM16.7709 23.1653L12.6316 19.0701L13.8559 17.8588L16.7709 20.7139L21.9887 15.5517L23.213 16.7918L16.7709 23.1653ZM25.4575 30.202V28.4717H35.9514V30.202H25.4575ZM25.4575 20.9735V19.2431H35.9514V20.9735H25.4575Z" fill="#7367F0"/>
</svg>
