<svg width="48" height="48" viewBox="0 0 48 48" fill="none" xmlns="http://www.w3.org/2000/svg">
<rect width="48" height="48" rx="6.38403" fill="#7367F0" fill-opacity="0.12"/>
<path d="M13.9768 30.5C13.4548 30.5 13.0087 30.3141 12.6386 29.9424C12.2684 29.5707 12.0834 29.1238 12.0834 28.6018C12.0834 28.0798 12.2684 27.6337 12.6384 27.2635C13.0085 26.8934 13.4533 26.7083 13.9729 26.7083C14.0674 26.7083 14.1598 26.7128 14.25 26.7219C14.3403 26.7309 14.4577 26.7535 14.6021 26.7896L20.0188 21.3729C19.9827 21.2285 19.9601 21.1111 19.9511 21.0208C19.9421 20.9306 19.9375 20.8382 19.9375 20.7437C19.9375 20.2241 20.1234 19.7792 20.4952 19.4092C20.8669 19.0392 21.3138 18.8542 21.8358 18.8542C22.3578 18.8542 22.8039 19.0404 23.174 19.413C23.5441 19.7856 23.7292 20.2334 23.7292 20.7566C23.7292 20.7883 23.7021 20.9938 23.648 21.3729L26.6271 24.3521C26.7716 24.316 26.8889 24.2934 26.9792 24.2844C27.0695 24.2753 27.1598 24.2708 27.25 24.2708C27.3403 24.2708 27.4306 24.2753 27.5209 24.2844C27.6112 24.2934 27.7285 24.316 27.873 24.3521L32.2063 20.0187C32.1702 19.8743 32.1476 19.7569 32.1386 19.6667C32.1296 19.5764 32.125 19.484 32.125 19.3895C32.125 18.8699 32.3109 18.4251 32.6827 18.055C33.0544 17.685 33.5013 17.5 34.0233 17.5C34.5453 17.5 34.9914 17.6859 35.3615 18.0576C35.7316 18.4293 35.9167 18.8762 35.9167 19.3982C35.9167 19.9202 35.7317 20.3663 35.3617 20.7365C34.9916 21.1066 34.5468 21.2917 34.0272 21.2917C33.9327 21.2917 33.8403 21.2872 33.75 21.2781C33.6598 21.2691 33.5424 21.2465 33.398 21.2104L29.0646 25.5437C29.1007 25.6882 29.1233 25.8056 29.1323 25.8958C29.1414 25.9861 29.1459 26.0785 29.1459 26.173C29.1459 26.6926 28.96 27.1374 28.5883 27.5075C28.2165 27.8775 27.7697 28.0625 27.2476 28.0625C26.7256 28.0625 26.2796 27.8775 25.9094 27.5075C25.5393 27.1374 25.3542 26.6926 25.3542 26.173C25.3542 26.0785 25.3587 25.9861 25.3677 25.8958C25.3768 25.8056 25.3993 25.6882 25.4355 25.5437L22.4563 22.5646C22.3118 22.6007 22.1945 22.6233 22.1042 22.6323C22.0139 22.6413 21.9214 22.6458 21.8266 22.6458C21.795 22.6458 21.5896 22.6188 21.2105 22.5646L15.7938 27.9812C15.8299 28.1257 15.8525 28.2431 15.8615 28.3333C15.8705 28.4236 15.875 28.516 15.875 28.6105C15.875 29.1301 15.6892 29.5749 15.3174 29.945C14.9457 30.315 14.4988 30.5 13.9768 30.5Z" fill="#7367F0"/>
</svg>
