<svg width="48" height="48" viewBox="0 0 48 48" fill="none" xmlns="http://www.w3.org/2000/svg">
<path d="M0 5.33333C0 2.38781 2.38781 0 5.33333 0H42.6667C45.6122 0 48 2.38781 48 5.33333V42.6667C48 45.6122 45.6122 48 42.6667 48H5.33333C2.38781 48 0 45.6122 0 42.6667V5.33333Z" fill="#7367F0" fill-opacity="0.12"/>
<g clip-path="url(#clip0_855_5779)">
<path d="M23.9994 35.9987C17.373 35.9987 12.0012 30.6269 12.0012 24.0005C12.0012 17.3741 17.373 12.0023 23.9994 12.0023C30.6258 12.0023 35.9976 17.3741 35.9976 24.0005C35.9976 30.6269 30.6258 35.9987 23.9994 35.9987Z" fill="#FFE973"/>
<path d="M23.9994 35.9987C17.373 35.9987 12.0012 30.6269 12.0012 24.0005C12.0012 17.3741 17.373 12.0023 23.9994 12.0023C30.6258 12.0023 35.9976 17.3741 35.9976 24.0005C35.9976 30.6269 30.6258 35.9987 23.9994 35.9987Z" fill="url(#paint0_radial_855_5779)"/>
<path d="M23.9995 35.3851C17.7119 35.3851 12.6148 30.288 12.6148 24.0004C12.6148 17.7127 17.7119 12.6156 23.9995 12.6156C30.2871 12.6156 35.3843 17.7127 35.3843 24.0004C35.3843 30.288 30.2871 35.3851 23.9995 35.3851Z" fill="#F6CD42"/>
<path d="M23.9995 33.4249C18.7945 33.4249 14.575 29.2054 14.575 24.0004C14.575 18.7953 18.7945 14.5758 23.9995 14.5758C29.2046 14.5758 33.4241 18.7953 33.4241 24.0004C33.4241 29.2054 29.2046 33.4249 23.9995 33.4249Z" fill="#FDF489"/>
<path d="M23.9995 33.4249C18.7945 33.4249 14.575 29.2054 14.575 24.0004C14.575 18.7953 18.7945 14.5758 23.9995 14.5758C29.2046 14.5758 33.4241 18.7953 33.4241 24.0004C33.4241 29.2054 29.2046 33.4249 23.9995 33.4249Z" fill="url(#paint1_radial_855_5779)"/>
<path d="M23.9995 32.7533C19.1653 32.7533 15.2465 28.8344 15.2465 24.0003C15.2465 19.1662 19.1653 15.2473 23.9995 15.2473C28.8336 15.2473 32.7524 19.1662 32.7524 24.0003C32.7524 28.8344 28.8336 32.7533 23.9995 32.7533Z" fill="#E5B215"/>
<path d="M20.58 25.8123C19.6322 27.6889 20.1483 30.075 22.4196 30.7393C21.7865 28.7449 22.6114 26.7004 22.6114 26.7004C23.0141 25.9387 22.2269 25.4314 22.2269 25.4314C23.2517 24.9059 23.7089 23.1834 23.7089 23.1834C24.0934 24.9423 25.2643 25.4314 25.2643 25.4314C24.5142 25.9569 24.8435 26.574 24.8435 26.574L25.4104 27.9883C25.8494 28.8227 25.5209 30.6267 25.5209 30.6267C28.6498 28.7406 26.8008 25.5404 26.8008 25.5404C26.8008 25.5404 26.7281 25.289 27.0065 25.3856C27.0384 25.4045 27.4469 25.5586 27.5894 25.9947C27.609 25.9562 27.6795 25.5906 27.5894 25.193C27.6155 25.1996 27.505 25.02 27.8416 25.0586C27.8416 25.0586 28.3903 25.3733 28.5844 25.5397C28.5844 25.5397 28.4106 25.0455 28.4237 24.7824C28.4237 24.7824 28.3976 24.6603 28.7021 24.6545C28.7021 24.6545 29.3482 24.8761 29.5997 24.7308C29.5997 24.7308 29.019 24.2976 29.1934 23.9807C29.1934 23.9807 29.0837 23.5999 29.527 23.618C29.527 23.618 29.9072 23.7314 30.1332 24.0796C30.1332 24.0796 30.1027 23.477 29.9479 23.3324C29.9479 23.3324 29.7167 23.0773 29.6201 23.0002C29.6201 23.0002 29.4972 22.9297 29.6782 22.8273C29.6782 22.8273 30.1165 22.7008 30.4348 22.0518C30.4348 22.0518 30.1564 22.4043 29.8461 22.1034C29.8461 22.1034 29.8199 21.6738 30.4021 21.5074C30.4021 21.5074 30.2342 21.3533 29.9878 21.3148C29.9878 21.3148 29.6709 21.3213 29.6259 21.1352C29.6259 21.1352 29.5932 20.9368 30.0205 20.7188C30.0205 20.7188 29.5227 20.7893 29.4253 20.6737C29.4253 20.6737 30.1027 20.2093 30.0438 19.2797C30.0438 19.2797 29.684 19.7485 29.4057 19.6075C29.4057 19.6075 29.2181 19.8459 29.341 19.5254C29.341 19.5254 29.4638 19.3269 29.6063 19.2819C29.6063 19.2819 29.4122 18.8974 28.6425 18.9294C28.6425 18.9294 28.2478 18.8654 28.5909 18.5318C28.5909 18.5318 28.1832 18.4679 27.8793 18.6728C27.8793 18.6728 27.9506 17.9511 27.7115 17.3871C27.7115 17.3871 26.6634 18.7041 24.8791 18.8036C24.8791 18.8036 24.9859 18.3239 24.5288 18.0877C24.5288 18.0877 24.4946 18.4955 24.2569 18.6132C24.2569 18.6132 24.1653 18.6677 24.0919 18.5224C24.0919 18.5224 23.9546 18.0507 24.028 17.7338C24.028 17.7338 23.6806 17.9605 23.6072 18.4955C23.6072 18.4955 23.5614 18.6946 23.4611 18.5587C23.4611 18.5587 23.2961 18.1233 23.1224 18.015C23.1224 18.015 23.2503 18.4955 23.0402 18.7128C23.0402 18.7128 22.9211 18.8218 22.8665 18.8218C22.8665 18.8218 20.7893 18.7433 19.5734 17.5768C19.5734 17.5768 19.2368 18.0383 19.4571 18.7818C19.4571 18.7818 18.3749 18.6227 18.0093 19.13C18.0093 19.13 18.3567 19.2295 18.3843 19.4658C18.3843 19.4658 18.3749 19.6744 18.1372 19.7012C18.1372 19.7012 17.7803 19.7645 17.5703 19.5835C17.5703 19.5835 17.4787 20.2994 18.119 20.5807C18.119 20.5807 18.2251 20.6054 18.1568 20.6534C18.1568 20.6534 17.901 20.6788 17.6655 20.5734C17.6655 20.5734 17.8108 20.737 17.8755 20.8329C17.8755 20.8329 18.0536 20.9833 17.8915 21.128C17.8915 21.128 17.0164 21.3242 16.8696 21.7C16.8696 21.7 17.4416 21.5277 17.6749 22.0583C17.6749 22.0583 17.5972 22.4115 17.172 22.3214C17.172 22.3214 17.1734 22.7182 17.8915 22.9741C17.8915 22.9741 17.9947 23.0446 17.9366 23.2052C17.9366 23.2052 17.555 23.5773 17.6001 24.0512C17.6001 24.0512 17.7556 23.8528 18.0333 23.8077C18.0333 23.8077 18.3182 23.7372 18.3371 24.0381C18.3371 24.0381 18.3051 24.4103 18.0398 24.5382C18.0398 24.5382 18.26 24.7308 19.0101 24.5767C19.0101 24.5767 19.1198 24.5193 19.0813 24.6726C19.0813 24.6726 18.9781 25.0826 19.1329 25.4801C19.1329 25.4801 19.2107 25.1916 19.3982 25.1022C19.3982 25.1022 19.5792 24.9546 19.6955 25.1858C19.6955 25.1858 19.7667 25.7047 20.181 25.8784C20.181 25.8784 20.1548 25.7309 20.2457 25.6669C20.2457 25.6669 20.3954 25.547 20.5793 25.8123H20.58Z" fill="#CE8E00"/>
<path d="M22.4987 31.1871C22.3847 31.1871 22.2922 30.9564 22.2922 30.6718C22.2922 30.3872 22.3847 30.1565 22.4987 30.1565C22.6127 30.1565 22.7051 30.3872 22.7051 30.6718C22.7051 30.9564 22.6127 31.1871 22.4987 31.1871Z" fill="#CF8F00"/>
<path d="M20.9274 25.6836C19.9033 27.3662 20.54 29.8461 22.3534 30.5009C21.8047 28.3968 22.9581 26.5805 22.9581 26.5805C23.3608 25.8123 22.5736 25.2999 22.5736 25.2999C23.5984 24.7693 24.0556 23.0308 24.0556 23.0308C24.4401 24.8057 25.611 25.2999 25.611 25.2999C24.8609 25.8305 25.1901 26.4526 25.1901 26.4526L25.7571 27.8801C26.196 28.7217 25.8326 30.4508 25.8326 30.4508C28.9616 28.548 27.1474 25.4104 27.1474 25.4104C27.1474 25.4104 27.0748 25.1567 27.3531 25.2541C27.3851 25.2737 27.7027 25.4285 27.8445 25.869C27.8641 25.8305 28.0254 25.4612 27.9353 25.06C27.9615 25.0666 27.851 24.8856 28.1875 24.9241C28.1875 24.9241 28.8344 25.0797 29.0284 25.2476C29.0284 25.2476 28.7566 24.911 28.7697 24.6458C28.7697 24.6458 28.7435 24.5229 29.0481 24.5164C29.0481 24.5164 29.6317 24.5135 29.8832 24.3674C29.8832 24.3674 29.5401 24.0149 29.5401 23.8368C29.5401 23.8368 29.4304 23.4523 29.8737 23.4705C29.8737 23.4705 30.3309 23.5708 30.4595 23.7176C30.4595 23.7176 30.4501 23.3288 30.2945 23.1827C30.2945 23.1827 30.0634 22.9247 29.9667 22.8476C29.9667 22.8476 29.8439 22.7764 30.0249 22.6732C30.0249 22.6732 30.6521 22.602 30.7815 21.8904C30.7815 21.8904 30.5031 22.2466 30.1928 21.942C30.1928 21.942 30.1666 21.5088 30.7488 21.3402C30.7488 21.3402 30.5809 21.1847 30.3345 21.1462C30.3345 21.1462 30.0176 21.1527 29.9726 20.9652C29.9726 20.9652 29.9398 20.7646 30.3672 20.5444C30.3672 20.5444 29.8693 20.6156 29.772 20.4993C29.772 20.4993 30.3927 20.3699 30.3345 19.4316C30.3345 19.4316 30.0307 19.891 29.7523 19.7485C29.7523 19.7485 29.5648 19.6642 29.6876 19.3408C29.6876 19.3408 29.8105 19.1402 29.9529 19.0951C29.9529 19.0951 29.7589 18.707 28.9892 18.739C28.9892 18.739 28.5945 18.6743 28.9376 18.3378C28.9376 18.3378 28.5298 18.2731 28.226 18.4802C28.226 18.4802 28.3816 17.9497 28.1417 17.3806C28.1417 17.3806 27.0093 18.5122 25.2258 18.6125C25.2258 18.6125 25.2352 18.1917 24.7773 17.954C24.7773 17.954 24.8413 18.3014 24.6036 18.4206C24.6036 18.4206 24.512 18.4759 24.4386 18.3291C24.4386 18.3291 24.3013 17.853 24.3747 17.5332C24.3747 17.5332 24.0272 17.7621 23.9538 18.3014C23.9538 18.3014 23.9081 18.5028 23.8078 18.3654C23.8078 18.3654 23.6428 17.9264 23.4691 17.8167C23.4691 17.8167 23.597 18.3014 23.3869 18.5209C23.3869 18.5209 23.2677 18.6307 23.2132 18.6307C23.2132 18.6307 21.136 18.5515 19.92 17.374C19.92 17.374 19.5835 17.8399 19.8038 18.59C19.8038 18.59 18.7215 18.4294 18.3559 18.9418C18.3559 18.9418 18.7034 19.0421 18.731 19.2804C18.731 19.2804 18.7215 19.4912 18.4839 19.5181C18.4839 19.5181 18.127 19.5821 17.917 19.3989C17.917 19.3989 17.8254 20.1214 18.4657 20.4055C18.4657 20.4055 18.5718 20.431 18.5035 20.479C18.5035 20.479 18.2477 20.5051 18.0122 20.3983C18.0122 20.3983 18.1575 20.5633 18.2222 20.6599C18.2222 20.6599 18.4003 20.8118 18.2382 20.9572C18.2382 20.9572 17.3631 21.1549 17.2163 21.535C17.2163 21.535 17.7883 21.3613 18.0216 21.8962C18.0216 21.8962 17.9438 22.2531 17.5187 22.1615C17.5187 22.1615 17.5201 22.562 18.2382 22.8207C18.2382 22.8207 18.3414 22.892 18.2833 23.0533C18.2833 23.0533 17.9017 23.4284 17.9468 23.9073C17.9468 23.9073 18.1023 23.7067 18.3799 23.6617C18.3799 23.6617 18.6648 23.5904 18.6837 23.8942C18.6837 23.8942 18.651 24.2693 18.3865 24.3986C18.3865 24.3986 18.6067 24.5927 19.3568 24.4372C19.3568 24.4372 19.4665 24.379 19.428 24.5346C19.428 24.5346 19.3248 24.9488 19.4796 25.3493C19.4796 25.3493 19.5574 25.0579 19.7449 24.9677C19.7449 24.9677 19.9259 24.8187 20.0421 25.052C20.0421 25.052 20.1134 25.5761 20.5277 25.7505C20.5277 25.7505 20.5015 25.6015 20.5923 25.5368C20.5923 25.5368 20.7421 25.4155 20.9259 25.6829L20.9274 25.6836Z" fill="#F8D55C"/>
<path d="M24.8064 23.3687C24.8064 23.3687 24.4132 22.6673 24.0287 22.5394L24.0273 24.6523C24.0273 24.6523 24.7519 24.0461 24.8064 23.3687Z" fill="#F6CD42"/>
<path d="M23.2787 23.3629C23.2787 23.3629 23.6451 22.6673 24.0288 22.5394V24.653C24.0288 24.653 23.3333 24.0403 23.2787 23.3629Z" fill="#E8AD00"/>
<path d="M27.0914 24.2504C25.7732 24.2504 24.7046 23.1817 24.7046 21.8635C24.7046 20.5453 25.7732 19.4767 27.0914 19.4767C28.4096 19.4767 29.4783 20.5453 29.4783 21.8635C29.4783 23.1817 28.4096 24.2504 27.0914 24.2504Z" fill="#CF8F00"/>
<path d="M26.9483 24.2525C25.7534 24.2525 24.7846 23.2327 24.7846 21.9747C24.7846 20.7167 25.7534 19.6969 26.9483 19.6969C28.1433 19.6969 29.1121 20.7167 29.1121 21.9747C29.1121 23.2327 28.1433 24.2525 26.9483 24.2525Z" fill="#E5B215"/>
<path d="M20.9513 24.2482C19.6331 24.2482 18.5644 23.1795 18.5644 21.8613C18.5644 20.5431 19.6331 19.4745 20.9513 19.4745C22.2695 19.4745 23.3381 20.5431 23.3381 21.8613C23.3381 23.1795 22.2695 24.2482 20.9513 24.2482Z" fill="#CF8F00"/>
<path d="M20.8233 24.2562C19.6284 24.2562 18.6596 23.2364 18.6596 21.9784C18.6596 20.7204 19.6284 19.7006 20.8233 19.7006C22.0183 19.7006 22.9871 20.7204 22.9871 21.9784C22.9871 23.2364 22.0183 24.2562 20.8233 24.2562Z" fill="#E5B215"/>
<path d="M26.4663 23.4014C25.7663 23.4014 25.1988 22.8362 25.1988 22.1389C25.1988 21.4417 25.7663 20.8765 26.4663 20.8765C27.1664 20.8765 27.7339 21.4417 27.7339 22.1389C27.7339 22.8362 27.1664 23.4014 26.4663 23.4014Z" fill="#F4CA3E"/>
<path d="M26.4577 23.0686C25.9359 23.0686 25.5129 22.6475 25.5129 22.1281C25.5129 21.6087 25.9359 21.1876 26.4577 21.1876C26.9796 21.1876 27.4026 21.6087 27.4026 22.1281C27.4026 22.6475 26.9796 23.0686 26.4577 23.0686Z" fill="#FEEB8B"/>
<path d="M26.9789 21.825C26.8115 21.825 26.6758 21.6897 26.6758 21.5227C26.6758 21.3557 26.8115 21.2203 26.9789 21.2203C27.1463 21.2203 27.282 21.3557 27.282 21.5227C27.282 21.6897 27.1463 21.825 26.9789 21.825Z" fill="#E5B215"/>
<path d="M21.2444 23.4058C20.5444 23.4058 19.9768 22.8406 19.9768 22.1433C19.9768 21.4461 20.5444 20.8809 21.2444 20.8809C21.9445 20.8809 22.512 21.4461 22.512 22.1433C22.512 22.8406 21.9445 23.4058 21.2444 23.4058Z" fill="#F4CA3E"/>
<path d="M21.2356 23.0723C20.7137 23.0723 20.2907 22.6512 20.2907 22.1318C20.2907 21.6124 20.7137 21.1913 21.2356 21.1913C21.7574 21.1913 22.1804 21.6124 22.1804 22.1318C22.1804 22.6512 21.7574 23.0723 21.2356 23.0723Z" fill="#FEEB8B"/>
<path d="M21.7567 21.8286C21.5893 21.8286 21.4537 21.6932 21.4537 21.5262C21.4537 21.3592 21.5893 21.2239 21.7567 21.2239C21.9241 21.2239 22.0598 21.3592 22.0598 21.5262C22.0598 21.6932 21.9241 21.8286 21.7567 21.8286Z" fill="#E5B215"/>
<path d="M25.5848 31.1689C25.4708 31.1689 25.3784 30.9382 25.3784 30.6536C25.3784 30.369 25.4708 30.1383 25.5848 30.1383C25.6988 30.1383 25.7913 30.369 25.7913 30.6536C25.7913 30.9382 25.6988 31.1689 25.5848 31.1689Z" fill="#CF8F00"/>
<path d="M25.1139 31.1667C24.9999 31.1667 24.9075 30.936 24.9075 30.6514C24.9075 30.3668 24.9999 30.1361 25.1139 30.1361C25.2279 30.1361 25.3203 30.3668 25.3203 30.6514C25.3203 30.936 25.2279 31.1667 25.1139 31.1667Z" fill="#CF8F00"/>
<path d="M24.6334 31.1711C24.5194 31.1711 24.427 30.9404 24.427 30.6558C24.427 30.3712 24.5194 30.1405 24.6334 30.1405C24.7474 30.1405 24.8398 30.3712 24.8398 30.6558C24.8398 30.9404 24.7474 31.1711 24.6334 31.1711Z" fill="#CF8F00"/>
<path d="M23.4508 31.1849C23.3368 31.1849 23.2444 30.9542 23.2444 30.6696C23.2444 30.385 23.3368 30.1543 23.4508 30.1543C23.5648 30.1543 23.6572 30.385 23.6572 30.6696C23.6572 30.9542 23.5648 31.1849 23.4508 31.1849Z" fill="#CF8F00"/>
<path d="M22.9791 31.1827C22.8651 31.1827 22.7727 30.952 22.7727 30.6674C22.7727 30.3828 22.8651 30.1521 22.9791 30.1521C23.0931 30.1521 23.1855 30.3828 23.1855 30.6674C23.1855 30.952 23.0931 31.1827 22.9791 31.1827Z" fill="#CF8F00"/>
<path d="M25.629 31.017C25.5331 31.017 25.4553 30.8227 25.4553 30.5831C25.4553 30.3434 25.5331 30.1492 25.629 30.1492C25.725 30.1492 25.8027 30.3434 25.8027 30.5831C25.8027 30.8227 25.725 31.017 25.629 31.017Z" fill="#F6CD42"/>
<path d="M25.161 31.0126C25.0651 31.0126 24.9873 30.8183 24.9873 30.5787C24.9873 30.339 25.0651 30.1448 25.161 30.1448C25.2569 30.1448 25.3347 30.339 25.3347 30.5787C25.3347 30.8183 25.2569 31.0126 25.161 31.0126Z" fill="#F6CD42"/>
<path d="M24.6842 31.0236C24.5883 31.0236 24.5105 30.8293 24.5105 30.5897C24.5105 30.35 24.5883 30.1558 24.6842 30.1558C24.7801 30.1558 24.8579 30.35 24.8579 30.5897C24.8579 30.8293 24.7801 31.0236 24.6842 31.0236Z" fill="#F6CD42"/>
<path d="M23.4974 31.0366C23.4015 31.0366 23.3237 30.8424 23.3237 30.6027C23.3237 30.3631 23.4015 30.1688 23.4974 30.1688C23.5934 30.1688 23.6711 30.3631 23.6711 30.6027C23.6711 30.8424 23.5934 31.0366 23.4974 31.0366Z" fill="#F6CD42"/>
<path d="M23.028 31.0344C22.932 31.0344 22.8542 30.8402 22.8542 30.6005C22.8542 30.3609 22.932 30.1666 23.028 30.1666C23.1239 30.1666 23.2017 30.3609 23.2017 30.6005C23.2017 30.8402 23.1239 31.0344 23.028 31.0344Z" fill="#F6CD42"/>
<path d="M22.5468 31.0402C22.4508 31.0402 22.373 30.8459 22.373 30.6063C22.373 30.3666 22.4508 30.1724 22.5468 30.1724C22.6427 30.1724 22.7205 30.3666 22.7205 30.6063C22.7205 30.8459 22.6427 31.0402 22.5468 31.0402Z" fill="#F6CD42"/>
</g>
<defs>
<radialGradient id="paint0_radial_855_5779" cx="0" cy="0" r="1" gradientUnits="userSpaceOnUse" gradientTransform="translate(22.9528 24.9637) rotate(168.02) scale(21.4922 5.91815)">
<stop stop-color="#E2AE42"/>
<stop offset="1" stop-color="#AE4D00" stop-opacity="0"/>
</radialGradient>
<radialGradient id="paint1_radial_855_5779" cx="0" cy="0" r="1" gradientUnits="userSpaceOnUse" gradientTransform="translate(27.9136 21.2281) rotate(145.39) scale(21.8371 8.19656)">
<stop stop-color="#C18515"/>
<stop offset="1" stop-color="#FF9600" stop-opacity="0"/>
</radialGradient>
<clipPath id="clip0_855_5779">
<rect width="24" height="24" fill="white" transform="matrix(-1 0 0 1 36 12)"/>
</clipPath>
</defs>
</svg>
