<svg width="48" height="48" viewBox="0 0 48 48" fill="none" xmlns="http://www.w3.org/2000/svg">
<path d="M0 5.33333C0 2.38781 2.38781 0 5.33333 0H42.6667C45.6122 0 48 2.38781 48 5.33333V42.6667C48 45.6122 45.6122 48 42.6667 48H5.33333C2.38781 48 0 45.6122 0 42.6667V5.33333Z" fill="#7367F0" fill-opacity="0.12"/>
<path d="M16.6857 18.6867C16.7002 18.1145 16.3333 17.9653 16.3333 17.9653L16.2773 17.9416C15.78 17.7482 15.2107 17.951 14.9462 18.416C14.9167 18.4668 14.8965 18.5025 14.894 18.5079C14.6082 19.1583 15.3392 19.7242 15.924 20.1259C16.4115 20.4586 17.073 20.9118 17.073 20.9118C18.7426 22.2496 20.4167 23.8842 19.6778 24.8901C19.0271 25.7442 17.5895 25.4905 17.7237 24.3395C17.7732 23.8746 17.5861 23.4147 17.2266 23.1174C16.3519 22.3839 15.2386 21.9086 14.3385 21.1759C12.507 19.8427 13.0873 18.1403 13.0873 18.1403C13.5988 16.4633 15.2361 16.43 15.2361 16.43C16.7553 16.3614 18.2878 17.5162 17.9958 19.1541C17.9163 19.7754 17.191 19.5949 17.191 19.5949C16.5917 19.4614 16.6857 18.6867 16.6857 18.6867Z" fill="#C06F36"/>
<path d="M15.0179 16.6835C15.3041 16.6232 15.2444 16.8499 15.2444 16.8499C15.2113 16.97 15.0249 16.9771 15.0249 16.9771C13.8544 17.084 13.4419 18.0791 13.4419 18.0791C13.4419 18.0791 13.5148 16.9127 15.0179 16.6835Z" fill="#D07A40"/>
<path d="M16.5375 17.598L16.5934 17.6217C16.5934 17.6217 16.9599 17.7714 16.9458 18.3436C16.9318 18.9157 16.851 19.1166 17.4511 19.2513C17.4511 19.2513 17.7494 19.3253 17.9842 19.2147C17.8662 19.7628 17.1898 19.5948 17.1898 19.5948C16.5913 19.4613 16.6853 18.6866 16.6853 18.6866C16.6998 18.1144 16.3328 17.9652 16.3328 17.9652L16.2769 17.9415C15.8985 17.793 15.4673 17.8728 15.1665 18.1469C15.1756 18.1307 15.1905 18.1053 15.2079 18.0724C15.4723 17.6083 16.0406 17.4055 16.5375 17.598Z" fill="#B1652C"/>
<path d="M13.0873 18.1398C13.191 17.7841 13.3743 17.457 13.6233 17.1833C13.5055 17.3748 13.4131 17.5809 13.3482 17.7963C13.2834 18.0117 12.7684 19.5012 14.5999 20.8318C15.4995 21.5645 16.6132 22.0377 17.488 22.7733C17.8475 23.0704 18.0346 23.5302 17.985 23.995C17.8608 25.0579 19.076 25.3548 19.7755 24.7223C19.7489 24.7811 19.7161 24.8368 19.6778 24.8887C19.0271 25.7428 17.5895 25.4891 17.7237 24.3381C17.7732 23.8732 17.5861 23.4133 17.2266 23.116C16.3519 22.3825 15.2386 21.9076 14.3385 21.1745C12.507 19.843 13.0873 18.1398 13.0873 18.1398Z" fill="#C06F36"/>
<path d="M26.5599 32.1515H21.4241C22.9354 30.6496 23.1442 29.1476 22.9247 27.6456H24.9103C24.7698 29.0258 25.0453 30.5377 26.5599 32.1515Z" fill="#D07A40"/>
<path d="M18.0545 15.6237C17.8964 16.4178 17.8173 17.2257 17.8184 18.0355C17.8184 22.879 20.5764 26.8057 23.9785 26.8057C27.3806 26.8057 30.1391 22.879 30.1391 18.0355C30.1401 17.2257 30.061 16.4178 29.903 15.6237H18.0545Z" fill="#C06F36"/>
<path d="M20.0437 16.5801C19.9215 17.1953 19.8603 17.8211 19.8611 18.4484C19.8611 22.2008 21.9974 25.2426 24.6333 25.2426C27.2692 25.2426 29.4043 22.2013 29.4043 18.4488C29.4054 17.8214 29.3444 17.1954 29.2221 16.5801H20.0437Z" fill="#D07A40"/>
<path d="M23.9547 27.6456H22.9193C23.1388 29.1476 22.9301 30.6496 21.4187 32.1515H22.4521C23.9655 30.6496 24.1743 29.1476 23.9547 27.6456Z" fill="#C06F36"/>
<path d="M18.8224 18.0355C18.8212 17.2257 18.9001 16.4178 19.058 15.6237H18.0545C17.8964 16.4178 17.8173 17.2257 17.8184 18.0355C17.8184 22.879 20.5764 26.8057 23.9785 26.8057C24.1463 26.8056 24.3139 26.7959 24.4805 26.7766C21.3132 26.4128 18.8224 22.6387 18.8224 18.0355Z" fill="#B1652C"/>
<path fill-rule="evenodd" clip-rule="evenodd" d="M26.6592 27.0975C26.6592 26.6754 26.3179 26.3328 25.8975 26.3328H22.0617C21.6413 26.3328 21.3 26.6754 21.3 27.0975C21.3 27.5195 21.6413 27.8622 22.0617 27.8622H25.8975C26.3179 27.8622 26.6592 27.5195 26.6592 27.0975Z" fill="#C06F36"/>
<path d="M23.2488 27.0979C23.2488 27.0978 23.2488 27.0976 23.2488 27.0975C23.2488 26.678 23.5926 26.3328 24.0105 26.3328H22.0617C21.6439 26.3328 21.3 26.678 21.3 27.0975C21.3 27.0976 21.3 27.0978 21.3 27.0979C21.3 27.5174 21.6439 27.8626 22.0617 27.8626H24.0105C23.5926 27.8626 23.2488 27.5174 23.2488 27.0979Z" fill="#B1652C"/>
<path fill-rule="evenodd" clip-rule="evenodd" d="M30.9782 16.0094C30.9782 15.4523 30.5277 15 29.9727 15H17.9883C17.4334 15 16.9829 15.4523 16.9829 16.0094C16.9829 16.5666 17.4334 17.0188 17.9883 17.0188H29.9727C30.5277 17.0188 30.9782 16.5666 30.9782 16.0094Z" fill="#C06F36"/>
<path d="M18.1039 16.0098C18.1054 15.4566 18.5584 15.0018 19.1095 15.0002H17.9875C17.9807 15.0001 17.9739 15 17.9671 15C17.4154 15 16.9614 15.4557 16.9614 16.0096C16.9614 16.5635 17.4154 17.0193 17.9671 17.0193C17.9739 17.0193 17.9807 17.0192 17.9875 17.0191H19.1095C18.5586 17.0175 18.1057 16.5629 18.1039 16.0098Z" fill="#B1652C"/>
<path d="M24.8121 26.4883H25.8248C25.9757 26.4866 26.1236 26.5317 26.2481 26.6172C26.3961 26.7142 26.4837 26.8819 26.4792 27.0593C26.4751 27.3287 26.3086 27.3466 26.1682 27.3133C26.0742 27.2889 25.9914 27.233 25.9333 27.1549C25.8505 27.0484 25.6177 26.8726 24.9733 26.8368C24.3876 26.8044 24.4245 26.6767 24.5346 26.5852C24.6131 26.5215 24.7112 26.4872 24.8121 26.4883Z" fill="#D07A40"/>
<path fill-rule="evenodd" clip-rule="evenodd" d="M26.6592 31.9748C26.6592 31.5527 26.3179 31.2101 25.8975 31.2101H22.0617C21.6413 31.2101 21.3 31.5527 21.3 31.9748C21.3 32.3969 21.6413 32.7395 22.0617 32.7395H25.8975C26.3179 32.7395 26.6592 32.3969 26.6592 31.9748Z" fill="#B1652C"/>
<path d="M23.2488 31.9748C23.2488 31.5553 23.5926 31.2101 24.0105 31.2101H22.0617C21.6439 31.2101 21.3 31.5553 21.3 31.9748C21.3 32.3943 21.6439 32.7395 22.0617 32.7395H24.0105C23.5926 32.7395 23.2488 32.3943 23.2488 31.9748Z" fill="#B1652C"/>
<path d="M24.8121 31.365H25.8248C25.9758 31.3633 26.1237 31.4085 26.2481 31.4944C26.3961 31.5911 26.4837 31.7584 26.4792 31.9356C26.4751 32.2054 26.3086 32.2229 26.1682 32.1896C26.0742 32.1652 25.9914 32.1093 25.9333 32.0312C25.8505 31.9247 25.6177 31.7493 24.9733 31.7135C24.3876 31.6811 24.4245 31.553 24.5346 31.4615C24.6132 31.398 24.7113 31.3638 24.8121 31.365Z" fill="#D07A40"/>
<path fill-rule="evenodd" clip-rule="evenodd" d="M27.6927 33.503C27.6927 33.0286 27.3091 32.6434 26.8366 32.6434H21.1213C20.6488 32.6434 20.2651 33.0286 20.2651 33.503V34.1392C20.2651 34.6135 20.6488 34.9987 21.1213 34.9987H26.8366C27.3091 34.9987 27.6927 34.6135 27.6927 34.1392V33.503Z" fill="#C06F36"/>
<path d="M31.3661 18.6867C31.3661 18.6867 31.4593 19.4614 30.8608 19.5949C30.8608 19.5949 30.1355 19.7754 30.0556 19.1541C29.7636 17.5162 31.2982 16.3614 32.8157 16.43C32.8157 16.43 34.4517 16.4633 34.9641 18.1395C34.9641 18.1395 35.5439 19.8444 33.7124 21.175C32.8132 21.9077 31.6995 22.381 30.8243 23.1166C30.4648 23.4138 30.2777 23.8738 30.3273 24.3387C30.4615 25.4897 29.0239 25.7433 28.3728 24.8892C27.6343 23.8833 29.308 22.2487 30.9776 20.911C30.9776 20.911 31.6403 20.4598 32.1269 20.1251C32.7118 19.7234 33.4428 19.1574 33.1558 18.5071C33.1533 18.5017 33.1326 18.4655 33.1032 18.4152C32.8387 17.9516 32.2709 17.7492 31.7745 17.9416C31.7557 17.949 31.7371 17.9569 31.7185 17.9653C31.7 17.9736 31.3516 18.1145 31.3657 18.6867H31.3661Z" fill="#C06F36"/>
<path d="M34.6142 18.0795C34.6142 18.0795 34.2001 17.0844 33.0316 16.978C33.0316 16.978 32.8453 16.9709 32.8121 16.8507C32.8121 16.8507 32.7521 16.6237 33.0383 16.6844C34.5397 16.9131 34.6142 18.0795 34.6142 18.0795Z" fill="#D07A40"/>
<path d="M31.5158 17.5982C31.4973 17.6057 31.4787 17.6136 31.4599 17.6219C31.4412 17.6302 31.093 17.7716 31.1075 18.3438C31.1219 18.916 31.2006 19.1181 30.6021 19.2516C30.6021 19.2516 30.3039 19.3256 30.0691 19.215C30.1871 19.763 30.8635 19.595 30.8635 19.595C31.462 19.4615 31.3688 18.6869 31.3688 18.6869C31.3539 18.1147 31.7229 17.9654 31.7229 17.9654C31.7417 17.9571 31.7603 17.9492 31.7788 17.9417C32.1572 17.7933 32.5884 17.873 32.8893 18.1471L32.8478 18.0727C32.5761 17.6099 32.0104 17.3999 31.5158 17.5982Z" fill="#B1652C"/>
<path d="M34.9632 18.1398C34.8596 17.784 34.6761 17.4568 34.4269 17.1833C34.5448 17.3747 34.6372 17.5808 34.7019 17.7963C34.7665 18.0118 35.2817 19.5012 33.4506 20.8318C32.551 21.5645 31.4373 22.0377 30.5621 22.7733C30.2026 23.0704 30.0155 23.5302 30.0651 23.995C30.1894 25.0579 28.9741 25.3548 28.2742 24.7223C28.301 24.781 28.3337 24.8368 28.3719 24.8887C29.023 25.7428 30.4606 25.4891 30.3264 24.3381C30.2769 23.8732 30.464 23.4132 30.8235 23.116C31.6986 22.3825 32.8115 21.9076 33.7116 21.1745C35.5435 19.843 34.9632 18.1398 34.9632 18.1398Z" fill="#C06F36"/>
<path d="M21.7566 34.1389V33.5043C21.7566 33.0328 22.1431 32.6448 22.6127 32.6448H21.1217C21.1214 32.6448 21.1211 32.6448 21.1208 32.6448C20.6514 32.6448 20.2651 33.0326 20.2651 33.5039C20.2651 33.504 20.2651 33.5042 20.2651 33.5043V34.1405C20.2651 34.1406 20.2651 34.1408 20.2651 34.1409C20.2651 34.6122 20.6514 35 21.1208 35C21.121 35 21.1211 35 21.1213 35H22.6123C22.1428 34.9998 21.7566 34.6119 21.7566 34.1405C21.7566 34.14 21.7566 34.1394 21.7566 34.1389Z" fill="#B1652C"/>
<path d="M25.8148 32.9905H26.8271C26.9782 32.9888 27.1262 33.034 27.2508 33.1198C27.3988 33.2167 27.4865 33.3841 27.4819 33.5615C27.4773 33.8309 27.3108 33.8484 27.1708 33.8151C27.0768 33.7906 26.9938 33.7347 26.9356 33.6567C26.8527 33.5502 26.6204 33.3747 25.9759 33.339C25.3898 33.3066 25.4271 33.1785 25.5369 33.087C25.6156 33.0235 25.7139 32.9894 25.8148 32.9905Z" fill="#D07A40"/>
<g filter="url(#filter0_i_855_5773)">
<path d="M24.0362 18.3615C24.024 18.3618 24.0121 18.3655 24.0018 18.3722C23.9915 18.3789 23.9832 18.3883 23.9778 18.3995L23.366 19.66L21.9981 19.8621C21.9857 19.864 21.9741 19.8693 21.9645 19.8775C21.9549 19.8857 21.9478 19.8965 21.944 19.9086C21.9401 19.9207 21.9396 19.9336 21.9426 19.946C21.9456 19.9583 21.952 19.9696 21.9609 19.9785L22.9507 20.9596L22.7171 22.3451C22.715 22.3576 22.7163 22.3705 22.7211 22.3823C22.7258 22.3941 22.7336 22.4043 22.7438 22.4118C22.7539 22.4192 22.7658 22.4237 22.7783 22.4246C22.7908 22.4255 22.8033 22.4229 22.8144 22.417L24.0379 21.7629L25.2614 22.417C25.2725 22.4229 25.285 22.4255 25.2975 22.4246C25.3099 22.4237 25.3219 22.4192 25.332 22.4118C25.3422 22.4043 25.35 22.3941 25.3547 22.3823C25.3594 22.3705 25.3608 22.3576 25.3587 22.3451L25.1251 20.9596L26.1149 19.9785C26.1238 19.9696 26.1302 19.9583 26.1332 19.946C26.1362 19.9336 26.1357 19.9207 26.1318 19.9086C26.128 19.8965 26.1209 19.8857 26.1113 19.8775C26.1017 19.8693 26.0901 19.864 26.0777 19.8621L24.7098 19.66L24.0981 18.3995C24.0924 18.3878 24.0836 18.378 24.0726 18.3713C24.0616 18.3645 24.049 18.3611 24.0362 18.3615Z" fill="#B1652C"/>
</g>
<defs>
<filter id="filter0_i_855_5773" x="21.9407" y="18.3615" width="4.19434" height="4.06335" filterUnits="userSpaceOnUse" color-interpolation-filters="sRGB">
<feFlood flood-opacity="0" result="BackgroundImageFix"/>
<feBlend mode="normal" in="SourceGraphic" in2="BackgroundImageFix" result="shape"/>
<feColorMatrix in="SourceAlpha" type="matrix" values="0 0 0 0 0 0 0 0 0 0 0 0 0 0 0 0 0 0 127 0" result="hardAlpha"/>
<feOffset dy="6"/>
<feComposite in2="hardAlpha" operator="arithmetic" k2="-1" k3="1"/>
<feColorMatrix type="matrix" values="0 0 0 0 0.608333 0 0 0 0 0.330238 0 0 0 0 0.121667 0 0 0 1 0"/>
<feBlend mode="normal" in2="shape" result="effect1_innerShadow_855_5773"/>
</filter>
</defs>
</svg>
