<svg width="48" height="48" viewBox="0 0 48 48" fill="none" xmlns="http://www.w3.org/2000/svg">
<rect width="48" height="48" rx="5" fill="#7367F0" fill-opacity="0.12"/>
<path d="M16.3619 32.0728C16.0307 32.0728 15.7409 31.9486 15.4925 31.7002C15.2441 31.4518 15.1199 31.162 15.1199 30.8308V17.9966C15.1199 17.6654 15.2441 17.3756 15.4925 17.1272C15.7409 16.8788 16.0307 16.7546 16.3619 16.7546H17.7075V15.5126H19.053V16.7546H26.0911V15.5126H27.4366V16.7546H28.7821C29.1133 16.7546 29.4031 16.8788 29.6515 17.1272C29.8999 17.3756 30.0241 17.6654 30.0241 17.9966V24.2274H28.7821V21.9297H16.3619V30.8308H22.9653V32.0728H16.3619ZM31.0384 27.5395L29.5687 26.0697L30.169 25.4694C30.2837 25.359 30.4297 25.3038 30.607 25.3038C30.7842 25.3038 30.928 25.359 31.0384 25.4694L31.6387 26.0697C31.7491 26.1844 31.8043 26.3304 31.8043 26.5077C31.8043 26.6849 31.7491 26.8287 31.6387 26.9391L31.0384 27.5395ZM24.2074 32.9008V31.4311L28.6786 26.9598L30.1483 28.4296L25.6771 32.9008H24.2074ZM16.3619 20.6877H28.7821V17.9966H16.3619V20.6877Z" fill="#7367F0"/>
</svg>
