<svg width="48" height="48" viewBox="0 0 48 48" fill="none" xmlns="http://www.w3.org/2000/svg">
<path d="M0 5.33333C0 2.38781 2.38781 0 5.33333 0H42.6667C45.6122 0 48 2.38781 48 5.33333V42.6667C48 45.6122 45.6122 48 42.6667 48H5.33333C2.38781 48 0 45.6122 0 42.6667V5.33333Z" fill="#7367F0" fill-opacity="0.12"/>
<path d="M26.7242 12.3877L26.8477 12.4399L26.9612 12.5106C27.2037 12.6861 27.2946 12.9415 27.3231 13.1196C27.3527 13.3047 27.3322 13.4883 27.3111 13.6227C27.2678 13.8985 27.1677 14.2681 27.0577 14.677L25.2374 21.4402L28.2294 22.2384C28.8867 22.4137 29.4637 22.5651 29.8882 22.7486C30.3242 22.9371 30.7798 23.2344 30.9594 23.8035C31.139 24.3727 30.9362 24.8781 30.6875 25.2834C30.4454 25.6779 30.0607 26.1343 29.6233 26.6561L22.4419 35.2235C22.1696 35.5484 21.9247 35.8436 21.7233 36.0374C21.6251 36.1318 21.4863 36.2532 21.3174 36.3354C21.1317 36.4259 20.8158 36.5088 20.4864 36.3381C20.157 36.1674 20.0426 35.8618 20.01 35.6582C19.9804 35.473 20.001 35.2895 20.0221 35.1551C20.0653 34.8792 20.1666 34.5092 20.2767 34.1001L22.0967 27.3378L19.1037 26.5394C18.4465 26.3641 17.8706 26.2119 17.4461 26.0285C17.01 25.8399 16.5534 25.5437 16.3737 24.9743C16.1941 24.4048 16.397 23.8987 16.6459 23.4934C16.888 23.099 17.2735 22.6436 17.7108 22.1219L24.8912 13.5543C25.1636 13.2293 25.4094 12.9344 25.6108 12.7406C25.709 12.6462 25.8479 12.5248 26.0167 12.4426C26.1791 12.3635 26.4407 12.2905 26.7242 12.3877Z" fill="#00BDB9" stroke="#006B7E" stroke-width="1.5"/>
</svg>
